<?xml version="1.0" encoding="utf-8"?>
<!-- Generator: Adobe Illustrator 23.1.1, SVG Export Plug-In . SVG Version: 6.00 Build 0)  -->
<svg version="1.1" xmlns="http://www.w3.org/2000/svg" xmlns:xlink="http://www.w3.org/1999/xlink" x="0px" y="0px" width="500px"
	 height="500px" viewBox="0 0 500 500" style="enable-background:new 0 0 500 500;" xml:space="preserve">
<style type="text/css">
	.st0{fill:#F5F5F5;}
	.st1{fill:#EBEBEB;}
	.st2{fill:#E0E0E0;}
	.st3{fill:#FFFFFF;}
	.st4{display:none;}
	.st5{display:inline;}
	.st6{fill:#263238;}
	.st7{fill:#455A64;}
	.st8{fill:#FF725E;}
	.st9{fill:#FAFAFA;}
	.st10{font-family:'MyriadPro-Regular';}
	.st11{font-size:9.71px;}
	.st12{opacity:0.3;}
	.st13{fill:#C17560;}
	.st14{fill:#6F4439;}
	.st15{opacity:0.6;}
</style>
<g id="Background_Complete">
	<g>
		<g>
			<ellipse class="st0" cx="270.4" cy="462.3" rx="95.2" ry="17.4"/>
		</g>
		<g>
			<g>
				<path class="st1" d="M346.4,461.4c0,0,0-0.3-0.2-0.8c-0.2-0.5-0.8-1.1-1.7-1.7c-1.8-1.1-4.7-2.2-8.6-3.2
					c-7.8-1.9-19.3-3.5-33.6-4.5c-14.3-1-31.4-1.4-50.3-0.7c-9.5,0.3-19.4,0.9-29.6,2.1c-5.1,0.6-10.3,1.3-15.5,2.4
					c-2.6,0.5-5.2,1.2-7.7,2c-1.3,0.4-2.5,0.9-3.7,1.6c-0.6,0.3-1.1,0.7-1.6,1.1c-0.5,0.4-0.8,1-0.8,1.6c0,0.6,0.4,1.1,0.8,1.6
					c0.5,0.4,1,0.8,1.6,1.1c1.2,0.6,2.4,1.1,3.7,1.6c2.5,0.9,5.1,1.5,7.7,2c5.2,1.1,10.4,1.8,15.5,2.4c10.2,1.2,20.2,1.8,29.6,2.1
					c18.9,0.6,36,0.2,50.3-0.7c14.3-1,25.8-2.5,33.6-4.5c3.9-1,6.8-2,8.6-3.2c0.9-0.6,1.4-1.2,1.7-1.7
					C346.4,461.6,346.3,461.3,346.4,461.4c0,0,0.1,0.3-0.2,0.8c-0.2,0.5-0.8,1.1-1.7,1.7c-1.8,1.2-4.7,2.3-8.6,3.3
					c-7.8,2-19.3,3.6-33.6,4.6c-14.3,1-31.4,1.5-50.3,0.8c-9.5-0.3-19.4-0.9-29.7-2.1c-5.1-0.6-10.3-1.3-15.6-2.4
					c-2.6-0.5-5.2-1.2-7.8-2c-1.3-0.4-2.6-0.9-3.8-1.6c-0.6-0.3-1.2-0.7-1.7-1.2c-0.5-0.5-1-1.1-1-2c0-0.8,0.5-1.5,1-1.9
					c0.5-0.5,1.1-0.9,1.7-1.2c1.2-0.7,2.5-1.2,3.8-1.6c2.6-0.9,5.2-1.5,7.8-2c5.2-1.1,10.4-1.8,15.6-2.4c10.3-1.2,20.2-1.8,29.7-2.1
					c18.9-0.6,36-0.2,50.3,0.8c14.3,1,25.8,2.6,33.6,4.6c3.9,1,6.8,2.1,8.6,3.3c0.9,0.6,1.4,1.2,1.7,1.7
					C346.4,461.1,346.4,461.4,346.4,461.4z"/>
			</g>
		</g>
		<g>
			<g>
				<path class="st1" d="M319,460.6c0,0,0-0.2-0.2-0.5c-0.1-0.3-0.5-0.7-1.1-1c-1.1-0.7-3-1.4-5.4-2c-4.9-1.2-12.2-2.2-21.3-2.8
					c-9-0.6-19.9-0.9-31.8-0.4c-6,0.2-12.3,0.6-18.7,1.3c-3.2,0.4-6.5,0.8-9.8,1.5c-1.6,0.3-3.3,0.7-4.9,1.3c-0.8,0.3-1.6,0.6-2.3,1
					c-0.7,0.4-1.5,0.9-1.5,1.6c0,0.7,0.8,1.2,1.5,1.6c0.7,0.4,1.5,0.7,2.3,1c1.6,0.5,3.3,0.9,4.9,1.3c3.3,0.7,6.6,1.1,9.8,1.5
					c6.5,0.7,12.8,1.1,18.7,1.3c12,0.4,22.8,0.2,31.8-0.4c9-0.6,16.3-1.6,21.3-2.8c2.5-0.6,4.3-1.3,5.4-2c0.5-0.4,0.9-0.7,1.1-1
					C319,460.7,319,460.5,319,460.6c0,0,0,0.2-0.1,0.5c-0.1,0.3-0.5,0.7-1,1.1c-1.1,0.8-3,1.5-5.4,2.1c-4.9,1.3-12.2,2.3-21.3,3
					c-9.1,0.6-19.9,0.9-31.9,0.6c-6-0.2-12.3-0.6-18.8-1.3c-3.2-0.4-6.5-0.8-9.9-1.5c-1.7-0.3-3.3-0.7-5-1.3c-0.8-0.3-1.6-0.6-2.4-1
					c-0.4-0.2-0.8-0.5-1.1-0.8c-0.3-0.3-0.7-0.7-0.7-1.3c0-0.6,0.4-1,0.7-1.3c0.3-0.3,0.7-0.6,1.1-0.8c0.8-0.4,1.6-0.7,2.4-1
					c1.6-0.5,3.3-0.9,5-1.3c3.3-0.7,6.6-1.1,9.9-1.5c6.5-0.7,12.8-1.1,18.8-1.3c12-0.4,22.8-0.1,31.9,0.6c9.1,0.7,16.4,1.7,21.3,3
					c2.5,0.6,4.3,1.3,5.4,2.1c0.5,0.4,0.9,0.8,1,1.1C319,460.4,319,460.6,319,460.6z"/>
			</g>
		</g>
		<g>
			<g>
				<path class="st1" d="M296.9,460.5c0,0,0-0.4-0.6-0.7c-0.6-0.4-1.5-0.7-2.7-1c-2.5-0.6-6.1-1.1-10.6-1.4
					c-4.5-0.3-9.9-0.4-15.9-0.2c-3,0.1-6.1,0.3-9.4,0.7c-1.6,0.2-3.3,0.4-4.9,0.8c-0.8,0.2-1.6,0.4-2.4,0.6
					c-0.4,0.1-0.8,0.3-1.1,0.5c-0.3,0.2-0.7,0.5-0.7,0.7c0,0.2,0.3,0.5,0.7,0.7c0.4,0.2,0.7,0.3,1.1,0.5c0.8,0.3,1.6,0.5,2.4,0.6
					c1.6,0.3,3.3,0.6,4.9,0.8c3.2,0.4,6.4,0.6,9.4,0.7c6,0.2,11.4,0.1,15.9-0.2c4.5-0.3,8.2-0.8,10.6-1.4c1.2-0.3,2.2-0.6,2.7-1
					C296.9,460.9,296.9,460.5,296.9,460.5c0,0,0,0.1,0,0.3c-0.1,0.2-0.2,0.4-0.5,0.6c-0.6,0.4-1.5,0.8-2.7,1.1
					c-2.5,0.7-6.1,1.2-10.6,1.5c-4.5,0.3-9.9,0.5-15.9,0.3c-3-0.1-6.2-0.3-9.4-0.6c-1.6-0.2-3.3-0.4-4.9-0.8
					c-0.8-0.2-1.7-0.4-2.5-0.7c-0.4-0.1-0.8-0.3-1.2-0.5c-0.4-0.2-0.9-0.5-1-1.2c0.1-0.7,0.6-0.9,1-1.2c0.4-0.2,0.8-0.4,1.2-0.5
					c0.8-0.3,1.7-0.5,2.5-0.7c1.7-0.3,3.3-0.6,4.9-0.8c3.3-0.4,6.4-0.5,9.4-0.6c6-0.2,11.4,0,15.9,0.3c4.5,0.3,8.2,0.9,10.6,1.5
					c1.2,0.3,2.2,0.7,2.7,1.1c0.3,0.2,0.5,0.4,0.5,0.6C296.9,460.5,296.9,460.5,296.9,460.5z"/>
			</g>
		</g>
	</g>
	<g>
		<g>
			<g>
				<rect x="30.7" y="129.4" class="st0" width="30.2" height="11.9"/>
			</g>
		</g>
		<g>
			<g>
				<g>
					<path class="st2" d="M48.8,153.1c0,0,0-0.1,0-0.2c0-0.2,0-0.4,0-0.6c0-0.6,0-1.3,0-2.3c0-2.1,0-5-0.1-8.8l0.1,0.1
						c-8.5,0-22,0.1-37.3,0.1c0.1-0.1-0.2,0.2,0.2-0.2v0v0v0v0v0v0.1v0.2l0,0.4v0.8c0,0.5,0,1,0,1.5c0,1,0,2,0,3c0,2,0,4,0,5.9
						l-0.2-0.2c10.6,0,19.9,0.1,26.6,0.1c3.3,0,6,0,7.8,0.1c0.9,0,1.6,0,2.1,0c0.2,0,0.4,0,0.6,0C48.8,153.1,48.8,153.1,48.8,153.1
						c0,0-0.1,0-0.2,0c-0.1,0-0.3,0-0.5,0c-0.5,0-1.2,0-2.1,0c-1.8,0-4.5,0-7.8,0.1c-6.7,0-16,0.1-26.7,0.1l-0.2,0l0-0.2
						c0-1.9,0-3.9,0-5.9c0-1,0-2,0-3c0-0.5,0-1,0-1.5l0-0.8v-0.4v-0.2v-0.1v0v0v0v0v0c0.4-0.5,0.1-0.1,0.2-0.2
						c15.2,0,28.7,0.1,37.3,0.1l0.1,0l0,0.1c0,3.8,0,6.8-0.1,8.8c0,1,0,1.8,0,2.3c0,0.2,0,0.4,0,0.6C48.8,153,48.8,153.1,48.8,153.1
						z"/>
				</g>
			</g>
		</g>
	</g>
	<g>
		<g>
			<g>
				<rect x="293.7" y="391.6" class="st1" width="48.7" height="12.9"/>
			</g>
		</g>
		<g>
			<g>
				<g>
					<path class="st2" d="M321.7,418c0,0,0-0.1,0-0.2c0-0.2,0-0.4,0-0.7c0-0.6,0-1.5,0-2.5c0-2.2,0-5.4-0.1-9.4l0.2,0.2
						c-11.1,0-28.8,0.1-48.6,0.1c0.1-0.1-0.2,0.2,0.2-0.2v0v0v0v0v0.1v0.1v0.2l0,0.4v0.8c0,0.5,0,1.1,0,1.6c0,1.1,0,2.2,0,3.2
						c0,2.1,0,4.3,0,6.3l-0.2-0.2c13.9,0,26,0.1,34.7,0.1c4.3,0,7.8,0.1,10.2,0.1c1.2,0,2.1,0,2.8,0c0.3,0,0.5,0,0.7,0
						C321.6,418,321.7,418,321.7,418c0,0-0.1,0-0.2,0c-0.2,0-0.4,0-0.7,0c-0.6,0-1.6,0-2.7,0c-2.4,0-5.9,0-10.2,0.1
						c-8.7,0-20.9,0.1-34.8,0.1l-0.2,0l0-0.2c0-2.1,0-4.2,0-6.3c0-1.1,0-2.2,0-3.2c0-0.5,0-1.1,0-1.6l0-0.8v-0.4v-0.2v-0.1v-0.1v0v0
						v0v0c0.5-0.5,0.1-0.1,0.3-0.2c19.9,0,37.5,0.1,48.6,0.1l0.2,0l0,0.2c0,4.1-0.1,7.3-0.1,9.5c0,1.1,0,1.9,0,2.5
						c0,0.3,0,0.5,0,0.6C321.7,418,321.7,418,321.7,418z"/>
				</g>
			</g>
		</g>
	</g>
	<g>
		<g>
			<g>
				<rect x="203.4" y="133.9" class="st0" width="48.7" height="12.9"/>
			</g>
		</g>
		<g>
			<g>
				<g>
					<path class="st2" d="M231.4,160.3c0,0,0-0.1,0-0.2c0-0.2,0-0.4,0-0.7c0-0.6,0-1.5,0-2.5c0-2.2,0-5.4-0.1-9.4l0.2,0.2
						c-11.1,0-28.8,0.1-48.6,0.1c0.1-0.1-0.2,0.2,0.2-0.2v0v0v0v0v0.1v0.1v0.2l0,0.4v0.8c0,0.5,0,1.1,0,1.6c0,1.1,0,2.2,0,3.2
						c0,2.1,0,4.3,0,6.3l-0.2-0.2c13.9,0,26,0.1,34.7,0.1c4.3,0,7.8,0.1,10.2,0.1c1.2,0,2.1,0,2.8,0c0.3,0,0.5,0,0.7,0
						C231.4,160.3,231.4,160.3,231.4,160.3c0,0-0.1,0-0.2,0c-0.2,0-0.4,0-0.7,0c-0.6,0-1.6,0-2.7,0c-2.4,0-5.9,0-10.2,0.1
						c-8.7,0-20.9,0.1-34.8,0.1l-0.2,0l0-0.2c0-2.1,0-4.2,0-6.3c0-1.1,0-2.2,0-3.2c0-0.5,0-1.1,0-1.6l0-0.8v-0.4v-0.2v-0.1v-0.1v0v0
						v0v0c0.5-0.5,0.1-0.1,0.3-0.2c19.9,0,37.5,0.1,48.6,0.1l0.2,0l0,0.2c0,4.1-0.1,7.3-0.1,9.5c0,1.1,0,1.9,0,2.5
						c0,0.3,0,0.5,0,0.6C231.5,160.3,231.4,160.3,231.4,160.3z"/>
				</g>
			</g>
		</g>
		<g>
			<g>
				<g>
					<path class="st2" d="M346.7,46.3c0,0,0-0.1,0-0.2c0-0.2,0-0.4,0-0.7c0-0.6,0-1.5,0-2.5c0-2.2,0-5.4-0.1-9.4l0.2,0.2
						c-11.1,0-28.8,0.1-48.6,0.1c0.1-0.1-0.2,0.2,0.2-0.2v0v0v0v0v0.1v0.1v0.2l0,0.4v0.8c0,0.5,0,1.1,0,1.6c0,1.1,0,2.2,0,3.2
						c0,2.1,0,4.3,0,6.3l-0.2-0.2c13.9,0,26,0.1,34.7,0.1c4.3,0,7.8,0.1,10.2,0.1c1.2,0,2.1,0,2.8,0c0.3,0,0.5,0,0.7,0
						C346.6,46.3,346.7,46.3,346.7,46.3c0,0-0.1,0-0.2,0c-0.2,0-0.4,0-0.7,0c-0.6,0-1.6,0-2.7,0c-2.4,0-5.9,0-10.2,0.1
						c-8.7,0-20.9,0.1-34.8,0.1l-0.2,0l0-0.2c0-2.1,0-4.2,0-6.3c0-1.1,0-2.2,0-3.2c0-0.5,0-1.1,0-1.6l0-0.8v-0.4v-0.2v-0.1v-0.1v0v0
						v0v0c0.5-0.5,0.1-0.1,0.3-0.2c19.9,0,37.5,0.1,48.6,0.1l0.2,0l0,0.2c0,4.1-0.1,7.3-0.1,9.5c0,1.1,0,1.9,0,2.5
						c0,0.3,0,0.5,0,0.6C346.7,46.2,346.7,46.3,346.7,46.3z"/>
				</g>
			</g>
		</g>
	</g>
	<g>
		<g>
			<g>
				<rect x="431.4" y="194.1" class="st0" width="48.7" height="12.9"/>
			</g>
		</g>
		<g>
			<g>
				<g>
					<path class="st2" d="M467,220.5c0,0,0-0.1,0-0.2c0-0.2,0-0.4,0-0.7c0-0.6,0-1.5,0-2.5c0-2.2,0-5.4-0.1-9.4l0.2,0.2
						c-11.1,0-28.8,0.1-48.6,0.1c0.1-0.1-0.2,0.2,0.2-0.2v0v0v0v0v0.1v0.1v0.2l0,0.4v0.8c0,0.5,0,1.1,0,1.6c0,1.1,0,2.2,0,3.2
						c0,2.1,0,4.3,0,6.3l-0.2-0.2c13.9,0,26,0.1,34.7,0.1c4.3,0,7.8,0.1,10.2,0.1c1.2,0,2.1,0,2.8,0c0.3,0,0.5,0,0.7,0
						C466.9,220.5,467,220.5,467,220.5c0,0-0.1,0-0.2,0c-0.2,0-0.4,0-0.7,0c-0.6,0-1.6,0-2.7,0c-2.4,0-5.9,0-10.2,0.1
						c-8.7,0-20.9,0.1-34.8,0.1l-0.2,0l0-0.2c0-2.1,0-4.2,0-6.3c0-1.1,0-2.2,0-3.2c0-0.5,0-1.1,0-1.6l0-0.8V208v-0.2v-0.1v-0.1v0v0
						v0v0c0.5-0.5,0.1-0.1,0.3-0.2c19.9,0,37.5,0.1,48.6,0.1l0.2,0l0,0.2c0,4.1-0.1,7.3-0.1,9.5c0,1.1,0,1.9,0,2.5
						c0,0.3,0,0.5,0,0.6C467,220.4,467,220.5,467,220.5z"/>
				</g>
			</g>
		</g>
	</g>
	<g>
		<g>
			<g>
				<rect x="81" y="60.2" class="st2" width="90.8" height="150.3"/>
			</g>
		</g>
		<g>
			<g>
				<rect x="78" y="60.2" class="st1" width="90.8" height="150.3"/>
			</g>
		</g>
		<g>
			<g>
				<rect x="81.9" y="63.3" class="st3" width="83" height="144.2"/>
			</g>
		</g>
		<g>
			<g>
				<g>
					<rect x="97.7" y="82" class="st1" width="51.1" height="106.7"/>
				</g>
			</g>
			<g>
				<g>
					<path class="st2" d="M97.7,150.9c-0.1-10,8.8-19.7,18.7-21.1c4.7-0.7,9.7,0.3,14.1-1.5c7.8-3.2,10.3-13.6,18.2-16.7l0.4,77.1
						H97.7V150.9z"/>
				</g>
			</g>
		</g>
	</g>
	<g>
		<g>
			<g>
				<g>
					<path class="st2" d="M147.2,39.4c0,0,0-0.1,0-0.2c0-0.2,0-0.4,0-0.7c0-0.6,0-1.5,0-2.5c0-2.2,0-5.4-0.1-9.4l0.2,0.2
						c-11.1,0-28.8,0.1-48.6,0.1c0.1-0.1-0.3,0.2,0.2-0.2v0v0v0v0v0.1v0.1l0,0.2v0.4v0.8c0,0.5,0,1.1,0,1.6c0,1.1,0,2.2,0,3.2
						c0,2.1,0,4.3,0,6.3l-0.2-0.2c13.9,0,26,0.1,34.7,0.1c4.3,0,7.8,0.1,10.2,0.1c1.2,0,2.1,0,2.8,0c0.3,0,0.5,0,0.7,0
						C147.1,39.4,147.2,39.4,147.2,39.4c0,0-0.1,0-0.2,0c-0.2,0-0.4,0-0.7,0c-0.6,0-1.6,0-2.7,0c-2.4,0-5.9,0-10.2,0.1
						c-8.7,0-20.9,0.1-34.8,0.1l-0.2,0l0-0.2c0-2.1,0-4.2,0-6.3c0-1.1,0-2.2,0-3.2c0-0.5,0-1.1,0-1.6l0-0.8v-0.4v-0.2v-0.1v-0.1v0v0
						v0v0c0.5-0.5,0.1-0.1,0.3-0.2c19.9,0,37.5,0.1,48.6,0.1l0.2,0l0,0.2c0,4.1-0.1,7.3-0.1,9.5c0,1.1,0,1.9,0,2.5
						c0,0.3,0,0.5,0,0.6C147.2,39.3,147.2,39.4,147.2,39.4z"/>
				</g>
			</g>
		</g>
		<g>
			<g>
				<g>
					<path class="st2" d="M153.8,26.5c0,0,0-0.1,0-0.2c0-0.2,0-0.4,0-0.7c0-0.6,0-1.5,0-2.6c0-2.3-0.1-5.4-0.1-9.4l0.2,0.2
						c-7.6,0-17.9,0-29.2,0.1c-0.2,0.2,0.3-0.3,0.2-0.2v0v0v0v0v0.1v0.1l0,0.2v0.4l0,0.8c0,0.6,0,1.1,0,1.7c0,1.1,0,2.2,0,3.3
						c0,2.2,0,4.2,0,6.2l-0.2-0.2c8.4,0,15.7,0.1,20.9,0.1c2.6,0,4.6,0,6.1,0.1c0.7,0,1.2,0,1.6,0C153.6,26.5,153.8,26.5,153.8,26.5
						c0,0-0.2,0-0.5,0c-0.4,0-0.9,0-1.6,0c-1.5,0-3.5,0-6,0.1c-5.2,0-12.6,0.1-21.1,0.1l-0.2,0l0-0.2c0-2,0-4.1,0-6.2
						c0-1.1,0-2.2,0-3.3c0-0.6,0-1.1,0-1.7l0-0.8v-0.4v-0.2v-0.1v-0.1v0v0v0v0c-0.1,0.1,0.5-0.5,0.2-0.2c11.4,0,21.7,0.1,29.2,0.1
						l0.2,0l0,0.2c0,4-0.1,7.2-0.1,9.5c0,1.1,0,1.9,0,2.5C153.8,26.2,153.8,26.5,153.8,26.5z"/>
				</g>
			</g>
		</g>
	</g>
	<g>
		<g>
			<g>
				<g>
					<path class="st2" d="M476.1,118.3c0,0,0-0.1,0-0.3c0-0.2,0-0.4,0-0.7c0-0.7,0-1.6,0-2.8c0-2.5-0.1-6-0.1-10.5l0.2,0.2
						c-12.3,0-32,0.1-54,0.1c0.1-0.1-0.3,0.3,0.3-0.3v0v0v0v0v0.1v0.1l0,0.2v0.5v0.9c0,0.6,0,1.2,0,1.8c0,1.2,0,2.4,0,3.6
						c0,2.4,0,4.7,0,7l-0.3-0.3c15.4,0,28.8,0.1,38.5,0.1c4.8,0,8.7,0.1,11.4,0.1c1.3,0,2.3,0,3.1,0c0.3,0,0.6,0,0.8,0
						C476,118.3,476.1,118.3,476.1,118.3c0,0-0.1,0-0.3,0c-0.2,0-0.5,0-0.8,0c-0.7,0-1.7,0-3,0c-2.7,0-6.5,0-11.3,0.1
						c-9.7,0-23.2,0.1-38.7,0.1l-0.3,0l0-0.3c0-2.3,0-4.6,0-7c0-1.2,0-2.4,0-3.6c0-0.6,0-1.2,0-1.8l0-0.9v-0.5v-0.2v-0.1v-0.1v0v0v0
						v0c0.6-0.6,0.2-0.2,0.3-0.3c22.1,0,41.7,0.1,54,0.1l0.2,0l0,0.2c0,4.5-0.1,8.1-0.1,10.6c0,1.2,0,2.1,0,2.8c0,0.3,0,0.5,0,0.7
						C476.1,118.3,476.1,118.3,476.1,118.3z"/>
				</g>
			</g>
		</g>
		<g>
			<g>
				<g>
					<path class="st2" d="M483.4,104c0,0,0-0.1,0-0.3c0-0.2,0-0.5,0-0.8c0-0.7,0-1.7,0-2.9c0-2.5-0.1-6-0.1-10.4l0.2,0.2
						c-8.4,0-19.8,0-32.5,0.1c-0.2,0.2,0.3-0.3,0.3-0.3v0v0v0v0v0.1V90l0,0.2v0.5l0,0.9c0,0.6,0,1.2,0,1.9c0,1.2,0,2.4,0,3.6
						c0,2.4,0,4.7,0,6.9l-0.3-0.3c9.4,0.1,17.4,0.1,23.2,0.1c2.9,0,5.1,0.1,6.8,0.1c0.8,0,1.4,0,1.8,0
						C483.2,104,483.4,104,483.4,104c0,0-0.2,0-0.6,0c-0.4,0-1,0-1.8,0c-1.6,0-3.9,0-6.7,0.1c-5.8,0-14,0.1-23.4,0.1l-0.3,0l0-0.3
						c0-2.2,0-4.5,0-6.9c0-1.2,0-2.4,0-3.6c0-0.6,0-1.2,0-1.9l0-0.9v-0.5V90v-0.1v-0.1v0v0v0v0c-0.1,0.1,0.5-0.5,0.3-0.3
						c12.6,0,24,0.1,32.5,0.1l0.2,0l0,0.2c0,4.4-0.1,8-0.1,10.5c0,1.2,0,2.1,0,2.8C483.4,103.7,483.4,104.1,483.4,104z"/>
				</g>
			</g>
		</g>
	</g>
</g>
<g id="Background_Simple" class="st4">
	<g class="st5">
		<path class="st0" d="M186.7,58.4l0.7,1.7c5.9,14,4,30.1-5.6,41.8c-1.2,1.5-2.6,2.9-4,4.2c-10.4,9.4-25.7,13-39.3,9.3
			c-8-2.2-15.8-6.8-24-5.9c-10.7,1.1-18,10.8-24,19.7c-6,8.9-13.3,18.6-24,19.7c-6.7,0.7-13.4-2.4-18.7-6.6
			c-14-11.2-19.7-30.8-16.9-48.3c2.8-17.6,13.2-33.2,26.2-45.2c18.2-16.9,42.7-27.8,67.7-27S175,36.2,186.7,58.4z"/>
	</g>
</g>
<g id="Floor">
	<g>
		<g>
			<path class="st6" d="M467.5,435c0,0.1-97,0.3-216.5,0.3c-119.6,0-216.5-0.1-216.5-0.3s96.9-0.3,216.5-0.3
				C370.6,434.8,467.5,434.9,467.5,435z"/>
		</g>
	</g>
</g>
<g id="Device">
	<g>
		<g>
			<g>
				<g>
					<g>
						<g>
							<g>
								<g>
									<g>
										<g>
											<g>
												<g>
													<g>
														<g>
															<g>
																<g>
																	<g>
																		<g>
																			<g>
																				<g>
																					<g>
																						<path class="st6" d="M428.8,375.6l-214.1,0c-5.8,0-10.5-4.7-10.5-10.5l0-316.4c0-5.8,4.7-10.5,10.5-10.5
																							l214.1,0c5.8,0,10.5,4.7,10.5,10.5l0,316.4C439.3,370.9,434.6,375.6,428.8,375.6z"/>
																					</g>
																				</g>
																			</g>
																		</g>
																	</g>
																	<g>
																		<g>
																			<g>
																				<g>
																					<g>
																						<g>
																							<path class="st6" d="M428.8,375.6c0,0,0.2,0,0.7,0c0.2,0,0.5,0,0.9-0.1c0.4,0,0.8-0.1,1.2-0.3
																								c0.9-0.3,2-0.7,3.2-1.6c1.1-0.8,2.3-2,3.2-3.7c0.4-0.8,0.8-1.8,1-2.8c0.2-1,0.2-2.1,0.2-3.3
																								c0-2.3,0-4.8,0-7.6c0-5.5,0-11.8,0-18.9c0-28.5,0-69.8-0.1-120.8c0-25.5,0-53.4,0-83.4c0-15,0-30.5,0-46.5
																								c0-8,0-16.1,0-24.3c0-4.1,0-8.2,0-12.4c0-1,0-2.1-0.2-3.1c-0.2-1-0.5-2-1-2.9c-0.9-1.8-2.4-3.4-4.2-4.4
																								c-0.9-0.5-1.9-0.8-2.9-1c-1-0.2-2.1-0.2-3.1-0.2c-2.1,0-4.2,0-6.4,0c-4.3,0-8.6,0-12.9,0
																								c-8.6,0-17.4,0-26.2,0c-17.6,0-35.7,0-54,0c-36.7,0-74.7,0-113.5,0c-2.4,0-4.7,0.8-6.6,2.4
																								c-1.8,1.5-3.1,3.7-3.5,6c-0.2,1.2-0.2,2.4-0.2,3.6v3.6c0,2.4,0,4.8,0,7.2c0,9.6,0,19.1,0,28.6
																								c0,18.9,0,37.6,0,56c0,36.7,0,72.1,0,105.8c0,33.7,0,65.7,0,95.7c0,3.7,0,7.5,0,11.1c0,1.8,0,3.7,0,5.5
																								c0,0.9,0,1.8,0.1,2.7c0.1,0.9,0.4,1.7,0.7,2.6c1.4,3.3,4.6,5.7,8,6.1c0.9,0.1,1.7,0.1,2.6,0.1
																								c0.9,0,1.8,0,2.6,0c1.8,0,3.5,0,5.2,0c13.9,0,27.3,0,40,0c51,0,92.2,0.1,120.8,0.1c14.3,0,25.3,0,32.8,0
																								c3.8,0,6.6,0,8.5,0C427.8,375.6,428.8,375.6,428.8,375.6s-1,0-2.9,0c-1.9,0-4.8,0-8.5,0
																								c-7.5,0-18.6,0-32.8,0c-28.5,0-69.8,0-120.8,0.1c-12.7,0-26.1,0-40,0c-1.7,0-3.5,0-5.2,0c-0.9,0-1.8,0-2.6,0
																								c-0.9,0-1.8,0-2.7-0.1c-3.6-0.4-6.9-3-8.3-6.3c-0.3-0.9-0.6-1.7-0.7-2.7c-0.2-0.9-0.1-1.8-0.1-2.8
																								c0-1.8,0-3.7,0-5.5c0-3.7,0-7.4,0-11.1c0-30,0-62,0-95.7c0-33.7,0-69.1,0-105.8c0-18.3,0-37,0-56
																								c0-9.5,0-19,0-28.6c0-2.4,0-4.8,0-7.2l0-3.6c0-1.2-0.1-2.4,0.2-3.7c0.5-2.4,1.8-4.7,3.7-6.3
																								c1.9-1.6,4.4-2.5,6.9-2.5c38.9,0,76.9,0,113.5,0c18.3,0,36.4,0,54,0c8.8,0,17.5,0,26.2,0c4.3,0,8.6,0,12.9,0
																								c2.1,0,4.3,0,6.4,0c1,0,2.1,0,3.2,0.2c1.1,0.2,2.1,0.6,3,1.1c1.9,1,3.4,2.6,4.4,4.5c0.5,0.9,0.8,2,1,3
																								c0.2,1.1,0.2,2.1,0.2,3.2c0,4.2,0,8.3,0,12.4c0,8.2,0,16.3,0,24.3c0,16,0,31.5,0,46.5c0,30,0,57.9,0,83.4
																								c0,51-0.1,92.2-0.1,120.8c0,7.1,0,13.5,0,18.9c0,2.7,0,5.3,0,7.6c0,1.2,0,2.3-0.2,3.3c-0.2,1-0.6,2-1,2.8
																								c-0.9,1.7-2.1,2.9-3.2,3.7c-1.2,0.8-2.3,1.3-3.2,1.5c-0.5,0.1-0.9,0.2-1.2,0.3c-0.4,0.1-0.7,0.1-0.9,0.1
																								C429,375.6,428.8,375.6,428.8,375.6z"/>
																						</g>
																					</g>
																				</g>
																			</g>
																		</g>
																	</g>
																</g>
															</g>
														</g>
													</g>
												</g>
											</g>
										</g>
										<g>
											<g>
												<g>
													<g>
														<g>
															<g>
																<g>
																	<g>
																		<g>
																			<g>
																				<g>
																					<g>
																						
																							<ellipse transform="matrix(0.7071 -0.7071 0.7071 0.7071 -159.3535 332.5127)" class="st7" cx="321.7" cy="358.6" rx="9" ry="9"/>
																					</g>
																				</g>
																			</g>
																		</g>
																	</g>
																</g>
															</g>
														</g>
													</g>
												</g>
											</g>
										</g>
									</g>
								</g>
							</g>
						</g>
					</g>
					<g>
						<g>
							<g>
								<g>
									<path class="st7" d="M345.8,56h-48c-1.8,0-3.3-1.5-3.3-3.3l0,0c0-1.8,1.5-3.3,3.3-3.3h48c1.8,0,3.3,1.5,3.3,3.3l0,0
										C349.1,54.5,347.6,56,345.8,56z"/>
								</g>
							</g>
						</g>
					</g>
				</g>
			</g>
			<g>
				<g>
					<g>
						<g>
							<g>
								<g>
									<g>
										<g>
											<g>
												<g>
													<g>
														<g>
															<rect x="211.4" y="62.2" class="st3" width="220.3" height="281.8"/>
														</g>
													</g>
												</g>
											</g>
										</g>
									</g>
								</g>
							</g>
						</g>
					</g>
				</g>
			</g>
		</g>
	</g>
	<g>
		<g>
			<path class="st0" d="M394.5,221.1H248.6c-0.8,0-1.5-0.7-1.5-1.5v-22.8c0-0.8,0.7-1.5,1.5-1.5h145.9c0.8,0,1.5,0.7,1.5,1.5v22.8
				C395.9,220.4,395.3,221.1,394.5,221.1z"/>
		</g>
		<g>
			<g>
				<path class="st6" d="M394.5,221.1c0,0,0.3,0,0.8-0.3c0.2-0.2,0.5-0.5,0.6-0.9c0.1-0.4,0-0.9,0-1.5c0-2.3,0-5.7,0-10.1
					c0-2.2,0-4.6,0-7.3c0-1.3,0-2.7,0-4.2c0-0.7-0.6-1.3-1.3-1.3c-0.7,0-1.5,0-2.3,0c-6.2,0-13.3,0-21.2,0c-31.4,0-74.7,0-122.5,0.1
					c-0.6,0-1.2,0.5-1.2,1.2l0,2.2c0,1.5,0,3,0,4.4c0,3,0,5.9,0,8.8c0,1.5,0,2.9,0,4.4l0,2.2c0,0.3,0,0.8,0,1c0,0.3,0.2,0.6,0.4,0.7
					c0.2,0.2,0.5,0.3,0.8,0.3l1.1,0l2.1,0c1.4,0,2.8,0,4.2,0c11.3,0,22.2,0,32.5,0c20.7,0,39.4,0,55.1,0.1c15.7,0,28.4,0.1,37.1,0.1
					c4.4,0,7.8,0,10.1,0c1.1,0,2,0,2.6,0C394.2,221.1,394.5,221.1,394.5,221.1s-0.3,0-0.9,0c-0.6,0-1.5,0-2.6,0c-2.3,0-5.7,0-10.1,0
					c-8.8,0-21.5,0-37.1,0.1c-15.7,0-34.4,0-55.1,0.1c-10.4,0-21.2,0-32.5,0c-1.4,0-2.8,0-4.2,0l-2.1,0l-1.1,0
					c-0.4,0-0.8-0.1-1.2-0.4c-0.3-0.3-0.6-0.7-0.6-1.1c0-0.4,0-0.7,0-1.1l0-2.2c0-1.4,0-2.9,0-4.4c0-2.9,0-5.8,0-8.8
					c0-1.5,0-3,0-4.4l0-2.2c0-0.9,0.8-1.7,1.7-1.7c47.8,0,91.2,0.1,122.5,0.1c7.8,0,14.9,0,21.2,0c0.8,0,1.5,0,2.3,0
					c0.8,0,1.5,0.8,1.5,1.6c0,1.4,0,2.8,0,4.2c0,2.7,0,5.1,0,7.3c0,4.4,0,7.8,0,10.1c0,0.6,0,1.1,0,1.5c-0.1,0.4-0.4,0.7-0.6,0.9
					c-0.3,0.2-0.5,0.2-0.6,0.2C394.6,221.1,394.5,221.1,394.5,221.1z"/>
			</g>
		</g>
	</g>
	<g>
		<g>
			<path class="st0" d="M394.6,256.4H248.7c-0.8,0-1.5-0.7-1.5-1.5v-22.8c0-0.8,0.7-1.5,1.5-1.5h145.9c0.8,0,1.5,0.7,1.5,1.5v22.8
				C396.1,255.7,395.4,256.4,394.6,256.4z"/>
		</g>
		<g>
			<g>
				<path class="st6" d="M394.6,256.4c0,0,0.3,0,0.8-0.3c0.2-0.2,0.5-0.5,0.6-0.9c0.1-0.4,0-0.9,0-1.5c0-2.3,0-5.7,0-10.1
					c0-2.2,0-4.6,0-7.3c0-1.3,0-2.7,0-4.2c0-0.7-0.6-1.3-1.3-1.3c-0.7,0-1.5,0-2.3,0c-6.2,0-13.3,0-21.2,0c-31.4,0-74.7,0-122.5,0.1
					c-0.6,0-1.2,0.5-1.2,1.2l0,2.2c0,1.5,0,3,0,4.4c0,3,0,5.9,0,8.8c0,1.5,0,2.9,0,4.4l0,2.2c0,0.3,0,0.8,0,1c0,0.3,0.2,0.6,0.4,0.7
					c0.2,0.2,0.5,0.3,0.8,0.3l1.1,0l2.1,0c1.4,0,2.8,0,4.2,0c11.3,0,22.2,0,32.5,0c20.7,0,39.4,0,55.1,0.1c15.7,0,28.4,0.1,37.1,0.1
					c4.4,0,7.8,0,10.1,0c1.1,0,2,0,2.6,0C394.3,256.4,394.6,256.4,394.6,256.4s-0.3,0-0.9,0c-0.6,0-1.5,0-2.6,0c-2.3,0-5.7,0-10.1,0
					c-8.8,0-21.5,0-37.1,0.1c-15.7,0-34.4,0-55.1,0.1c-10.4,0-21.2,0-32.5,0c-1.4,0-2.8,0-4.2,0l-2.1,0l-1.1,0
					c-0.4,0-0.8-0.1-1.2-0.4c-0.3-0.3-0.6-0.7-0.6-1.1c0-0.4,0-0.7,0-1.1l0-2.2c0-1.4,0-2.9,0-4.4c0-2.9,0-5.8,0-8.8
					c0-1.5,0-3,0-4.4l0-2.2c0-0.9,0.8-1.7,1.7-1.7c47.8,0,91.2,0.1,122.5,0.1c7.8,0,14.9,0,21.2,0c0.8,0,1.5,0,2.3,0
					c0.8,0,1.5,0.8,1.5,1.6c0,1.4,0,2.8,0,4.2c0,2.7,0,5.1,0,7.3c0,4.4,0,7.8,0,10.1c0,0.6,0,1.1,0,1.5c-0.1,0.4-0.4,0.7-0.6,0.9
					c-0.3,0.2-0.5,0.2-0.6,0.2C394.7,256.4,394.6,256.4,394.6,256.4z"/>
			</g>
		</g>
	</g>
	<g>
		<path class="st8" d="M394.9,296.2H249c-0.8,0-1.5-0.7-1.5-1.5v-22.8c0-0.8,0.7-1.5,1.5-1.5h145.9c0.8,0,1.5,0.7,1.5,1.5v22.8
			C396.3,295.5,395.7,296.2,394.9,296.2z"/>
	</g>
	<g>
		<path class="st3" d="M308.5,280.6h1.7v4.6h2.8v1.3h-4.5V280.6z"/>
		<path class="st3" d="M313.3,284.2c0-1.4,1.1-2.4,2.6-2.4c1.5,0,2.6,1,2.6,2.4c0,1.4-1.1,2.4-2.6,2.4
			C314.4,286.6,313.3,285.6,313.3,284.2z M316.8,284.2c0-0.7-0.4-1.1-1-1.1c-0.5,0-1,0.4-1,1.1c0,0.7,0.4,1.1,1,1.1
			C316.4,285.3,316.8,284.9,316.8,284.2z"/>
		<path class="st3" d="M324.2,281.9v3.8c0,1.7-1,2.6-2.7,2.6c-0.9,0-1.7-0.2-2.3-0.6l0.6-1.1c0.4,0.3,1,0.5,1.6,0.5
			c0.9,0,1.2-0.4,1.2-1.1v-0.2c-0.3,0.4-0.8,0.5-1.4,0.5c-1.2,0-2.3-0.9-2.3-2.2c0-1.4,1-2.2,2.3-2.2c0.6,0,1.1,0.2,1.4,0.6v-0.6
			H324.2z M322.6,284c0-0.6-0.4-0.9-1-0.9c-0.6,0-1,0.4-1,0.9c0,0.6,0.4,0.9,1,0.9C322.1,285,322.6,284.6,322.6,284z"/>
		<path class="st3" d="M327.8,280.6h1.7v5.9h-1.7V280.6z"/>
		<path class="st3" d="M335.5,283.9v2.6h-1.6v-2.4c0-0.7-0.3-0.9-0.8-0.9c-0.5,0-0.9,0.3-0.9,1.1v2.2h-1.6v-4.6h1.5v0.5
			c0.4-0.4,0.9-0.6,1.5-0.6C334.6,281.8,335.5,282.4,335.5,283.9z"/>
	</g>
	<g>
		<path class="st6" d="M258.9,243.7c0,1.2-1,2.2-2.2,2.2s-2.2-1-2.2-2.2c0-1.2,1-2.2,2.2-2.2S258.9,242.4,258.9,243.7z"/>
	</g>
	<g>
		<path class="st6" d="M265.9,243.7c0,1.2-1,2.2-2.2,2.2c-1.2,0-2.2-1-2.2-2.2c0-1.2,1-2.2,2.2-2.2
			C264.9,241.4,265.9,242.4,265.9,243.7z"/>
	</g>
	<g>
		<path class="st6" d="M272.9,243.7c0,1.2-1,2.2-2.2,2.2c-1.2,0-2.2-1-2.2-2.2c0-1.2,1-2.2,2.2-2.2
			C271.9,241.4,272.9,242.4,272.9,243.7z"/>
	</g>
	<g>
		<path class="st6" d="M280,243.7c0,1.2-1,2.2-2.2,2.2c-1.2,0-2.2-1-2.2-2.2c0-1.2,1-2.2,2.2-2.2C279,241.4,280,242.4,280,243.7z"/>
	</g>
	<g>
		<path class="st6" d="M287,243.7c0,1.2-1,2.2-2.2,2.2c-1.2,0-2.2-1-2.2-2.2c0-1.2,1-2.2,2.2-2.2C286,241.4,287,242.4,287,243.7z"/>
	</g>
	<g>
		<path class="st6" d="M294,243.7c0,1.2-1,2.2-2.2,2.2c-1.2,0-2.2-1-2.2-2.2c0-1.2,1-2.2,2.2-2.2C293,241.4,294,242.4,294,243.7z"/>
	</g>
	<g>
		<path class="st6" d="M301.1,243.7c0,1.2-1,2.2-2.2,2.2c-1.2,0-2.2-1-2.2-2.2c0-1.2,1-2.2,2.2-2.2
			C300.1,241.4,301.1,242.4,301.1,243.7z"/>
	</g>
	<g>
		<path class="st6" d="M308.1,243.7c0,1.2-1,2.2-2.2,2.2s-2.2-1-2.2-2.2c0-1.2,1-2.2,2.2-2.2S308.1,242.4,308.1,243.7z"/>
	</g>
	<g>
		<path class="st2" d="M384.5,242h-0.6v-0.8c0-1.5-1.2-2.8-2.8-2.8s-2.8,1.2-2.8,2.8v0.8h-0.8c-0.6,0-1,0.5-1,1v4.5c0,0.6,0.5,1,1,1
			h7c0.6,0,1-0.5,1-1v-4.5C385.5,242.5,385.1,242,384.5,242z M382.1,247.1H380l0.5-1.4c-0.4-0.2-0.7-0.6-0.7-1
			c0-0.6,0.5-1.2,1.2-1.2c0.6,0,1.2,0.5,1.2,1.2c0,0.5-0.3,0.8-0.7,1L382.1,247.1z M383.1,242h-3.9v-0.8c0-1.1,0.9-1.9,1.9-1.9
			s1.9,0.9,1.9,1.9V242z"/>
	</g>
	<g>
		<g>
			<g>
				<circle class="st9" cx="321.9" cy="137.3" r="44.5"/>
			</g>
			<g>
				<g>
					<path class="st6" d="M366.4,137.3c0,0,0-0.2-0.1-0.7c0-0.5-0.1-1.2-0.1-2.1c0-0.5-0.1-1-0.1-1.6c-0.1-0.6-0.2-1.2-0.3-1.9
						c-0.1-0.7-0.2-1.4-0.3-2.2c-0.1-0.8-0.4-1.6-0.6-2.4c-0.8-3.4-2.4-7.5-4.9-11.8c-2.6-4.3-6.2-8.8-11.3-12.6
						c-0.6-0.5-1.3-0.9-1.9-1.4c-0.7-0.4-1.4-0.8-2.1-1.3c-0.7-0.4-1.4-0.9-2.2-1.2c-0.8-0.4-1.5-0.7-2.3-1.1
						c-0.4-0.2-0.8-0.4-1.2-0.6c-0.4-0.1-0.8-0.3-1.2-0.4c-0.8-0.3-1.7-0.6-2.5-0.9c-0.8-0.3-1.7-0.5-2.6-0.7
						c-0.9-0.2-1.8-0.5-2.7-0.6c-1.8-0.3-3.7-0.6-5.6-0.6c-1,0-1.9-0.1-2.9-0.1c-1,0.1-1.9,0.1-2.9,0.2c-0.5,0-1,0-1.5,0.1
						c-0.5,0.1-1,0.2-1.5,0.2c-1,0.2-2,0.3-3,0.5c-2,0.5-4,0.9-5.9,1.7c-2,0.6-3.9,1.6-5.8,2.5c-0.9,0.5-1.8,1.1-2.8,1.6
						c-0.5,0.3-0.9,0.5-1.4,0.9l-1.3,1c-1.8,1.2-3.4,2.8-5,4.3c-0.7,0.8-1.5,1.6-2.2,2.5l-0.6,0.6l-0.5,0.7l-1,1.4l-1,1.4l-0.9,1.5
						l-0.9,1.5l-0.4,0.7l-0.4,0.8c-0.5,1-1,2.1-1.5,3.1c-0.4,1.1-0.8,2.2-1.2,3.3c-1.4,4.4-2.2,9.2-2.3,14c0.1,4.8,0.8,9.5,2.3,14
						c0.4,1.1,0.8,2.2,1.2,3.3c0.5,1,1,2.1,1.5,3.1l0.4,0.8l0.4,0.7l0.9,1.5l0.9,1.5l1,1.4l1,1.4l0.5,0.7l0.6,0.6
						c0.8,0.8,1.5,1.7,2.2,2.5c1.6,1.5,3.2,3,5,4.3l1.3,1c0.4,0.3,0.9,0.6,1.4,0.9c0.9,0.5,1.8,1.1,2.8,1.6c1.9,0.9,3.8,1.9,5.8,2.5
						c1.9,0.8,3.9,1.2,5.9,1.7c1,0.2,2,0.3,3,0.5c0.5,0.1,1,0.2,1.5,0.2c0.5,0.1,1,0.1,1.5,0.1c1,0.1,2,0.1,2.9,0.2
						c1,0,1.9-0.1,2.9-0.1c1.9,0,3.8-0.4,5.6-0.6c0.9-0.1,1.8-0.4,2.7-0.6c0.9-0.2,1.8-0.4,2.6-0.7c0.8-0.3,1.7-0.6,2.5-0.9
						c0.4-0.1,0.8-0.3,1.2-0.4c0.4-0.2,0.8-0.4,1.2-0.6c0.8-0.4,1.5-0.7,2.3-1.1c0.8-0.3,1.4-0.8,2.2-1.2c0.7-0.4,1.4-0.8,2.1-1.3
						c0.6-0.5,1.3-1,1.9-1.4c5-3.8,8.7-8.3,11.3-12.6c2.5-4.3,4.1-8.4,4.9-11.8c0.2-0.9,0.5-1.6,0.6-2.4c0.1-0.8,0.2-1.5,0.3-2.2
						c0.1-0.7,0.2-1.3,0.3-1.9c0-0.6,0.1-1.1,0.1-1.6c0.1-0.9,0.1-1.6,0.1-2.1C366.4,137.5,366.4,137.3,366.4,137.3s0,0.2,0,0.7
						c0,0.5,0,1.2-0.1,2.1c0,0.5,0,1-0.1,1.6c-0.1,0.6-0.2,1.2-0.3,1.9c-0.1,0.7-0.2,1.4-0.3,2.2c-0.1,0.8-0.4,1.6-0.6,2.4
						c-0.8,3.5-2.3,7.6-4.9,11.9c-2.5,4.3-6.2,8.9-11.3,12.7c-0.6,0.5-1.3,1-1.9,1.4c-0.7,0.4-1.4,0.9-2.1,1.3
						c-0.7,0.4-1.4,0.9-2.2,1.3c-0.8,0.4-1.5,0.7-2.3,1.1c-0.4,0.2-0.8,0.4-1.2,0.6c-0.4,0.2-0.8,0.3-1.2,0.5
						c-0.8,0.3-1.7,0.6-2.5,0.9c-0.9,0.3-1.7,0.5-2.6,0.7c-0.9,0.2-1.8,0.5-2.7,0.6c-1.8,0.3-3.7,0.7-5.7,0.7c-1,0-1.9,0.1-2.9,0.1
						c-1,0-2-0.1-3-0.1c-0.5,0-1,0-1.5-0.1c-0.5-0.1-1-0.2-1.5-0.2c-1-0.2-2-0.3-3-0.5c-2-0.5-4-0.9-6-1.7c-2-0.6-3.9-1.6-5.8-2.6
						c-0.9-0.5-1.9-1.1-2.8-1.7c-0.5-0.3-0.9-0.5-1.4-0.9l-1.3-1c-1.8-1.2-3.4-2.8-5.1-4.3c-0.8-0.8-1.5-1.7-2.3-2.5l-0.6-0.6
						l-0.5-0.7l-1-1.4l-1-1.4l-0.9-1.5l-0.9-1.5l-0.5-0.7l-0.4-0.8c-0.5-1-1-2.1-1.5-3.2c-0.4-1.1-0.8-2.2-1.2-3.3
						c-1.5-4.5-2.2-9.3-2.3-14.1c0.1-4.9,0.9-9.6,2.3-14.1c0.4-1.1,0.8-2.2,1.2-3.3c0.5-1.1,1-2.1,1.5-3.2l0.4-0.8l0.5-0.7l0.9-1.5
						l0.9-1.5l1-1.4l1-1.4l0.5-0.7l0.6-0.6c0.8-0.8,1.5-1.7,2.3-2.5c1.7-1.5,3.3-3.1,5.1-4.3l1.3-1c0.4-0.3,0.9-0.6,1.4-0.9
						c0.9-0.6,1.8-1.1,2.8-1.7c1.9-0.9,3.8-1.9,5.8-2.6c1.9-0.8,4-1.2,6-1.7c1-0.2,2-0.3,3-0.5c0.5-0.1,1-0.2,1.5-0.2
						c0.5-0.1,1-0.1,1.5-0.1c1,0,2-0.1,3-0.1c1,0,1.9,0.1,2.9,0.1c1.9,0,3.8,0.4,5.6,0.7c0.9,0.1,1.8,0.4,2.7,0.6
						c0.9,0.2,1.8,0.4,2.6,0.7c0.8,0.3,1.7,0.6,2.5,0.9c0.4,0.2,0.8,0.3,1.2,0.5c0.4,0.2,0.8,0.4,1.2,0.6c0.8,0.4,1.6,0.8,2.3,1.1
						c0.8,0.4,1.5,0.9,2.2,1.3c0.7,0.4,1.4,0.8,2.1,1.3c0.6,0.5,1.3,1,1.9,1.4c5.1,3.9,8.7,8.4,11.3,12.7c2.5,4.3,4.1,8.4,4.9,11.9
						c0.2,0.9,0.5,1.7,0.6,2.4c0.1,0.8,0.2,1.5,0.3,2.2c0.1,0.7,0.2,1.3,0.3,1.9c0,0.6,0,1.1,0.1,1.6c0,0.9,0.1,1.6,0.1,2.1
						C366.4,137,366.4,137.3,366.4,137.3z"/>
				</g>
			</g>
		</g>
		<g>
			<g>
				<g>
					<g>
						<g>
							<g>
								<g>
									<g>
										<g>
											<path class="st2" d="M326.3,137.9c3.8-1.5,6.4-5.1,6.5-9.4c0-5.6-4.5-10.2-10.1-10.2c-5.6,0-10.2,4.5-10.2,10.1
												c0,4.3,2.7,8,6.5,9.5c-15.6,2.2-14.9,18.2-14.9,18.2l37,0.2C341,156.3,341.8,140.1,326.3,137.9z"/>
										</g>
									</g>
								</g>
							</g>
						</g>
					</g>
				</g>
			</g>
		</g>
	</g>
	<g>
		<g>
			<g>
				<g>
					<g>
						<g>
							<g>
								<g>
									<g>
										<path class="st2" d="M383.3,208.4c1.1-0.5,1.9-1.6,1.9-2.9c0-1.7-1.3-3.1-2.9-3.1c-1.6,0-2.9,1.4-2.9,3.1
											c0,1.3,0.8,2.5,1.9,2.9c-4.5,0.7-4.3,5.6-4.3,5.6l10.6,0C387.5,214,387.7,209.1,383.3,208.4z"/>
									</g>
								</g>
							</g>
						</g>
					</g>
				</g>
			</g>
		</g>
	</g>
	<g>
		<g>
			<g>
				<path class="st6" d="M406.5,79.1c3.6,0,7.1,0,10.7,0c0.8,0,0.8-1.2,0-1.2c-3.6,0-7.1,0-10.7,0C405.7,77.9,405.7,79.1,406.5,79.1
					L406.5,79.1z"/>
			</g>
		</g>
		<g>
			<g>
				<path class="st6" d="M406.5,82.5c3.6,0,7.1,0,10.7,0c0.8,0,0.8-1.2,0-1.2c-3.6,0-7.1,0-10.7,0C405.7,81.2,405.7,82.5,406.5,82.5
					L406.5,82.5z"/>
			</g>
		</g>
		<g>
			<g>
				<path class="st6" d="M406.5,85.9c3.6,0,7.1,0,10.7,0c0.8,0,0.8-1.2,0-1.2c-3.6,0-7.1,0-10.7,0C405.7,84.6,405.7,85.9,406.5,85.9
					L406.5,85.9z"/>
			</g>
		</g>
	</g>
	<text transform="matrix(1 0 0 1 253.812 212.0151)" class="st10 st11">Rut</text>
</g>
<g id="Plant">
	<g>
		<g>
			<g>
				<g>
					<g>
						<g>
							<g>
								<path class="st8" d="M400.4,350.8c0.3,0.9,0.5,1.8,0.4,2.7c0.2-1.1,0.6-2.2,1.2-3.1c0.2-0.4,0.6-0.7,1-0.6
									c0.4,0.1,0.5,0.6,0.6,1c0,1.2-0.2,2.3-0.8,3.3c0.7-0.9,1.7-1.7,2.8-2.2c0.2-0.1,0.4-0.2,0.6,0c0.2,0.1,0.2,0.4,0.2,0.7
									c-0.3,1.9-1.6,3.7-3.5,4.4l-0.6,0.1c-1.3-0.4-2.4-1.2-3.1-2.3c-0.7-1.1-1-2.5-0.7-3.8c0.1-0.5,0.4-1.1,0.9-1.1
									C400,349.9,400.3,350.4,400.4,350.8z"/>
							</g>
						</g>
					</g>
				</g>
			</g>
		</g>
		<g>
			<g>
				<g>
					<g>
						<g>
							<g>
								<g>
									<g>
										<path class="st7" d="M413.8,377.6c-1.4-1-4-2-5.7-2.3c1.2-4.1,1.3-8.5,0.2-12.5c-0.4-1.6-1.1-3.2-2.1-4.5
											c-1.1-1.3-2.6-2.3-4.3-2.4c-1.8-0.1-3.5,0.8-4.7,2.2l-2.1,4.8c-0.1,0.7-0.2,1.4-0.3,2.1c-0.3,4.7,0.8,9.4,3.1,13.5
											c-2.2,2.4-4.5,6.6-3.8,11.4h24.9C419.4,385.3,417.6,380.3,413.8,377.6z"/>
									</g>
								</g>
							</g>
						</g>
					</g>
				</g>
				<g>
					<g>
						<g>
							<g>
								<g>
									<g>
										<g>
											<path class="st6" d="M396.8,380.1c0,0,0.1-0.1,0.2-0.3c0.1-0.2,0.3-0.4,0.6-0.7c0.6-0.6,1.5-1.4,2.8-2.1
												c1.3-0.7,3-1.3,4.9-1.6c1.9-0.2,4.1,0,6.2,0.9c2.1,0.9,3.8,2.4,4.9,3.9c1.2,1.6,1.9,3.2,2.2,4.6c0.4,1.4,0.4,2.6,0.4,3.5
												c0,0.4-0.1,0.7-0.1,0.9c0,0.2-0.1,0.3-0.1,0.3c-0.1,0,0.3-1.8-0.5-4.6c-0.4-1.4-1.1-3-2.2-4.5c-1.1-1.5-2.8-2.9-4.8-3.8
												c-2-0.9-4.2-1.1-6-0.9c-1.9,0.2-3.5,0.8-4.8,1.5C397.9,378.6,396.9,380.2,396.8,380.1z"/>
										</g>
									</g>
								</g>
							</g>
						</g>
					</g>
				</g>
				<g>
					<g>
						<g>
							<g>
								<g>
									<g>
										<g>
											<path class="st6" d="M394.7,366.8c0,0-0.1-0.6,0-1.6c0-1,0.2-2.4,0.7-3.9c0.5-1.5,1.4-2.7,2.1-3.4
												c0.8-0.7,1.4-0.9,1.4-0.9c0,0.1-0.5,0.4-1.2,1.1c-0.7,0.7-1.5,1.9-2,3.3c-0.5,1.4-0.6,2.8-0.8,3.8
												C394.8,366.2,394.8,366.8,394.7,366.8z"/>
										</g>
									</g>
								</g>
							</g>
						</g>
					</g>
				</g>
				<g>
					<g>
						<g>
							<g>
								<g>
									<g>
										<g>
											<path class="st6" d="M409.1,386.7c-0.1-0.1,1-1.1,2.3-2.4c1.3-1.3,2.3-2.4,2.4-2.3c0.1,0.1-0.8,1.3-2.1,2.6
												C410.4,385.9,409.2,386.8,409.1,386.7z"/>
										</g>
									</g>
								</g>
							</g>
						</g>
					</g>
				</g>
				<g>
					<g>
						<g>
							<g>
								<g>
									<g>
										<g>
											<path class="st6" d="M406.3,385.3c-0.1,0,0.1-1.1,0.4-2.5c0.3-1.3,0.7-2.4,0.8-2.4c0.1,0-0.1,1.1-0.4,2.5
												C406.8,384.3,406.4,385.3,406.3,385.3z"/>
										</g>
									</g>
								</g>
							</g>
						</g>
					</g>
				</g>
				<g>
					<g>
						<g>
							<g>
								<g>
									<g>
										<g>
											<path class="st6" d="M398.9,382.5c0.1-0.1,0.8,0.9,1.4,2.2c0.6,1.3,0.9,2.5,0.8,2.5c-0.1,0-0.5-1.1-1.1-2.4
												C399.4,383.6,398.8,382.6,398.9,382.5z"/>
										</g>
									</g>
								</g>
							</g>
						</g>
					</g>
				</g>
				<g>
					<g>
						<g>
							<g>
								<g>
									<g>
										<g>
											<path class="st6" d="M406.9,370.9c-0.1-0.1,0.7-1.2,1.7-2.5c1-1.3,1.9-2.4,2-2.3s-0.7,1.2-1.7,2.5
												C407.9,370,407,371,406.9,370.9z"/>
										</g>
									</g>
								</g>
							</g>
						</g>
					</g>
				</g>
				<g>
					<g>
						<g>
							<g>
								<g>
									<g>
										<g>
											<path class="st6" d="M405.2,363.1c-0.1-0.1,0.8-1.5,1.9-3.1c1.1-1.7,2.1-3,2.2-2.9c0.1,0.1-0.8,1.5-1.9,3.1
												C406.2,361.9,405.2,363.2,405.2,363.1z"/>
										</g>
									</g>
								</g>
							</g>
						</g>
					</g>
				</g>
				<g>
					<g>
						<g>
							<g>
								<g>
									<g>
										<g>
											<path class="st6" d="M402.4,365.2c0.1,0,0.3,1.2,0.4,2.6c0.1,1.5,0.1,2.7,0,2.7c-0.1,0-0.3-1.2-0.4-2.6
												C402.2,366.4,402.3,365.2,402.4,365.2z"/>
										</g>
									</g>
								</g>
							</g>
						</g>
					</g>
				</g>
				<g>
					<g>
						<g>
							<g>
								<g>
									<g>
										<g>
											<path class="st6" d="M391.2,368.7c0-0.1,1.7,0.7,3.5,1.8c1.9,1.1,3.3,2.2,3.2,2.3c-0.1,0.1-1.6-0.9-3.4-2
												C392.7,369.7,391.1,368.8,391.2,368.7z"/>
										</g>
									</g>
								</g>
							</g>
						</g>
					</g>
				</g>
				<g class="st12">
					<g>
						<g>
							<g>
								<g>
									<g>
										<g>
											<path d="M400.1,375.4c1.2-0.7,2.6-0.9,4-1c1.4-0.1,3.1,0.1,4.1,1.1v0.1c-3.5-0.2-7.5,0.9-10.2,3.2
												C398,377.4,398.9,376.1,400.1,375.4z"/>
										</g>
									</g>
								</g>
							</g>
						</g>
					</g>
				</g>
			</g>
			<g>
				<g>
					<g>
						<g>
							<g>
								<g>
									<path class="st8" d="M412,326.6c0.7-0.2,1.5-0.2,2.2-0.1c-0.8-0.3-1.6-0.7-2.3-1.3c-0.3-0.2-0.5-0.5-0.4-0.8
										c0.1-0.3,0.5-0.4,0.9-0.3c0.9,0.1,1.8,0.4,2.5,0.9c-0.7-0.7-1.2-1.5-1.4-2.4c0-0.2-0.1-0.4,0-0.5c0.1-0.2,0.4-0.1,0.5-0.1
										c1.5,0.4,2.7,1.6,3.1,3.1l0,0.5c-0.4,1-1.2,1.8-2.1,2.2c-0.9,0.4-2,0.5-3,0.2c-0.4-0.1-0.8-0.4-0.8-0.8
										C411.2,326.9,411.6,326.7,412,326.6z"/>
								</g>
							</g>
						</g>
					</g>
				</g>
			</g>
			<g>
				<g>
					<g>
						<g>
							<g>
								<g>
									<path class="st8" d="M462.1,294.8c0.1,0.7,0.1,1.5-0.1,2.2c0.3-0.8,0.8-1.6,1.5-2.2c0.2-0.2,0.6-0.5,0.9-0.3
										c0.3,0.1,0.3,0.6,0.3,0.9c-0.2,0.9-0.5,1.7-1.1,2.5c0.7-0.6,1.6-1,2.5-1.2c0.2,0,0.4-0.1,0.5,0.1c0.1,0.1,0.1,0.4,0,0.6
										c-0.5,1.4-1.9,2.6-3.4,2.8l-0.5,0c-0.9-0.5-1.7-1.3-2-2.3c-0.4-1-0.3-2.1,0.1-3c0.1-0.4,0.5-0.8,0.8-0.7
										C461.9,294,462.1,294.4,462.1,294.8z"/>
								</g>
							</g>
						</g>
					</g>
				</g>
			</g>
			<g>
				<g>
					<g>
						<g>
							<g>
								<g>
									<path class="st7" d="M427.2,359.8c0.4,0,0.7,0.1,1.1,0.1c0.6-7.1-1.5-14.3,0.7-21.1l-0.3,0.4c-2.6,0.3-5.3,0.2-7.8-0.7
										c-2.5-0.9-4.6-2.8-5.6-5.2c-1-2.4-0.6-5.5,1.2-7.4c2.5-2.6,6.8-2.4,9.9-0.7c3,1.7,5.1,4.6,7,7.4c1-0.8,2.2-1.5,3.4-2
										c-3.4-4.7-6.7-9.7-7.8-15.4c-1.2-6.2,1.1-13.6,6.9-16.2c4.9-2.2,11.1-0.2,14.6,3.9c0.3,0.3,0.5,0.7,0.7,1l-0.1-0.3
										c0.9-2.2,2.5-4,4.7-4.9c2.1-0.9,4.7-0.8,6.7,0.3c2,1.2,3.4,3.4,3.3,5.8c-0.1,2.6-1.9,5-4.3,6.1c-2.3,1.1-4.9,1.2-7.4,0.7
										c0.3,2.2,0.3,4.4,0,6.6c-0.8,5-3,9.6-5.6,13.9c0.7,0.5,1.4,1,2,1.7c4.5,4.7,4.8,12.2,2.4,18.2c-2.3,6-8.7,10.5-13.1,15.2
										l0,0c1.9,3.2,2.9,7,3.4,10.6c1.5-3.2,4.9-5.5,8.5-5.5c1.9,0,4.1,0.9,4.7,2.7c0.5,1.6-0.4,3.4-1.5,4.6
										c-2.7,2.9-7.4,4.2-11.3,3.3l0-1.2c0.2,4.6-0.2,8.1-0.2,8.1H415C415,389.9,407.4,359.1,427.2,359.8z"/>
								</g>
							</g>
						</g>
					</g>
				</g>
			</g>
			<g>
				<g>
					<g>
						<g>
							<g>
								<g>
									<g>
										<g>
											
												<rect x="382.4" y="389.9" transform="matrix(-1 -1.224647e-16 1.224647e-16 -1 832.0303 791.7243)" class="st8" width="67.2" height="11.9"/>
										</g>
									</g>
								</g>
							</g>
						</g>
					</g>
				</g>
				<g>
					<g>
						<g>
							<g>
								<g>
									<g>
										<g>
											<polygon class="st8" points="444.6,399.5 436.4,435 396.4,435 387.5,399.5 											"/>
										</g>
									</g>
								</g>
							</g>
						</g>
					</g>
				</g>
				<g>
					<g>
						<g>
							<g>
								<g>
									<g>
										<g>
											<g>
												<path class="st6" d="M382.5,401.8c0,0.1,15.1,0.2,33.8,0.2c18.7,0,33.8-0.1,33.8-0.2c0-0.1-15.1-0.2-33.8-0.2
													C397.6,401.6,382.5,401.7,382.5,401.8z"/>
											</g>
										</g>
									</g>
								</g>
							</g>
						</g>
					</g>
				</g>
			</g>
			<g>
				<g>
					<g>
						<g>
							<g>
								<g>
									<g>
										<path class="st6" d="M421.9,361c0,0,0.1-0.1,0.4-0.2c0.3-0.1,0.7-0.3,1.2-0.5c1-0.4,2.7-0.7,4.7-0.5
											c2,0.2,4.4,0.8,6.6,2.3c2.2,1.5,4.2,3.7,5.6,6.4c1.4,2.7,2.3,5.5,2.7,8.1c0.4,2.6,0.5,5,0.5,7c0,2-0.1,3.6-0.1,4.7
											c0,0.5,0,0.9-0.1,1.3c0,0.3,0,0.4,0,0.4c0,0,0-0.2,0-0.4c0-0.3,0-0.8,0-1.3c0-1.2,0-2.7,0-4.7c0-2-0.1-4.3-0.5-6.9
											c-0.4-2.6-1.3-5.3-2.7-8c-1.4-2.6-3.4-4.8-5.5-6.3c-2.2-1.4-4.5-2.1-6.4-2.3c-2-0.2-3.6,0.1-4.6,0.4
											C422.5,360.7,422,361,421.9,361z"/>
									</g>
								</g>
							</g>
						</g>
					</g>
				</g>
			</g>
			<g>
				<g>
					<g>
						<g>
							<g>
								<g>
									<g>
										<path class="st6" d="M427.9,345.9c0,0,0-0.1,0-0.3c0-0.2-0.1-0.5,0-1c0-0.8,0.1-2.1,0.4-3.6c0.3-1.5,0.9-3.2,2-4.9
											c0.5-0.9,1.1-1.7,1.9-2.5c0.8-0.8,1.6-1.5,2.7-2.1c1-0.6,2.1-1,3.2-1.2c1.1-0.2,2.1-0.3,3.2-0.2c2,0.1,3.8,0.6,5.2,1.2
											c1.4,0.6,2.5,1.2,3.1,1.7c0.4,0.2,0.6,0.4,0.8,0.6c0.2,0.1,0.3,0.2,0.3,0.2c0,0-0.4-0.2-1.1-0.7c-0.7-0.4-1.8-1-3.2-1.6
											c-1.4-0.6-3.1-1-5.1-1.1c-1,0-2,0-3.1,0.2c-1,0.2-2.1,0.6-3.1,1.2c-1,0.6-1.8,1.3-2.6,2c-0.7,0.8-1.4,1.6-1.9,2.4
											c-1,1.7-1.6,3.4-2,4.8c-0.4,1.4-0.5,2.7-0.5,3.5C428,345.5,428,345.9,427.9,345.9z"/>
									</g>
								</g>
							</g>
						</g>
					</g>
				</g>
			</g>
			<g>
				<g>
					<g>
						<g>
							<g>
								<g>
									<g>
										<path class="st6" d="M454.3,315.9c-0.1,0-0.1-0.9-0.2-2.3c-0.1-0.7-0.1-1.5-0.3-2.5c-0.1-0.9-0.4-1.9-0.8-2.9
											c-0.8-2-1.8-3.7-2.6-4.8c-0.8-1.2-1.4-1.8-1.3-1.9c0,0,0.2,0.1,0.5,0.4c0.3,0.3,0.7,0.7,1.1,1.3c0.8,1.1,1.9,2.8,2.7,4.8
											c0.4,1,0.7,2,0.8,3c0.1,0.9,0.2,1.8,0.2,2.5C454.4,315,454.4,315.9,454.3,315.9z"/>
									</g>
								</g>
							</g>
						</g>
					</g>
				</g>
			</g>
			<g>
				<g>
					<g>
						<g>
							<g>
								<g>
									<g>
										<path class="st6" d="M450.7,379.7c0.1-0.1,0.9,0.6,1.9,1.4c1,0.9,1.8,1.6,1.7,1.7c-0.1,0.1-0.9-0.6-1.9-1.4
											C451.3,380.6,450.6,379.8,450.7,379.7z"/>
									</g>
								</g>
							</g>
						</g>
					</g>
				</g>
			</g>
			<g>
				<g>
					<g>
						<g>
							<g>
								<g>
									<g>
										<path class="st6" d="M453,377.3c0-0.1,1.1-0.3,2.4-0.4c1.3-0.1,2.4-0.2,2.4,0c0,0.1-1.1,0.3-2.4,0.4
											C454.1,377.4,453.1,377.4,453,377.3z"/>
									</g>
								</g>
							</g>
						</g>
					</g>
				</g>
			</g>
			<g>
				<g>
					<g>
						<g>
							<g>
								<g>
									<g>
										<path class="st6" d="M451.2,373.2c-0.1-0.1,0.6-0.8,1.3-1.9c0.7-1,1.3-1.9,1.4-1.9c0.1,0-0.3,1-1.1,2.1
											C452.1,372.6,451.3,373.2,451.2,373.2z"/>
									</g>
								</g>
							</g>
						</g>
					</g>
				</g>
			</g>
			<g>
				<g>
					<g>
						<g>
							<g>
								<g>
									<g>
										<path class="st6" d="M448.1,371.2c0.1,0-0.1,1.3-0.4,2.7c-0.3,1.5-0.7,2.7-0.8,2.7c-0.1,0,0.1-1.3,0.4-2.7
											C447.6,372.4,448,371.2,448.1,371.2z"/>
									</g>
								</g>
							</g>
						</g>
					</g>
				</g>
			</g>
			<g>
				<g>
					<g>
						<g>
							<g>
								<g>
									<g>
										<path class="st6" d="M445.9,380.8c-0.1-0.1,0.4-0.6,1-1.2c0.6-0.6,1.2-1,1.3-0.9c0.1,0.1-0.4,0.6-1,1.2
											C446.6,380.5,446,380.9,445.9,380.8z"/>
									</g>
								</g>
							</g>
						</g>
					</g>
				</g>
			</g>
			<g>
				<g>
					<g>
						<g>
							<g>
								<g>
									<g>
										<path class="st6" d="M436.1,379c-0.1-0.1,0.5-0.8,1.2-1.5c0.7-0.8,1.4-1.4,1.5-1.3c0.1,0.1-0.5,0.8-1.2,1.5
											C436.8,378.5,436.1,379,436.1,379z"/>
									</g>
								</g>
							</g>
						</g>
					</g>
				</g>
			</g>
			<g>
				<g>
					<g>
						<g>
							<g>
								<g>
									<g>
										<path class="st6" d="M433.9,369.9c-0.1-0.1,0.3-0.9,0.9-1.8c0.6-1,1.1-1.7,1.2-1.7c0.1,0.1-0.3,0.9-0.9,1.8
											C434.6,369.2,434,369.9,433.9,369.9z"/>
									</g>
								</g>
							</g>
						</g>
					</g>
				</g>
			</g>
			<g>
				<g>
					<g>
						<g>
							<g>
								<g>
									<g>
										<path class="st6" d="M427.6,362.4c0.1,0,0.2,1.1,0.2,2.4c0,1.3-0.1,2.4-0.2,2.4c-0.1,0-0.2-1.1-0.2-2.4
											C427.5,363.5,427.5,362.4,427.6,362.4z"/>
									</g>
								</g>
							</g>
						</g>
					</g>
				</g>
			</g>
			<g>
				<g>
					<g>
						<g>
							<g>
								<g>
									<g>
										<path class="st6" d="M414.5,364.9c0.1-0.1,0.9,1,1.9,2.2c1,1.2,1.9,2.2,1.8,2.3c-0.1,0.1-1.1-0.8-2.1-2
											C415,366.1,414.4,365,414.5,364.9z"/>
									</g>
								</g>
							</g>
						</g>
					</g>
				</g>
			</g>
			<g>
				<g>
					<g>
						<g>
							<g>
								<g>
									<g>
										<path class="st6" d="M412.8,377.9c0-0.1,1.1,0,2.3,0.3c1.3,0.2,2.3,0.5,2.3,0.6c0,0.1-1.1,0-2.3-0.3
											C413.8,378.3,412.7,378,412.8,377.9z"/>
									</g>
								</g>
							</g>
						</g>
					</g>
				</g>
			</g>
			<g>
				<g>
					<g>
						<g>
							<g>
								<g>
									<g>
										<path class="st6" d="M426.4,382.4c-0.1,0,0.2-1.2,0.9-2.6c0.7-1.4,1.5-2.3,1.6-2.3c0.1,0.1-0.5,1.1-1.2,2.4
											C427,381.3,426.5,382.4,426.4,382.4z"/>
									</g>
								</g>
							</g>
						</g>
					</g>
				</g>
			</g>
			<g>
				<g>
					<g>
						<g>
							<g>
								<g>
									<g>
										<path class="st6" d="M421.9,376.2c-0.1,0-0.2-0.9-0.2-1.9c0-1.1,0-1.9,0.1-1.9c0.1,0,0.2,0.9,0.2,1.9
											C422,375.3,422,376.2,421.9,376.2z"/>
									</g>
								</g>
							</g>
						</g>
					</g>
				</g>
			</g>
			<g>
				<g>
					<g>
						<g>
							<g>
								<g>
									<g>
										<path class="st6" d="M436.6,387.2c-0.1,0,0.2-1,0.8-2c0.6-1,1.4-1.7,1.4-1.6c0.1,0.1-0.5,0.8-1.1,1.8
											C437.1,386.3,436.7,387.2,436.6,387.2z"/>
									</g>
								</g>
							</g>
						</g>
					</g>
				</g>
			</g>
			<g>
				<g>
					<g>
						<g>
							<g>
								<g>
									<g>
										<path class="st6" d="M421,388.1c-0.1,0-0.6-0.8-1-1.8c-0.5-1.1-0.8-2-0.7-2c0.1,0,0.6,0.8,1,1.8
											C420.8,387.1,421.1,388,421,388.1z"/>
									</g>
								</g>
							</g>
						</g>
					</g>
				</g>
			</g>
			<g>
				<g>
					<g>
						<g>
							<g>
								<g>
									<g>
										<path class="st6" d="M445.3,359.2c0-0.1,1.2-0.2,2.6-0.1c1.4,0,2.6,0.2,2.6,0.3c0,0.1-1.2,0.2-2.6,0.1
											C446.4,359.4,445.3,359.3,445.3,359.2z"/>
									</g>
								</g>
							</g>
						</g>
					</g>
				</g>
			</g>
			<g>
				<g>
					<g>
						<g>
							<g>
								<g>
									<g>
										<path class="st6" d="M450.9,349.5c-0.1-0.1,1.1-1,2.5-2c1.4-1,2.7-1.8,2.7-1.7c0.1,0.1-1.1,1-2.5,2
											C452.2,348.8,451,349.6,450.9,349.5z"/>
									</g>
								</g>
							</g>
						</g>
					</g>
				</g>
			</g>
			<g>
				<g>
					<g>
						<g>
							<g>
								<g>
									<g>
										<path class="st6" d="M450.3,337c0-0.1,0.9-0.6,2-1.3c1.1-0.7,2-1.4,2-1.4c0.1,0.1-0.7,0.9-1.8,1.7
											C451.4,336.8,450.4,337.1,450.3,337z"/>
									</g>
								</g>
							</g>
						</g>
					</g>
				</g>
			</g>
			<g>
				<g>
					<g>
						<g>
							<g>
								<g>
									<g>
										<path class="st6" d="M444,332.6c-0.1,0,0.1-1.4,0.5-3c0.4-1.7,0.8-3,0.9-2.9c0.1,0-0.1,1.4-0.6,3
											C444.5,331.3,444.1,332.7,444,332.6z"/>
									</g>
								</g>
							</g>
						</g>
					</g>
				</g>
			</g>
			<g>
				<g>
					<g>
						<g>
							<g>
								<g>
									<g>
										<path class="st6" d="M433.4,329.5c0.1-0.1,0.6,0.8,1.2,1.8c0.6,1.1,1,2,0.9,2c-0.1,0.1-0.6-0.8-1.2-1.8
											C433.7,330.5,433.3,329.6,433.4,329.5z"/>
									</g>
								</g>
							</g>
						</g>
					</g>
				</g>
			</g>
			<g>
				<g>
					<g>
						<g>
							<g>
								<g>
									<g>
										<path class="st6" d="M424.2,350.5c0.1-0.1,1.3,0.8,2.9,1.8c1.6,1,3,1.7,2.9,1.8c0,0.1-1.5-0.4-3.1-1.4
											C425.3,351.6,424.2,350.6,424.2,350.5z"/>
									</g>
								</g>
							</g>
						</g>
					</g>
				</g>
			</g>
			<g>
				<g>
					<g>
						<g>
							<g>
								<g>
									<g>
										<path class="st6" d="M439.1,355.2c-0.1-0.1,0.8-0.7,1.8-1.3c1.1-0.7,2-1.1,2-1c0.1,0.1-0.8,0.7-1.8,1.3
											C440,354.9,439.1,355.3,439.1,355.2z"/>
									</g>
								</g>
							</g>
						</g>
					</g>
				</g>
			</g>
			<g>
				<g>
					<g>
						<g>
							<g>
								<g>
									<g>
										<path class="st6" d="M441.5,345.2c-0.1-0.1,0.9-1,1.8-2.4c0.9-1.4,1.4-2.6,1.5-2.6c0.1,0-0.2,1.4-1.2,2.8
											C442.7,344.4,441.6,345.3,441.5,345.2z"/>
									</g>
								</g>
							</g>
						</g>
					</g>
				</g>
			</g>
			<g>
				<g>
					<g>
						<g>
							<g>
								<g>
									<g>
										<path class="st6" d="M436.7,342.9c-0.1,0-0.1-1.1-0.1-2.4c0.1-1.3,0.2-2.4,0.3-2.4c0.1,0,0.1,1.1,0.1,2.4
											C436.9,341.8,436.8,342.9,436.7,342.9z"/>
									</g>
								</g>
							</g>
						</g>
					</g>
				</g>
			</g>
			<g>
				<g>
					<g>
						<g>
							<g>
								<g>
									<g>
										<path class="st6" d="M434,352.8c-0.1,0-0.3-1.1-0.5-2.5c-0.2-1.4-0.2-2.5-0.1-2.5c0.1,0,0.3,1.1,0.5,2.5
											C434,351.7,434.1,352.8,434,352.8z"/>
									</g>
								</g>
							</g>
						</g>
					</g>
				</g>
			</g>
			<g>
				<g>
					<g>
						<g>
							<g>
								<g>
									<g>
										<path class="st6" d="M426.5,322.9c0.1,0,0.4,1.3,0.8,2.8c0.4,1.5,0.9,2.7,0.8,2.8c-0.1,0-0.7-1.1-1.2-2.7
											C426.5,324.3,426.4,322.9,426.5,322.9z"/>
									</g>
								</g>
							</g>
						</g>
					</g>
				</g>
			</g>
			<g>
				<g>
					<g>
						<g>
							<g>
								<g>
									<g>
										<path class="st6" d="M421.2,340.4c-0.1-0.1,1-0.7,2.2-1.6c1.2-0.9,2.1-1.7,2.2-1.6c0.1,0.1-0.7,1-2,1.9
											C422.4,340,421.2,340.5,421.2,340.4z"/>
									</g>
								</g>
							</g>
						</g>
					</g>
				</g>
			</g>
			<g>
				<g>
					<g>
						<g>
							<g>
								<g>
									<g>
										<path class="st6" d="M414,335c0-0.1,1.2-0.3,2.6-0.5c1.5-0.3,2.6-0.6,2.7-0.5c0,0.1-1.1,0.6-2.6,0.8
											C415.2,335.1,414,335.1,414,335z"/>
									</g>
								</g>
							</g>
						</g>
					</g>
				</g>
			</g>
			<g>
				<g>
					<g>
						<g>
							<g>
								<g>
									<g>
										<path class="st6" d="M421,329c0.1-0.1,0.7,0.2,1.5,0.7c0.8,0.5,1.4,1,1.3,1.1c-0.1,0.1-0.7-0.2-1.5-0.7
											C421.5,329.6,420.9,329.1,421,329z"/>
									</g>
								</g>
							</g>
						</g>
					</g>
				</g>
			</g>
			<g>
				<g>
					<g>
						<g>
							<g>
								<g>
									<g>
										<path class="st6" d="M417.5,322.6c0.1-0.1,0.9,0.5,1.7,1.4c0.8,0.9,1.3,1.8,1.2,1.9c-0.1,0.1-0.7-0.7-1.5-1.7
											C418.2,323.3,417.4,322.7,417.5,322.6z"/>
									</g>
								</g>
							</g>
						</g>
					</g>
				</g>
			</g>
			<g>
				<g>
					<g>
						<g>
							<g>
								<g>
									<g>
										<path class="st6" d="M412.7,328.7c0-0.1,1.1,0.3,2.4,0.6c1.3,0.4,2.4,0.6,2.4,0.7c0,0.1-1.2,0-2.5-0.3
											C413.7,329.3,412.7,328.8,412.7,328.7z"/>
									</g>
								</g>
							</g>
						</g>
					</g>
				</g>
			</g>
			<g>
				<g>
					<g>
						<g>
							<g>
								<g>
									<g>
										<path class="st6" d="M445.7,320.5c-0.1-0.1,1-1.5,2.1-3.3c1.2-1.8,2.1-3.3,2.2-3.2c0.1,0-0.7,1.6-1.9,3.5
											C447,319.2,445.8,320.5,445.7,320.5z"/>
									</g>
								</g>
							</g>
						</g>
					</g>
				</g>
			</g>
			<g>
				<g>
					<g>
						<g>
							<g>
								<g>
									<g>
										<path class="st6" d="M443.6,312.9c-0.1,0,0-1.3,0.2-2.8c0.2-1.5,0.5-2.8,0.6-2.8c0.1,0,0,1.3-0.2,2.8
											C443.9,311.7,443.7,312.9,443.6,312.9z"/>
									</g>
								</g>
							</g>
						</g>
					</g>
				</g>
			</g>
			<g>
				<g>
					<g>
						<g>
							<g>
								<g>
									<g>
										<path class="st6" d="M436.3,314.1c0.1,0,0.4,1.4,1.1,3.1c0.7,1.7,1.6,2.9,1.5,2.9c-0.1,0.1-1.1-1.1-1.8-2.8
											C436.3,315.6,436.2,314.1,436.3,314.1z"/>
									</g>
								</g>
							</g>
						</g>
					</g>
				</g>
			</g>
			<g>
				<g>
					<g>
						<g>
							<g>
								<g>
									<g>
										<path class="st6" d="M427.7,315.9c0.1-0.1,1.2,1.2,2.6,2.6c1.5,1.4,2.8,2.4,2.7,2.5c-0.1,0.1-1.5-0.8-3-2.2
											C428.5,317.4,427.6,316,427.7,315.9z"/>
									</g>
								</g>
							</g>
						</g>
					</g>
				</g>
			</g>
			<g>
				<g>
					<g>
						<g>
							<g>
								<g>
									<g>
										<path class="st6" d="M431,300.3c0.1,0,0.4,1.6,1,3.5c0.6,1.9,1.2,3.4,1.1,3.5c-0.1,0-0.9-1.4-1.5-3.3
											C431.1,301.9,430.9,300.3,431,300.3z"/>
									</g>
								</g>
							</g>
						</g>
					</g>
				</g>
			</g>
			<g>
				<g>
					<g>
						<g>
							<g>
								<g>
									<g>
										<path class="st6" d="M440.9,295.1c0.1,0,0.3,1.2,0.4,2.8c0.1,1.5,0.1,2.8,0,2.8c-0.1,0-0.3-1.2-0.4-2.8
											C440.8,296.4,440.8,295.2,440.9,295.1z"/>
									</g>
								</g>
							</g>
						</g>
					</g>
				</g>
			</g>
			<g>
				<g>
					<g>
						<g>
							<g>
								<g>
									<g>
										<path class="st6" d="M461.4,308.4c0-0.1,1,0.1,2.1,0.2c1.2,0.1,2.1,0.1,2.1,0.2c0,0.1-1,0.3-2.2,0.2
											C462.3,308.8,461.3,308.5,461.4,308.4z"/>
									</g>
								</g>
							</g>
						</g>
					</g>
				</g>
			</g>
			<g>
				<g>
					<g>
						<g>
							<g>
								<g>
									<g>
										<path class="st6" d="M460.8,303.2c0-0.1,1.3-0.9,2.9-1.8c1.7-0.9,3.1-1.5,3.1-1.4c0,0.1-1.3,0.9-2.9,1.8
											C462.2,302.7,460.8,303.3,460.8,303.2z"/>
									</g>
								</g>
							</g>
						</g>
					</g>
				</g>
			</g>
			<g>
				<g>
					<g>
						<g>
							<g>
								<g>
									<g>
										<path class="st6" d="M455.2,303.4c-0.1,0,0.2-1.2,0.6-2.6c0.4-1.4,0.9-2.5,1-2.5c0.1,0-0.2,1.2-0.6,2.6
											C455.8,302.3,455.3,303.4,455.2,303.4z"/>
									</g>
								</g>
							</g>
						</g>
					</g>
				</g>
			</g>
			<g class="st12">
				<g>
					<g>
						<g>
							<g>
								<g>
									<g>
										<path d="M439.7,367.3c-0.1-2.7-1.5-5.4-3.8-6.9c-2.2-1.5-6.3-1.6-7.8-0.5c2.3,0,5,1,6.9,2.4
											C436.9,363.6,438.5,365.3,439.7,367.3"/>
									</g>
								</g>
							</g>
						</g>
					</g>
				</g>
			</g>
			<g class="st12">
				<g>
					<g>
						<g>
							<g>
								<g>
									<g>
										<path d="M448.5,332.6c-1-2.1-3.1-3.8-5.4-4.2c-2.3-0.4-5.5,0.9-6.4,2.3c1.9-0.8,4.3-0.9,6.3-0.5
											C444.9,330.7,446.8,331.5,448.5,332.6"/>
									</g>
								</g>
							</g>
						</g>
					</g>
				</g>
			</g>
			<g class="st12">
				<g>
					<g>
						<g>
							<g>
								<g>
									<g>
										<path d="M454.3,312c0.9-1.6,1-3.6,0.4-5.2c-0.7-1.7-2-2.5-3.7-3C452.7,306.4,454.1,309,454.3,312"/>
									</g>
								</g>
							</g>
						</g>
					</g>
				</g>
			</g>
			<g>
				<g>
					<g>
						<g>
							<g>
								<g>
									<g>
										<path class="st6" d="M418.5,362.6c0,0-0.3,0.3-0.8,0.8c-0.5,0.5-1.1,1.4-1.7,2.5c-1.1,2.3-2.2,5.8-2.5,9.7
											c-0.3,3.9,0.1,7.5,0.5,10.1c0.2,1.3,0.4,2.3,0.5,3c0.1,0.7,0.2,1.1,0.2,1.1c0,0-0.1-0.4-0.3-1.1c-0.2-0.7-0.4-1.7-0.7-3
											c-0.5-2.6-0.9-6.2-0.6-10.2c0.3-4,1.4-7.5,2.6-9.8c0.7-1.1,1.3-2,1.9-2.5C418.1,362.8,418.4,362.6,418.5,362.6z"/>
									</g>
								</g>
							</g>
						</g>
					</g>
				</g>
			</g>
		</g>
		<g>
			<g>
				<g>
					<g>
						<g>
							<g>
								<g>
									<path class="st6" d="M449.6,389.9c0,0-0.1,0-0.2,0c-0.2,0-0.4,0-0.6,0c-0.6,0-1.3,0-2.3,0c-2,0-4.9,0-8.5,0.1
										c-7.2,0-17,0-28,0.1c-10.7,0-20.5,0-27.6-0.1l0.1-0.1c0,3.7,0,6.6,0,8.7c0,1,0,1.8,0,2.4c0,0.3,0,0.5,0,0.6
										c0,0.1,0,0.2,0,0.2c0,0,0-0.1,0-0.2c0-0.2,0-0.4,0-0.6c0-0.6,0-1.4,0-2.4c0-2.1-0.1-5.1-0.1-8.7l0-0.1l0.1,0
										c7.1,0,16.9,0,27.6-0.1c10.9,0,20.8,0,28,0.1c3.6,0,6.4,0,8.5,0.1c1,0,1.7,0,2.3,0c0.2,0,0.4,0,0.6,0
										C449.5,389.9,449.6,389.9,449.6,389.9z"/>
								</g>
							</g>
						</g>
					</g>
				</g>
			</g>
		</g>
	</g>
</g>
<g id="Speech_Bubble">
	<g>
		<g>
			<g>
				<path class="st3" d="M98.9,215.6c0,2.3-1.8,4.1-4.1,4.1s-4.1-1.8-4.1-4.1c0-2.3,1.8-4.1,4.1-4.1S98.9,213.3,98.9,215.6z"/>
			</g>
			<g>
				<g>
					<path class="st6" d="M98.9,215.6c0,0,0-0.4-0.2-1c-0.2-0.6-0.6-1.5-1.5-2.1c-0.9-0.7-2.3-1-3.7-0.5c-1.4,0.5-2.5,1.9-2.5,3.6
						c0,1.7,1.2,3.2,2.5,3.6c1.4,0.5,2.8,0.2,3.7-0.5c0.9-0.7,1.3-1.5,1.5-2.1C98.8,216,98.8,215.6,98.9,215.6c0,0,0.1,0.4,0,1
						c-0.1,0.6-0.5,1.6-1.5,2.4c-0.9,0.8-2.5,1.2-4.1,0.7c-1.6-0.5-2.9-2.2-2.9-4.1c0-1.9,1.3-3.6,2.9-4.1c1.6-0.6,3.2-0.1,4.1,0.7
						c1,0.8,1.4,1.7,1.5,2.4C99,215.2,98.9,215.6,98.9,215.6z"/>
				</g>
			</g>
		</g>
		<g>
			<g>
				<g>
					<g>
						<g>
							<g>
								<g>
									<g>
										<g>
											<g>
												<g>
													<g>
														<g>
															<path class="st3" d="M68.5,220.6c12.9-1.2,22.5-12.6,21.3-25.6c-1.2-12.9-12.6-22.5-25.6-21.3
																c-12.9,1.2-22.5,12.6-21.3,25.6C44.1,212.3,55.5,221.8,68.5,220.6z"/>
														</g>
														<g>
															<g>
																<path class="st6" d="M68.5,220.6c0,0-0.1,0-0.4,0c-0.3,0-0.6,0-1.1,0.1c-0.2,0-0.5,0-0.8,0c-0.3,0-0.6,0-1,0
																	c-0.7,0-1.6-0.1-2.5-0.2c-1.9-0.2-4.1-0.9-6.5-2c-2.4-1.1-5-2.9-7.3-5.3c-2.3-2.5-4.3-5.7-5.4-9.5
																	c-1-3.8-1.3-8.2-0.1-12.5c0.2-1.1,0.7-2.1,1.1-3.2c0.5-1,0.9-2.1,1.6-3.1c0.6-1,1.3-1.9,2-2.9
																	c0.8-0.9,1.6-1.8,2.5-2.6c1.8-1.6,3.9-3,6.2-4c2.3-1,4.8-1.6,7.4-1.9c2.6-0.2,5.1,0,7.6,0.5
																	c2.5,0.5,4.8,1.6,6.8,2.8c1.1,0.6,2,1.4,3,2.1c0.9,0.8,1.8,1.6,2.5,2.5c0.8,0.8,1.5,1.8,2.1,2.7
																	c0.6,1,1.2,1.9,1.6,3c2,4,2.5,8.4,2.1,12.3c-0.4,4-1.8,7.5-3.6,10.3c-1.8,2.9-4,5-6.2,6.6c-2.2,1.5-4.3,2.6-6.1,3.1
																	c-0.9,0.3-1.7,0.5-2.4,0.7c-0.4,0.1-0.7,0.2-1,0.2c-0.3,0-0.6,0.1-0.8,0.1c-0.5,0.1-0.8,0.1-1.1,0.1
																	C68.6,220.6,68.5,220.6,68.5,220.6c0,0,0.1,0,0.4-0.1c0.3,0,0.6-0.1,1.1-0.2c0.2,0,0.5-0.1,0.8-0.1
																	c0.3-0.1,0.6-0.2,1-0.2c0.7-0.2,1.5-0.4,2.4-0.7c1.8-0.6,3.8-1.6,6-3.2c2.1-1.6,4.3-3.7,6.1-6.5
																	c1.7-2.8,3.1-6.3,3.4-10.2c0.3-3.9-0.2-8.1-2.1-12.1c-0.4-1-1-1.9-1.6-2.9c-0.7-0.9-1.3-1.9-2.1-2.7
																	c-0.7-0.9-1.6-1.6-2.5-2.4c-0.9-0.7-1.9-1.4-2.9-2c-2-1.2-4.3-2.2-6.7-2.7c-2.4-0.5-4.9-0.7-7.4-0.5
																	c-2.5,0.3-4.9,0.9-7.2,1.9c-2.3,0.9-4.3,2.3-6.1,3.9c-0.9,0.8-1.7,1.7-2.5,2.5c-0.7,0.9-1.4,1.8-2,2.8
																	c-0.6,1-1.1,2-1.6,3c-0.4,1-0.8,2.1-1.1,3.1c-1.2,4.2-0.9,8.5,0.1,12.3c1,3.8,3,6.9,5.2,9.4
																	c2.2,2.5,4.8,4.2,7.1,5.3c2.4,1.1,4.6,1.8,6.4,2c0.9,0.2,1.7,0.2,2.5,0.3c0.4,0,0.7,0.1,1,0.1c0.3,0,0.6,0,0.8,0
																	c0.5,0,0.8,0,1.1,0C68.3,220.6,68.5,220.6,68.5,220.6z"/>
															</g>
														</g>
													</g>
												</g>
											</g>
										</g>
									</g>
								</g>
							</g>
						</g>
					</g>
				</g>
			</g>
			<g>
				<g>
					<polygon class="st8" points="66.4,205.6 56.8,198.6 59.3,195.2 65.7,200 74.5,189.5 77.6,192.1 					"/>
				</g>
			</g>
		</g>
	</g>
</g>
<g id="Character">
	<g>
		<g>
			<g>
				<polygon class="st2" points="73.7,408.2 68.6,451.4 76.4,451.4 90.4,408.2 				"/>
			</g>
			<g>
				<polygon class="st2" points="102.3,391.6 97.2,434.8 105,434.8 119,391.6 				"/>
			</g>
			<g>
				<polygon class="st2" points="208.1,408.2 213.7,451.4 205.1,451.4 189.8,408.2 				"/>
			</g>
			<g>
				<polygon class="st2" points="181.5,392.7 187.1,435.9 178.6,435.9 163.3,392.7 				"/>
			</g>
			<g>
				<g>
					<path class="st7" d="M97.1,249.2c0,0-21.4,1.5-35.7,8.9c-11.3,5.8-16.7,13.9-18.9,34.4c-2.2,20.4-16.6,24.6-17,31.6
						c-0.4,6.8,3.1,36,28.3,94.4c1.2,2.7,3.8,4.4,6.7,4.4h87.2V247.8L97.1,249.2z"/>
				</g>
				<g>
					<path class="st7" d="M180.2,249.2c0,0,21.4,1.5,35.7,8.9c11.3,5.8,16.7,13.9,18.9,34.4c2.2,20.4,16.6,24.6,17,31.6
						c0.4,6.8-3.2,36.2-28.6,95c-1,2.3-3.3,3.8-5.8,3.8h-87.8V247.8L180.2,249.2z"/>
				</g>
			</g>
			<g>
				<g>
					<path class="st6" d="M201.8,393.5c0,0,0.5-0.1,1.5-0.3c1-0.1,2.5-0.2,4.3,0.2c1.8,0.4,3.9,1.3,5.6,3.1c1.7,1.7,3,4.1,3.9,6.7
						c0.9,2.6,1.4,5.2,1.7,7.6c0.3,2.4,0.4,4.5,0.5,6.3c0.1,1.8,0,3.3,0,4.3c0,1-0.1,1.6-0.1,1.6c0,0-0.1-0.6-0.1-1.6
						c0-1-0.1-2.5-0.2-4.3c-0.1-1.8-0.3-3.9-0.6-6.3c-0.3-2.3-0.8-4.9-1.7-7.5c-0.9-2.6-2.1-4.9-3.8-6.6c-1.6-1.7-3.6-2.6-5.3-3
						C204,393,201.7,393.7,201.8,393.5z"/>
				</g>
			</g>
			<g>
				<g>
					<path class="st6" d="M210.5,368.6c0,0.1-32.4,0.3-72.3,0.3c-39.9,0-72.3-0.1-72.3-0.3c0-0.1,32.4-0.3,72.3-0.3
						C178.1,368.4,210.5,368.5,210.5,368.6z"/>
				</g>
			</g>
			<g>
				<g>
					<path class="st6" d="M72.3,392.3c0,0-0.5,0.1-1.5,0.2c-0.5,0-1.1,0.2-1.7,0.3c-0.3,0.1-0.7,0.2-1,0.3c-0.4,0.1-0.8,0.2-1.1,0.4
						c-1.6,0.6-3.3,1.8-4.7,3.5c-1.4,1.7-2.5,4-3.1,6.6c-0.7,2.5-0.9,5-1,7.3c-0.1,2.3,0,4.3,0.1,6c0.1,1.7,0.3,3.1,0.4,4.1
						c0.1,1,0.2,1.5,0.2,1.5c0,0-0.2-0.5-0.4-1.5c-0.2-0.9-0.4-2.3-0.6-4.1c-0.2-1.7-0.3-3.8-0.2-6.1c0.1-2.3,0.3-4.8,1-7.4
						c0.7-2.6,1.8-4.9,3.2-6.7c1.5-1.8,3.3-3,5-3.5c0.4-0.2,0.8-0.3,1.2-0.4c0.4-0.1,0.7-0.2,1.1-0.3c0.7-0.1,1.3-0.2,1.8-0.2
						C71.7,392.2,72.3,392.3,72.3,392.3z"/>
				</g>
			</g>
			<g>
				<g>
					<path class="st6" d="M72.3,392.3c0,0,0-0.1-0.1-0.2c-0.1-0.2-0.2-0.4-0.3-0.7c-0.2-0.6-0.6-1.5-0.9-2.7
						c-0.8-2.4-1.7-5.9-2.8-10.2c-1.1-4.3-2.4-9.5-3.9-15.2c-1.5-5.7-3.1-12-5.1-18.5c-1-3.2-2-6.4-3.3-9.3c-0.3-0.7-0.6-1.4-1-2.1
						c-0.3-0.7-0.7-1.4-1.1-2c-0.8-1.3-1.5-2.7-2.3-3.9c-1.5-2.5-3.3-4.7-5.4-6.2c-2.1-1.5-4.5-2.2-6.7-2.5c-4.4-0.6-8,0.4-10.2,1.5
						c-2.3,1-3.3,2-3.3,2c0,0,0.1-0.1,0.2-0.2c0.2-0.1,0.3-0.3,0.6-0.5c0.5-0.4,1.3-0.9,2.5-1.5c2.2-1.1,5.9-2.2,10.4-1.7
						c2.2,0.3,4.7,1,6.9,2.5c2.2,1.5,4,3.8,5.6,6.3c0.8,1.3,1.5,2.6,2.3,3.9c0.4,0.7,0.8,1.3,1.1,2.1c0.4,0.7,0.7,1.4,1,2.2
						c1.3,3,2.3,6.1,3.3,9.4c2,6.5,3.6,12.8,5.1,18.5c1.4,5.7,2.7,10.8,3.8,15.2c1.1,4.3,2,7.8,2.7,10.2c0.3,1.2,0.6,2.1,0.8,2.7
						c0.1,0.3,0.2,0.5,0.2,0.7C72.2,392.2,72.3,392.3,72.3,392.3z"/>
				</g>
			</g>
			<g>
				<g>
					<path class="st6" d="M185.7,349.6c0,0-0.3,0-0.9,0c-0.6,0-1.5,0-2.6,0c-2.3,0-5.7,0-10.1,0c-8.8,0-21.5,0-37.2,0
						c-7.8,0-16.4,0-25.7-0.1c-4.6,0-9.4-0.1-14.3-0.1c-2.5,0-4.9,0-7.5,0.1c-0.6,0-1.3,0.1-1.8,0.2c-0.6,0.2-1.1,0.5-1.7,0.8
						c-1.1,0.6-2.2,1.3-3.3,2c-2.2,1.4-4.3,2.9-6.4,4.5c-2.1,1.6-4.2,3.3-6.1,5.2c-0.9,1-1.9,2-2.4,3.2c-0.1,0.3-0.2,0.6-0.2,0.9
						c0,0.3,0.1,0.6,0.2,0.9l0.5,2c0.7,2.7,1.4,5.4,2.1,8.1c0.7,2.7,1.5,5.5,2.2,8.2c0.4,1.4,0.8,2.8,1.2,4.1
						c0.2,0.7,0.4,1.4,0.7,2.1c0,0.1,0.1,0.1,0.1,0.2c0,0,0,0.1,0,0.1c0,0,0,0,0,0c0.2,0,0.3,0.1,0.5,0.1c0.4,0,0.7,0.1,1.1,0.1
						c5.8,0.3,11.7,0.3,17.7,0.4c23.9,0.3,46.8,0.3,67.5,0.3c10.4,0,20.2-0.1,29.5-0.2c4.6-0.1,9.1-0.1,13.3-0.3
						c1.1,0,2.1-0.1,3.2-0.2c0.3,0,0.5,0,0.8-0.1c0.1,0,0.2,0,0.4-0.1c0.1,0,0.1-0.1,0.2-0.1c0.3-0.3,0.5-0.8,0.7-1.3
						c0.8-1.9,1.3-3.8,1.7-5.7c1-3.8,1.7-7.5,2.5-10.9c0.2-0.9,0.4-1.7,0.5-2.6c0.1-0.8,0.4-1.7,0.4-2.5c-0.2-1.6-1.2-3-2.2-4.1
						c-2-2.3-4.3-4.2-6.4-5.8c-2.1-1.6-4.1-3.1-5.8-4.4c-1.8-1.3-3.3-2.6-4.8-3.3c-1.5-0.8-2.9-1.2-4-1.4c-1.1-0.2-2-0.3-2.6-0.4
						c-0.3,0-0.5,0-0.7,0C185.8,349.6,185.7,349.6,185.7,349.6s0.3,0,0.9,0c0.6,0,1.5,0.1,2.6,0.3c1.1,0.2,2.5,0.6,4,1.4
						c1.6,0.7,3.1,2,4.8,3.3c1.8,1.3,3.8,2.7,5.9,4.3c2.1,1.6,4.4,3.5,6.5,5.8c1,1.2,2,2.6,2.3,4.3c0.1,0.9-0.2,1.7-0.3,2.5
						c-0.2,0.8-0.3,1.7-0.5,2.6c-0.7,3.5-1.5,7.1-2.4,10.9c-0.5,1.9-1,3.9-1.7,5.8c-0.2,0.5-0.4,1-0.8,1.4c-0.1,0.1-0.3,0.2-0.4,0.2
						c-0.1,0-0.3,0.1-0.4,0.1c-0.3,0-0.5,0.1-0.8,0.1c-1.1,0.1-2.1,0.1-3.2,0.2c-4.3,0.2-8.7,0.3-13.4,0.3
						c-9.2,0.1-19.1,0.2-29.5,0.3c-20.7,0.1-43.6,0.1-67.5-0.2c-6-0.1-11.9-0.1-17.7-0.4c-0.4,0-0.7,0-1.1-0.1c-0.2,0-0.4,0-0.6-0.1
						c-0.1,0-0.2-0.1-0.2-0.1c-0.1,0-0.1-0.1-0.1-0.2c-0.1-0.1-0.1-0.2-0.1-0.3c-0.3-0.7-0.5-1.4-0.7-2.1c-0.4-1.4-0.8-2.8-1.2-4.2
						c-0.7-2.8-1.5-5.5-2.2-8.2c-0.7-2.7-1.4-5.4-2.1-8.1l-0.5-2c-0.1-0.3-0.2-0.6-0.2-1.1c0-0.4,0.1-0.8,0.3-1.1
						c0.6-1.3,1.6-2.3,2.5-3.3c1.9-1.9,4-3.7,6.1-5.3c2.1-1.6,4.3-3.1,6.5-4.5c1.1-0.7,2.2-1.4,3.3-2c0.6-0.3,1.1-0.6,1.8-0.8
						c0.7-0.2,1.3-0.2,1.9-0.2c2.5-0.1,5-0.1,7.5-0.1c4.9,0,9.7,0.1,14.3,0.1c9.2,0,17.8,0.1,25.7,0.1c15.7,0.1,28.4,0.2,37.2,0.2
						c4.4,0,7.8,0.1,10.1,0.1c1.1,0,2,0,2.6,0C185.4,349.6,185.7,349.6,185.7,349.6z"/>
				</g>
			</g>
			<g>
				<g>
					<path class="st6" d="M207.3,392.3c0,0,0-0.1,0.1-0.2c0.1-0.2,0.1-0.4,0.2-0.7c0.2-0.6,0.5-1.5,0.8-2.7
						c0.6-2.4,1.4-5.9,2.3-10.2c0.9-4.4,1.9-9.5,3-15.3c1.2-5.7,2.5-12.1,4.2-18.6c0.9-3.3,1.8-6.4,3.1-9.4c0.3-0.7,0.7-1.4,1.1-2.2
						c0.4-0.7,0.8-1.3,1.2-2c0.8-1.3,1.7-2.5,2.6-3.7c1.8-2.3,3.9-4.3,6.2-5.6c2.2-1.4,4.6-2.1,6.9-2.4c4.5-0.5,8.1,0.6,10.3,1.7
						c1.1,0.6,1.9,1.1,2.4,1.5c0.2,0.2,0.4,0.3,0.6,0.5c0.1,0.1,0.2,0.2,0.2,0.2c0,0.1-1.1-0.9-3.3-1.9c-2.2-1-5.8-2.1-10.2-1.5
						c-2.2,0.3-4.5,1-6.7,2.4c-2.2,1.4-4.2,3.3-6,5.6c-0.9,1.1-1.8,2.4-2.6,3.7c-0.4,0.6-0.8,1.3-1.2,2c-0.3,0.7-0.7,1.4-1,2.1
						c-1.2,2.9-2.1,6.1-3,9.3c-1.7,6.5-3,12.8-4.2,18.6c-1.2,5.7-2.2,10.9-3.2,15.2c-0.9,4.3-1.7,7.8-2.4,10.2
						c-0.3,1.2-0.6,2.1-0.9,2.7c-0.1,0.3-0.2,0.5-0.3,0.7C207.4,392.2,207.3,392.3,207.3,392.3z"/>
				</g>
			</g>
			<g>
				<g>
					<path class="st6" d="M209.7,263.6c0.1,0-4.4,19.3-10.2,43.1c-5.8,23.8-10.6,43-10.7,43c-0.1,0,4.4-19.3,10.2-43.1
						C204.7,282.8,209.5,263.6,209.7,263.6z"/>
				</g>
			</g>
			<g>
				<g>
					<path class="st6" d="M66.5,269.8c0,0,0.1,0.3,0.3,0.8c0.2,0.6,0.4,1.3,0.7,2.3c0.6,2.1,1.5,4.9,2.5,8.5c2.1,7.2,5,17.1,8,28.2
						c3,11,5.7,21,7.6,28.3c0.9,3.6,1.7,6.5,2.2,8.6c0.2,1,0.4,1.8,0.6,2.3c0.1,0.5,0.2,0.8,0.2,0.8c0,0-0.1-0.3-0.3-0.8
						c-0.2-0.6-0.4-1.3-0.7-2.3c-0.6-2.1-1.4-5-2.3-8.6c-2-7.3-4.7-17.2-7.7-28.2c-3.1-11-5.8-20.9-7.8-28.2c-1-3.6-1.8-6.5-2.4-8.5
						c-0.3-1-0.5-1.8-0.6-2.3C66.5,270.1,66.5,269.8,66.5,269.8z"/>
				</g>
			</g>
		</g>
		<g>
			<g>
				<g>
					<g>
						<path class="st6" d="M105.6,153.7c0.2-2.9,2.7-5.5,5.6-5.6c-1.7-2.8-0.3-6.8,2.6-8.4c2.9-1.5,6.7-0.7,9.1,1.4
							c1.4-2.4,4.5-3.6,7.2-2.8c2.7,0.8,4.6,3.5,4.5,6.3c2.7-0.8,5.6,1.3,6.2,4.1c0.5,2.7-1,5.6-3.3,7.2c1.4,1,1.2,3.3,0.1,4.5
							c-1.1,1.3-2.8,1.8-4.5,2.1l-10.5,3.1c-2.5,1.4-5.6,2.1-8.3,1.1c-2.7-1-4.6-4.2-3.6-6.9C107.7,159.4,105.4,156.6,105.6,153.7z"
							/>
					</g>
					<g>
						<g>
							<path class="st7" d="M105.6,152.5c0,0,0.1-0.1,0.4-0.4c0.3-0.2,0.7-0.5,1.3-0.7c0.6-0.2,1.4-0.3,2.4-0.1
								c0.9,0.2,2,0.7,2.7,1.6l-0.3,0.1c0.1-1.3,0.6-2.7,1.7-3.8c1-1.1,2.5-2.1,4.2-2.4c1.7-0.4,3.6-0.1,5.4,0.6
								c1.8,0.7,3.4,1.9,4.8,3.4c0.6,0.7,1.2,1.6,1.5,2.5c0.3,0.9,0.1,2-0.4,2.8c-0.3,0.4-0.6,0.7-1.1,1c-0.5,0.2-1,0.3-1.4,0.1
								c-0.9-0.3-1.6-1-1.9-1.9c-0.2-0.9,0-1.8,0.5-2.5c0.5-0.7,1.1-1.2,1.8-1.5c1.4-0.6,2.9-0.5,4.1-0.3c2.5,0.5,4.2,1.8,5.2,2.8
								c0.5,0.5,0.8,1,1,1.3c0.2,0.3,0.3,0.5,0.3,0.5c0,0-0.4-0.7-1.4-1.7c-1-1-2.7-2.2-5.1-2.6c-1.2-0.2-2.6-0.2-3.9,0.4
								c-0.6,0.3-1.2,0.7-1.6,1.4c-0.4,0.6-0.6,1.4-0.4,2.1c0.2,0.7,0.8,1.4,1.5,1.6c0.7,0.2,1.5-0.2,2-0.9c0.5-0.7,0.6-1.6,0.3-2.4
								c-0.2-0.8-0.8-1.6-1.4-2.3c-2.6-2.9-6.4-4.6-9.7-3.9c-1.6,0.3-3,1.2-4,2.3c-1,1.1-1.5,2.4-1.6,3.6l0,0.5l-0.3-0.4
								c-0.7-0.9-1.6-1.4-2.5-1.5c-0.9-0.2-1.7-0.1-2.3,0C106.2,152,105.7,152.5,105.6,152.5z"/>
						</g>
					</g>
					<g>
						<g>
							<path class="st6" d="M115.4,163.3c0,0,0,0.1-0.1,0.3c-0.1,0.2-0.3,0.4-0.5,0.6c-0.3,0.2-0.7,0.5-1.2,0.6
								c-0.5,0.1-1.2,0.1-1.8-0.3l-1-0.6l1.1,0.3c0.4,0.1,0.7,0.2,1.1,0.3l1.4,0.4l-1.5-0.1c-0.9-0.1-1.9-0.6-2.3-1.6
								c-0.5-1-0.3-2.3,0.6-3.3l0.3,0.3c-1.1,1.6-3.3,2.7-5.6,2.6c-2.3-0.1-4.5-2-5.3-4.4c-0.5-1.6-0.4-3.4,0.4-4.9
								c0.8-1.4,2.8-2.1,4.2-1.2l-0.3,0.4c-0.9-0.8-1.4-1.9-1.5-3c-0.1-1.1,0.2-2.1,0.7-3c0.5-0.8,1.3-1.4,2.1-1.7
								c0.8-0.3,1.6-0.3,2.3-0.1c1.4,0.3,2.3,1,2.7,1.6c0.5,0.6,0.5,1,0.5,1c0,0-0.2-0.4-0.7-0.9c-0.5-0.5-1.4-1.2-2.7-1.4
								c-0.6-0.1-1.4-0.1-2.1,0.2c-0.7,0.2-1.4,0.8-1.9,1.5c-0.4,0.8-0.7,1.7-0.6,2.7c0.1,1,0.5,2,1.3,2.7l-0.3,0.4
								c-1.1-0.7-2.8-0.2-3.5,1.1c-0.8,1.2-0.9,2.9-0.4,4.4c0.7,2.2,2.7,3.9,4.9,4c2.1,0.2,4.2-0.8,5.2-2.3l0.3,0.3
								c-0.8,0.8-0.9,1.9-0.5,2.8c0.4,0.9,1.2,1.4,2,1.4l-0.1,0.3c-0.4-0.1-0.8-0.3-1.1-0.4l0.1-0.3c0.5,0.3,1.1,0.4,1.6,0.3
								c0.5-0.1,0.9-0.3,1.2-0.5C115.3,163.7,115.4,163.3,115.4,163.3z"/>
						</g>
					</g>
					<g>
						<g>
							<path class="st6" d="M145.3,157.1c0,0,0.4-0.4,0.9-1.3c0.5-0.9,1-2.3,0.6-4.1c-0.3-1.7-1.8-3.6-4.1-4.3
								c-0.6-0.2-1.2-0.2-1.8-0.2c-0.6,0-1.2,0.2-1.5,0.7c-0.3,0.5-0.3,1.1,0.3,1.3c0.5,0.2,1.2,0.1,1.8-0.1
								c1.2-0.5,2.3-1.5,2.7-2.6c0.5-1.2,0.3-2.5-0.3-3.5c-1.1-2.1-3.4-3-5.2-2.9c-1.8,0-3.1,0.8-3.9,1.4c-0.8,0.6-1.1,1.1-1.1,1.1
								c0,0,0-0.1,0.2-0.4c0.2-0.2,0.4-0.5,0.8-0.9c0.8-0.7,2.1-1.6,4-1.6c0.9,0,2,0.2,3,0.7c1,0.5,2,1.3,2.6,2.4
								c0.6,1.1,0.9,2.6,0.3,3.9c-0.5,1.3-1.6,2.4-3,2.9c-0.7,0.3-1.5,0.4-2.2,0.1c-0.4-0.2-0.7-0.5-0.8-0.9
								c-0.1-0.4,0.1-0.8,0.3-1.1c0.5-0.7,1.3-0.8,1.9-0.9c0.7,0,1.3,0.1,1.9,0.2c2.4,0.7,4,2.8,4.3,4.7c0.3,1.9-0.3,3.4-0.8,4.3
								c-0.3,0.4-0.5,0.7-0.7,0.9C145.5,157.1,145.3,157.2,145.3,157.1z"/>
						</g>
					</g>
				</g>
				<g>
					<path class="st8" d="M113.6,165.6c1.2-2.3,4.5-2.6,6.8-1.6c-0.2-1.8,0.7-3.6,2.2-4.5c1.5-0.9,3.6-0.9,5,0.1
						c0.6,0.4,1.1,0.9,1.8,0.9c0.7,0,1.2-0.7,1.7-1.2c1.9-1.8,5.2-1.6,6.8,0.4c1.6,2,1.2,5.3-0.8,6.8l-0.3-1.3
						c-3.9,3.8-9.1,6.2-14.4,7c-2.3,0.3-4.7,0.3-6.7-0.8C113.8,170.2,112.6,167.6,113.6,165.6z"/>
				</g>
				<g>
					<path class="st6" d="M107.9,185.6c-2-2.9-1.8-7.1,0.4-9.8c0.8-1.1,2-1.9,3.2-2.4c0.2-2.2,0.9-4.3,2.3-5.9
						c2.1-2.4,6.1-3.1,8.4-1c1.7-3.8,7-5.4,10.5-3.2c3-3.6,9.4-3.3,12.2,0.4c1.8-1.2,4.4-1.3,6.2-0.1c1.9,1.2,2.9,3.5,2.6,5.7
						c2.1-0.4,4.4,0.5,5.8,2.2c1.4,1.7,1.8,4.1,1,6.1c1.8,0.1,3.5,1.4,4.1,3.1c0.6,1.7,0,3.8-1.4,4.9c2.4,2.7,1.7,7.5-1.4,9.4
						c0.6,2.6-1.1,5.5-3.6,6.2l-37.8,11.2c-6.4-0.5-8.1-4.6-8.3-8.4c-1.5-0.5-2.8-1.7-3.4-3.2c-0.7-1.6-0.6-3.5,0.2-5
						c-1.7-1-2.9-2.9-3.1-4.9C105.6,189.1,106.4,187,107.9,185.6z"/>
				</g>
				<g>
					<g>
						<path class="st13" d="M122.6,177.1l23.2-5.1c7.4-0.6,12,8.7,12.3,16.1c0.3,8.2,0.3,18.3-0.9,24.4
							c-2.3,12.3-11.8,13.6-11.8,13.6c0,0,0,0.2-0.2,3.8l-0.2,5.9c-0.1,2.4-0.9,4.8-2.5,6.6c-3.7,4.1-9.8,4.3-16.8,1.1
							c-4.1-1.8-3.8-4.1-4.3-9.8l-3.3-53.7C118.6,179.1,120.4,177.3,122.6,177.1z"/>
					</g>
					<g>
						<g>
							<g>
								<path class="st6" d="M153.3,199.2c0,0.8-0.7,1.5-1.6,1.6c-0.9,0-1.6-0.6-1.6-1.5c0-0.8,0.7-1.5,1.6-1.6
									C152.5,197.7,153.3,198.3,153.3,199.2z"/>
							</g>
						</g>
					</g>
					<g>
						<g>
							<g>
								<path class="st6" d="M155.2,194.4c-0.2,0.2-1.4-0.7-3.1-0.8c-1.7-0.1-3,0.8-3.2,0.6c-0.1-0.1,0.1-0.5,0.7-0.8
									c0.5-0.4,1.5-0.7,2.5-0.7c1.1,0,1.9,0.5,2.4,0.9C155.1,193.9,155.3,194.3,155.2,194.4z"/>
							</g>
						</g>
					</g>
					<g>
						<g>
							<g>
								<path class="st6" d="M138.5,198.7c0,0.8-0.7,1.5-1.6,1.6c-0.9,0-1.6-0.6-1.6-1.5c0-0.8,0.7-1.5,1.6-1.6
									C137.8,197.2,138.5,197.8,138.5,198.7z"/>
							</g>
						</g>
					</g>
					<g>
						<g>
							<g>
								<path class="st6" d="M139.1,194.4c-0.2,0.2-1.4-0.7-3.1-0.8c-1.7-0.1-3,0.8-3.2,0.6c-0.1-0.1,0.1-0.5,0.7-0.8
									c0.5-0.4,1.5-0.7,2.5-0.7c1.1,0,1.9,0.5,2.4,0.9C139,193.9,139.2,194.3,139.1,194.4z"/>
							</g>
						</g>
					</g>
					<g>
						<g>
							<g>
								<path class="st6" d="M143.9,205.8c0-0.1,1.1-0.2,2.8-0.4c0.4,0,0.9-0.1,0.9-0.4c0.1-0.3-0.1-0.8-0.3-1.3
									c-0.4-1.1-0.8-2.2-1.2-3.3c-1.6-4.8-2.8-8.7-2.6-8.7c0.2-0.1,1.7,3.7,3.3,8.5c0.4,1.2,0.8,2.3,1.1,3.4
									c0.2,0.5,0.4,1.1,0.2,1.7c-0.1,0.3-0.5,0.5-0.7,0.6c-0.3,0.1-0.5,0.1-0.7,0.1C145,205.9,143.9,205.9,143.9,205.8z"/>
							</g>
						</g>
					</g>
					<g>
						<g>
							<g>
								<path class="st14" d="M145.5,226c0,0-8.3,0.3-16.4-4.9c0,0,3.8,8.8,16.2,8L145.5,226z"/>
							</g>
						</g>
					</g>
					<g>
						<g>
							<path class="st14" d="M138.2,209.2c0.5-0.7,1.3-1.1,2.1-1.1c1.2,0,2.2,0.4,2.9,1.5c0.3,0.3,0.2,1.2,0.1,1.4
								c-0.1,0.2,0,0.1-0.2,0.3c-0.7,0.6-1.4,1.2-2.3,1.4c-0.9,0.2-2-0.1-2.5-1C137.6,210.9,137.7,209.9,138.2,209.2z"/>
						</g>
					</g>
					<g>
						<g>
							<g>
								<path class="st6" d="M138.6,206.8c0.3,0,0.2,1.8,1.8,3.2c1.5,1.4,3.5,1.2,3.5,1.5c0,0.1-0.4,0.3-1.3,0.4
									c-0.8,0-2-0.3-2.9-1.1c-0.9-0.8-1.3-1.9-1.4-2.7C138.2,207.3,138.4,206.8,138.6,206.8z"/>
							</g>
						</g>
					</g>
					<g>
						<g>
							<g>
								<path class="st6" d="M139.4,186.9c-0.2,0.5-1.9,0.3-3.9,0.6c-2,0.3-3.6,0.9-3.9,0.5c-0.1-0.2,0.1-0.6,0.8-1.1
									c0.6-0.5,1.7-0.9,2.8-1.1c1.2-0.2,2.3,0,3,0.3C139,186.4,139.4,186.7,139.4,186.9z"/>
							</g>
						</g>
					</g>
					<g>
						<g>
							<g>
								<path class="st6" d="M154.9,188.3c-0.4,0.4-1.6-0.1-3.2-0.2c-1.6-0.2-2.9,0.1-3.2-0.3c-0.1-0.2,0.1-0.6,0.7-0.9
									c0.6-0.3,1.6-0.6,2.6-0.5c1.1,0.1,2,0.5,2.5,0.9C154.9,187.7,155,188.1,154.9,188.3z"/>
							</g>
						</g>
					</g>
					<g>
						<path class="st6" d="M146,170.6c0,0.1,0,0.2,0,0.3l0,0C146,170.8,146,170.7,146,170.6z"/>
					</g>
				</g>
				<g>
					<g>
						<path class="st13" d="M121.4,199.1c0-0.8-0.5-1.5-1.3-1.7c-2-0.4-5.5-0.4-5.9,4.6c-0.5,6.9,6.6,6,6.6,5.8
							C120.9,207.7,121.3,201.8,121.4,199.1z"/>
					</g>
				</g>
				<g>
					<g>
						<path class="st14" d="M118.9,205c0,0-0.1,0.1-0.3,0.2c-0.2,0.1-0.6,0.1-0.9,0c-0.7-0.3-1.2-1.5-1.2-2.8c0-0.6,0.2-1.2,0.5-1.7
							c0.2-0.5,0.6-0.8,1-0.9c0.4-0.1,0.6,0.2,0.7,0.4c0.1,0.2,0,0.3,0.1,0.4c0,0,0.2-0.1,0.1-0.4c0-0.1-0.1-0.3-0.2-0.5
							c-0.2-0.1-0.4-0.2-0.7-0.2c-0.5,0-1.1,0.5-1.3,1c-0.3,0.5-0.5,1.2-0.6,1.9c-0.1,1.4,0.6,2.8,1.6,3.1c0.5,0.2,0.9,0,1.1-0.1
							C118.9,205.2,119,205.1,118.9,205z"/>
					</g>
				</g>
				<g>
					<path class="st6" d="M160.5,192.1c-1.3,0-2.6-0.6-3.4-1.6c-0.8-1-1.2-2.4-0.9-3.6c-1.4,0-2.8-0.6-3.6-1.7
						c-0.9-1.1-1.2-2.6-0.8-4c-1.5,0.7-3.3,0.7-4.9,0c-1.5-0.7-2.7-2.2-3-3.8c0,0.6-0.4,1.1-0.9,1.3s-1.1,0.3-1.6,0.3
						c-1.8-0.1-3.6-1.3-4.3-3c-1.1,1.9-3.7,2.7-5.7,1.8c-0.7-0.3-1.4-1-1.3-1.8c0-0.3,0.2-0.5,0.4-0.8c2.1-3.2,5.9-4.9,9.7-5.3
						c3.8-0.3,7.6,0.6,11.2,1.8c2.1,0.7,4.3,1.6,5.9,3.2c1.7,1.7,2.6,4.1,3.4,6.3c0.6,1.7,1.2,3.3,1.5,5.1c0.3,1.7,0.2,3.6-0.5,5.2
						c-0.2,0-0.3,0-0.5,0"/>
				</g>
				<g>
					<path class="st6" d="M131.4,176c0,3-2.4,5.8-5.4,6.2c1.5,0.6,2.4,2.4,2,3.9c-0.4,1.5-2.2,2.6-3.7,2.3c0.4,1,0.8,2.1,0.8,3.1
						c0,1.1-0.6,2.2-1.7,2.6c0.5,0.7,1.1,1.6,0.8,2.7c-0.2,0.8-0.9,2-2.5,2c-1,0-1.8-1.3-2.9-1.4c-1.5-0.3-3.1,0.2-4.2,1.3
						l-1.3-12.9l1.6-10.4l6.1-4.4l11.7,2.1L131.4,176z"/>
				</g>
				<g>
					<g>
						<path class="st7" d="M112,176.4c0-0.1,0.5,0.1,1.2-0.1c0.7-0.2,1.8-0.8,2.3-2l0.3-0.8l0.1,0.8c0.1,0.9,0.6,1.9,1.5,2.5
							c0.8,0.7,2.1,1,3.3,0.7c0.8-0.2,1.4-0.6,1.9-1.2l0.2-0.3l0.2,0.3c0.7,1,1.7,1.8,2.7,2.1c1,0.4,2,0.4,2.7,0.2
							c1.6-0.3,2.3-1,2.4-0.9c0,0-0.1,0.2-0.5,0.5c-0.4,0.3-1,0.6-1.8,0.8c-0.8,0.2-1.9,0.2-2.9-0.2c-1.1-0.4-2.2-1.1-2.9-2.3l0.4,0
							c-0.5,0.6-1.3,1.1-2.2,1.3c-1.3,0.4-2.8,0-3.7-0.8c-1-0.8-1.5-1.9-1.6-2.9l0.4,0c-0.6,1.4-1.9,2-2.7,2.1
							C112.4,176.6,112,176.4,112,176.4z"/>
					</g>
				</g>
				<g>
					<g>
						<path class="st7" d="M130.1,162.8c0,0.1-1.1,0.4-2.6,1.4c-0.7,0.5-1.5,1.3-1.9,2.4c-0.4,1.1-0.3,2.5,0.5,3.4
							c0.3,0.3,0.6,0.6,1,0.7l0.3,0.1l-0.2,0.3c-0.6,1-0.5,2.2-0.1,3.1c0.4,0.9,1.1,1.6,1.7,2c1.2,0.9,2.1,1.4,2,1.5
							c0,0-0.2-0.1-0.6-0.3c-0.4-0.2-1-0.5-1.6-1c-0.6-0.5-1.4-1.1-1.9-2.1c-0.5-1-0.7-2.4,0-3.5l0.1,0.4c-0.5-0.2-0.9-0.5-1.2-0.8
							c-1-1.1-1.1-2.8-0.6-4c0.5-1.2,1.4-2,2.1-2.5c0.8-0.5,1.5-0.8,2-0.9C129.9,162.8,130.1,162.8,130.1,162.8z"/>
					</g>
				</g>
				<g>
					<g>
						<path class="st6" d="M167.8,204.2c0,0-0.1,0.1-0.2,0.1c-0.2,0.1-0.4,0.1-0.8,0.2c-0.7,0.1-1.8,0-2.8-0.8c-1-0.7-1.7-2.4-1.3-4
							c0.2-0.8,0.7-1.6,1.5-2.2c0.4-0.3,0.8-0.5,1.4-0.5c0.5,0,1.1,0.2,1.4,0.7c0.3,0.5,0.3,1.1,0.1,1.6c-0.2,0.5-0.6,0.8-1,1.1
							c-0.8,0.5-1.8,0.5-2.6,0.3c-0.8-0.2-1.5-0.6-2.1-1.1c-0.5-0.5-0.9-1.1-1.1-1.7c-0.4-1.2-0.4-2.2-0.3-2.9c0.1-0.7,0.3-1,0.3-1
							c0,0-0.1,0.4-0.1,1c0,0.7,0,1.6,0.4,2.7c0.2,0.5,0.6,1.1,1.1,1.5c0.5,0.4,1.1,0.8,1.9,0.9c0.7,0.1,1.6,0.1,2.2-0.3
							c0.7-0.4,1.2-1.3,0.7-1.9c-0.2-0.3-0.6-0.5-1-0.5c-0.4,0-0.8,0.2-1.1,0.4c-0.7,0.5-1.1,1.2-1.3,1.9c-0.4,1.5,0.1,2.9,1,3.6
							c0.9,0.7,1.9,0.9,2.5,0.9C167.4,204.3,167.8,204.1,167.8,204.2z"/>
					</g>
				</g>
				<g>
					<g>
						<path class="st6" d="M113.2,195.5c0,0-0.3,0.2-0.9,0.5c-0.6,0.2-1.6,0.5-2.7,0.5c-1.2,0-2.6-0.2-4.1-0.8
							c-0.7-0.3-1.5-0.9-1.8-1.8c-0.1-0.4-0.2-0.9,0-1.4c0.2-0.5,0.6-0.8,1.1-1c0.3-0.1,0.6-0.1,0.9,0l-0.2,0.5
							c-1.7-0.8-2.4-2.6-2.3-4.1c0.1-0.8,0.4-1.5,0.8-2c0.4-0.5,1-0.9,1.5-1.1c1-0.5,2-0.4,2.6-0.3c0.6,0.2,0.9,0.4,0.9,0.4
							c0,0-0.3-0.1-0.9-0.2c-0.6-0.1-1.5-0.1-2.4,0.4c-0.9,0.4-1.9,1.4-2,2.8c-0.1,1.3,0.6,3,2,3.6l-0.2,0.5c-0.2-0.1-0.4,0-0.6,0
							c-0.3,0.1-0.6,0.4-0.8,0.7c-0.1,0.3-0.1,0.7,0,1.1c0.2,0.7,0.8,1.2,1.5,1.5c1.3,0.6,2.7,0.8,3.9,0.8
							C111.9,196.1,113.2,195.4,113.2,195.5z"/>
					</g>
				</g>
			</g>
		</g>
		<g>
			<path class="st13" d="M160.9,288.3c0.3,0.5,11.5,15.5,11.5,15.5l13.5-12.5l-8.6-21.8l-5.2-8.9L160.9,288.3z"/>
		</g>
		<g class="st12">
			<polygon points="116.9,422.9 111.3,422.8 109.3,373.8 97.1,368.6 119.3,355 178.6,396.9 190.4,422.9 			"/>
		</g>
		<g>
			<g>
				<path class="st13" d="M156,406.1c0,0,10.5,19.8,10.5,19.8l15.5-8.7l-6.8-21.6L156,406.1z"/>
			</g>
			<g>
				<g>
					<g>
						<g>
							<g>
								<g>
									<g>
										<g>
											<g>
												<g>
													<g>
														<g>
															<path class="st6" d="M164.7,423.2c0,0,16,0.5,16.3-9.8l0.9,2.1l23.9,15.7c3.8,2.7,3.5,5.8,2.5,7.4
																c-0.8,1.2-2.1,1.9-3.5,1.7c-7.4-0.9-34.7-4.6-36.1-6.8l-1.4-1.9c-2.3-2.7-3-6-2.3-7.2L164.7,423.2z"/>
														</g>
													</g>
												</g>
											</g>
										</g>
									</g>
								</g>
							</g>
						</g>
					</g>
					<g class="st15">
						<g>
							<g>
								<g>
									<g>
										<g>
											<g>
												<g>
													<g>
														<g>
															<path class="st3" d="M207.8,439.1l-40.6-7.5l0.9,1.2c0.8,1.4,1.8,1.5,3,1.9c3.7,1.1,12.9,2.9,33.5,5.7
																C205.8,440.4,207,440,207.8,439.1L207.8,439.1z"/>
														</g>
													</g>
												</g>
											</g>
										</g>
									</g>
								</g>
							</g>
						</g>
					</g>
					<g class="st15">
						<g>
							<g>
								<g>
									<g>
										<g>
											<g>
												<g>
													<g>
														<g>
															<g>
																<path class="st3" d="M170.1,426.4c1.1,0,2.1,0.9,2.2,1.9c0.1,1.1-0.8,2.1-1.9,2.2c-1.1,0.1-2.3-1-2.3-2.1
																	c0-1.1,1.2-2.3,2.2-2.1"/>
															</g>
														</g>
													</g>
												</g>
											</g>
										</g>
									</g>
								</g>
							</g>
						</g>
					</g>
					<g>
						<g>
							<g>
								<g>
									<g>
										<g>
											<g>
												<g>
													<g>
														<g>
															<g>
																<path class="st3" d="M188.9,429.5c0.2,0-0.2-2,0.9-4.1c1-2.1,2.9-2.8,2.8-3.1c0-0.1-0.6,0-1.3,0.4
																	c-0.7,0.4-1.6,1.2-2.2,2.3c-0.6,1.1-0.7,2.3-0.6,3.2C188.5,429.1,188.8,429.6,188.9,429.5z"/>
															</g>
														</g>
													</g>
												</g>
											</g>
										</g>
									</g>
								</g>
							</g>
						</g>
					</g>
					<g>
						<g>
							<g>
								<g>
									<g>
										<g>
											<g>
												<g>
													<g>
														<g>
															<g>
																<path class="st3" d="M193.4,431.2c0.2,0,0.5-1.6,1.6-3.1c1.1-1.5,2.6-2.2,2.5-2.4c0-0.2-1.8,0.2-3.1,1.9
																	C193.1,429.4,193.2,431.3,193.4,431.2z"/>
															</g>
														</g>
													</g>
												</g>
											</g>
										</g>
									</g>
								</g>
							</g>
						</g>
					</g>
					<g>
						<g>
							<g>
								<g>
									<g>
										<g>
											<g>
												<g>
													<g>
														<g>
															<g>
																<path class="st3" d="M183.7,427.7c0.2,0,0.5-2.1,1.9-4.3c1.4-2.2,3.1-3.4,3-3.6c-0.1-0.2-2.1,0.9-3.6,3.2
																	C183.6,425.4,183.6,427.7,183.7,427.7z"/>
															</g>
														</g>
													</g>
												</g>
											</g>
										</g>
									</g>
								</g>
							</g>
						</g>
					</g>
					<g>
						<g>
							<g>
								<g>
									<g>
										<g>
											<g>
												<g>
													<g>
														<g>
															<g>
																<path class="st3" d="M184.3,421.4c0,0-0.3-0.4-0.9-0.9c-0.7-0.5-1.8-1.2-3.3-1.6c-0.7-0.2-1.6-0.5-2.6-0.1
																	c-0.5,0.2-0.9,0.8-0.9,1.4c0,0.6,0.4,1.1,0.8,1.5c1.7,1.5,4.6,1.6,6.5,0c1.9-1.7,2.4-4.3,1.7-6.4
																	c-0.2-0.5-0.6-1-1.2-1.2c-0.6-0.2-1.3,0.1-1.6,0.6c-0.6,0.9-0.6,1.8-0.7,2.5c-0.1,1.6,0.1,2.8,0.4,3.6
																	c0.2,0.8,0.5,1.2,0.5,1.2c0.2,0-0.7-1.8-0.3-4.8c0.1-0.7,0.2-1.6,0.7-2.2c0.2-0.3,0.5-0.4,0.9-0.3
																	c0.3,0.1,0.6,0.5,0.7,0.9c0.6,1.7,0.1,4.1-1.6,5.5c-1.6,1.4-4.2,1.3-5.5,0.1c-0.3-0.3-0.6-0.7-0.6-1
																	c0-0.3,0.2-0.6,0.5-0.8c0.7-0.3,1.5-0.1,2.2,0C182.8,420,184.2,421.5,184.3,421.4z"/>
															</g>
														</g>
													</g>
												</g>
											</g>
										</g>
									</g>
								</g>
							</g>
						</g>
					</g>
				</g>
			</g>
		</g>
		<g>
			<g>
				<path class="st13" d="M122.3,432.1c0.1,0,0.2,24.4,0.2,24.4s16.9,2.7,16.9,2.2c0-0.4,5-23.8,5-23.8L122.3,432.1z"/>
			</g>
			<g>
				<g>
					<g>
						<g>
							<g>
								<g>
									<g>
										<g>
											<g>
												<g>
													<g>
														<g>
															<path class="st6" d="M140.8,452c0,0-12.3,9.3-18.3,0.9l-0.2,2.2l-11.1,26.3c-1.6,4.4,0.3,6.8,2,7.5
																c1.3,0.6,2.8,0.3,3.9-0.6c5.6-4.9,26.3-23.1,26.2-25.7l0.1-2.4c0.4-3.5-0.8-6.7-2.1-7.2L140.8,452z"/>
														</g>
													</g>
												</g>
											</g>
										</g>
									</g>
								</g>
							</g>
						</g>
					</g>
					<g class="st15">
						<g>
							<g>
								<g>
									<g>
										<g>
											<g>
												<g>
													<g>
														<g>
															<path class="st3" d="M113.8,489.2l29.5-28.9l-0.1,1.5c0.1,1.6-0.7,2.2-1.5,3.2c-2.4,3-9,9.6-24.6,23.4
																C116.2,489.2,115,489.5,113.8,489.2L113.8,489.2z"/>
														</g>
													</g>
												</g>
											</g>
										</g>
									</g>
								</g>
							</g>
						</g>
					</g>
					<g class="st15">
						<g>
							<g>
								<g>
									<g>
										<g>
											<g>
												<g>
													<g>
														<g>
															<g>
																<path class="st3" d="M138.1,457.6c-0.9,0.6-1.3,1.9-0.7,2.8c0.5,0.9,1.9,1.3,2.8,0.8c0.9-0.6,1.4-2.1,0.8-3
																	c-0.6-0.9-2.2-1.2-3-0.5"/>
															</g>
														</g>
													</g>
												</g>
											</g>
										</g>
									</g>
								</g>
							</g>
						</g>
					</g>
					<g>
						<g>
							<g>
								<g>
									<g>
										<g>
											<g>
												<g>
													<g>
														<g>
															<g>
																<path class="st3" d="M124.3,470.7c-0.2,0.1-0.9-1.8-3-2.9c-2-1.2-4-0.7-4-1c0-0.1,0.4-0.3,1.3-0.4
																	c0.8-0.1,2,0.1,3.1,0.7c1.1,0.6,1.9,1.5,2.3,2.3C124.3,470.2,124.4,470.7,124.3,470.7z"/>
															</g>
														</g>
													</g>
												</g>
											</g>
										</g>
									</g>
								</g>
							</g>
						</g>
					</g>
					<g>
						<g>
							<g>
								<g>
									<g>
										<g>
											<g>
												<g>
													<g>
														<g>
															<g>
																<path class="st3" d="M121.5,474.6c-0.2,0.1-1.3-1.1-3.1-1.7c-1.8-0.6-3.4-0.4-3.4-0.6c-0.1-0.2,1.6-0.9,3.7-0.1
																	C120.7,472.9,121.7,474.6,121.5,474.6z"/>
															</g>
														</g>
													</g>
												</g>
											</g>
										</g>
									</g>
								</g>
							</g>
						</g>
					</g>
					<g>
						<g>
							<g>
								<g>
									<g>
										<g>
											<g>
												<g>
													<g>
														<g>
															<g>
																<path class="st3" d="M127.5,466.3c-0.2,0.1-1.6-1.5-3.9-2.5c-2.3-1.1-4.5-1.1-4.5-1.3c0-0.2,2.3-0.5,4.8,0.7
																	C126.4,464.3,127.6,466.2,127.5,466.3z"/>
															</g>
														</g>
													</g>
												</g>
											</g>
										</g>
									</g>
								</g>
							</g>
						</g>
					</g>
					<g>
						<g>
							<g>
								<g>
									<g>
										<g>
											<g>
												<g>
													<g>
														<g>
															<g>
																<path class="st3" d="M123.5,461.4c0,0,0-0.5,0.3-1.3c0.3-0.8,0.8-2,1.8-3.2c0.5-0.6,1.1-1.3,2.2-1.5
																	c0.5-0.1,1.2,0.1,1.5,0.7c0.3,0.5,0.3,1.1,0.2,1.7c-0.5,2.2-2.9,3.9-5.4,3.6c-2.5-0.3-4.4-2.2-5-4.3
																	c-0.1-0.5-0.1-1.2,0.3-1.7c0.4-0.5,1.2-0.6,1.6-0.4c1,0.4,1.5,1.1,2,1.7c1,1.2,1.5,2.4,1.7,3.2
																	c0.3,0.8,0.3,1.3,0.3,1.3c-0.1,0.1-0.5-1.9-2.4-4.2c-0.5-0.5-1.1-1.2-1.8-1.4c-0.4-0.1-0.7,0-0.9,0.2
																	c-0.2,0.2-0.2,0.7-0.1,1.1c0.5,1.7,2.2,3.5,4.4,3.7c2.1,0.2,4.2-1.2,4.7-3c0.1-0.4,0.1-0.9-0.1-1.2
																	c-0.2-0.3-0.5-0.4-0.8-0.4c-0.7,0.1-1.4,0.7-1.9,1.3C124,459.4,123.7,461.4,123.5,461.4z"/>
															</g>
														</g>
													</g>
												</g>
											</g>
										</g>
									</g>
								</g>
							</g>
						</g>
					</g>
				</g>
			</g>
		</g>
		<g>
			<g>
				<path class="st8" d="M100.1,238.8l21.1-8.1c0,0,5.3,9.2,14.7,8.4c9.6-0.8,9.3-7.8,9.3-7.8l26.5,7.5c0,0,1.7,35.9,0,41.5
					c-1.7,5.6-6.7,12.9-6.7,12.9s5.2,12.2,5.4,15.6s-1.3,2.5-1.3,2.5l-64,0.8L100.1,238.8z"/>
			</g>
			<g class="st12">
				<g>
					<path d="M156.4,275.6c-0.8-0.7-2.1-0.2-3.1,0.3c-5.5,3-11,6-16.3,9.4c-6.6,4.4-12.7,9.4-19.2,14c-3.8,2.7-7.7,5.2-11.8,7.5
						l-1.4,2.4c1.5,2.4,4.5,3.4,7.2,3.2c2.8-0.2,5.3-1.5,7.7-3c10.9-6.9,18.5-18,29.4-24.9c2.7-1.7,5.7-3.2,7.3-6
						C156.9,277.6,157.2,276.3,156.4,275.6z"/>
				</g>
			</g>
			<g>
				<g>
					<path class="st6" d="M158.9,292.6c0,0.1-1,0.1-2.6,0.1c-1.6,0-3.9,0.1-6.3,0.3c-2.5,0.2-4.7,0.4-6.3,0.6
						c-1.6,0.2-2.6,0.3-2.6,0.3c0-0.1,1-0.3,2.6-0.6c1.6-0.3,3.8-0.6,6.3-0.8c2.5-0.2,4.8-0.2,6.4-0.2
						C157.9,292.4,158.9,292.5,158.9,292.6z"/>
				</g>
			</g>
		</g>
		<g>
			<g>
				<path class="st13" d="M90.5,282.3c0,0,5.9,16.7,8.5,20.9c2.6,4.3,3.7,9.7,12.1,7.5c8.4-2.2,12.7-7.7,21.8-15.2
					s15.1-13.2,15.1-13.2l-6.5-7.8l-26.8,12.2l-6.4-14L90.5,282.3z"/>
			</g>
			<g>
				<path class="st13" d="M171.5,257.2l-18.4,9.7l-15,9.6c0,0,7.5,6.6,9.6,6.5c2.1-0.2,5-3.1,5-3.1s0.3,0.9,1.2,1.2
					c0.9,0.3,2-0.8,2-0.8s1.1,0.4,2,0.4c0.9,0,2-3.5,2.5-5.8c0.5-2.3-0.4-3.4-0.4-3.4l0.7-0.4l1,1.8l-1.6,5.6
					c-0.8,3.1,2.1,2.7,2.1,2.7s3.3-5.7,3.6-8.9c0.3-3.2-2.9-5.3-2.9-5.3s6.8-5.9,8.5-7C173.1,258.8,171.5,257.2,171.5,257.2z"/>
			</g>
			<g>
				<g>
					<path class="st14" d="M112.7,298.9c-0.1,0-0.4-0.7-0.6-1.8c-0.2-1.2-0.3-2.9,0.1-4.7c0.4-1.8,1.1-3.3,1.8-4.3
						c0.7-1,1.3-1.5,1.3-1.4c0.1,0.1-1.9,2.3-2.6,5.9C111.9,296,112.8,298.9,112.7,298.9z"/>
				</g>
			</g>
			<g>
				<path class="st8" d="M101.2,238.4c0,0-11.8,3.5-14.1,16c-1.4,7.4,1.9,31.6,1.9,31.6l22.8-8.5L101.2,238.4z"/>
			</g>
			<g>
				<g>
					<path class="st6" d="M105.1,255c0.1,0,0.4,1.3,0.9,3.4c0.5,2.2,1.2,5,2,8.2c0.8,3.2,1.5,6.1,2.1,8.1c0.6,2.1,1,3.3,0.9,3.4
						c0,0-0.2-0.3-0.4-0.8c-0.2-0.6-0.5-1.4-0.9-2.4c-0.7-2-1.5-4.9-2.2-8.1c-0.8-3.2-1.4-6.1-1.8-8.2
						C105.2,256.3,105,255,105.1,255z"/>
				</g>
			</g>
		</g>
		<g>
			<g>
				<path class="st6" d="M105.8,312c0,0-15.1,17.7-14.7,32c0.4,14.3,6.7,24.6,6.7,24.6l20,1.2c0,0,1.8-9.5,8.9-9.5
					c1.6,0,27.6,50,27.6,50l25.6-11.7c0,0-16.8-44.2-20.9-54.6c-4.1-10.4-8-15.4-13.5-16.9l-6.1-15.5L105.8,312z"/>
			</g>
			<g>
				<g>
					<path class="st7" d="M110,329.1c0,0.1-0.9-0.2-2.5-0.3c-1.5-0.1-3.6,0-5.8,0.7c-2.2,0.7-3.9,2-5,3c-1.1,1.1-1.6,1.9-1.7,1.8
						c0,0,0.1-0.2,0.3-0.6c0.2-0.4,0.6-0.9,1.1-1.5c1-1.2,2.8-2.5,5.1-3.3c2.3-0.8,4.5-0.8,6-0.6C109.1,328.7,110,329.1,110,329.1z"
						/>
				</g>
			</g>
			<g>
				<g>
					<path class="st7" d="M134.5,325.4c-0.1,0-0.3-3.1-0.3-6.9c0-3.8,0.1-6.9,0.3-6.9c0.1,0,0.3,3.1,0.3,6.9
						C134.7,322.4,134.6,325.4,134.5,325.4z"/>
				</g>
			</g>
			<g>
				<g>
					<path class="st7" d="M116.8,311.6c0,0-0.1,0.3-0.3,0.8c-0.2,0.5-0.6,1.2-1.1,2c-1.1,1.6-2.9,3.7-5.6,5.1
						c-2.7,1.4-5.4,1.8-7.3,1.7c-1,0-1.8-0.1-2.3-0.2c-0.5-0.1-0.8-0.2-0.8-0.2c0-0.1,1.2,0.2,3.1,0.1c1.9,0,4.5-0.5,7.1-1.8
						c2.6-1.3,4.4-3.3,5.5-4.8C116.3,312.7,116.8,311.6,116.8,311.6z"/>
				</g>
			</g>
			<g>
				<path class="st6" d="M169.6,311.3c0,0,8.2,8.2,10.3,20.6c2.1,12.4,2.2,28.6-1.3,34.5l-10.1,2.3l-8.9,9L147,446.2l-28.6-3.9
					c0,0-2.7-59.6-1.8-65.2c0.9-5.7,1.1-7.2,1.1-7.2s-0.6-9.3,6.1-16.1c6.7-6.7,16.4-13.8,16.4-13.8l-0.9-28.3L169.6,311.3z"/>
			</g>
			<g>
				<g>
					<path class="st7" d="M175.9,321c0,0-0.3,0.2-0.9,0.4c-0.6,0.2-1.5,0.5-2.7,0.6c-2.3,0.3-5.7,0.2-8.9-1.4
						c-0.8-0.4-1.5-0.9-2.2-1.5c-0.6-0.5-1.2-1.1-1.8-1.6c-1.1-1.1-2-2.1-2.8-3c-0.7-0.9-1.3-1.6-1.7-2.1c-0.4-0.5-0.6-0.8-0.6-0.8
						c0.1-0.1,1,1,2.5,2.7c0.8,0.9,1.7,1.9,2.8,2.9c1.1,1,2.4,2.2,3.9,3c3.1,1.6,6.4,1.8,8.6,1.5C174.5,321.4,175.8,320.9,175.9,321
						z"/>
				</g>
			</g>
			<g>
				<g>
					<path class="st7" d="M117.8,369.8c0,0,0-0.3,0.2-1c0.1-0.3,0.1-0.7,0.3-1.2c0.1-0.5,0.3-1,0.6-1.6c0.5-1.2,1.4-2.5,2.8-3.7
						c1.4-1.2,3.5-2.1,5.9-2.4l0.1,0l0,0.1c5.9,11,15.5,28.7,26.9,50l-0.3-0.1c7.9-3.6,16.6-7.6,25.6-11.7l-0.1,0.3
						c-1.3-3.3-2.7-6.9-4.1-10.4c-4.8-12.4-9.5-24.2-13.8-35.2c-2.1-5.5-4.2-10.7-6.1-15.7c-0.9-2.5-2.4-4.7-4.2-6.4
						c-1.8-1.7-4-2.9-6.2-3.4l0,0c-6.1-1.7-11.8-2.2-16.9-2c-5,0.2-9.3,1.1-12.8,2.1c-3.4,1-6,2.1-7.7,2.9c-0.9,0.4-1.5,0.7-1.9,1
						c-0.4,0.2-0.7,0.3-0.7,0.3s0.2-0.1,0.6-0.4c0.4-0.2,1.1-0.6,1.9-1c1.7-0.8,4.3-2,7.7-3c3.4-1,7.7-2,12.8-2.2
						c5.1-0.3,10.9,0.2,17,1.9l0,0c2.3,0.6,4.6,1.8,6.4,3.5c1.9,1.7,3.4,4,4.3,6.5c2,5,4,10.2,6.2,15.7c4.3,11,9,22.8,13.8,35.2
						c1.4,3.6,2.8,7.1,4.1,10.4l0.1,0.2l-0.2,0.1c-9,4.1-17.6,8-25.6,11.7l-0.2,0.1l-0.1-0.2c-11.4-21.4-20.9-39.1-26.7-50.1
						l0.1,0.1c-2.3,0.2-4.3,1.2-5.8,2.3c-1.4,1.1-2.3,2.5-2.8,3.6c-0.3,0.6-0.5,1.1-0.6,1.5c-0.2,0.4-0.2,0.8-0.3,1.2
						C117.9,369.5,117.8,369.8,117.8,369.8z"/>
				</g>
			</g>
			<g>
				<g>
					<path class="st7" d="M175.9,332.8c-0.1,0.1-1.2-0.7-3.1-1.5c-1-0.4-2.2-0.8-3.6-1.1c-1.4-0.3-2.9-0.5-4.6-0.5
						c-1.6,0-3.2,0.2-4.6,0.5c-1.4,0.3-2.6,0.7-3.6,1.1c-2,0.8-3.1,1.6-3.1,1.5c0,0,0.2-0.2,0.7-0.6c0.2-0.2,0.6-0.4,0.9-0.6
						c0.4-0.2,0.8-0.5,1.3-0.7c1-0.5,2.2-0.9,3.6-1.2c1.4-0.3,3-0.5,4.7-0.5c1.7,0,3.3,0.2,4.7,0.6c1.4,0.4,2.6,0.8,3.6,1.3
						c0.5,0.2,0.9,0.5,1.3,0.7c0.4,0.2,0.7,0.4,0.9,0.6C175.6,332.6,175.9,332.8,175.9,332.8z"/>
				</g>
			</g>
			<g class="st12">
				<path d="M127.5,360.2c0,0,7.6,32.3,15.8,41.4c8.3,9,10.5,11,10.5,11l0.6-2.2L127.5,360.2z"/>
			</g>
		</g>
		<g>
			<g>
				<path class="st13" d="M172.2,303.5c0,0,0.8-5,3.3-7.9s7-6.2,7-6.2h1.3l3.3-7.4l9.3-0.5c0,0-2,18.2-6.5,23.7
					c-4.5,5.5-9.1,5.2-11,4.7C177,309.3,172.2,303.5,172.2,303.5z"/>
			</g>
			<g>
				<g>
					<path class="st6" d="M156.1,233.3l-7.4,36.3c-0.4,2,1.1,3.9,3.2,3.9h50.7c1.5,0,2.8-1,3.1-2.5l8.1-36.3c0.5-2-1.1-3.9-3.1-3.9
						h-51.4C157.7,230.7,156.4,231.8,156.1,233.3z"/>
				</g>
				<g>
					<g>
						<path class="st7" d="M156.1,233.3c0,0,0-0.2,0.1-0.5c0.1-0.3,0.3-0.8,0.8-1.3c0.5-0.5,1.2-0.9,2.2-0.9c1,0,2.1,0,3.3,0
							c5,0,12.2,0,21.1-0.1c4.5,0,9.3,0,14.6,0c2.6,0,5.3,0,8.1,0c1.4,0,2.8,0,4.2,0c1.5-0.1,3.1,1,3.5,2.5c0.2,0.8,0.1,1.6-0.1,2.3
							c-0.2,0.7-0.3,1.5-0.5,2.2c-0.3,1.5-0.7,3-1,4.5c-0.7,3-1.4,6.1-2.1,9.2c-1.4,6.2-2.8,12.7-4.3,19.3c-0.1,0.4-0.2,0.9-0.4,1.3
							c-0.2,0.4-0.5,0.8-0.8,1.1c-0.7,0.6-1.6,0.9-2.5,0.9c-1.7,0-3.3,0-5,0c-3.3,0-6.6,0-9.8,0c-6.4,0-12.6,0-18.5,0
							c-5.9,0-11.5,0-16.7,0c-0.6,0-1.4,0-2-0.3c-0.6-0.3-1.2-0.8-1.5-1.3c-0.4-0.6-0.5-1.2-0.5-1.9c0-0.7,0.2-1.2,0.3-1.8
							c0.5-2.4,1-4.7,1.4-6.8c1.8-8.7,3.3-15.7,4.3-20.6c0.5-2.4,0.9-4.3,1.2-5.6c0.1-0.6,0.2-1.1,0.3-1.5
							C156,233.5,156.1,233.3,156.1,233.3s0,0.2-0.1,0.5c-0.1,0.4-0.2,0.8-0.3,1.5c-0.3,1.3-0.6,3.2-1.1,5.6c-1,4.9-2.4,12-4.1,20.7
							c-0.4,2.2-0.9,4.5-1.4,6.8c-0.1,0.6-0.3,1.2-0.3,1.8c0,0.6,0.1,1.2,0.5,1.7c0.3,0.5,0.8,0.9,1.3,1.2c0.6,0.3,1.1,0.3,1.8,0.3
							c5.2,0,10.8,0,16.7,0c5.9,0,12.1,0,18.5,0c3.2,0,6.5,0,9.8,0c1.7,0,3.3,0,5,0c0.8,0,1.6-0.2,2.1-0.8c0.3-0.3,0.5-0.6,0.7-0.9
							c0.2-0.3,0.2-0.7,0.3-1.2c1.5-6.6,2.9-13.1,4.3-19.3c0.7-3.1,1.4-6.2,2.1-9.2c0.3-1.5,0.7-3,1-4.5c0.2-0.7,0.3-1.5,0.5-2.2
							c0.2-0.7,0.3-1.4,0.1-2.1c-0.4-1.3-1.7-2.3-3-2.2c-1.4,0-2.8,0-4.2,0c-2.8,0-5.5,0-8.1,0c-5.2,0-10.1,0-14.6,0
							c-8.9,0-16.1-0.1-21.1-0.1c-1.2,0-2.3,0-3.3,0c-0.9,0-1.7,0.4-2.2,0.8C156.1,232.5,156.1,233.3,156.1,233.3z"/>
					</g>
				</g>
			</g>
			<g>
				<path class="st13" d="M186.2,249.9c0,0,6.1,10.4,6.7,11.8c0.6,1.4,2.5,3.5,2.6,4.8c0.1,1.3,1.6,8.8,1.4,11.5
					c-0.1,2.7-1.6,6.1-1.6,6.1l-8.4-2.1c0,0-2-1.7-3.1-4.3c-1.2-2.6-2.2-3.5-3.2-4.3c-1.1-0.8-5.3-3.5-5.8-4.4c-0.6-1.2,0-2,0-2
					s-2-0.9-2.3-2c-0.3-1.2,0-2.7,2.2-1.7s10.3,6.8,11.2,6.2c0.8-0.6-0.2-2.2-0.2-2.2s-8.6-7.9-9.1-9.3c-0.4-1.4,0.8-3.3,2.8-1.6
					c2,1.7,8.6,8.4,9.3,8.4c0.7,0-0.1-2-0.1-2s-3.4-7.3-4-9.3C184.2,251.4,184.5,248.9,186.2,249.9z"/>
			</g>
			<g>
				<g>
					<path class="st7" d="M214.2,232.9c0,0-0.1,0-0.2,0c-0.2,0-0.4,0-0.7,0c-0.7,0-1.6,0-2.8,0c-2.5,0-6,0-10.2,0.1
						c-8.7,0-20.6,0-33.8,0.1c-1.7,0-3.3,0-4.9,0c-0.8-0.1-1.5,0.2-2,0.7c-0.3,0.2-0.5,0.6-0.6,0.9c-0.1,0.3-0.2,0.7-0.3,1.1
						c-0.7,3-1.3,6-1.9,8.8c-1.2,5.6-2.2,10.6-3.1,14.9c-0.9,4.2-1.7,7.6-2.2,10c-0.3,1.1-0.5,2-0.7,2.7c-0.1,0.3-0.1,0.5-0.2,0.7
						c0,0.2-0.1,0.2-0.1,0.2c0,0,0-0.1,0-0.2c0-0.2,0.1-0.4,0.1-0.7c0.1-0.7,0.3-1.6,0.6-2.7c0.5-2.4,1.2-5.8,2.1-10
						c0.9-4.3,1.9-9.3,3-14.9c0.6-2.8,1.2-5.7,1.9-8.8c0.1-0.4,0.1-0.7,0.3-1.2c0.1-0.4,0.4-0.8,0.7-1.1c0.6-0.6,1.6-0.9,2.4-0.8
						c1.6,0,3.2,0,4.9,0c13.2,0,25.1,0.1,33.8,0.1c4.3,0,7.8,0.1,10.2,0.1c1.2,0,2.1,0,2.8,0c0.3,0,0.5,0,0.7,0
						C214.1,232.8,214.2,232.9,214.2,232.9z"/>
				</g>
			</g>
			<g>
				<g>
					<path class="st14" d="M173.4,296.9c0,0,0.1-0.3,0.3-0.8c0.2-0.5,0.6-1.2,1.2-2c1.1-1.6,3.3-3.5,6.3-4.3
						c0.8-0.2,1.6-0.3,2.3-0.3l-0.2,0.1c1.1-2.1,2-4.1,2.7-5.4c0.7-1.4,1.1-2.2,1.1-2.2c0.1,0-0.2,0.9-0.8,2.3
						c-0.6,1.4-1.4,3.3-2.6,5.5l-0.1,0.1l-0.1,0c-0.7,0.1-1.4,0.1-2.2,0.3c-2.8,0.8-4.9,2.6-6.1,4.1
						C173.9,295.8,173.5,296.9,173.4,296.9z"/>
				</g>
			</g>
			<g>
				<g>
					<path class="st14" d="M184.2,272.4c-0.1,0.1-2.2-1.1-4.8-2.6c-2.6-1.6-4.6-2.9-4.5-3.1c0.1-0.1,2.2,1.1,4.8,2.6
						C182.3,270.9,184.3,272.3,184.2,272.4z"/>
				</g>
			</g>
			<g>
				<path class="st2" d="M186.9,241.6c-0.3,1-1.3,1.6-2.1,1.3c-0.9-0.3-1.3-1.3-1-2.3c0.3-1,1.3-1.6,2.1-1.3
					C186.8,239.6,187.2,240.6,186.9,241.6z"/>
			</g>
		</g>
	</g>
	<g>
		<g>
			<path class="st6" d="M112,201.8c0,0-0.3-0.3-0.6-1c-0.3-0.7-0.5-1.8-0.2-3.1c0.2-1.3,1.1-2.9,2.6-3.8c0.8-0.5,1.7-0.8,2.6-0.9
				c0.5,0,1-0.1,1.5,0.1c0.5,0.1,1.1,0.5,1.2,1.2c0.1,0.3,0,0.7-0.2,0.9c-0.2,0.3-0.4,0.4-0.6,0.6c-0.5,0.3-1.1,0.3-1.6,0.2
				c-1-0.2-1.9-0.9-2.2-1.8c-0.4-0.9-0.2-1.9,0.2-2.6c0.4-0.7,1-1.2,1.7-1.5c1.3-0.5,2.5-0.1,3.1,0.2c0.7,0.4,0.9,0.7,0.9,0.7
				c0,0-0.3-0.3-1-0.6c-0.6-0.3-1.7-0.6-2.9-0.1c-0.6,0.2-1.1,0.7-1.4,1.4c-0.3,0.6-0.4,1.5-0.1,2.2c0.3,0.7,1,1.3,1.9,1.4
				c0.4,0.1,0.9,0,1.2-0.2c0.4-0.2,0.6-0.6,0.6-0.9c-0.1-0.4-0.4-0.7-0.8-0.8c-0.4-0.1-0.9-0.1-1.3-0.1c-0.9,0.1-1.7,0.4-2.4,0.8
				c-1.4,0.9-2.3,2.3-2.5,3.5c-0.3,1.2-0.1,2.3,0.1,3C111.8,201.5,112,201.8,112,201.8z"/>
		</g>
	</g>
</g>
</svg>
