<?xml version="1.0" encoding="utf-8"?>
<!-- Generator: Adobe Illustrator 23.1.1, SVG Export Plug-In . SVG Version: 6.00 Build 0)  -->
<svg version="1.1" xmlns="http://www.w3.org/2000/svg" xmlns:xlink="http://www.w3.org/1999/xlink" x="0px" y="0px" width="523.5px"
	 height="515.7px" viewBox="0 0 523.5 515.7" style="enable-background:new 0 0 523.5 515.7;" xml:space="preserve">
<style type="text/css">
	.st0{fill:#F4F7FA;}
	.st1{clip-path:url(#SVGID_3_);}
	.st2{fill:#FFFFFF;}
	.st3{clip-path:url(#SVGID_6_);}
	.st4{fill:url(#SVGID_7_);}
	.st5{clip-path:url(#SVGID_10_);}
	.st6{fill:url(#SVGID_11_);}
	.st7{fill:url(#SVGID_12_);}
	.st8{fill:url(#SVGID_13_);}
	.st9{opacity:0.3;fill:url(#SVGID_14_);}
	.st10{fill:url(#SVGID_15_);}
	.st11{opacity:0.3;}
	.st12{fill:url(#SVGID_16_);}
	.st13{fill:url(#SVGID_17_);}
	.st14{fill:url(#SVGID_18_);}
	.st15{fill:url(#SVGID_19_);}
	.st16{fill:#D8DEE8;}
	.st17{fill:#26264F;}
	.st18{fill:url(#SVGID_20_);}
	.st19{fill:url(#SVGID_21_);}
	.st20{fill:url(#SVGID_22_);}
	.st21{opacity:0.15;}
	.st22{fill:url(#SVGID_23_);}
	.st23{opacity:0.3;fill:url(#SVGID_24_);}
	.st24{opacity:0.3;fill:url(#SVGID_25_);}
	.st25{opacity:0.4;fill:#F4F7FA;}
	.st26{fill:url(#SVGID_26_);}
	.st27{fill:url(#SVGID_27_);}
	.st28{fill:url(#SVGID_28_);}
	.st29{fill:#FCB048;}
	.st30{fill:url(#SVGID_29_);}
	.st31{fill:url(#SVGID_30_);}
	.st32{fill:url(#SVGID_31_);}
	.st33{fill:url(#SVGID_32_);}
	.st34{fill:url(#SVGID_33_);}
	.st35{fill:url(#SVGID_34_);}
	.st36{fill:url(#SVGID_35_);}
	.st37{fill:url(#SVGID_36_);}
	.st38{fill:url(#SVGID_37_);}
	.st39{fill:url(#SVGID_38_);}
	.st40{fill:url(#SVGID_39_);}
	.st41{fill:url(#SVGID_40_);}
	.st42{fill:url(#SVGID_41_);}
	.st43{fill:url(#SVGID_42_);}
	.st44{fill:url(#SVGID_43_);}
	.st45{fill:url(#SVGID_44_);}
	.st46{fill:url(#SVGID_45_);}
	.st47{fill:url(#SVGID_46_);}
	.st48{fill:url(#SVGID_47_);}
	.st49{fill:url(#SVGID_48_);}
	.st50{fill:url(#SVGID_49_);}
	.st51{fill:url(#SVGID_50_);}
	.st52{fill:url(#SVGID_51_);}
	.st53{fill:url(#SVGID_52_);}
	.st54{fill:url(#SVGID_53_);}
	.st55{fill:url(#SVGID_54_);}
	.st56{fill:url(#SVGID_55_);}
	.st57{fill:url(#SVGID_56_);}
	.st58{fill:url(#SVGID_57_);}
	.st59{fill:url(#SVGID_58_);}
	.st60{fill:url(#SVGID_59_);}
	.st61{fill:url(#SVGID_60_);}
	.st62{fill:url(#SVGID_61_);}
	.st63{fill:url(#SVGID_62_);}
	.st64{fill:url(#SVGID_63_);}
	.st65{fill:url(#SVGID_64_);}
	.st66{opacity:0.3;fill:url(#SVGID_65_);}
	.st67{fill:url(#SVGID_66_);}
	.st68{fill:url(#SVGID_67_);}
	.st69{fill:url(#SVGID_68_);}
	.st70{fill:url(#SVGID_69_);}
	.st71{fill:url(#SVGID_70_);}
	.st72{fill:url(#SVGID_71_);}
	.st73{fill:url(#SVGID_72_);}
	.st74{fill:url(#SVGID_73_);}
	.st75{fill:url(#SVGID_74_);}
</style>
<g id="Background">
</g>
<g id="Illustration">
	<g>
		<path class="st0" d="M461.7,109.2C354.6-25.8,100.9-33.3,26.3,73.7c-41.1,59-23.9,147.1-15.5,190.6c15.6,80,54,131.6,62.4,142.5
			c20.4,26.5,69.9,90.9,144.3,105.7c127.2,25.2,286-102.9,294.8-247.5C517.5,181.7,471,120.8,461.7,109.2z"/>
		<g>
			<g>
				<g>
					<defs>
						<path id="SVGID_1_" d="M392.6,438.2c-15.3-17.6-35.3-45.8-42-83.8c-7.6-43.6,9.3-60.1,9.6-110.3c0.4-71.6-47.6-103-28.5-133
							c9.3-14.6,30-23.3,46.5-19.6c47.3,10.5,85,127.4,45.9,195.8c-17.7,30.9-41.4,38.2-50.1,72.2
							C366.4,389.5,380.4,418.9,392.6,438.2z"/>
					</defs>
					<linearGradient id="SVGID_2_" gradientUnits="userSpaceOnUse" x1="339.4524" y1="95.6115" x2="431.5747" y2="388.728">
						<stop  offset="0" style="stop-color:#FF9085"/>
						<stop  offset="1" style="stop-color:#FB6FBB"/>
					</linearGradient>
					<use xlink:href="#SVGID_1_"  style="overflow:visible;fill:url(#SVGID_2_);"/>
					<clipPath id="SVGID_3_">
						<use xlink:href="#SVGID_1_"  style="overflow:visible;"/>
					</clipPath>
					<g class="st1">
						<path class="st2" d="M366.1,388.7c-1.5-9.5-2.1-19.3-1.9-28.9c0.5-22.1,5.3-36.2,11.5-54c4-11.6,8.5-24.7,12.6-42.5
							c7.7-33.3,9.6-44.7,8.7-61.3c-1.9-32.8-14.3-57.7-21.5-69.7c-10.2-16.9-23.5-31.5-39.5-43.4l0.4-0.5
							c16.1,11.9,29.4,26.6,39.7,43.6c7.2,12,19.7,37,21.6,70c1,16.7-1,28.1-8.7,61.5c-4.1,17.9-8.7,31-12.7,42.6
							c-6.1,17.8-11,31.8-11.4,53.8c-0.2,9.6,0.4,19.3,1.9,28.8L366.1,388.7z"/>
						<path class="st2" d="M394.1,179.5l-0.2-0.5c-9.3-20.8-28.4-28.8-42.9-31.7c-15.7-3.2-29.4-1.5-29.5-1.5l-0.1-0.6
							c0.1,0,13.9-1.8,29.7,1.5c14.5,3,33.7,10.9,43.1,31.6c1.6-2.1,8.4-11.9,12.4-26c4.1-14.7,5.7-37.3-9.7-61.4l0.5-0.3
							c15.5,24.3,13.9,47.1,9.7,62c-4.5,16.1-12.7,26.5-12.8,26.6L394.1,179.5z"/>
						<path class="st2" d="M391.2,254.3c-0.3,0-0.4,0-0.4,0l-0.3,0l0-0.3c-3.3-22.9-14.4-36.1-23.2-43.2c-9.5-7.6-18.3-9.9-18.4-9.9
							l0.2-0.6c0.1,0,9,2.3,18.6,10c8.8,7.1,20,20.4,23.4,43.3c0,0,0.1,0,0.1,0c4,0,40.6-0.9,58.3-32.6l0.6,0.3
							c-9.8,17.6-25.4,25.6-36.7,29.3C402.4,254.1,393.2,254.3,391.2,254.3z"/>
						<path class="st2" d="M388.3,303.1c-6.9,0-11-1.4-11-1.4l-0.2-0.1l0-0.2c0.3-24.8-27-53.7-27.3-54l0.5-0.4
							c0.3,0.3,27.5,29.2,27.4,54.2c1.2,0.4,7.8,2.2,17.6,0.8c10.1-1.4,25.7-6.4,43-22.5l0.4,0.5c-17.5,16.3-33.2,21.3-43.4,22.7
							C392.8,303,390.4,303.1,388.3,303.1z"/>
					</g>
				</g>
			</g>
			<g>
				<g>
					<defs>
						<path id="SVGID_4_" d="M358.3,415c-8.1-12.7-18.4-33.6-15.4-57.5c5.3-41.6,45.5-45.6,64.3-95.7c15.2-40.4-2.9-59.2,19.3-91.2
							c3.7-5.4,23.1-34.4,47.6-32.2c13.8,1.2,23.1,11.8,24.8,13.8c26.3,30,13.9,99.8-21.9,144.4c-20.6,25.6-31.1,24.6-70.9,61.2
							C382.7,379.2,367.4,400.6,358.3,415z"/>
					</defs>
					<linearGradient id="SVGID_5_" gradientUnits="userSpaceOnUse" x1="505.9233" y1="137.3119" x2="627.2402" y2="-82.4561">
						<stop  offset="3.597120e-03" style="stop-color:#E38DDD"/>
						<stop  offset="1" style="stop-color:#9571F6"/>
					</linearGradient>
					<use xlink:href="#SVGID_4_"  style="overflow:visible;fill:url(#SVGID_5_);"/>
					<clipPath id="SVGID_6_">
						<use xlink:href="#SVGID_4_"  style="overflow:visible;"/>
					</clipPath>
					<g class="st3">
						<path class="st2" d="M360.7,433.2c-7-35.7-3.4-63.2,10.8-81.7c7-9.1,13.9-13,21.2-17.1c7.9-4.4,16.1-9,24.5-20.7
							c8.2-11.3,9.4-19.4,11-29.6c1.4-9.2,3.2-20.7,10.6-38.1c6.5-15.3,12.4-23.6,17.6-31c5.6-8,10.1-14.3,13.2-26.4
							c5.1-19.8,2.9-41.5-6.4-64.6l0.6-0.2c9.4,23.2,11.5,45,6.4,65c-3.1,12.2-7.6,18.6-13.3,26.6c-5.2,7.3-11.1,15.7-17.6,30.9
							c-7.4,17.3-9.1,28.7-10.5,37.9c-1.6,10.3-2.8,18.4-11.1,29.9c-8.5,11.7-16.7,16.4-24.7,20.9c-7.3,4.1-14.2,8-21,17
							c-14.1,18.4-17.7,45.7-10.7,81.2L360.7,433.2z"/>
						<path class="st2" d="M454.1,218.9l0-0.4c0-0.5-4.6-52.2-29.3-63.9l0.3-0.6c23.8,11.3,29.1,59,29.6,64
							c25.2-9.9,39.7-27.1,47.4-39.9c8.4-13.9,10.9-25.6,10.9-25.7l0.6,0.1c0,0.1-2.5,11.9-11,25.9c-7.9,12.9-22.6,30.4-48.1,40.3
							L454.1,218.9z"/>
						<path class="st2" d="M432.6,265.1c-0.2,0-0.2,0-0.3,0l-0.3,0l0-0.3c-1.8-13.8-8.2-28.9-13.2-39.1c-5.4-11-10.5-18.9-10.5-19
							l0.5-0.3c0.1,0.1,5.1,8,10.6,19.1c5,10.2,11.3,25.2,13.2,39c2,0,15.2-0.2,31.9-5.5c16.6-5.2,40.3-16.7,58.4-41.5l0.5,0.4
							c-18.2,25-42,36.5-58.7,41.7C447.9,264.9,434.6,265.1,432.6,265.1z"/>
						<path class="st2" d="M418.3,332.4c-11.5,0-18.3-1.6-18.5-1.6l-0.3-0.1l0.1-0.3c8.7-29.6-13.7-62.9-13.9-63.2l0.5-0.4
							c0.2,0.3,22.6,33.7,14.1,63.4c3.7,0.8,37.5,6.9,81.3-12.8l0.3,0.6C455.7,329.8,433.1,332.4,418.3,332.4z"/>
					</g>
				</g>
			</g>
			<g>
				
					<linearGradient id="SVGID_7_" gradientUnits="userSpaceOnUse" x1="-3073.1926" y1="-869.0383" x2="-3290.9277" y2="-690.1841" gradientTransform="matrix(0.9975 -6.900000e-02 6.900000e-02 0.9975 3625.9524 934.7109)">
					<stop  offset="0" style="stop-color:#AA80F9"/>
					<stop  offset="0.9964" style="stop-color:#6165D7"/>
				</linearGradient>
				<path class="st4" d="M352.9,403.5c5.3-8.7,14.4-21.9,28.7-35c25.4-23.2,41.7-22.8,49-40.7c7.6-18.6-6.4-27.9,3.1-49.1
					c0.8-1.8,11.2-24.2,28.8-24.9c12.3-0.5,21.6,9.8,25.9,14.7c16.9,18.8,26.7,54.2,10.2,80.7c-15.6,25.1-47,29.6-57,30.9
					c-17.5,2.4-23.8-2.2-41.4,0.7C378.8,384.3,362.8,395.2,352.9,403.5z"/>
			</g>
		</g>
		<g>
			<g>
				<g>
					<defs>
						<path id="SVGID_8_" d="M172.1,467.9c8.1-12.7,18.4-33.6,15.4-57.5c-5.3-41.6-45.5-45.6-64.3-95.7
							c-15.2-40.4,2.9-59.2-19.3-91.2c-3.7-5.4-23.1-34.4-47.6-32.2c-13.8,1.2-23.1,11.8-24.8,13.8c-26.3,30-13.9,99.8,21.9,144.4
							c20.6,25.6,31.1,24.6,70.9,61.2C147.6,432.2,163,453.6,172.1,467.9z"/>
					</defs>
					<linearGradient id="SVGID_9_" gradientUnits="userSpaceOnUse" x1="849.2474" y1="1964.4025" x2="1059.6254" y2="2421.2844">
						<stop  offset="3.597120e-03" style="stop-color:#E38DDD"/>
						<stop  offset="1" style="stop-color:#9571F6"/>
					</linearGradient>
					<use xlink:href="#SVGID_8_"  style="overflow:visible;fill:url(#SVGID_9_);"/>
					<clipPath id="SVGID_10_">
						<use xlink:href="#SVGID_8_"  style="overflow:visible;"/>
					</clipPath>
					<g class="st5">
						<path class="st2" d="M169.7,486.2l-0.6-0.1c7-35.5,3.4-62.8-10.7-81.2c-6.9-9-13.8-12.9-21-17c-8-4.5-16.2-9.1-24.7-20.9
							c-8.3-11.4-9.5-19.6-11.1-29.9c-1.4-9.2-3.1-20.6-10.5-37.9c-6.5-15.2-12.4-23.5-17.6-30.9c-5.7-8-10.2-14.4-13.3-26.6
							c-5.1-19.9-3-41.8,6.4-65l0.6,0.2c-9.3,23.1-11.5,44.8-6.4,64.6c3.1,12.1,7.6,18.4,13.2,26.4c5.2,7.4,11.1,15.7,17.6,31
							c7.4,17.4,9.2,28.9,10.6,38.1c1.6,10.2,2.8,18.3,11,29.6c8.4,11.6,16.6,16.2,24.5,20.7c7.3,4.1,14.3,8,21.2,17.1
							C173.1,423.1,176.7,450.6,169.7,486.2z"/>
						<path class="st2" d="M76.2,271.9l-0.4-0.2c-25.6-9.9-40.3-27.4-48.1-40.3c-8.5-14-11-25.8-11-25.9l0.6-0.1
							c0,0.1,2.5,11.8,11,25.8c7.8,12.8,22.3,30,47.4,39.9c0.5-5,5.8-52.7,29.6-64l0.3,0.6c-24.7,11.7-29.2,63.4-29.3,63.9
							L76.2,271.9z"/>
						<path class="st2" d="M97.7,318.1c-2,0-15.2-0.2-32.1-5.5c-16.7-5.3-40.5-16.8-58.7-41.7l0.5-0.4
							c18.1,24.8,41.8,36.3,58.4,41.5c16.7,5.2,29.8,5.5,31.8,5.5c1.9-13.8,8.2-28.8,13.2-39c5.4-11.1,10.5-19,10.6-19.1l0.5,0.3
							c-0.1,0.1-5.1,8-10.5,19c-5,10.2-11.4,25.2-13.2,39.1l0,0.3l-0.3,0C97.9,318.1,97.8,318.1,97.7,318.1z"/>
						<path class="st2" d="M112.1,385.4c-14.8,0-37.4-2.6-63.6-14.3l0.3-0.6c43.8,19.7,77.6,13.5,81.3,12.8
							c-8.5-29.8,13.8-63.1,14.1-63.4l0.5,0.4c-0.2,0.3-22.6,33.7-13.9,63.2l0.1,0.3l-0.3,0.1C130.4,383.9,123.6,385.4,112.1,385.4z
							"/>
					</g>
				</g>
			</g>
			<g>
				
					<linearGradient id="SVGID_11_" gradientUnits="userSpaceOnUse" x1="1912.2094" y1="-471.0543" x2="1694.4742" y2="-292.2002" gradientTransform="matrix(-0.9975 -6.900000e-02 -6.900000e-02 0.9975 1904.7721 934.7109)">
					<stop  offset="0" style="stop-color:#FF9085"/>
					<stop  offset="1" style="stop-color:#FB6FBB"/>
				</linearGradient>
				<path class="st6" d="M177.5,456.5c-5.3-8.7-14.4-21.9-28.7-35c-25.4-23.2-41.7-22.8-49-40.7c-7.6-18.6,6.4-27.9-3.1-49.1
					c-0.8-1.8-11.2-24.2-28.8-24.9c-12.3-0.5-21.6,9.8-25.9,14.7c-16.9,18.8-26.7,54.2-10.2,80.7c15.6,25.1,47,29.6,57,30.9
					c17.5,2.4,23.8-2.2,41.4,0.7C151.6,437.3,167.5,448.2,177.5,456.5z"/>
			</g>
		</g>
		<g>
			<linearGradient id="SVGID_12_" gradientUnits="userSpaceOnUse" x1="84.0765" y1="105.9431" x2="214.0587" y2="100.2917">
				<stop  offset="0" style="stop-color:#AB316D"/>
				<stop  offset="1" style="stop-color:#792D3D"/>
			</linearGradient>
			<path class="st7" d="M303.1,171.2c-0.1,0-0.2,0-0.4,0c-1.9,0-3.5-1.5-3.7-3.6c-3.2-36.3-14.3-70.9-31.1-97.2
				c-14.9-23.3-32.6-37.3-47.4-37.3c0,0,0,0,0,0c-53.9,0.1-65.2,133.1-65.3,134.4c-0.2,2.2-1.9,3.8-4,3.6c-2-0.2-3.5-2.1-3.4-4.3
				c0.5-5.8,12-141.6,72.6-141.7c0,0,0,0,0.1,0c17.5,0,37,14.8,53.5,40.7c17.5,27.4,29,63.3,32.3,100.9
				C306.6,169.1,305.1,171,303.1,171.2z"/>
			<linearGradient id="SVGID_13_" gradientUnits="userSpaceOnUse" x1="70.4896" y1="317.617" x2="192.0585" y2="317.617">
				<stop  offset="0" style="stop-color:#FFC444"/>
				<stop  offset="0.9964" style="stop-color:#F36F56"/>
			</linearGradient>
			<path class="st8" d="M78,444.9l71,38.6l43-141.8l-70.9-190.1l-20.1,5.3L70.6,430C69.9,436.1,72.9,442.1,78,444.9z"/>
			<linearGradient id="SVGID_14_" gradientUnits="userSpaceOnUse" x1="103.3101" y1="317.6169" x2="192.0585" y2="317.6169">
				<stop  offset="0" style="stop-color:#FFC444"/>
				<stop  offset="0.9964" style="stop-color:#F36F56"/>
			</linearGradient>
			<path class="st9" d="M192.1,341.8l-70.9-190.1l-11.9,3.1c-1.6,25.4-0.9,46.3,0.2,61.5c4.8,64.7,20.5,82.7,12.9,127.9
				c-6.4,37.5-20.2,42.6-19,67.9c1.3,27.5,19.2,50.5,40.4,68.7l5.2,2.8L192.1,341.8z"/>
			<linearGradient id="SVGID_15_" gradientUnits="userSpaceOnUse" x1="252.2698" y1="297.0618" x2="464.5663" y2="654.7494">
				<stop  offset="0" style="stop-color:#FFC444"/>
				<stop  offset="0.9964" style="stop-color:#F36F56"/>
			</linearGradient>
			<polygon class="st10" points="121.2,151.7 388.5,166.2 473.5,455.5 149,483.5 			"/>
			<g class="st11">
				<linearGradient id="SVGID_16_" gradientUnits="userSpaceOnUse" x1="251.6513" y1="265.3176" x2="423.5166" y2="668.9411">
					<stop  offset="0" style="stop-color:#FFC444"/>
					<stop  offset="0.9964" style="stop-color:#F36F56"/>
				</linearGradient>
				<path class="st12" d="M388.5,166.2l-139.4-7.6c-2.4,3.7-5.5,9.7-6,17.4c-3.4,45.5,90.4,60.2,98.8,116
					c6.4,42.5-33,91.5-68.1,113.4c-37,23-62.1,11.4-87.1,36.9c-11,11.2-17.7,25.3-21.7,39.8l308.6-26.7L388.5,166.2z"/>
			</g>
			<linearGradient id="SVGID_17_" gradientUnits="userSpaceOnUse" x1="283.3569" y1="-11.8614" x2="226.8454" y2="470.5061">
				<stop  offset="0" style="stop-color:#AB316D"/>
				<stop  offset="1" style="stop-color:#792D3D"/>
			</linearGradient>
			<path class="st13" d="M203.2,177.7c-1.7,0-3.2-1.2-3.6-3.1c-0.8-3.4-18.1-84.8,6.4-124.8c7-11.4,16.8-18.4,29.2-20.8
				c63.4-12,102.4,134.2,104.1,140.5c0.5,2.1-0.6,4.3-2.5,4.9c-2,0.6-4-0.6-4.5-2.7c-0.4-1.5-38.8-145.6-95.7-134.8
				c-10.4,2-18.4,7.6-24.3,17.3c-22.8,37.1-5.5,117.8-5.4,118.6c0.5,2.1-0.8,4.3-2.7,4.8C203.7,177.7,203.5,177.7,203.2,177.7z"/>
			<linearGradient id="SVGID_18_" gradientUnits="userSpaceOnUse" x1="313.1035" y1="-30.7411" x2="149.5957" y2="280.3218">
				<stop  offset="0" style="stop-color:#AB316D"/>
				<stop  offset="1" style="stop-color:#792D3D"/>
			</linearGradient>
			<ellipse class="st14" cx="203.2" cy="178.3" rx="10.3" ry="11.1"/>
			<linearGradient id="SVGID_19_" gradientUnits="userSpaceOnUse" x1="416.131" y1="27.527" x2="252.6239" y2="338.5887">
				<stop  offset="0" style="stop-color:#AB316D"/>
				<stop  offset="1" style="stop-color:#792D3D"/>
			</linearGradient>
			<ellipse class="st15" cx="337.4" cy="177.3" rx="10.3" ry="11.1"/>
			<path class="st16" d="M409,305.4l-83-80.9c-1.7-1.7-4.3-2.2-6.4-1.2l-44.3,19.3c-3.7,1.6-5,6.6-2.6,10.1l72.3,103.5
				c2,2.9,5.8,3.5,8.5,1.4l55-41.9C411.6,313.2,411.9,308.2,409,305.4z M314.1,252.9c-2.8,2-7.2,0.2-9.8-4
				c-2.6-4.2-2.5-9.3,0.3-11.3c2.8-2,7.2-0.2,9.8,4C317,245.9,316.9,250.9,314.1,252.9z"/>
			<path class="st0" d="M409,304.3l-83-80.9c-1.7-1.7-4.3-2.2-6.4-1.2l-44.3,19.3c-3.7,1.6-5,6.6-2.6,10.1l72.3,103.5
				c2,2.9,5.8,3.5,8.5,1.4l55-41.9C411.6,312.1,411.9,307.1,409,304.3z M314.1,251.8c-2.8,2-7.2,0.2-9.8-4
				c-2.6-4.2-2.5-9.3,0.3-11.3c2.8-2,7.2-0.2,9.8,4C317,244.7,316.9,249.8,314.1,251.8z"/>
			<g>
				<path class="st17" d="M296.8,231.9c-0.3,0-0.5-0.2-0.6-0.4c-2.9-6.8-6.8-12.6-11.5-17.4c-13.1-13.1-30-15.1-46.3-17.1
					c-16.3-2-31.6-3.8-40.8-16.8c-2.3-3.3-5.9-9.2-4-12c0.8-1.1,2.3-1.7,4.6-1.6c0.4,0,0.7,0.3,0.6,0.7c0,0.4-0.3,0.7-0.7,0.6
					c-1.2-0.1-2.8,0.1-3.4,1c-1,1.5,0.5,5.6,4,10.5c8.8,12.4,23.9,14.3,39.8,16.2c16.6,2,33.7,4.1,47.1,17.5
					c4.9,4.9,8.9,10.9,11.8,17.8c0.1,0.3,0,0.7-0.4,0.9C297,231.9,296.9,231.9,296.8,231.9z"/>
			</g>
			<g>
				<path class="st17" d="M303.9,245.6c-0.2,0-0.3-0.1-0.5-0.2c-0.3-0.3-0.3-0.7,0-1c0.1-0.1,5.7-5.8,5.7-13.5
					c0-4.7-2.2-9.2-6.4-13.3c-8.9-8.8-32.6-18.9-53.5-27.9c-12.8-5.5-24.8-10.6-32.7-15.1c-1.8-1-3.7-2-5.6-2.9
					c-0.3-0.2-0.5-0.6-0.3-0.9c0.2-0.3,0.6-0.5,0.9-0.3c2,0.9,3.9,1.9,5.7,2.9c7.8,4.4,19.9,9.6,32.6,15c21,9,44.8,19.2,53.9,28.2
					c4.5,4.4,6.8,9.2,6.8,14.3c0,8.2-5.9,14.2-6.1,14.4C304.3,245.6,304.1,245.6,303.9,245.6z"/>
			</g>
			<path class="st2" d="M409,304.3l-83-80.9c-1.7-1.7-4.3-2.2-6.4-1.2l-3.9,1.7c1,3.8,2.6,8,4.9,12.3c12.3,22.5,32.4,21.5,37,37.1
				c4.1,13.8-9.7,21.2-11.5,40.7c-0.9,9.7,1.2,22.6,12.3,38.8l50.1-38.2C411.6,312.1,411.9,307.1,409,304.3z"/>
			<g>
				<path class="st16" d="M334.5,276.8c4.5,7.5,3.6,13.8,0,16.3c-3.8,2.7-9.3,0.7-13.4-6.1c-3.9-6.4-4.1-13.2,0.2-16.2
					C325.6,267.8,330.8,270.6,334.5,276.8z M325.3,283.7c2.3,3.8,4.8,5.9,6.5,4.7c1.7-1.2,1-4.2-1.4-8.2c-2.2-3.6-4.6-6-6.4-4.7
					C322.2,276.7,323.2,280.1,325.3,283.7z M343.9,307.9l-8.1-47.2l3.2-2.2l8.1,47.2L343.9,307.9z M361.6,279.1
					c4.5,7.5,3.6,13.8,0,16.3c-3.8,2.6-9.3,0.6-13.4-6.1c-3.9-6.4-4.1-13.2,0.2-16.2C352.7,270.1,357.9,273,361.6,279.1z M352.4,286
					c2.2,3.8,4.8,5.9,6.5,4.7c1.7-1.2,1-4.2-1.4-8.2c-2.2-3.6-4.6-6-6.4-4.7C349.3,279,350.3,282.4,352.4,286z"/>
			</g>
			<path class="st16" d="M345.6,334c-1.1,0-2.2-0.6-2.8-1.7c-0.9-1.7-0.4-3.8,1.1-4.9l40-26.1c1.6-1,3.6-0.5,4.5,1.2
				c0.9,1.7,0.4,3.8-1.1,4.9l-40,26.1C346.8,333.8,346.2,334,345.6,334z"/>
		</g>
		<g>
			<g>
				<linearGradient id="SVGID_20_" gradientUnits="userSpaceOnUse" x1="16.4294" y1="398.8641" x2="53.6949" y2="404.8532">
					<stop  offset="0" style="stop-color:#AA80F9"/>
					<stop  offset="0.9964" style="stop-color:#6165D7"/>
				</linearGradient>
				<path class="st18" d="M292.9,484.6c0,3.6-2.6,6.8-5.7,6.9L64.4,505.1c-4.2,0.3-9-3.3-9-7.5V341.7c0-4.2,4.9-7.8,9.1-7.6
					l222.7,9.5c3.2,0.1,5.7,3.2,5.7,6.8V484.6z"/>
				<linearGradient id="SVGID_21_" gradientUnits="userSpaceOnUse" x1="155.864" y1="397.9197" x2="310.2502" y2="582.2514">
					<stop  offset="0" style="stop-color:#AA80F9"/>
					<stop  offset="0.9964" style="stop-color:#6165D7"/>
				</linearGradient>
				<path class="st19" d="M297,484.9c0,3.6-2.6,6.8-5.8,7L66.1,505.2c-4.2,0.3-7.7-3-7.7-7.3V341.3c0-4.2,3.5-7.6,7.7-7.4l225.1,9.3
					c3.2,0.1,5.8,3.2,5.8,6.9V484.9z"/>
				<g>
					<linearGradient id="SVGID_22_" gradientUnits="userSpaceOnUse" x1="116.5644" y1="449.2952" x2="318.8634" y2="513.1793">
						<stop  offset="0" style="stop-color:#444B8C"/>
						<stop  offset="0.9964" style="stop-color:#26264F"/>
					</linearGradient>
					<polygon class="st20" points="297,448.1 58.4,460.4 58.4,489.1 297,475.1 					"/>
				</g>
				<g>
					<g class="st21">
						
							<linearGradient id="SVGID_23_" gradientUnits="userSpaceOnUse" x1="120.7059" y1="408.7395" x2="223.1794" y2="408.7395" gradientTransform="matrix(0.9999 1.510000e-02 -1.510000e-02 0.9999 -33.8706 -7.0996)">
							<stop  offset="0" style="stop-color:#FF9085"/>
							<stop  offset="1" style="stop-color:#FB6FBB"/>
						</linearGradient>
						<path class="st22" d="M128.8,385.7c-0.3,17.8-11.4,27.1-23.8,27c-13.5-0.1-24.3-10.4-24.1-27.4c0.2-16.2,10.4-27.7,25.6-26.6
							C121.2,359.8,129,371.2,128.8,385.7z M96.7,385.3c-0.1,9.3,2.9,16,8.8,16.1c5.7,0.1,8.6-5.7,8.7-15.5
							c0.1-8.8-2.1-15.8-8.4-16.1C99.8,369.5,96.9,376.5,96.7,385.3z M109.3,442.6l43-77.9c0.8-1.5,2.4-2.4,4.1-2.2h0
							c3.2,0.2,5,3.7,3.5,6.4l-42.5,77.9c-0.7,1.3-2.1,2.2-3.6,2.3l-0.5,0C109.9,449.2,107.6,445.6,109.3,442.6z M182.9,420.6
							c-0.2,16.5-9.8,25.5-20.4,26c-11.4,0.5-20.6-8.6-20.5-24.3c0.2-14.9,8.9-26,21.8-25.6C176.4,397.1,183.1,407.2,182.9,420.6z
							 M155.6,421.7c-0.2,8.6,2.3,14.7,7.4,14.5c4.9-0.1,7.3-5.6,7.5-14.7c0.1-8.1-1.7-14.5-7-14.5
							C158.1,407,155.7,413.5,155.6,421.7z"/>
					</g>
					<g>
						<path class="st2" d="M130.9,384.9c-0.3,17.8-11.4,27.1-23.8,27c-13.5-0.1-24.3-10.4-24.1-27.4c0.2-16.2,10.4-27.7,25.6-26.6
							C123.2,359,131.1,370.3,130.9,384.9z M98.8,384.5c-0.1,9.3,2.9,16,8.8,16.1c5.7,0.1,8.6-5.7,8.7-15.5
							c0.1-8.8-2.1-15.8-8.4-16.1C101.9,368.7,98.9,375.6,98.8,384.5z M111.3,441.8l43-77.9c0.8-1.5,2.4-2.4,4.1-2.2h0
							c3.2,0.2,5,3.7,3.5,6.4l-42.5,77.9c-0.7,1.3-2.1,2.2-3.6,2.3l-0.5,0C112,448.4,109.7,444.7,111.3,441.8z M185,419.8
							c-0.2,16.5-9.8,25.5-20.4,26c-11.4,0.5-20.6-8.6-20.5-24.3c0.2-14.9,8.9-26,21.8-25.6C178.4,396.2,185.2,406.3,185,419.8z
							 M157.6,420.9c-0.2,8.6,2.3,14.7,7.4,14.5c4.9-0.1,7.3-5.6,7.5-14.7c0.1-8.1-1.7-14.5-7-14.5
							C160.2,406.2,157.8,412.7,157.6,420.9z"/>
					</g>
				</g>
				<linearGradient id="SVGID_24_" gradientUnits="userSpaceOnUse" x1="150.5083" y1="308.3568" x2="304.8946" y2="492.6885">
					<stop  offset="0" style="stop-color:#AA80F9"/>
					<stop  offset="0.9964" style="stop-color:#6165D7"/>
				</linearGradient>
				<path class="st23" d="M291.2,343.2L68.7,334c10,29.7,24.4,43.1,36.8,49.6c23.5,12.4,40.4,0.6,60.6,16.6
					c20.7,16.5,12.8,36.9,34.6,50.6c16.4,10.3,26.9,2.7,43.9,12c12.6,6.9,20.4,18.6,25.5,30.3l21.2-1.3c3.2-0.2,5.8-3.3,5.8-7V350.1
					C297,346.4,294.4,343.4,291.2,343.2z"/>
				<linearGradient id="SVGID_25_" gradientUnits="userSpaceOnUse" x1="196.3592" y1="453.3744" x2="297.0109" y2="453.3744">
					<stop  offset="0" style="stop-color:#AA80F9"/>
					<stop  offset="0.9964" style="stop-color:#6165D7"/>
				</linearGradient>
				<path class="st24" d="M293.9,414.5l-5.4-5.2l-5.2,5.4l-5.4-5.2l-5.2,5.4l-5.4-5.2l-5.2,5.4l-5.4-5.2l-5.2,5.4l-5.4-5.2l-5.2,5.4
					l-5.4-5.2l-5.2,5.4l-5.4-5.2l-5.2,5.4l-5.4-5.2l-5.2,5.4l-6.9-6.6c0,2.6,0,81.3,0,81.3s-0.3,4.7-5.9,5.9l96-7
					c1.1-0.1,2.1-0.4,3-0.9c1-1.2,1.6-2.9,1.6-4.6v-73.6L293.9,414.5z"/>
			</g>
			<g>
				<path class="st2" d="M309.3,411.8v74.1c0,4.1-3.3,7.6-7.4,7.9l-30.5,2.2l-65.8,4.8c5.6-1.2,5.8-5.9,5.8-5.9s0-78.7,0-81.3
					l7.1,6.6l3.7-3.8l1.5-1.6l5.4,5.2l5.2-5.4l5.4,5.2l5.2-5.4l5.4,5.2l5.2-5.4l5.4,5.2l5.2-5.4l5.4,5.2l5.2-5.4l5.4,5.2l5.2-5.4
					l5.4,5.2l5.2-5.4l5.5,5.2L309.3,411.8z"/>
				<g>
					<path class="st16" d="M298.2,454.9l-11.9,0.5c-0.8,0-1.4,0.7-1.4,1.5v5.5c0,0.9,0.7,1.5,1.6,1.5l11.9-0.7
						c0.8,0,1.4-0.7,1.4-1.5v-5.3C299.8,455.5,299.1,454.8,298.2,454.9z"/>
					<path class="st16" d="M298.2,465.4l-11.9,0.7c-0.8,0-1.4,0.7-1.4,1.5v5.7c0,0.9,0.7,1.5,1.6,1.5l11.9-0.8
						c0.8-0.1,1.4-0.7,1.4-1.5v-5.6C299.8,466,299.1,465.3,298.2,465.4z"/>
					<path class="st16" d="M299.8,439.7V430c0-0.8-0.7-1.5-1.5-1.5l-11.9,0.4c-0.8,0-1.4,0.7-1.4,1.5v9.9c0,0.9,0.7,1.5,1.6,1.5
						l11.9-0.5C299.2,441.2,299.8,440.5,299.8,439.7z"/>
				</g>
				<g>
					<path class="st16" d="M273.6,456l-48.4,2.2c-0.8,0-1.4,0.7-1.4,1.5v6.1c0,0.9,0.7,1.5,1.6,1.5l48.4-2.7c0.8,0,1.4-0.7,1.4-1.5
						v-5.6C275.1,456.6,274.4,455.9,273.6,456z"/>
					<path class="st16" d="M273.5,466.8l-48.4,2.7c-0.8,0-1.4,0.7-1.4,1.5v6.1c0,0.9,0.7,1.5,1.6,1.5l48.4-3.1
						c0.8-0.1,1.4-0.7,1.4-1.5v-5.8C275.1,467.4,274.4,466.7,273.5,466.8z"/>
					<path class="st16" d="M275.1,440.9v-10c0-0.8-0.7-1.5-1.5-1.5l-48.4,1.7c-0.8,0-1.4,0.7-1.4,1.5V443c0,0.9,0.7,1.5,1.6,1.5
						l48.4-2.2C274.5,442.3,275.1,441.7,275.1,440.9z"/>
				</g>
				<path class="st25" d="M271.4,496l-65.8,4.8c5.6-1.2,5.8-5.9,5.8-5.9s0-78.7,0-81.3l7.1,6.6l3.7-3.8c3.1,2.8,5.6,7.3,6.3,14.4
					c2.3,23.7,13.4,22.1,26.5,23c13.1,0.9,19.1,16.1,13.8,27.8C266.4,486.8,267.4,492.1,271.4,496z"/>
			</g>
		</g>
		<g>
			<g>
				<linearGradient id="SVGID_26_" gradientUnits="userSpaceOnUse" x1="44.8037" y1="506.5047" x2="145.5606" y2="506.5047">
					<stop  offset="0" style="stop-color:#FCB148"/>
					<stop  offset="5.207239e-02" style="stop-color:#FDBA46"/>
					<stop  offset="0.1424" style="stop-color:#FFC244"/>
					<stop  offset="0.3183" style="stop-color:#FFC444"/>
					<stop  offset="0.4849" style="stop-color:#FDB946"/>
					<stop  offset="0.7754" style="stop-color:#F99C4D"/>
					<stop  offset="0.8658" style="stop-color:#F8924F"/>
					<stop  offset="1" style="stop-color:#F8924F"/>
				</linearGradient>
				<path class="st26" d="M52.3,498.8v9.7c0,3.1,19.6,5.7,43.8,5.7s43.8-2.5,43.8-5.7v-9.7H52.3z"/>
				<linearGradient id="SVGID_27_" gradientUnits="userSpaceOnUse" x1="95.6452" y1="495.1548" x2="100.957" y2="539.6223">
					<stop  offset="0" style="stop-color:#FFDB44"/>
					<stop  offset="1" style="stop-color:#FEEF06"/>
				</linearGradient>
				<path class="st27" d="M139.9,498.8c0,3.1-19.6,5.7-43.8,5.7s-43.8-2.5-43.8-5.7c0-3.1,19.6-5.7,43.8-5.7
					S139.9,495.7,139.9,498.8z"/>
				<linearGradient id="SVGID_28_" gradientUnits="userSpaceOnUse" x1="95.4142" y1="493.1718" x2="97.0456" y2="506.8285">
					<stop  offset="0" style="stop-color:#FFDB44"/>
					<stop  offset="1" style="stop-color:#FEEF06"/>
				</linearGradient>
				<path class="st28" d="M96.1,504.9c-21.4,0-43.8-2-43.8-6c0-0.2,0.1-0.6,0.3-0.6c0.2,0,0.1,0.3,0.1,0.5c0,2.5,17.8,5.3,43.4,5.3
					c25.6,0,43.4-2.8,43.4-5.3c0-0.2,0-0.4,0.3-0.4c0.2,0,0.2,0.3,0.2,0.5C139.9,502.8,117.5,504.9,96.1,504.9z"/>
				<g>
					<path class="st29" d="M91.9,499.1c0.4-0.3,0.9-0.6,1.4-0.9c0.5-0.3,1.1-0.6,1.9-0.8c0.8-0.2,1.7-0.4,2.9-0.6
						c1.2-0.1,2.6-0.2,4.3-0.2c1.7,0,3.3,0,4.8,0.2c1.5,0.1,2.8,0.3,3.9,0.5c1.1,0.2,2,0.5,2.8,0.9c0.7,0.3,1.1,0.7,1.3,1.2l4.9,0
						c0.4,0,0.7,0,0.9,0.1c0.3,0.1,0.4,0.1,0.4,0.2l0,0.4l-6.3-0.1c-0.2,0.5-0.8,1-1.7,1.4c-0.9,0.4-2.1,0.8-3.5,1.1l-2.3-0.3
						c-0.2,0-0.4-0.1-0.5-0.1c-0.1,0-0.2-0.1-0.2-0.2c0-0.1,0.2-0.2,0.5-0.3c0.4-0.1,0.8-0.2,1.2-0.4c0.4-0.1,0.9-0.3,1.3-0.5
						c0.4-0.2,0.7-0.4,0.9-0.7l-15-0.1c-0.4,0.3-0.8,0.6-1.3,0.9c-0.5,0.3-1.1,0.5-1.9,0.8c-0.8,0.2-1.8,0.4-3,0.5
						c-1.2,0.1-2.7,0.2-4.5,0.2c-1.4,0-2.7,0-4-0.2c-1.3-0.1-2.5-0.3-3.5-0.5c-1-0.2-1.8-0.5-2.5-0.8c-0.6-0.3-1-0.7-1.1-1.1l-4.1,0
						c-0.4,0-0.7,0-1-0.1c-0.3-0.1-0.4-0.1-0.4-0.2l0-0.4l5.5,0.1c0.2-0.4,0.7-0.8,1.5-1.1c0.8-0.3,1.7-0.6,2.8-0.8l1.9,0.3
						c0.6,0.1,0.8,0.2,0.8,0.3c0,0.1-0.1,0.1-0.3,0.2c-0.2,0.1-0.5,0.2-0.8,0.3c-0.3,0.1-0.6,0.3-0.9,0.4c-0.3,0.2-0.5,0.3-0.7,0.5
						L91.9,499.1z M78.3,499.7c0.1,0.3,0.4,0.5,0.7,0.7c0.4,0.2,0.8,0.4,1.4,0.5c0.6,0.1,1.2,0.2,1.9,0.3c0.7,0.1,1.4,0.1,2.2,0.1
						c0.9,0,1.7,0,2.4-0.1c0.7-0.1,1.3-0.2,1.8-0.3c0.5-0.1,0.9-0.3,1.3-0.4c0.4-0.2,0.7-0.3,1-0.5L78.3,499.7z M110.8,499.3
						c-0.1-0.3-0.4-0.5-0.8-0.7c-0.4-0.2-1-0.4-1.6-0.5c-0.7-0.1-1.4-0.2-2.3-0.3c-0.9-0.1-1.8-0.1-2.9-0.1c-0.9,0-1.7,0-2.4,0.1
						c-0.7,0.1-1.3,0.2-1.8,0.3c-0.5,0.1-0.9,0.3-1.3,0.5c-0.3,0.2-0.7,0.4-1,0.6L110.8,499.3z"/>
				</g>
				
					<linearGradient id="SVGID_29_" gradientUnits="userSpaceOnUse" x1="767.1496" y1="-1923.0531" x2="768.7751" y2="-1909.4448" gradientTransform="matrix(-1 0 0 -1 864.0974 -1417.6564)">
					<stop  offset="3.597120e-03" style="stop-color:#F36F56"/>
					<stop  offset="0.3059" style="stop-color:#F99C4C"/>
					<stop  offset="0.545" style="stop-color:#FDB946"/>
					<stop  offset="0.6817" style="stop-color:#FFC444"/>
					<stop  offset="0.8038" style="stop-color:#FFC244"/>
					<stop  offset="0.8667" style="stop-color:#FEBA46"/>
					<stop  offset="0.916" style="stop-color:#FCAD49"/>
					<stop  offset="0.958" style="stop-color:#F99A4D"/>
					<stop  offset="0.9955" style="stop-color:#F58152"/>
					<stop  offset="1" style="stop-color:#F57E53"/>
				</linearGradient>
				<path class="st30" d="M96.1,493.7c-19.5,0-39.9,1.7-43.1,5c0.1,0.1,0.2,0.2,0.4,0.4c2.7-2.3,19.5-4.6,42.8-4.6
					c23.8,0,40.9,2.4,42.9,4.8c0.1-0.1,0.2-0.3,0.3-0.4C136.7,495.5,116,493.7,96.1,493.7z"/>
			</g>
			<g>
				<linearGradient id="SVGID_30_" gradientUnits="userSpaceOnUse" x1="32.6302" y1="496.3024" x2="133.387" y2="496.3024">
					<stop  offset="0" style="stop-color:#FCB148"/>
					<stop  offset="5.207239e-02" style="stop-color:#FDBA46"/>
					<stop  offset="0.1424" style="stop-color:#FFC244"/>
					<stop  offset="0.3183" style="stop-color:#FFC444"/>
					<stop  offset="0.4849" style="stop-color:#FDB946"/>
					<stop  offset="0.7754" style="stop-color:#F99C4D"/>
					<stop  offset="0.8658" style="stop-color:#F8924F"/>
					<stop  offset="1" style="stop-color:#F8924F"/>
				</linearGradient>
				<path class="st31" d="M40.1,488.6v9.7c0,3.1,19.6,5.7,43.8,5.7c24.2,0,43.8-2.5,43.8-5.7v-9.7H40.1z"/>
				<linearGradient id="SVGID_31_" gradientUnits="userSpaceOnUse" x1="83.4717" y1="484.9526" x2="88.7835" y2="529.42">
					<stop  offset="0" style="stop-color:#FFDB44"/>
					<stop  offset="1" style="stop-color:#FEEF06"/>
				</linearGradient>
				<path class="st32" d="M127.7,488.6c0,3.1-19.6,5.7-43.8,5.7c-24.2,0-43.8-2.5-43.8-5.7c0-3.1,19.6-5.7,43.8-5.7
					C108.1,482.9,127.7,485.5,127.7,488.6z"/>
				<linearGradient id="SVGID_32_" gradientUnits="userSpaceOnUse" x1="83.2407" y1="482.9695" x2="84.8721" y2="496.6262">
					<stop  offset="0" style="stop-color:#FFDB44"/>
					<stop  offset="1" style="stop-color:#FEEF06"/>
				</linearGradient>
				<path class="st33" d="M83.9,494.7c-21.4,0-43.8-2-43.8-6c0-0.2,0.1-0.6,0.3-0.6c0.2,0,0.1,0.3,0.1,0.5c0,2.5,17.8,5.3,43.4,5.3
					s43.4-2.8,43.4-5.3c0-0.2,0-0.4,0.3-0.4c0.2,0,0.2,0.3,0.2,0.5C127.7,492.6,105.3,494.7,83.9,494.7z"/>
				<g>
					<path class="st29" d="M79.8,488.9c0.4-0.3,0.9-0.6,1.4-0.9c0.5-0.3,1.1-0.6,1.9-0.8c0.8-0.2,1.7-0.4,2.9-0.6s2.6-0.2,4.3-0.2
						c1.7,0,3.3,0,4.8,0.2c1.5,0.1,2.8,0.3,3.9,0.5c1.1,0.2,2,0.5,2.8,0.9c0.7,0.3,1.1,0.7,1.3,1.2l4.9,0c0.4,0,0.7,0,0.9,0.1
						c0.3,0.1,0.4,0.1,0.4,0.2l0,0.4l-6.3-0.1c-0.2,0.5-0.8,1-1.7,1.4c-0.9,0.4-2.1,0.8-3.5,1.1l-2.3-0.3c-0.2,0-0.4-0.1-0.5-0.1
						c-0.1,0-0.2-0.1-0.2-0.2c0-0.1,0.2-0.2,0.5-0.3c0.4-0.1,0.8-0.2,1.2-0.4c0.4-0.1,0.9-0.3,1.3-0.5c0.4-0.2,0.7-0.4,0.9-0.7
						l-15-0.1c-0.4,0.3-0.8,0.6-1.3,0.9c-0.5,0.3-1.1,0.5-1.9,0.8c-0.8,0.2-1.8,0.4-3,0.5c-1.2,0.1-2.7,0.2-4.5,0.2
						c-1.4,0-2.7,0-4-0.2c-1.3-0.1-2.5-0.3-3.5-0.5c-1-0.2-1.8-0.5-2.5-0.8c-0.6-0.3-1-0.7-1.1-1.1l-4.1,0c-0.4,0-0.7,0-1-0.1
						c-0.3-0.1-0.4-0.1-0.4-0.2l0-0.4l5.6,0.1c0.2-0.4,0.7-0.8,1.5-1.1c0.8-0.3,1.7-0.6,2.8-0.8l1.9,0.3c0.6,0.1,0.8,0.2,0.8,0.3
						c0,0.1-0.1,0.1-0.3,0.2c-0.2,0.1-0.5,0.2-0.8,0.3c-0.3,0.1-0.6,0.3-0.9,0.4c-0.3,0.2-0.5,0.3-0.7,0.5L79.8,488.9z M66.1,489.5
						c0.1,0.3,0.4,0.5,0.7,0.7c0.4,0.2,0.8,0.4,1.4,0.5c0.6,0.1,1.2,0.2,1.9,0.3c0.7,0.1,1.4,0.1,2.2,0.1c0.9,0,1.7,0,2.4-0.1
						c0.7-0.1,1.3-0.2,1.8-0.3c0.5-0.1,0.9-0.3,1.3-0.4c0.4-0.2,0.7-0.3,1-0.5L66.1,489.5z M98.6,489.1c-0.1-0.3-0.4-0.5-0.8-0.7
						c-0.4-0.2-1-0.4-1.6-0.5c-0.7-0.1-1.4-0.2-2.3-0.3c-0.9-0.1-1.8-0.1-2.9-0.1c-0.9,0-1.7,0-2.4,0.1c-0.7,0.1-1.3,0.2-1.8,0.3
						c-0.5,0.1-0.9,0.3-1.3,0.5c-0.3,0.2-0.7,0.4-1,0.6L98.6,489.1z"/>
				</g>
				
					<linearGradient id="SVGID_33_" gradientUnits="userSpaceOnUse" x1="779.3232" y1="-1912.8508" x2="780.9487" y2="-1899.2426" gradientTransform="matrix(-1 0 0 -1 864.0974 -1417.6564)">
					<stop  offset="3.597120e-03" style="stop-color:#F36F56"/>
					<stop  offset="0.3059" style="stop-color:#F99C4C"/>
					<stop  offset="0.545" style="stop-color:#FDB946"/>
					<stop  offset="0.6817" style="stop-color:#FFC444"/>
					<stop  offset="0.8038" style="stop-color:#FFC244"/>
					<stop  offset="0.8667" style="stop-color:#FEBA46"/>
					<stop  offset="0.916" style="stop-color:#FCAD49"/>
					<stop  offset="0.958" style="stop-color:#F99A4D"/>
					<stop  offset="0.9955" style="stop-color:#F58152"/>
					<stop  offset="1" style="stop-color:#F57E53"/>
				</linearGradient>
				<path class="st34" d="M83.9,483.5c-19.5,0-39.9,1.7-43.1,5c0.1,0.1,0.2,0.2,0.4,0.4c2.7-2.3,19.5-4.6,42.8-4.6
					c23.8,0,40.9,2.4,42.9,4.8c0.1-0.1,0.2-0.3,0.3-0.4C124.5,485.3,103.8,483.5,83.9,483.5z"/>
			</g>
			<g>
				<linearGradient id="SVGID_34_" gradientUnits="userSpaceOnUse" x1="43.1343" y1="486.13" x2="143.8912" y2="486.13">
					<stop  offset="0" style="stop-color:#FCB148"/>
					<stop  offset="5.207239e-02" style="stop-color:#FDBA46"/>
					<stop  offset="0.1424" style="stop-color:#FFC244"/>
					<stop  offset="0.3183" style="stop-color:#FFC444"/>
					<stop  offset="0.4849" style="stop-color:#FDB946"/>
					<stop  offset="0.7754" style="stop-color:#F99C4D"/>
					<stop  offset="0.8658" style="stop-color:#F8924F"/>
					<stop  offset="1" style="stop-color:#F8924F"/>
				</linearGradient>
				<path class="st35" d="M50.6,478.4v9.7c0,3.1,19.6,5.7,43.8,5.7c24.2,0,43.8-2.5,43.8-5.7v-9.7H50.6z"/>
				<linearGradient id="SVGID_35_" gradientUnits="userSpaceOnUse" x1="93.9758" y1="474.7802" x2="99.2876" y2="519.2476">
					<stop  offset="0" style="stop-color:#FFDB44"/>
					<stop  offset="1" style="stop-color:#FEEF06"/>
				</linearGradient>
				<path class="st36" d="M138.2,478.4c0,3.1-19.6,5.7-43.8,5.7c-24.2,0-43.8-2.5-43.8-5.7c0-3.1,19.6-5.7,43.8-5.7
					C118.6,472.7,138.2,475.3,138.2,478.4z"/>
				<linearGradient id="SVGID_36_" gradientUnits="userSpaceOnUse" x1="93.7449" y1="472.7971" x2="95.3762" y2="486.4538">
					<stop  offset="0" style="stop-color:#FFDB44"/>
					<stop  offset="1" style="stop-color:#FEEF06"/>
				</linearGradient>
				<path class="st37" d="M94.4,484.5c-21.4,0-43.8-2-43.8-6c0-0.2,0.1-0.6,0.3-0.6c0.2,0,0.1,0.3,0.1,0.5c0,2.5,17.8,5.3,43.4,5.3
					s43.4-2.8,43.4-5.3c0-0.2,0-0.4,0.3-0.4c0.2,0,0.2,0.3,0.2,0.5C138.2,482.5,115.8,484.5,94.4,484.5z"/>
				<g>
					<path class="st29" d="M90.3,478.7c0.4-0.3,0.9-0.6,1.4-0.9c0.5-0.3,1.1-0.6,1.9-0.8c0.8-0.2,1.7-0.4,2.9-0.6
						c1.2-0.1,2.6-0.2,4.3-0.2c1.7,0,3.3,0,4.8,0.2c1.5,0.1,2.8,0.3,3.9,0.5c1.1,0.2,2,0.5,2.8,0.9c0.7,0.3,1.1,0.7,1.3,1.2l4.9,0
						c0.4,0,0.7,0,0.9,0.1c0.3,0.1,0.4,0.1,0.4,0.2l0,0.4l-6.3-0.1c-0.2,0.5-0.8,1-1.7,1.4c-0.9,0.4-2.1,0.8-3.5,1.1l-2.3-0.3
						c-0.2,0-0.4-0.1-0.5-0.1c-0.1,0-0.2-0.1-0.2-0.2c0-0.1,0.2-0.2,0.5-0.3c0.4-0.1,0.8-0.2,1.2-0.4c0.4-0.1,0.9-0.3,1.3-0.5
						c0.4-0.2,0.7-0.4,0.9-0.7l-15-0.1c-0.4,0.3-0.8,0.6-1.3,0.9c-0.5,0.3-1.1,0.5-1.9,0.8c-0.8,0.2-1.8,0.4-3,0.5
						c-1.2,0.1-2.7,0.2-4.5,0.2c-1.4,0-2.7,0-4-0.2c-1.3-0.1-2.5-0.3-3.5-0.5c-1-0.2-1.8-0.5-2.5-0.8c-0.6-0.3-1-0.7-1.1-1.1l-4.1,0
						c-0.4,0-0.7,0-1-0.1c-0.3-0.1-0.4-0.1-0.4-0.2l0-0.4l5.6,0.1c0.2-0.4,0.7-0.8,1.5-1.1c0.8-0.3,1.7-0.6,2.8-0.8l1.9,0.3
						c0.6,0.1,0.8,0.2,0.8,0.3c0,0.1-0.1,0.1-0.3,0.2c-0.2,0.1-0.5,0.2-0.8,0.3c-0.3,0.1-0.6,0.3-0.9,0.4c-0.3,0.2-0.5,0.3-0.7,0.5
						L90.3,478.7z M76.6,479.3c0.1,0.3,0.4,0.5,0.7,0.7c0.4,0.2,0.8,0.4,1.4,0.5c0.6,0.1,1.2,0.2,1.9,0.3c0.7,0.1,1.4,0.1,2.2,0.1
						c0.9,0,1.7,0,2.4-0.1c0.7-0.1,1.3-0.2,1.8-0.3c0.5-0.1,0.9-0.3,1.3-0.4c0.4-0.2,0.7-0.3,1-0.5L76.6,479.3z M109.2,478.9
						c-0.1-0.3-0.4-0.5-0.8-0.7c-0.4-0.2-1-0.4-1.6-0.5c-0.7-0.1-1.4-0.2-2.3-0.3c-0.9-0.1-1.8-0.1-2.9-0.1c-0.9,0-1.7,0-2.4,0.1
						c-0.7,0.1-1.3,0.2-1.8,0.3c-0.5,0.1-0.9,0.3-1.3,0.5c-0.3,0.2-0.7,0.4-1,0.6L109.2,478.9z"/>
				</g>
				
					<linearGradient id="SVGID_37_" gradientUnits="userSpaceOnUse" x1="768.819" y1="-1902.6785" x2="770.4446" y2="-1889.0702" gradientTransform="matrix(-1 0 0 -1 864.0974 -1417.6564)">
					<stop  offset="3.597120e-03" style="stop-color:#F36F56"/>
					<stop  offset="0.3059" style="stop-color:#F99C4C"/>
					<stop  offset="0.545" style="stop-color:#FDB946"/>
					<stop  offset="0.6817" style="stop-color:#FFC444"/>
					<stop  offset="0.8038" style="stop-color:#FFC244"/>
					<stop  offset="0.8667" style="stop-color:#FEBA46"/>
					<stop  offset="0.916" style="stop-color:#FCAD49"/>
					<stop  offset="0.958" style="stop-color:#F99A4D"/>
					<stop  offset="0.9955" style="stop-color:#F58152"/>
					<stop  offset="1" style="stop-color:#F57E53"/>
				</linearGradient>
				<path class="st38" d="M94.4,473.4c-19.5,0-39.9,1.7-43.1,5c0.1,0.1,0.2,0.2,0.4,0.4c2.7-2.3,19.5-4.6,42.8-4.6
					c23.8,0,40.9,2.4,42.9,4.8c0.1-0.1,0.2-0.3,0.3-0.4C135,475.1,114.3,473.4,94.4,473.4z"/>
			</g>
			<g>
				<linearGradient id="SVGID_38_" gradientUnits="userSpaceOnUse" x1="49.5086" y1="475.9278" x2="150.2654" y2="475.9278">
					<stop  offset="0" style="stop-color:#FCB148"/>
					<stop  offset="5.207239e-02" style="stop-color:#FDBA46"/>
					<stop  offset="0.1424" style="stop-color:#FFC244"/>
					<stop  offset="0.3183" style="stop-color:#FFC444"/>
					<stop  offset="0.4849" style="stop-color:#FDB946"/>
					<stop  offset="0.7754" style="stop-color:#F99C4D"/>
					<stop  offset="0.8658" style="stop-color:#F8924F"/>
					<stop  offset="1" style="stop-color:#F8924F"/>
				</linearGradient>
				<path class="st39" d="M57,468.2v9.7c0,3.1,19.6,5.7,43.8,5.7c24.2,0,43.8-2.5,43.8-5.7v-9.7H57z"/>
				<linearGradient id="SVGID_39_" gradientUnits="userSpaceOnUse" x1="100.35" y1="464.5779" x2="105.6618" y2="509.0454">
					<stop  offset="0" style="stop-color:#FFDB44"/>
					<stop  offset="1" style="stop-color:#FEEF06"/>
				</linearGradient>
				<ellipse class="st40" cx="100.8" cy="468.2" rx="43.8" ry="5.7"/>
				<linearGradient id="SVGID_40_" gradientUnits="userSpaceOnUse" x1="100.119" y1="462.5948" x2="101.7503" y2="476.2515">
					<stop  offset="0" style="stop-color:#FFDB44"/>
					<stop  offset="1" style="stop-color:#FEEF06"/>
				</linearGradient>
				<path class="st41" d="M100.8,474.3c-21.4,0-43.8-2-43.8-6c0-0.2,0.1-0.6,0.3-0.6c0.2,0,0.1,0.3,0.1,0.5c0,2.5,17.8,5.3,43.4,5.3
					c25.6,0,43.4-2.8,43.4-5.3c0-0.2,0-0.4,0.3-0.4c0.2,0,0.2,0.3,0.2,0.5C144.6,472.3,122.2,474.3,100.8,474.3z"/>
				<g>
					<path class="st29" d="M96.6,468.5c0.4-0.3,0.9-0.6,1.4-0.9c0.5-0.3,1.1-0.6,1.9-0.8c0.8-0.2,1.7-0.4,2.9-0.6
						c1.2-0.1,2.6-0.2,4.3-0.2c1.7,0,3.3,0,4.8,0.2c1.5,0.1,2.8,0.3,3.9,0.5c1.1,0.2,2,0.5,2.8,0.9c0.7,0.3,1.1,0.7,1.3,1.2l4.9,0
						c0.4,0,0.7,0,0.9,0.1c0.3,0.1,0.4,0.1,0.4,0.2l0,0.4l-6.3-0.1c-0.2,0.5-0.8,1-1.7,1.4c-0.9,0.4-2.1,0.8-3.5,1.1l-2.3-0.3
						c-0.2,0-0.4-0.1-0.5-0.1c-0.1,0-0.2-0.1-0.2-0.2c0-0.1,0.2-0.2,0.5-0.3c0.4-0.1,0.8-0.2,1.2-0.4c0.4-0.1,0.9-0.3,1.3-0.5
						c0.4-0.2,0.7-0.4,0.9-0.7l-15-0.1c-0.4,0.3-0.8,0.6-1.3,0.9c-0.5,0.3-1.1,0.5-1.9,0.8c-0.8,0.2-1.8,0.4-3,0.5
						c-1.2,0.1-2.7,0.2-4.5,0.2c-1.4,0-2.7,0-4-0.2c-1.3-0.1-2.5-0.3-3.5-0.5c-1-0.2-1.8-0.5-2.5-0.8c-0.6-0.3-1-0.7-1.1-1.1l-4.1,0
						c-0.4,0-0.7,0-1-0.1c-0.3-0.1-0.4-0.1-0.4-0.2l0-0.4l5.5,0.1c0.2-0.4,0.7-0.8,1.5-1.1c0.8-0.3,1.7-0.6,2.8-0.8l1.9,0.3
						c0.6,0.1,0.8,0.2,0.8,0.3c0,0.1-0.1,0.1-0.3,0.2c-0.2,0.1-0.5,0.2-0.8,0.3c-0.3,0.1-0.6,0.3-0.9,0.4c-0.3,0.2-0.5,0.3-0.7,0.5
						L96.6,468.5z M83,469.1c0.1,0.3,0.4,0.5,0.7,0.7c0.4,0.2,0.8,0.4,1.4,0.5c0.6,0.1,1.2,0.2,1.9,0.3c0.7,0.1,1.4,0.1,2.2,0.1
						c0.9,0,1.7,0,2.4-0.1c0.7-0.1,1.3-0.2,1.8-0.3c0.5-0.1,0.9-0.3,1.3-0.4c0.4-0.2,0.7-0.3,1-0.5L83,469.1z M115.5,468.7
						c-0.1-0.3-0.4-0.5-0.8-0.7c-0.4-0.2-1-0.4-1.6-0.5c-0.7-0.1-1.4-0.2-2.3-0.3c-0.9-0.1-1.8-0.1-2.9-0.1c-0.9,0-1.7,0-2.4,0.1
						c-0.7,0.1-1.3,0.2-1.8,0.3c-0.5,0.1-0.9,0.3-1.3,0.5c-0.3,0.2-0.7,0.4-1,0.6L115.5,468.7z"/>
				</g>
				
					<linearGradient id="SVGID_41_" gradientUnits="userSpaceOnUse" x1="762.4449" y1="-1892.4762" x2="764.0704" y2="-1878.8679" gradientTransform="matrix(-1 0 0 -1 864.0974 -1417.6564)">
					<stop  offset="3.597120e-03" style="stop-color:#F36F56"/>
					<stop  offset="0.3059" style="stop-color:#F99C4C"/>
					<stop  offset="0.545" style="stop-color:#FDB946"/>
					<stop  offset="0.6817" style="stop-color:#FFC444"/>
					<stop  offset="0.8038" style="stop-color:#FFC244"/>
					<stop  offset="0.8667" style="stop-color:#FEBA46"/>
					<stop  offset="0.916" style="stop-color:#FCAD49"/>
					<stop  offset="0.958" style="stop-color:#F99A4D"/>
					<stop  offset="0.9955" style="stop-color:#F58152"/>
					<stop  offset="1" style="stop-color:#F57E53"/>
				</linearGradient>
				<path class="st42" d="M100.8,463.2c-19.5,0-39.9,1.7-43.1,5c0.1,0.1,0.2,0.2,0.4,0.4c2.7-2.3,19.5-4.6,42.8-4.6
					c23.8,0,40.9,2.4,42.9,4.8c0.1-0.1,0.2-0.3,0.3-0.4C141.4,464.9,120.7,463.2,100.8,463.2z"/>
			</g>
			<g>
				<linearGradient id="SVGID_42_" gradientUnits="userSpaceOnUse" x1="44.8037" y1="464.9207" x2="145.5606" y2="464.9207">
					<stop  offset="0" style="stop-color:#FCB148"/>
					<stop  offset="5.207239e-02" style="stop-color:#FDBA46"/>
					<stop  offset="0.1424" style="stop-color:#FFC244"/>
					<stop  offset="0.3183" style="stop-color:#FFC444"/>
					<stop  offset="0.4849" style="stop-color:#FDB946"/>
					<stop  offset="0.7754" style="stop-color:#F99C4D"/>
					<stop  offset="0.8658" style="stop-color:#F8924F"/>
					<stop  offset="1" style="stop-color:#F8924F"/>
				</linearGradient>
				<path class="st43" d="M52.3,457.2v9.7c0,3.1,19.6,5.7,43.8,5.7s43.8-2.5,43.8-5.7v-9.7H52.3z"/>
				<linearGradient id="SVGID_43_" gradientUnits="userSpaceOnUse" x1="95.6452" y1="453.5708" x2="100.957" y2="498.0383">
					<stop  offset="0" style="stop-color:#FFDB44"/>
					<stop  offset="1" style="stop-color:#FEEF06"/>
				</linearGradient>
				<path class="st44" d="M139.9,457.2c0,3.1-19.6,5.7-43.8,5.7s-43.8-2.5-43.8-5.7c0-3.1,19.6-5.7,43.8-5.7
					S139.9,454.1,139.9,457.2z"/>
				<linearGradient id="SVGID_44_" gradientUnits="userSpaceOnUse" x1="95.4142" y1="451.5877" x2="97.0456" y2="465.2444">
					<stop  offset="0" style="stop-color:#FFDB44"/>
					<stop  offset="1" style="stop-color:#FEEF06"/>
				</linearGradient>
				<path class="st45" d="M96.1,463.3c-21.4,0-43.8-2-43.8-6c0-0.2,0.1-0.6,0.3-0.6c0.2,0,0.1,0.3,0.1,0.5c0,2.5,17.8,5.3,43.4,5.3
					c25.6,0,43.4-2.8,43.4-5.3c0-0.2,0-0.4,0.3-0.4c0.2,0,0.2,0.3,0.2,0.5C139.9,461.3,117.5,463.3,96.1,463.3z"/>
				<g>
					<path class="st29" d="M91.9,457.5c0.4-0.3,0.9-0.6,1.4-0.9c0.5-0.3,1.1-0.6,1.9-0.8c0.8-0.2,1.7-0.4,2.9-0.6
						c1.2-0.1,2.6-0.2,4.3-0.2c1.7,0,3.3,0,4.8,0.2c1.5,0.1,2.8,0.3,3.9,0.5c1.1,0.2,2,0.5,2.8,0.9c0.7,0.3,1.1,0.7,1.3,1.2l4.9,0
						c0.4,0,0.7,0,0.9,0.1c0.3,0.1,0.4,0.1,0.4,0.2l0,0.4l-6.3-0.1c-0.2,0.5-0.8,1-1.7,1.4c-0.9,0.4-2.1,0.8-3.5,1.1l-2.3-0.3
						c-0.2,0-0.4-0.1-0.5-0.1c-0.1,0-0.2-0.1-0.2-0.2c0-0.1,0.2-0.2,0.5-0.3c0.4-0.1,0.8-0.2,1.2-0.4c0.4-0.1,0.9-0.3,1.3-0.5
						c0.4-0.2,0.7-0.4,0.9-0.7l-15-0.1c-0.4,0.3-0.8,0.6-1.3,0.9c-0.5,0.3-1.1,0.5-1.9,0.8c-0.8,0.2-1.8,0.4-3,0.5
						c-1.2,0.1-2.7,0.2-4.5,0.2c-1.4,0-2.7,0-4-0.2c-1.3-0.1-2.5-0.3-3.5-0.5c-1-0.2-1.8-0.5-2.5-0.8c-0.6-0.3-1-0.7-1.1-1.1l-4.1,0
						c-0.4,0-0.7,0-1-0.1c-0.3-0.1-0.4-0.1-0.4-0.2l0-0.4l5.5,0.1c0.2-0.4,0.7-0.8,1.5-1.1c0.8-0.3,1.7-0.6,2.8-0.8l1.9,0.3
						c0.6,0.1,0.8,0.2,0.8,0.3c0,0.1-0.1,0.1-0.3,0.2c-0.2,0.1-0.5,0.2-0.8,0.3c-0.3,0.1-0.6,0.3-0.9,0.4c-0.3,0.2-0.5,0.3-0.7,0.5
						L91.9,457.5z M78.3,458.1c0.1,0.3,0.4,0.5,0.7,0.7c0.4,0.2,0.8,0.4,1.4,0.5c0.6,0.1,1.2,0.2,1.9,0.3c0.7,0.1,1.4,0.1,2.2,0.1
						c0.9,0,1.7,0,2.4-0.1c0.7-0.1,1.3-0.2,1.8-0.3c0.5-0.1,0.9-0.3,1.3-0.4c0.4-0.2,0.7-0.3,1-0.5L78.3,458.1z M110.8,457.7
						c-0.1-0.3-0.4-0.5-0.8-0.7c-0.4-0.2-1-0.4-1.6-0.5c-0.7-0.1-1.4-0.2-2.3-0.3c-0.9-0.1-1.8-0.1-2.9-0.1c-0.9,0-1.7,0-2.4,0.1
						c-0.7,0.1-1.3,0.2-1.8,0.3c-0.5,0.1-0.9,0.3-1.3,0.5c-0.3,0.2-0.7,0.4-1,0.6L110.8,457.7z"/>
				</g>
				
					<linearGradient id="SVGID_45_" gradientUnits="userSpaceOnUse" x1="767.1496" y1="-1881.469" x2="768.7751" y2="-1867.8608" gradientTransform="matrix(-1 0 0 -1 864.0974 -1417.6564)">
					<stop  offset="3.597120e-03" style="stop-color:#F36F56"/>
					<stop  offset="0.3059" style="stop-color:#F99C4C"/>
					<stop  offset="0.545" style="stop-color:#FDB946"/>
					<stop  offset="0.6817" style="stop-color:#FFC444"/>
					<stop  offset="0.8038" style="stop-color:#FFC244"/>
					<stop  offset="0.8667" style="stop-color:#FEBA46"/>
					<stop  offset="0.916" style="stop-color:#FCAD49"/>
					<stop  offset="0.958" style="stop-color:#F99A4D"/>
					<stop  offset="0.9955" style="stop-color:#F58152"/>
					<stop  offset="1" style="stop-color:#F57E53"/>
				</linearGradient>
				<path class="st46" d="M96.1,452.2c-19.5,0-39.9,1.7-43.1,5c0.1,0.1,0.2,0.2,0.4,0.4c2.7-2.3,19.5-4.6,42.8-4.6
					c23.8,0,40.9,2.4,42.9,4.8c0.1-0.1,0.2-0.3,0.3-0.4C136.7,453.9,116,452.2,96.1,452.2z"/>
			</g>
			<g>
				<linearGradient id="SVGID_46_" gradientUnits="userSpaceOnUse" x1="32.6302" y1="454.7184" x2="133.387" y2="454.7184">
					<stop  offset="0" style="stop-color:#FCB148"/>
					<stop  offset="5.207239e-02" style="stop-color:#FDBA46"/>
					<stop  offset="0.1424" style="stop-color:#FFC244"/>
					<stop  offset="0.3183" style="stop-color:#FFC444"/>
					<stop  offset="0.4849" style="stop-color:#FDB946"/>
					<stop  offset="0.7754" style="stop-color:#F99C4D"/>
					<stop  offset="0.8658" style="stop-color:#F8924F"/>
					<stop  offset="1" style="stop-color:#F8924F"/>
				</linearGradient>
				<path class="st47" d="M40.1,447v9.7c0,3.1,19.6,5.7,43.8,5.7c24.2,0,43.8-2.5,43.8-5.7V447H40.1z"/>
				<linearGradient id="SVGID_47_" gradientUnits="userSpaceOnUse" x1="83.4717" y1="443.3685" x2="88.7835" y2="487.8361">
					<stop  offset="0" style="stop-color:#FFDB44"/>
					<stop  offset="1" style="stop-color:#FEEF06"/>
				</linearGradient>
				<ellipse class="st48" cx="83.9" cy="447" rx="43.8" ry="5.7"/>
				<linearGradient id="SVGID_48_" gradientUnits="userSpaceOnUse" x1="83.2407" y1="441.3854" x2="84.8721" y2="455.0421">
					<stop  offset="0" style="stop-color:#FFDB44"/>
					<stop  offset="1" style="stop-color:#FEEF06"/>
				</linearGradient>
				<path class="st49" d="M83.9,453.1c-21.4,0-43.8-2-43.8-6c0-0.2,0.1-0.6,0.3-0.6c0.2,0,0.1,0.3,0.1,0.5c0,2.5,17.8,5.3,43.4,5.3
					s43.4-2.8,43.4-5.3c0-0.2,0-0.4,0.3-0.4c0.2,0,0.2,0.3,0.2,0.5C127.7,451.1,105.3,453.1,83.9,453.1z"/>
				<g>
					<path class="st29" d="M79.8,447.3c0.4-0.3,0.9-0.6,1.4-0.9c0.5-0.3,1.1-0.6,1.9-0.8c0.8-0.2,1.7-0.4,2.9-0.6
						c1.2-0.1,2.6-0.2,4.3-0.2c1.7,0,3.3,0,4.8,0.2c1.5,0.1,2.8,0.3,3.9,0.5c1.1,0.2,2,0.5,2.8,0.9c0.7,0.3,1.1,0.7,1.3,1.2l4.9,0
						c0.4,0,0.7,0,0.9,0.1c0.3,0.1,0.4,0.1,0.4,0.2l0,0.4l-6.3-0.1c-0.2,0.5-0.8,1-1.7,1.4c-0.9,0.4-2.1,0.8-3.5,1.1l-2.3-0.3
						c-0.2,0-0.4-0.1-0.5-0.1c-0.1,0-0.2-0.1-0.2-0.2c0-0.1,0.2-0.2,0.5-0.3c0.4-0.1,0.8-0.2,1.2-0.4c0.4-0.1,0.9-0.3,1.3-0.5
						c0.4-0.2,0.7-0.4,0.9-0.7l-15-0.1c-0.4,0.3-0.8,0.6-1.3,0.9c-0.5,0.3-1.1,0.5-1.9,0.8c-0.8,0.2-1.8,0.4-3,0.5
						c-1.2,0.1-2.7,0.2-4.5,0.2c-1.4,0-2.7,0-4-0.2c-1.3-0.1-2.5-0.3-3.5-0.5c-1-0.2-1.8-0.5-2.5-0.8c-0.6-0.3-1-0.7-1.1-1.1l-4.1,0
						c-0.4,0-0.7,0-1-0.1c-0.3-0.1-0.4-0.1-0.4-0.2l0-0.4l5.6,0.1c0.2-0.4,0.7-0.8,1.5-1.1c0.8-0.3,1.7-0.6,2.8-0.8l1.9,0.3
						c0.6,0.1,0.8,0.2,0.8,0.3c0,0.1-0.1,0.1-0.3,0.2c-0.2,0.1-0.5,0.2-0.8,0.3c-0.3,0.1-0.6,0.3-0.9,0.4c-0.3,0.2-0.5,0.3-0.7,0.5
						L79.8,447.3z M66.1,447.9c0.1,0.3,0.4,0.5,0.7,0.7c0.4,0.2,0.8,0.4,1.4,0.5c0.6,0.1,1.2,0.2,1.9,0.3c0.7,0.1,1.4,0.1,2.2,0.1
						c0.9,0,1.7,0,2.4-0.1c0.7-0.1,1.3-0.2,1.8-0.3c0.5-0.1,0.9-0.3,1.3-0.4c0.4-0.2,0.7-0.3,1-0.5L66.1,447.9z M98.6,447.5
						c-0.1-0.3-0.4-0.5-0.8-0.7c-0.4-0.2-1-0.4-1.6-0.5c-0.7-0.1-1.4-0.2-2.3-0.3c-0.9-0.1-1.8-0.1-2.9-0.1c-0.9,0-1.7,0-2.4,0.1
						c-0.7,0.1-1.3,0.2-1.8,0.3c-0.5,0.1-0.9,0.3-1.3,0.5c-0.3,0.2-0.7,0.4-1,0.6L98.6,447.5z"/>
				</g>
				
					<linearGradient id="SVGID_49_" gradientUnits="userSpaceOnUse" x1="779.3232" y1="-1871.2667" x2="780.9487" y2="-1857.6586" gradientTransform="matrix(-1 0 0 -1 864.0974 -1417.6564)">
					<stop  offset="3.597120e-03" style="stop-color:#F36F56"/>
					<stop  offset="0.3059" style="stop-color:#F99C4C"/>
					<stop  offset="0.545" style="stop-color:#FDB946"/>
					<stop  offset="0.6817" style="stop-color:#FFC444"/>
					<stop  offset="0.8038" style="stop-color:#FFC244"/>
					<stop  offset="0.8667" style="stop-color:#FEBA46"/>
					<stop  offset="0.916" style="stop-color:#FCAD49"/>
					<stop  offset="0.958" style="stop-color:#F99A4D"/>
					<stop  offset="0.9955" style="stop-color:#F58152"/>
					<stop  offset="1" style="stop-color:#F57E53"/>
				</linearGradient>
				<path class="st50" d="M83.9,442c-19.5,0-39.9,1.7-43.1,5c0.1,0.1,0.2,0.2,0.4,0.4c2.7-2.3,19.5-4.6,42.8-4.6
					c23.8,0,40.9,2.4,42.9,4.8c0.1-0.1,0.2-0.3,0.3-0.4C124.5,443.7,103.8,442,83.9,442z"/>
			</g>
			<g>
				<linearGradient id="SVGID_50_" gradientUnits="userSpaceOnUse" x1="43.1343" y1="444.5461" x2="143.8912" y2="444.5461">
					<stop  offset="0" style="stop-color:#FCB148"/>
					<stop  offset="5.207239e-02" style="stop-color:#FDBA46"/>
					<stop  offset="0.1424" style="stop-color:#FFC244"/>
					<stop  offset="0.3183" style="stop-color:#FFC444"/>
					<stop  offset="0.4849" style="stop-color:#FDB946"/>
					<stop  offset="0.7754" style="stop-color:#F99C4D"/>
					<stop  offset="0.8658" style="stop-color:#F8924F"/>
					<stop  offset="1" style="stop-color:#F8924F"/>
				</linearGradient>
				<path class="st51" d="M50.6,436.8v9.7c0,3.1,19.6,5.7,43.8,5.7c24.2,0,43.8-2.5,43.8-5.7v-9.7H50.6z"/>
				<linearGradient id="SVGID_51_" gradientUnits="userSpaceOnUse" x1="93.9758" y1="433.1961" x2="99.2876" y2="477.6637">
					<stop  offset="0" style="stop-color:#FFDB44"/>
					<stop  offset="1" style="stop-color:#FEEF06"/>
				</linearGradient>
				<ellipse class="st52" cx="94.4" cy="436.8" rx="43.8" ry="5.7"/>
				<linearGradient id="SVGID_52_" gradientUnits="userSpaceOnUse" x1="93.7449" y1="431.213" x2="95.3762" y2="444.8698">
					<stop  offset="0" style="stop-color:#FFDB44"/>
					<stop  offset="1" style="stop-color:#FEEF06"/>
				</linearGradient>
				<path class="st53" d="M94.4,442.9c-21.4,0-43.8-2-43.8-6c0-0.2,0.1-0.6,0.3-0.6c0.2,0,0.1,0.3,0.1,0.5c0,2.5,17.8,5.3,43.4,5.3
					s43.4-2.8,43.4-5.3c0-0.2,0-0.4,0.3-0.4c0.2,0,0.2,0.3,0.2,0.5C138.2,440.9,115.8,442.9,94.4,442.9z"/>
				<g>
					<path class="st29" d="M90.3,437.2c0.4-0.3,0.9-0.6,1.4-0.9c0.5-0.3,1.1-0.6,1.9-0.8c0.8-0.2,1.7-0.4,2.9-0.6
						c1.2-0.1,2.6-0.2,4.3-0.2c1.7,0,3.3,0,4.8,0.2c1.5,0.1,2.8,0.3,3.9,0.5c1.1,0.2,2,0.5,2.8,0.9c0.7,0.3,1.1,0.7,1.3,1.2l4.9,0
						c0.4,0,0.7,0,0.9,0.1c0.3,0.1,0.4,0.1,0.4,0.2l0,0.4l-6.3-0.1c-0.2,0.5-0.8,1-1.7,1.4c-0.9,0.4-2.1,0.8-3.5,1.1l-2.3-0.3
						c-0.2,0-0.4-0.1-0.5-0.1c-0.1,0-0.2-0.1-0.2-0.2c0-0.1,0.2-0.2,0.5-0.3c0.4-0.1,0.8-0.2,1.2-0.4c0.4-0.1,0.9-0.3,1.3-0.5
						c0.4-0.2,0.7-0.4,0.9-0.7l-15-0.1c-0.4,0.3-0.8,0.6-1.3,0.9c-0.5,0.3-1.1,0.5-1.9,0.8c-0.8,0.2-1.8,0.4-3,0.5
						c-1.2,0.1-2.7,0.2-4.5,0.2c-1.4,0-2.7,0-4-0.2c-1.3-0.1-2.5-0.3-3.5-0.5c-1-0.2-1.8-0.5-2.5-0.8c-0.6-0.3-1-0.7-1.1-1.1l-4.1,0
						c-0.4,0-0.7,0-1-0.1c-0.3-0.1-0.4-0.1-0.4-0.2l0-0.4l5.6,0.1c0.2-0.4,0.7-0.8,1.5-1.1c0.8-0.3,1.7-0.6,2.8-0.8l1.9,0.3
						c0.6,0.1,0.8,0.2,0.8,0.3c0,0.1-0.1,0.1-0.3,0.2c-0.2,0.1-0.5,0.2-0.8,0.3c-0.3,0.1-0.6,0.3-0.9,0.4c-0.3,0.2-0.5,0.3-0.7,0.5
						L90.3,437.2z M76.6,437.7c0.1,0.3,0.4,0.5,0.7,0.7c0.4,0.2,0.8,0.4,1.4,0.5c0.6,0.1,1.2,0.2,1.9,0.3c0.7,0.1,1.4,0.1,2.2,0.1
						c0.9,0,1.7,0,2.4-0.1c0.7-0.1,1.3-0.2,1.8-0.3c0.5-0.1,0.9-0.3,1.3-0.4c0.4-0.2,0.7-0.3,1-0.5L76.6,437.7z M109.2,437.4
						c-0.1-0.3-0.4-0.5-0.8-0.7c-0.4-0.2-1-0.4-1.6-0.5c-0.7-0.1-1.4-0.2-2.3-0.3c-0.9-0.1-1.8-0.1-2.9-0.1c-0.9,0-1.7,0-2.4,0.1
						c-0.7,0.1-1.3,0.2-1.8,0.3c-0.5,0.1-0.9,0.3-1.3,0.5c-0.3,0.2-0.7,0.4-1,0.6L109.2,437.4z"/>
				</g>
				
					<linearGradient id="SVGID_53_" gradientUnits="userSpaceOnUse" x1="768.819" y1="-1861.0944" x2="770.4446" y2="-1847.4861" gradientTransform="matrix(-1 0 0 -1 864.0974 -1417.6564)">
					<stop  offset="3.597120e-03" style="stop-color:#F36F56"/>
					<stop  offset="0.3059" style="stop-color:#F99C4C"/>
					<stop  offset="0.545" style="stop-color:#FDB946"/>
					<stop  offset="0.6817" style="stop-color:#FFC444"/>
					<stop  offset="0.8038" style="stop-color:#FFC244"/>
					<stop  offset="0.8667" style="stop-color:#FEBA46"/>
					<stop  offset="0.916" style="stop-color:#FCAD49"/>
					<stop  offset="0.958" style="stop-color:#F99A4D"/>
					<stop  offset="0.9955" style="stop-color:#F58152"/>
					<stop  offset="1" style="stop-color:#F57E53"/>
				</linearGradient>
				<path class="st54" d="M94.4,431.8c-19.5,0-39.9,1.7-43.1,5c0.1,0.1,0.2,0.2,0.4,0.4c2.7-2.3,19.5-4.6,42.8-4.6
					c23.8,0,40.9,2.4,42.9,4.8c0.1-0.1,0.2-0.3,0.3-0.4C135,433.6,114.3,431.8,94.4,431.8z"/>
			</g>
			<g>
				<linearGradient id="SVGID_54_" gradientUnits="userSpaceOnUse" x1="37.6708" y1="434.3438" x2="138.4275" y2="434.3438">
					<stop  offset="0" style="stop-color:#FCB148"/>
					<stop  offset="5.207239e-02" style="stop-color:#FDBA46"/>
					<stop  offset="0.1424" style="stop-color:#FFC244"/>
					<stop  offset="0.3183" style="stop-color:#FFC444"/>
					<stop  offset="0.4849" style="stop-color:#FDB946"/>
					<stop  offset="0.7754" style="stop-color:#F99C4D"/>
					<stop  offset="0.8658" style="stop-color:#F8924F"/>
					<stop  offset="1" style="stop-color:#F8924F"/>
				</linearGradient>
				<path class="st55" d="M45.2,426.6v9.7c0,3.1,19.6,5.7,43.8,5.7c24.2,0,43.8-2.5,43.8-5.7v-9.7H45.2z"/>
				<linearGradient id="SVGID_55_" gradientUnits="userSpaceOnUse" x1="88.5122" y1="422.9939" x2="93.824" y2="467.4616">
					<stop  offset="0" style="stop-color:#FFDB44"/>
					<stop  offset="1" style="stop-color:#FEEF06"/>
				</linearGradient>
				<ellipse class="st56" cx="88.9" cy="426.6" rx="43.8" ry="5.7"/>
				<linearGradient id="SVGID_56_" gradientUnits="userSpaceOnUse" x1="88.2812" y1="421.0108" x2="89.9126" y2="434.6674">
					<stop  offset="0" style="stop-color:#FFDB44"/>
					<stop  offset="1" style="stop-color:#FEEF06"/>
				</linearGradient>
				<path class="st57" d="M88.9,432.7c-21.4,0-43.8-2-43.8-6c0-0.2,0.1-0.6,0.3-0.6c0.2,0,0.1,0.3,0.1,0.5c0,2.5,17.8,5.3,43.4,5.3
					c25.6,0,43.4-2.8,43.4-5.3c0-0.2,0-0.4,0.3-0.4c0.2,0,0.2,0.3,0.2,0.5C132.8,430.7,110.4,432.7,88.9,432.7z"/>
				<g>
					<path class="st29" d="M84.8,427c0.4-0.3,0.9-0.6,1.4-0.9c0.5-0.3,1.1-0.6,1.9-0.8c0.8-0.2,1.7-0.4,2.9-0.6
						c1.2-0.1,2.6-0.2,4.3-0.2c1.7,0,3.3,0,4.8,0.2c1.5,0.1,2.8,0.3,3.9,0.5c1.1,0.2,2,0.5,2.8,0.9c0.7,0.3,1.1,0.7,1.3,1.2l4.9,0
						c0.4,0,0.7,0,0.9,0.1c0.3,0.1,0.4,0.1,0.4,0.2l0,0.4l-6.3-0.1c-0.2,0.5-0.8,1-1.7,1.4c-0.9,0.4-2.1,0.8-3.5,1.1l-2.3-0.3
						c-0.2,0-0.4-0.1-0.5-0.1c-0.1,0-0.2-0.1-0.2-0.2c0-0.1,0.2-0.2,0.5-0.3c0.4-0.1,0.8-0.2,1.2-0.4c0.4-0.1,0.9-0.3,1.3-0.5
						c0.4-0.2,0.7-0.4,0.9-0.7l-15-0.1c-0.4,0.3-0.8,0.6-1.3,0.9c-0.5,0.3-1.1,0.5-1.9,0.8c-0.8,0.2-1.8,0.4-3,0.5
						c-1.2,0.1-2.7,0.2-4.5,0.2c-1.4,0-2.7,0-4-0.2c-1.3-0.1-2.5-0.3-3.5-0.5c-1-0.2-1.8-0.5-2.5-0.8c-0.6-0.3-1-0.7-1.1-1.1l-4.1,0
						c-0.4,0-0.7,0-1-0.1c-0.3-0.1-0.4-0.1-0.4-0.2l0-0.4l5.6,0.1c0.2-0.4,0.7-0.8,1.5-1.1c0.8-0.3,1.7-0.6,2.8-0.8l1.9,0.3
						c0.6,0.1,0.8,0.2,0.8,0.3c0,0.1-0.1,0.1-0.3,0.2c-0.2,0.1-0.5,0.2-0.8,0.3c-0.3,0.1-0.6,0.3-0.9,0.4c-0.3,0.2-0.5,0.3-0.7,0.5
						L84.8,427z M71.1,427.5c0.1,0.3,0.4,0.5,0.7,0.7c0.4,0.2,0.8,0.4,1.4,0.5c0.6,0.1,1.2,0.2,1.9,0.3c0.7,0.1,1.4,0.1,2.2,0.1
						c0.9,0,1.7,0,2.4-0.1c0.7-0.1,1.3-0.2,1.8-0.3c0.5-0.1,0.9-0.3,1.3-0.4c0.4-0.2,0.7-0.3,1-0.5L71.1,427.5z M103.7,427.2
						c-0.1-0.3-0.4-0.5-0.8-0.7c-0.4-0.2-1-0.4-1.6-0.5c-0.7-0.1-1.4-0.2-2.3-0.3c-0.9-0.1-1.8-0.1-2.9-0.1c-0.9,0-1.7,0-2.4,0.1
						c-0.7,0.1-1.3,0.2-1.8,0.3c-0.5,0.1-0.9,0.3-1.3,0.5c-0.3,0.2-0.7,0.4-1,0.6L103.7,427.2z"/>
				</g>
				
					<linearGradient id="SVGID_57_" gradientUnits="userSpaceOnUse" x1="774.2827" y1="-1850.8921" x2="775.9082" y2="-1837.2839" gradientTransform="matrix(-1 0 0 -1 864.0974 -1417.6564)">
					<stop  offset="3.597120e-03" style="stop-color:#F36F56"/>
					<stop  offset="0.3059" style="stop-color:#F99C4C"/>
					<stop  offset="0.545" style="stop-color:#FDB946"/>
					<stop  offset="0.6817" style="stop-color:#FFC444"/>
					<stop  offset="0.8038" style="stop-color:#FFC244"/>
					<stop  offset="0.8667" style="stop-color:#FEBA46"/>
					<stop  offset="0.916" style="stop-color:#FCAD49"/>
					<stop  offset="0.958" style="stop-color:#F99A4D"/>
					<stop  offset="0.9955" style="stop-color:#F58152"/>
					<stop  offset="1" style="stop-color:#F57E53"/>
				</linearGradient>
				<path class="st58" d="M89,421.6c-19.5,0-39.9,1.7-43.1,5c0.1,0.1,0.2,0.2,0.4,0.4c2.7-2.3,19.5-4.6,42.8-4.6
					c23.8,0,40.9,2.4,42.9,4.8c0.1-0.1,0.2-0.3,0.3-0.4C129.5,423.4,108.8,421.6,89,421.6z"/>
			</g>
			<g>
				
					<linearGradient id="SVGID_58_" gradientUnits="userSpaceOnUse" x1="1424.4463" y1="584.9138" x2="1525.2035" y2="584.9138" gradientTransform="matrix(0.5796 0.8149 -0.8149 0.5796 -214.3784 -1067.9449)">
					<stop  offset="0" style="stop-color:#FCB148"/>
					<stop  offset="5.207239e-02" style="stop-color:#FDBA46"/>
					<stop  offset="0.1424" style="stop-color:#FFC244"/>
					<stop  offset="0.3183" style="stop-color:#FFC444"/>
					<stop  offset="0.4849" style="stop-color:#FDB946"/>
					<stop  offset="0.7754" style="stop-color:#F99C4D"/>
					<stop  offset="0.8658" style="stop-color:#F8924F"/>
					<stop  offset="1" style="stop-color:#F8924F"/>
				</linearGradient>
				<path class="st59" d="M145.2,433.5l-7.9,5.6c-2.6,1.8,6.7,19.3,20.8,39c14,19.7,27.5,34.2,30,32.4l7.9-5.6L145.2,433.5z"/>
				
					<linearGradient id="SVGID_59_" gradientUnits="userSpaceOnUse" x1="1475.2878" y1="573.5651" x2="1480.599" y2="618.0272" gradientTransform="matrix(0.5796 0.8149 -0.8149 0.5796 -214.3784 -1067.9449)">
					<stop  offset="0" style="stop-color:#FFDB44"/>
					<stop  offset="1" style="stop-color:#FEEF06"/>
				</linearGradient>
				<path class="st60" d="M196,504.9c-2.6,1.8-16-12.7-30-32.4c-14-19.7-23.3-37.2-20.8-39c2.6-1.8,16,12.7,30,32.4
					C189.2,485.6,198.5,503,196,504.9z"/>
				
					<linearGradient id="SVGID_60_" gradientUnits="userSpaceOnUse" x1="1475.0569" y1="571.583" x2="1476.688" y2="585.2373" gradientTransform="matrix(0.5796 0.8149 -0.8149 0.5796 -214.3784 -1067.9449)">
					<stop  offset="0" style="stop-color:#FFDB44"/>
					<stop  offset="1" style="stop-color:#FEEF06"/>
				</linearGradient>
				<path class="st61" d="M165.6,472.7c-12.4-17.5-23.7-36.9-20.5-39.2c0.2-0.1,0.5-0.3,0.7-0.1c0.1,0.2-0.2,0.3-0.3,0.4
					c-2,1.5,6,17.6,20.8,38.4c14.8,20.8,27.4,33.7,29.5,32.3c0.2-0.1,0.4-0.2,0.5,0c0.1,0.2-0.1,0.3-0.3,0.4
					C192.7,507.2,178,490.2,165.6,472.7z"/>
				<g>
					<path class="st29" d="M167.9,466c0.5,0.2,1,0.4,1.5,0.6c0.5,0.2,1.1,0.6,1.7,1.1c0.6,0.5,1.3,1.2,2.1,2c0.8,0.9,1.7,2,2.7,3.4
						c1,1.4,1.9,2.7,2.6,4c0.8,1.3,1.4,2.4,1.8,3.5c0.5,1.1,0.8,2,0.9,2.7c0.1,0.8,0.1,1.3-0.2,1.7l2.8,4c0.2,0.3,0.4,0.6,0.5,0.8
						c0.1,0.3,0.1,0.4,0.1,0.5l-0.3,0.2l-3.6-5.2c-0.5,0.1-1.2-0.1-2.1-0.6c-0.9-0.5-1.8-1.2-2.9-2.2l-1.1-2.1
						c-0.1-0.2-0.2-0.3-0.2-0.5c0-0.1,0-0.2,0-0.3c0.1,0,0.2,0,0.5,0.3c0.3,0.2,0.6,0.5,1,0.8c0.4,0.3,0.8,0.5,1.2,0.8
						c0.4,0.2,0.8,0.3,1.1,0.3l-8.6-12.3c-0.5-0.2-1-0.3-1.5-0.6c-0.5-0.2-1.1-0.6-1.7-1.1c-0.6-0.5-1.4-1.2-2.2-2.1
						c-0.8-0.9-1.7-2.1-2.8-3.6c-0.8-1.1-1.5-2.2-2.2-3.4c-0.7-1.1-1.2-2.2-1.6-3.1c-0.4-1-0.7-1.8-0.8-2.5c-0.1-0.7,0-1.2,0.3-1.5
						l-2.3-3.3c-0.2-0.3-0.4-0.6-0.5-0.8c-0.1-0.3-0.1-0.4-0.1-0.5l0.3-0.2l3.2,4.6c0.5,0,1.1,0.1,1.8,0.6c0.7,0.4,1.5,1,2.3,1.8
						l0.9,1.7c0.3,0.5,0.3,0.8,0.3,0.9c0,0-0.2,0-0.4-0.2c-0.2-0.1-0.4-0.3-0.7-0.5c-0.3-0.2-0.6-0.4-0.9-0.5
						c-0.3-0.2-0.6-0.2-0.8-0.2L167.9,466z M159.5,455.2c-0.2,0.2-0.2,0.6-0.1,1c0.1,0.4,0.2,0.9,0.4,1.4c0.2,0.5,0.5,1.1,0.9,1.7
						c0.4,0.6,0.8,1.2,1.2,1.9c0.5,0.7,1,1.3,1.5,1.8c0.4,0.5,0.9,0.9,1.3,1.3c0.4,0.3,0.8,0.6,1.1,0.8c0.4,0.2,0.7,0.4,1,0.5
						L159.5,455.2z M178.7,481.5c0.2-0.2,0.2-0.6,0.1-1.1c-0.1-0.5-0.3-1-0.5-1.6c-0.3-0.6-0.6-1.3-1.1-2.1c-0.5-0.7-1-1.6-1.6-2.4
						c-0.5-0.8-1.1-1.4-1.5-1.9c-0.5-0.5-0.9-0.9-1.3-1.2c-0.4-0.3-0.8-0.6-1.1-0.8c-0.3-0.2-0.7-0.3-1-0.5L178.7,481.5z"/>
				</g>
				
					<linearGradient id="SVGID_61_" gradientUnits="userSpaceOnUse" x1="-611.9262" y1="-2001.9183" x2="-610.3009" y2="-1988.3126" gradientTransform="matrix(-0.5796 -0.8149 0.8149 -0.5796 1442.4015 -1185.2688)">
					<stop  offset="3.597120e-03" style="stop-color:#F36F56"/>
					<stop  offset="0.3059" style="stop-color:#F99C4C"/>
					<stop  offset="0.545" style="stop-color:#FDB946"/>
					<stop  offset="0.6817" style="stop-color:#FFC444"/>
					<stop  offset="0.8038" style="stop-color:#FFC244"/>
					<stop  offset="0.8667" style="stop-color:#FEBA46"/>
					<stop  offset="0.916" style="stop-color:#FCAD49"/>
					<stop  offset="0.958" style="stop-color:#F99A4D"/>
					<stop  offset="0.9955" style="stop-color:#F58152"/>
					<stop  offset="1" style="stop-color:#F57E53"/>
				</linearGradient>
				<path class="st62" d="M174.7,466.2c-11.3-15.9-24.5-31.5-29.1-32.2c0,0.2-0.1,0.3-0.1,0.5c3.5,0.9,15.1,13.2,28.6,32.2
					c13.8,19.4,21.7,34.7,21,37.8c0.2,0,0.3,0,0.5,0.1C196.8,500.3,186.2,482.4,174.7,466.2z"/>
			</g>
		</g>
		<g>
			<linearGradient id="SVGID_62_" gradientUnits="userSpaceOnUse" x1="324.8967" y1="365.5334" x2="364.9034" y2="425.9981">
				<stop  offset="0" style="stop-color:#AA80F9"/>
				<stop  offset="0.9964" style="stop-color:#6165D7"/>
			</linearGradient>
			<path class="st63" d="M401.3,485.4l-4,0.3c-1,0.1-2.1,0-3.1-0.1l-15.7-2.6l-0.3,0l-18.3-3l-0.1,0l-14.3-2.3v-80.5l14.4,0h0
				l18.3,0.9l0.3,0.1l22.1,0.9L401.3,485.4z"/>
			<linearGradient id="SVGID_63_" gradientUnits="userSpaceOnUse" x1="449.4148" y1="401.5457" x2="390.8714" y2="500.4189">
				<stop  offset="0" style="stop-color:#AA80F9"/>
				<stop  offset="0.9964" style="stop-color:#6165D7"/>
			</linearGradient>
			<path class="st64" d="M456.8,402.3v75.2c0,2.7-2.1,4.9-4.7,5l-52.4,3.1c-2.1,0.1-3.9-1.6-3.9-3.8v-78.3c0-2.2,1.7-4,3.8-4.1
				l52.8-1.5C454.8,397.9,456.8,399.8,456.8,402.3z"/>
			<linearGradient id="SVGID_64_" gradientUnits="userSpaceOnUse" x1="406.7354" y1="370.4" x2="397.4608" y2="403.0818">
				<stop  offset="3.597120e-03" style="stop-color:#E38DDD"/>
				<stop  offset="1" style="stop-color:#9571F6"/>
			</linearGradient>
			<polygon class="st65" points="345.7,397.2 395.8,399.5 452.4,397.9 394.3,396.1 			"/>
			<linearGradient id="SVGID_65_" gradientUnits="userSpaceOnUse" x1="453.5176" y1="404.0631" x2="394.4503" y2="503.8211">
				<stop  offset="3.597120e-03" style="stop-color:#E38DDD"/>
				<stop  offset="1" style="stop-color:#9571F6"/>
			</linearGradient>
			<path class="st66" d="M452.3,398l-41.3,1.2c-2.4,0.1-4.3,2-4.3,4.5c0,4,0.7,8.2,2.4,12.2c5.9,13.3,19,13.8,21.8,26.1
				c2.3,10.2-5.8,14.6-6.6,27.6c-0.2,3.4,0.1,7.1,1.1,11.1c0.5,2.1,2.5,3.5,4.6,3.4l22.8-1.4c2.3-0.1,4.1-2.1,4.1-4.4v-75.7
				C456.8,399.9,454.8,397.9,452.3,398z"/>
			<linearGradient id="SVGID_66_" gradientUnits="userSpaceOnUse" x1="416.5037" y1="404.6479" x2="440.2743" y2="524.3978">
				<stop  offset="0" style="stop-color:#AB316D"/>
				<stop  offset="1" style="stop-color:#792D3D"/>
			</linearGradient>
			<polygon class="st67" points="414.1,484.7 433.6,483.6 433.6,398.5 414.1,399 			"/>
			<linearGradient id="SVGID_67_" gradientUnits="userSpaceOnUse" x1="420.1075" y1="441.9071" x2="462.2117" y2="435.6804">
				<stop  offset="0" style="stop-color:#AB316D"/>
				<stop  offset="1" style="stop-color:#792D3D"/>
			</linearGradient>
			<polygon class="st68" points="415,484.7 433.6,483.6 433.6,398.5 415,399 			"/>
			<linearGradient id="SVGID_68_" gradientUnits="userSpaceOnUse" x1="365.3277" y1="440.9849" x2="405.515" y2="435.0417">
				<stop  offset="0" style="stop-color:#AB316D"/>
				<stop  offset="1" style="stop-color:#792D3D"/>
			</linearGradient>
			<polygon class="st69" points="378,398.3 378,483 360.2,480 360.2,397.8 365.9,397.7 			"/>
			<linearGradient id="SVGID_69_" gradientUnits="userSpaceOnUse" x1="391.8077" y1="399.3635" x2="481.1401" y2="386.1523">
				<stop  offset="0" style="stop-color:#AB316D"/>
				<stop  offset="1" style="stop-color:#792D3D"/>
			</linearGradient>
			<polygon class="st70" points="379.8,396.4 434,399.5 414.5,399.5 367.1,396.7 			"/>
			<g>
				<linearGradient id="SVGID_70_" gradientUnits="userSpaceOnUse" x1="437.0881" y1="373.1432" x2="414.9542" y2="396.1624">
					<stop  offset="0" style="stop-color:#AB316D"/>
					<stop  offset="1" style="stop-color:#792D3D"/>
				</linearGradient>
				<path class="st71" d="M406.2,393.8c1.3-7.7,2.2-13.4,7.2-18.6c2.1-2.2,4.5-4.6,8.3-5.2c4.4-0.7,10,1,11.5,4.6
					c1.5,3.4-2,5.6-0.5,9.5c1.5,3.9,5.7,3.8,6.2,7c0.4,2.7-2.2,5.7-4.9,7.2c-4.6,2.5-7.2-1-16.1-0.4c-6.1,0.4-9.7,2.3-11.4,0.4
					C405.8,397.2,405.8,395.9,406.2,393.8z"/>
				<g class="st11">
					<linearGradient id="SVGID_71_" gradientUnits="userSpaceOnUse" x1="440.6525" y1="376.5705" x2="418.5185" y2="399.5898">
						<stop  offset="0" style="stop-color:#AB316D"/>
						<stop  offset="1" style="stop-color:#792D3D"/>
					</linearGradient>
					<path class="st72" d="M430.6,390.8c-5.5-2.1-8.3-6.7-10.8-5.6c-2.2,1-0.8,5-3.4,8.3c-2.3,3-6.6,3.7-10.4,3.7
						c0.1,0.4,0.3,0.7,0.5,1c1.7,2,5.2,0,11.4-0.4c8.9-0.6,11.5,2.9,16.1,0.4c2.4-1.3,4.8-4,4.9-6.5
						C436.3,392,433.5,391.9,430.6,390.8z"/>
				</g>
			</g>
			<g>
				<linearGradient id="SVGID_72_" gradientUnits="userSpaceOnUse" x1="384.7891" y1="382.3196" x2="443.5725" y2="373.6263">
					<stop  offset="0" style="stop-color:#AB316D"/>
					<stop  offset="1" style="stop-color:#792D3D"/>
				</linearGradient>
				<path class="st73" d="M372.9,374.7c3.7-2.9,7.6,0.3,12.2-2.9c4.6-3.3,3.3-8.5,6.9-10c4.2-1.7,10.3,3.5,13.3,6.9
					c7.5,8.5,11,23.5,5.1,28.8c-2.2,2-8.5,1.2-21-0.5c-14.3-2-16.3-3.4-17.7-5.2C367.9,386.8,368.7,378,372.9,374.7z"/>
				<g class="st11">
					<linearGradient id="SVGID_73_" gradientUnits="userSpaceOnUse" x1="385.473" y1="386.9437" x2="444.2562" y2="378.2504">
						<stop  offset="0" style="stop-color:#AB316D"/>
						<stop  offset="1" style="stop-color:#792D3D"/>
					</linearGradient>
					<path class="st74" d="M396.4,381c-2.1-0.6-3,1.7-7.2,2.7c-0.8,0.2-8.2,1.7-12.2-3c-1.6-1.9-2.3-4.4-2.2-7
						c-0.6,0.2-1.2,0.5-1.7,1c-4.2,3.3-5,12.1-1.3,17c1.4,1.8,3.4,3.2,17.7,5.2c12.5,1.7,18.8,2.5,21,0.5c0.3-0.3,0.6-0.6,0.8-0.9
						c-3-0.1-6.1-0.8-8.4-3C398.3,389.3,399.9,382.1,396.4,381z"/>
				</g>
			</g>
			<linearGradient id="SVGID_74_" gradientUnits="userSpaceOnUse" x1="373.6885" y1="398.6333" x2="423.808" y2="391.2213">
				<stop  offset="0" style="stop-color:#AB316D"/>
				<stop  offset="1" style="stop-color:#792D3D"/>
			</linearGradient>
			<polygon class="st75" points="397.2,398 378.2,398.7 360,397.8 365.9,397.7 391.8,397.3 			"/>
		</g>
	</g>
</g>
</svg>
