<?xml version="1.0" encoding="utf-8"?>
<!-- Generator: Adobe Illustrator 23.1.1, SVG Export Plug-In . SVG Version: 6.00 Build 0)  -->
<svg version="1.1" xmlns="http://www.w3.org/2000/svg" xmlns:xlink="http://www.w3.org/1999/xlink" x="0px" y="0px" width="3710px"
	 height="3710px" viewBox="0 0 3710 3710" style="enable-background:new 0 0 3710 3710;" xml:space="preserve">
<style type="text/css">
	.st0{fill:url(#SVGID_1_);}
	.st1{fill:#91B3FA;}
	.st2{fill:#7D97F4;}
	.st3{fill:#BDD0FB;}
	.st4{fill:url(#SVGID_2_);}
	.st5{fill:#1F5AA9;}
	.st6{opacity:0.8;}
	.st7{fill:#FFFFFF;}
	.st8{fill:url(#SVGID_3_);}
	.st9{fill:url(#SVGID_4_);}
	.st10{fill:url(#SVGID_5_);}
	.st11{fill:url(#SVGID_6_);}
	.st12{fill:url(#SVGID_7_);}
	.st13{fill:url(#SVGID_8_);}
	.st14{fill:url(#SVGID_9_);}
	.st15{fill:url(#SVGID_10_);}
	.st16{fill:url(#SVGID_11_);}
	.st17{fill:url(#SVGID_12_);}
	.st18{fill:url(#SVGID_13_);}
	.st19{fill:url(#SVGID_14_);}
	.st20{fill:url(#SVGID_15_);}
	.st21{fill:url(#SVGID_16_);}
	.st22{fill:url(#SVGID_17_);}
	.st23{fill:url(#SVGID_18_);}
	.st24{fill:url(#SVGID_19_);}
	.st25{fill:url(#SVGID_20_);}
	.st26{fill:url(#SVGID_21_);}
	.st27{fill:url(#SVGID_22_);}
	.st28{fill:url(#SVGID_23_);}
	.st29{fill:url(#SVGID_24_);}
	.st30{fill:url(#SVGID_25_);}
	.st31{fill:url(#SVGID_26_);}
	.st32{fill:url(#SVGID_27_);}
	.st33{fill:url(#SVGID_28_);}
	.st34{fill:url(#SVGID_29_);}
	.st35{fill:url(#SVGID_30_);}
	.st36{fill:url(#SVGID_31_);}
	.st37{fill:url(#SVGID_32_);}
	.st38{fill:url(#SVGID_33_);}
	.st39{fill:url(#SVGID_34_);}
	.st40{fill:url(#SVGID_35_);}
	.st41{fill:url(#SVGID_36_);}
	.st42{fill:url(#SVGID_37_);}
	.st43{fill:url(#SVGID_38_);}
</style>
<g id="Background">
</g>
<g id="Illustration">
	<g>
		<linearGradient id="SVGID_1_" gradientUnits="userSpaceOnUse" x1="2062.0481" y1="3654.9055" x2="818.4664" y2="2110.4551">
			<stop  offset="0" style="stop-color:#DAE3FE"/>
			<stop  offset="1" style="stop-color:#E9EFFD"/>
		</linearGradient>
		<path class="st0" d="M1719.9,3045.8c-28.6,30.1-55.6,49.5-76.9,64.8c-251,180.1-548,127.6-611.1,114.8
			c-93.2-18.9-273.4-55.5-403.7-208.7c-197.1-231.8-166.4-596.9-13.5-837.9c28-44.1,175.7-288.8,475.9-328
			c181.7-23.7,393.5,24.2,546.8,152.6C1959.3,2273.1,1936.4,2817.9,1719.9,3045.8z"/>
		<g>
			<g>
				<path class="st1" d="M854.8,2725.5c0,0,4.3-181.4-79.2-229.9c-83.5-48.5-242.3-78.9-248.3-339.3c-3.5-152.5-7.3-219.1-9.8-248.2
					c-1-11.3,9.1-20.5,20.3-18.4c79.1,14.9,336.1,76.2,390,251.7C991.6,2349.3,854.8,2725.5,854.8,2725.5z"/>
				<path class="st2" d="M598.9,1962.2c86.8,77.4,187.3,214.5,240.8,351.6c6.9,22.6,27,70.6,35.7,156c7.8,71.2,3.9,146.4-5.5,196.2
					c-0.6,3.1-3.6,5.2-6.8,4.6c-5.4-1-4.7-6.8-4.6-6.7c10.8-85.1,6.3-191-18.4-286.5c-31.6-117.3-102.1-231.1-175-327.5l-7.5-9.5
					c-56.5-72.5-68.4-73.1-63.1-78.1C595.7,1961.1,597.7,1961.1,598.9,1962.2z"/>
			</g>
			<g>
				<path class="st3" d="M989,3074.2c11.3,5.5-107-143.2-144-376.8c-17.5-110.1-17.7-248-80.4-301.2
					c-52.2-44.2-229.8-16.3-287.9-5.7c-7.3,1.3-9.7,10.5-4.1,15.2c27.9,23.4,87.5,78.6,103,134.2c20.5,73.3,90.2,120,152.6,132.6
					c62.4,12.6,97.1,24.9,127.5,124.7C886.2,2897.1,956.9,3058.4,989,3074.2z"/>
				<path class="st1" d="M558.4,2421.4c74.1,3.1,153.7,36.9,194.1,100.4l3.8,6.1c8.8,14.2,58.7,115.1,86.4,198.8
					c0.3,1-0.2,2.2-1.3,2.5c-1.8,0.6-2.7-1.4-2.5-1.2c-19.3-47.3-47-107.2-69.1-152c-23.7-48.9-40.3-82-94.3-113.7
					c-60.1-34.2-117.6-37.7-117.4-37.6c-0.9-0.1-1.5-0.9-1.4-1.7C556.8,2422,557.6,2421.4,558.4,2421.4z"/>
			</g>
			<g>
				<path class="st1" d="M938.3,3093.7c6.7,3.5-37.8-73-41.2-140.5c-3.4-67.5-18.6-182.6-76.8-251.5
					c-58.2-68.9-121.9-75.2-202.1-12.5c-66.9,52.2-108.6,78.5-133.1,83.4c-6.1,1.2-9.2,8.1-6.2,13.5c15.7,28.9,60.1,95.3,134.6,90.6
					c95-6,210.2-67.7,245.3-16.2c35.1,51.5,30.6,80.4,31.7,104.8C891.5,2989.8,893.9,3070.3,938.3,3093.7z"/>
				<path class="st2" d="M645.2,2771.9c29.1-27.9,76.5-55.3,118-50.2c53.9,8.7,89.8,44.7,109.4,98.3c7.7,22.8,10.8,34.9,15.3,62.8
					c0.4,2.2-2.9,2.9-3.5,0.7c-3.3-13.1-6.6-26.8-11.4-41c-28.4-91.5-89.1-103.9-91.4-105.7c-4.6,0.5-32.4-20.4-98.4,15.1
					c-12.3,6.7-24.3,14.4-35.6,22.8l-0.1,0c-0.8,0.6-2,0.4-2.6-0.4C644.4,2773.6,644.5,2772.6,645.2,2771.9z"/>
			</g>
		</g>
		<g>
			<g>
				
					<linearGradient id="SVGID_2_" gradientUnits="userSpaceOnUse" x1="738.4857" y1="2597.3152" x2="1604.1595" y2="2597.3152" gradientTransform="matrix(0.9998 -2.190000e-02 2.190000e-02 0.9998 28.2232 -27.654)">
					<stop  offset="0" style="stop-color:#09005D"/>
					<stop  offset="1" style="stop-color:#1A0F91"/>
				</linearGradient>
				<path class="st4" d="M885.9,1907.6c-33.6,2.9-59.3,31-59.4,64.7c-0.6,206-1.5,916.8,11.9,1168.3c1.4,26.6,23.3,47.5,49.9,47.8
					c132,1.4,511.7,4,727.2-9.8c44.9-2.9,79.8-40.1,79.7-85c-0.3-221.5-3.9-854.1-35.5-1122c-2.6-21.9-20.3-39-42.3-40.7
					C1491.7,1920.8,1081,1890.6,885.9,1907.6z"/>
				<path class="st1" d="M879.5,2026.3c-2.6,176.2-10,762.5,2.9,978.9c1.9,31.6,26.5,56.6,56.8,57.7c124.9,4.4,445.2,12.8,627.7-7.3
					c32.9-3.6,58-32.1,58.9-66.6c4.6-179.9,16.9-725.9,4.4-939.9c-2-34.1-28.1-61.4-60.8-63.6c-135.2-9.1-482.5-30.1-637.7-17.2
					C902.5,1970.7,880,1995.8,879.5,2026.3z"/>
				<path class="st5" d="M1181.3,1938.2c0.1,4.9,4,8.8,8.9,8.9c24,0.7,91.7,2.8,122,3.9c6,0.2,10.5-5.2,9.3-11.1
					c-0.1-0.2-0.9-7.7-8.5-8.2c-20.5-1.4-82.2-5.3-123-2.9C1181.5,1929.4,1181,1938.9,1181.3,1938.2z"/>
			</g>
		</g>
		<g>
			<g class="st6">
				<path class="st7" d="M1417.8,2683.1c-2.1-2.6-5.5-3.7-9-3.6l-322,6.8l-8.1-25.8c-1.1-3.6-4.5-5.9-8.3-5.8l-44.2,1.2
					c-4.7,0.1-8.6,3.4-8.6,8.2c0,4.7,3.8,7.8,8.6,7.7l37.8-0.9l68.4,218.4c1.2,3.7,4.6,6.2,8.5,6.3l226,3c5.3,0.1,9.6-3.3,9.6-8.3
					c0-5-4.3-8.4-9.6-8.5l-219.4-2.4l-17.6-56.7l241.1,0.4c4.9,0,9.3-3.2,10.7-7.7l38.1-123
					C1420.6,2689,1419.9,2685.7,1417.8,2683.1z"/>
				<path class="st7" d="M1173.8,2908.9c-18.6-0.3-33.6,14.2-33.6,32.3c0,18.1,15,33.2,33.6,33.7c18.7,0.5,34-14,34-32.3
					S1192.5,2909.2,1173.8,2908.9z M1173.8,2957.3c-8.7-0.2-15.7-7.3-15.7-15.7c0-8.5,7.1-15.2,15.7-15.1
					c8.7,0.2,15.8,7.2,15.8,15.7C1189.7,2950.7,1182.5,2957.5,1173.8,2957.3z"/>
				<path class="st7" d="M1324.5,2911.3c-19.5-0.3-35.3,14.5-35.3,33c0,18.5,15.8,34,35.3,34.5c19.6,0.5,35.7-14.3,35.7-33
					S1344.1,2911.6,1324.5,2911.3z M1324.5,2960.8c-9.1-0.2-16.5-7.4-16.5-16.1c0-8.7,7.4-15.6,16.5-15.4
					c9.1,0.2,16.6,7.4,16.6,16.1C1341.1,2954.1,1333.6,2961,1324.5,2960.8z"/>
			</g>
		</g>
		<g>
			<g>
				<g>
					
						<linearGradient id="SVGID_3_" gradientUnits="userSpaceOnUse" x1="-6171.9941" y1="2939.658" x2="-6105.957" y2="2939.658" gradientTransform="matrix(0.9987 5.070000e-02 -5.070000e-02 0.9987 7143.3555 595.7192)">
						<stop  offset="0" style="stop-color:#09005D"/>
						<stop  offset="1" style="stop-color:#1A0F91"/>
					</linearGradient>
					<path class="st8" d="M840.7,3195.9c0,0-7.9,11.2-11.4,43.4c-0.3,3,1.9,5.7,5,5.8l57.3,2.9c2.3,0.1,4.1-2.1,3.4-4.3
						c-2.9-10.1-11.8-34.9-33.7-49.9L840.7,3195.9z"/>
					
						<linearGradient id="SVGID_4_" gradientUnits="userSpaceOnUse" x1="-6203.5967" y1="2489.145" x2="-6176.814" y2="2489.145" gradientTransform="matrix(0.9937 -0.112 0.112 0.9937 6720.2886 24.4975)">
						<stop  offset="0" style="stop-color:#FEBBBA"/>
						<stop  offset="1" style="stop-color:#FF928E"/>
					</linearGradient>
					<path class="st9" d="M832.9,3178.3l6.3,26.7c0.5,2.3,2.6,4,4.9,4c3.2,0,7.7-0.3,12-1.5c3.9-1.1,6.4-5,6-9.1l-2.9-26.1
						L832.9,3178.3z"/>
					
						<linearGradient id="SVGID_5_" gradientUnits="userSpaceOnUse" x1="-6000.6958" y1="2699.6748" x2="-5897.0835" y2="2699.6748" gradientTransform="matrix(0.9994 3.490000e-02 -3.490000e-02 0.9994 7051.2871 734.0373)">
						<stop  offset="0" style="stop-color:#09005D"/>
						<stop  offset="1" style="stop-color:#1A0F91"/>
					</linearGradient>
					<path class="st10" d="M971.6,3197.8c0,0-11.6,16.7-12.2,40.1c-0.1,5.5,4.3,10.1,9.8,10.3l89.1,3.1c4.2,0.1,6.1-5.2,2.7-7.7
						c-16.4-12.4-48.8-35.7-72.5-45.2L971.6,3197.8z"/>
					
						<linearGradient id="SVGID_6_" gradientUnits="userSpaceOnUse" x1="-5942.4048" y1="2920.9526" x2="-5915.77" y2="2920.9526" gradientTransform="matrix(0.9907 0.1362 -0.1362 0.9907 7252.5708 1097.9357)">
						<stop  offset="0" style="stop-color:#FEBBBA"/>
						<stop  offset="1" style="stop-color:#FF928E"/>
					</linearGradient>
					<path class="st11" d="M969.4,3169.4l2.3,34.2c0.3,3.8,3.6,6.8,7.4,6.5c2.3-0.2,5.1-0.8,8.2-2.2c2.9-1.3,4.7-4.3,4.6-7.6
						l-1.5-41.3L969.4,3169.4z"/>
					<linearGradient id="SVGID_7_" gradientUnits="userSpaceOnUse" x1="1492.3521" y1="2122.6655" x2="1043.3384" y2="2742.1086">
						<stop  offset="0" style="stop-color:#09005D"/>
						<stop  offset="1" style="stop-color:#1A0F91"/>
					</linearGradient>
					<path class="st12" d="M792,2717.7c0,0-21.5,23.8-23.2,49.7c-1.6,25.9,62.1,436.4,62.1,436.4s24.4,1.3,35.9-7.6
						c0,0-15.6-269.3-11.4-332.4c0,0,89.6,270.7,111.4,319c0,0,23.4,0.2,30.3-5c0,0-55.8-357.7-82.2-419.4L792,2717.7z"/>
					<linearGradient id="SVGID_8_" gradientUnits="userSpaceOnUse" x1="811.8613" y1="2827.802" x2="856.9373" y2="2827.802">
						<stop  offset="0" style="stop-color:#4F52FF"/>
						<stop  offset="1" style="stop-color:#4042E2"/>
					</linearGradient>
					<path class="st13" d="M853.4,2856c-1.4,0-2.7-0.9-3.3-2.2l-14.1-36.6l-22.3-11c-1.7-0.9-2.4-2.9-1.6-4.7
						c0.9-1.7,2.9-2.4,4.7-1.6l23.5,11.6c0.8,0.4,1.4,1.1,1.7,1.9l14.6,37.8c0.7,1.8-0.2,3.8-2,4.5
						C854.3,2855.9,853.9,2856,853.4,2856z"/>
					<linearGradient id="SVGID_9_" gradientUnits="userSpaceOnUse" x1="1056.2106" y1="1971.9448" x2="1018.3747" y2="2243.6758">
						<stop  offset="0" style="stop-color:#4F52FF"/>
						<stop  offset="1" style="stop-color:#4042E2"/>
					</linearGradient>
					<path class="st14" d="M1001.2,2452.8c-101.6,3-125.6,26.8-125.6,26.8l57,70.9c0,0,98.7-13.1,163.5-75.8
						c-14.9-12.8-25.9-27.5-33.2-39.2C1045.5,2445.3,1024.9,2452.1,1001.2,2452.8z"/>
					
						<linearGradient id="SVGID_10_" gradientUnits="userSpaceOnUse" x1="-5891.8599" y1="1716.4484" x2="-5784.6782" y2="1716.4484" gradientTransform="matrix(0.9937 -0.112 0.112 0.9937 6720.2886 24.4975)">
						<stop  offset="0" style="stop-color:#FEBBBA"/>
						<stop  offset="1" style="stop-color:#FF928E"/>
					</linearGradient>
					<path class="st15" d="M1156.8,2311.2c-0.5-3.2-9.1-29.8-26.2-15.2l-4.1,19.5c-1.9,5.6-2,11.6-0.4,17.3l6.3,15.5
						c2.2,7.6,1.1,15.8-3.1,22.6c-10.1,16.1-32.2,45.9-66.4,64.8c7.3,11.6,18.3,26.4,33.2,39.2c23.8-23,42.9-52.6,51-90.8
						c5.6-2.5,8.9-8.4,8-14.5L1156.8,2311.2z"/>
					<linearGradient id="SVGID_11_" gradientUnits="userSpaceOnUse" x1="1084.3844" y1="2396.144" x2="829.8511" y2="2850.1753">
						<stop  offset="0" style="stop-color:#4F52FF"/>
						<stop  offset="1" style="stop-color:#4042E2"/>
					</linearGradient>
					<path class="st16" d="M1039.4,2493.3c-39.8-34.2-109.2-43.8-149.1-46.5c-17.5-1.2-33.3,10.3-37.5,27.3
						c-12.3,49.3-46.2,177.7-53.1,199.9c-5.7,18.2-11.7,36-15.5,47.2c-2.3,6.7,1.2,13.9,7.8,16.3c34.7,12.1,95.9,23.4,120.7,27.7
						c5.5,0.9,10.3-3.6,9.6-9.1c-0.5-4.7,0.2-9.4,2.2-13.6l73.8-161.7c63.7,56.4,114,56.6,150.5,38.5c-8.6-19.1-15.1-38.4-19.3-58.1
						C1072,2557.9,1039.4,2493.3,1039.4,2493.3z"/>
					
						<linearGradient id="SVGID_12_" gradientUnits="userSpaceOnUse" x1="-5667.7148" y1="1734.4346" x2="-5881.5986" y2="2000.5267" gradientTransform="matrix(0.9937 -0.112 0.112 0.9937 6720.2886 24.4975)">
						<stop  offset="0" style="stop-color:#FEBBBA"/>
						<stop  offset="1" style="stop-color:#FF928E"/>
					</linearGradient>
					<path class="st17" d="M1221.3,2540.1l-11.7-12.4c-30.3,26.3-57.2,34.7-80.2,33.4c4.3,19.6,10.7,39,19.3,58.1
						C1196.9,2595.5,1221.3,2540.1,1221.3,2540.1z"/>
					
						<linearGradient id="SVGID_13_" gradientUnits="userSpaceOnUse" x1="-5627.1626" y1="1767.0228" x2="-5841.0532" y2="2033.1228" gradientTransform="matrix(0.9937 -0.112 0.112 0.9937 6720.2886 24.4975)">
						<stop  offset="0" style="stop-color:#FEBBBA"/>
						<stop  offset="1" style="stop-color:#FF928E"/>
					</linearGradient>
					<path class="st18" d="M1214.1,2541.2l57.5-4.2l49.4-35.4c-8.1-3.9-49.8,10.6-49.8,10.6s-45.5-1.7-57.6-0.4
						c-10.1,1.1-7,15.4-5.7,20.2c0.3,1,0.5,1.6,0.5,1.6L1214.1,2541.2z"/>
					
						<linearGradient id="SVGID_14_" gradientUnits="userSpaceOnUse" x1="-5908.3438" y1="1573.6328" x2="-6115.4883" y2="1954.2408" gradientTransform="matrix(0.9937 -0.112 0.112 0.9937 6720.2886 24.4975)">
						<stop  offset="0" style="stop-color:#FEBBBA"/>
						<stop  offset="1" style="stop-color:#FF928E"/>
					</linearGradient>
					<path class="st19" d="M936.1,2370.6l-21.9,77.1c0,0,37.4,20.1,65.1,14.7l7.6-68L936.1,2370.6z"/>
					<g>
						
							<linearGradient id="SVGID_15_" gradientUnits="userSpaceOnUse" x1="-4999.0615" y1="231.9755" x2="-5090.6108" y2="353.0878" gradientTransform="matrix(0.7472 -0.6646 0.6646 0.7472 4549.52 -1168.7673)">
							<stop  offset="0" style="stop-color:#FEBBBA"/>
							<stop  offset="1" style="stop-color:#FF928E"/>
						</linearGradient>
						<path class="st20" d="M981.5,2314.6c0.8,0.9,30.6,74.9,30.6,74.9l-42.6,16.1l-38.6-66C930.8,2339.7,968,2299.5,981.5,2314.6z"
							/>
						
							<linearGradient id="SVGID_16_" gradientUnits="userSpaceOnUse" x1="-5068.9785" y1="261.1908" x2="-4959.6201" y2="261.1908" gradientTransform="matrix(0.7472 -0.6646 0.6646 0.7472 4549.52 -1168.7673)">
							<stop  offset="0" style="stop-color:#09005D"/>
							<stop  offset="1" style="stop-color:#1A0F91"/>
						</linearGradient>
						<path class="st21" d="M948.5,2348.4l17.6,36.3c0.2,0.5,0.5,0.9,0.8,1.3c2.1,2.4,9.9,10,17.3,1.5c6.6-7.7,12.8-14.6,19-16.5
							c2.8-0.8,5.7,0.6,6.8,3.3c2.7,6.7,8.5,22,11.5,36c0.6,2.8-1.1,5.7-3.9,6.5c-8.4,2.6-26.2,7.6-41.5,8.2c-2.1,0.1-4-0.9-5.1-2.7
							c-5.2-8.7-21.2-34.9-26.7-41.6c-5.2-6.2-16.2-4.8-20.7-3.9c-1.5,0.3-3,0-4.3-0.9c-4.4-3.1-13.1-11.2-3.5-23.2
							c2-2.5,1.5-6.1-1-8.1c-5.1-3.8-10.9-11-4.3-21.4c6.7-10.6,17.3-10.2,23.8-8.6c2.7,0.6,5.3-0.8,6.5-3.3
							c0.6-1.4,1.9-2.6,4.3-2.7c3.3-0.1,5.7-3.1,5.3-6.3c-0.8-6.2,0.5-14.3,11-18.9c18.5-8.1,32.5,9,35.3,22.7
							c2.7,13.7-17.8,21.4-30.4,21.8c-9.5,0.4-15.5,10.5-17.8,15.4C947.7,2345,947.7,2346.8,948.5,2348.4z"/>
						
							<linearGradient id="SVGID_17_" gradientUnits="userSpaceOnUse" x1="-5133.1455" y1="327.8858" x2="-5059.7153" y2="252.5484" gradientTransform="matrix(0.7472 -0.6646 0.6646 0.7472 4549.52 -1168.7673)">
							<stop  offset="0" style="stop-color:#FEBBBA"/>
							<stop  offset="1" style="stop-color:#FF928E"/>
						</linearGradient>
						<path class="st22" d="M950.9,2393.9c0,0-5.8-23.6-15.9-23.7c-10.1-0.1-18.9,9.2-7.5,21.6
							C941.8,2407.2,950.9,2393.9,950.9,2393.9z"/>
					</g>
				</g>
			</g>
			<g>
				<linearGradient id="SVGID_18_" gradientUnits="userSpaceOnUse" x1="1192.3545" y1="1863.7562" x2="1222.9841" y2="2127.1714">
					<stop  offset="0" style="stop-color:#E1473D"/>
					<stop  offset="1" style="stop-color:#E9605A"/>
				</linearGradient>
				<path class="st23" d="M1233.3,2530.9c-11.6,0.8-22.4-4.6-28.5-14.3l-101-162.3c-9.5-15.2-4.4-36,11.4-46.5
					c15.7-10.5,36.2-6.6,45.6,8.5l70.1,112.6l92.5-188.3c8.3-16.9,28.2-24.7,44.5-17.3c16.3,7.3,22.8,27,14.5,43.8l-119.5,243.6
					c-5.5,11.2-16.3,18.8-28.4,20C1234,2530.8,1233.6,2530.9,1233.3,2530.9z"/>
			</g>
		</g>
		<g>
			<linearGradient id="SVGID_19_" gradientUnits="userSpaceOnUse" x1="1768.4523" y1="2389.9993" x2="1575.8339" y2="2861.2273">
				<stop  offset="0" style="stop-color:#E1473D"/>
				<stop  offset="1" style="stop-color:#E9605A"/>
			</linearGradient>
			<path class="st24" d="M1534.8,2755.9c-2.3,0-4.2-1.8-4.3-4.2c0-1.6-1-38.7,9.9-78.4c14.7-53.5,44.3-85.1,85.5-91.6
				c20.2-3.2,38.2,1.6,53.4,14.2c49.8,41,54.6,150.9,54.7,155.6c0.1,2.4-1.8,4.4-4.1,4.5c-2.4,0.1-4.4-1.8-4.5-4.1
				c0-1.1-4.8-110.8-51.6-149.3c-13.3-10.9-29-15.1-46.6-12.3c-91.5,14.4-88.2,159.8-88.1,161.3c0.1,2.4-1.8,4.4-4.2,4.4
				C1534.9,2755.9,1534.9,2755.9,1534.8,2755.9z"/>
			<linearGradient id="SVGID_20_" gradientUnits="userSpaceOnUse" x1="1732.407" y1="2808.3213" x2="1333.4119" y2="3393.0552">
				<stop  offset="0" style="stop-color:#FF928E"/>
				<stop  offset="1" style="stop-color:#FE7062"/>
			</linearGradient>
			<path class="st25" d="M1353.7,3226.7l73.9-509.5l277.5-4.7l89.5,542.4h-416.8C1362.9,3255,1351.6,3241.6,1353.7,3226.7z"/>
			<linearGradient id="SVGID_21_" gradientUnits="userSpaceOnUse" x1="2339.8545" y1="2805.9509" x2="1796.3925" y2="2977.9331">
				<stop  offset="0" style="stop-color:#FF928E"/>
				<stop  offset="1" style="stop-color:#FE7062"/>
			</linearGradient>
			<path class="st26" d="M1759,2717.2l-53.9-4.7l89.5,542.4h53.5c10.8,0,19-10.1,16.7-20.9L1759,2717.2z"/>
			<linearGradient id="SVGID_22_" gradientUnits="userSpaceOnUse" x1="1716.9454" y1="2368.9463" x2="1524.3264" y2="2840.1758">
				<stop  offset="0" style="stop-color:#E1473D"/>
				<stop  offset="1" style="stop-color:#E9605A"/>
			</linearGradient>
			<path class="st27" d="M1670.2,2754.8c-2.3,0-4.2-1.8-4.3-4.1c0-1.1-4.8-110.8-51.6-149.3c-13.3-10.9-29-15.1-46.6-12.3
				c-91.5,14.4-88.2,159.8-88.1,161.3c0.1,2.4-1.8,4.4-4.2,4.4c-2.4,0.1-4.4-1.8-4.4-4.2c0-1.6-1-38.7,9.9-78.4
				c14.7-53.5,44.3-85.1,85.5-91.6c20.2-3.2,38.2,1.6,53.4,14.2c49.8,41,54.6,150.9,54.7,155.6c0.1,2.4-1.8,4.4-4.1,4.5
				C1670.3,2754.8,1670.2,2754.8,1670.2,2754.8z"/>
		</g>
		<g>
			<g>
				
					<linearGradient id="SVGID_23_" gradientUnits="userSpaceOnUse" x1="971.8353" y1="1711.052" x2="1133.4875" y2="1071.3217" gradientTransform="matrix(0.9331 9.400000e-03 -1.220000e-02 1.204 -117.7654 418.2314)">
					<stop  offset="0" style="stop-color:#FF928E"/>
					<stop  offset="1" style="stop-color:#FE7062"/>
				</linearGradient>
				<path class="st28" d="M907.8,1828.6c-3.5,0-6.9,1.3-8.8,4.5c-40.6,66.4-81.3,135.2-121.9,198.7c39.3,0.4,78.5,0.8,117.8,1.2
					c31.4-63.6,62.8-134.5,94.2-203.5C962,1829.1,934.9,1828.8,907.8,1828.6z"/>
				
					<linearGradient id="SVGID_24_" gradientUnits="userSpaceOnUse" x1="1405.0334" y1="894.3565" x2="1072.2469" y2="1459.3203" gradientTransform="matrix(0.9331 -2.700000e-03 -2.700000e-03 1.204 -98.3813 402.1701)">
					<stop  offset="0" style="stop-color:#4F52FF"/>
					<stop  offset="1" style="stop-color:#4042E2"/>
				</linearGradient>
				<path class="st29" d="M1012.6,2035.6c-39.3-0.4-78.5-0.8-117.8-1.2c31.4-68.2,62.8-136.4,94.3-204.6c29,0.3,58,0.6,87,0.9
					C1055,1899,1033.8,1967.3,1012.6,2035.6z"/>
				<g>
					
						<linearGradient id="SVGID_25_" gradientUnits="userSpaceOnUse" x1="1183.1635" y1="1764.4651" x2="1344.8168" y2="1124.7302" gradientTransform="matrix(0.9331 9.400000e-03 -1.220000e-02 1.204 -117.7654 418.2314)">
						<stop  offset="0" style="stop-color:#FF928E"/>
						<stop  offset="1" style="stop-color:#FE7062"/>
					</linearGradient>
					<path class="st30" d="M1130.4,2036.8c-39.3-0.4-78.5-0.8-117.8-1.2c21.2-68.3,42.4-136.6,63.5-204.9c29,0.3,58,0.6,87.1,0.9
						C1152.3,1900,1141.3,1968.4,1130.4,2036.8z"/>
				</g>
				
					<linearGradient id="SVGID_26_" gradientUnits="userSpaceOnUse" x1="1532.6775" y1="980.0667" x2="1308.2419" y2="1485.6909" gradientTransform="matrix(0.9331 -2.700000e-03 -2.700000e-03 1.204 -98.3813 402.1701)">
					<stop  offset="0" style="stop-color:#4F52FF"/>
					<stop  offset="1" style="stop-color:#4042E2"/>
				</linearGradient>
				<path class="st31" d="M1248.2,2038c-39.3-0.4-78.5-0.8-117.8-1.2c10.9-68.4,21.9-136.8,32.8-205.2c29,0.3,58,0.6,87,0.9
					C1249.6,1901,1248.9,1969.5,1248.2,2038z"/>
				<g>
					
						<linearGradient id="SVGID_27_" gradientUnits="userSpaceOnUse" x1="1400.1759" y1="1819.313" x2="1561.8313" y2="1179.5702" gradientTransform="matrix(0.9331 9.400000e-03 -1.220000e-02 1.204 -117.7654 418.2314)">
						<stop  offset="0" style="stop-color:#FF928E"/>
						<stop  offset="1" style="stop-color:#FE7062"/>
					</linearGradient>
					<path class="st32" d="M1366,2039.2c-39.3-0.4-78.5-0.8-117.8-1.2c0.7-68.5,1.4-137,2.1-205.5c29,0.3,58,0.6,87.1,0.9
						C1346.9,1902,1356.4,1970.6,1366,2039.2z"/>
				</g>
				
					<linearGradient id="SVGID_28_" gradientUnits="userSpaceOnUse" x1="1696.9788" y1="1032.0637" x2="1552.5161" y2="1498.9865" gradientTransform="matrix(0.9331 -2.700000e-03 -2.700000e-03 1.204 -98.3813 402.1701)">
					<stop  offset="0" style="stop-color:#4F52FF"/>
					<stop  offset="1" style="stop-color:#4042E2"/>
				</linearGradient>
				<path class="st33" d="M1483.7,2040.4c-39.3-0.4-78.5-0.8-117.8-1.2c-9.5-68.6-19.1-137.2-28.6-205.8c29,0.3,58,0.6,87,0.9
					C1444.2,1903,1463.9,1971.7,1483.7,2040.4z"/>
				<g>
					
						<linearGradient id="SVGID_29_" gradientUnits="userSpaceOnUse" x1="1606.5083" y1="1871.4673" x2="1768.1656" y2="1231.7163" gradientTransform="matrix(0.9331 9.400000e-03 -1.220000e-02 1.204 -117.7654 418.2314)">
						<stop  offset="0" style="stop-color:#FF928E"/>
						<stop  offset="1" style="stop-color:#FE7062"/>
					</linearGradient>
					<path class="st34" d="M1601.5,2041.6c-39.3-0.4-78.5-0.8-117.8-1.2c-19.8-68.7-39.6-137.4-59.4-206.1c29,0.3,58,0.6,87.1,0.9
						C1541.4,1903.9,1571.5,1972.8,1601.5,2041.6z"/>
				</g>
				
					<linearGradient id="SVGID_30_" gradientUnits="userSpaceOnUse" x1="1854.9215" y1="1019.1814" x2="1823.9661" y2="1537.6838" gradientTransform="matrix(0.9331 -2.700000e-03 -2.700000e-03 1.204 -98.3813 402.1701)">
					<stop  offset="0" style="stop-color:#4F52FF"/>
					<stop  offset="1" style="stop-color:#4042E2"/>
				</linearGradient>
				<path class="st35" d="M1601.5,1840.1c-1.9-3.2-5.2-4.6-8.7-4.7c-27.1-0.3-54.2-0.5-81.3-0.8c30,69.7,60,141.2,90.1,205.4
					l114.5,1.2c1.3,0,2.1-1.9,1.3-3.3C1678.7,1974.6,1640.1,1906.2,1601.5,1840.1z"/>
			</g>
			<g>
				
					<linearGradient id="SVGID_31_" gradientUnits="userSpaceOnUse" x1="1039.5211" y1="1282.6753" x2="1038.5649" y2="1515.0111" gradientTransform="matrix(0.9331 9.400000e-03 -1.220000e-02 1.204 -117.7654 418.2314)">
					<stop  offset="0" style="stop-color:#FF928E"/>
					<stop  offset="1" style="stop-color:#FE7062"/>
				</linearGradient>
				<path class="st36" d="M778.2,2031.7c-1.5,0-2.8,1.6-2.8,3.6l-0.3,32c-0.3,29.7,27.9,52.3,60.3,52.6l1.3,0
					c32.4,0.3,58.7-21.8,59-51.4l0.4-35.6L778.2,2031.7z"/>
				
					<linearGradient id="SVGID_32_" gradientUnits="userSpaceOnUse" x1="1132.7003" y1="1364.0597" x2="1177.4176" y2="1071.677" gradientTransform="matrix(0.9331 -2.700000e-03 -2.700000e-03 1.204 -98.3813 402.1701)">
					<stop  offset="0" style="stop-color:#4F52FF"/>
					<stop  offset="1" style="stop-color:#4042E2"/>
				</linearGradient>
				<path class="st37" d="M896,2032.9l-0.4,35.6c-0.3,29.7,24.5,52.3,56.4,52.6l1.2,0c31.9,0.3,57.4-21.8,57.7-51.4l0.4-35.6
					L896,2032.9z"/>
			</g>
			<g>
				
					<linearGradient id="SVGID_33_" gradientUnits="userSpaceOnUse" x1="1291.4963" y1="1282.6909" x2="1290.5403" y2="1515.0118" gradientTransform="matrix(0.9331 9.400000e-03 -1.220000e-02 1.204 -117.7654 418.2314)">
					<stop  offset="0" style="stop-color:#FF928E"/>
					<stop  offset="1" style="stop-color:#FE7062"/>
				</linearGradient>
				<path class="st38" d="M1011.4,2034.1l-0.4,35.6c-0.3,29.7,27.2,52.3,59.7,52.6l1.3,0c32.4,0.3,57.6-21.8,57.9-51.4l0.4-35.6
					L1011.4,2034.1z"/>
				
					<linearGradient id="SVGID_34_" gradientUnits="userSpaceOnUse" x1="1379.3064" y1="1401.7677" x2="1424.0238" y2="1109.3846" gradientTransform="matrix(0.9331 -2.700000e-03 -2.700000e-03 1.204 -98.3813 402.1701)">
					<stop  offset="0" style="stop-color:#4F52FF"/>
					<stop  offset="1" style="stop-color:#4042E2"/>
				</linearGradient>
				<path class="st39" d="M1130.3,2035.3l-0.4,35.6c-0.3,29.7,25.6,52.3,57.5,52.6l1.2,0c31.9,0.3,58.1-21.8,58.4-51.4l0.4-35.6
					L1130.3,2035.3z"/>
			</g>
			<g>
				
					<linearGradient id="SVGID_35_" gradientUnits="userSpaceOnUse" x1="1543.4778" y1="1282.7065" x2="1542.5217" y2="1515.0126" gradientTransform="matrix(0.9331 9.400000e-03 -1.220000e-02 1.204 -117.7654 418.2314)">
					<stop  offset="0" style="stop-color:#FF928E"/>
					<stop  offset="1" style="stop-color:#FE7062"/>
				</linearGradient>
				<path class="st40" d="M1247.4,2036.5l-0.4,35.6c-0.3,29.6,26.6,52.3,59,52.6l1.3,0c32.4,0.3,56.5-21.8,56.8-51.4l0.4-35.6
					L1247.4,2036.5z"/>
				
					<linearGradient id="SVGID_36_" gradientUnits="userSpaceOnUse" x1="1625.9127" y1="1439.4757" x2="1670.6301" y2="1147.0931" gradientTransform="matrix(0.9331 -2.700000e-03 -2.700000e-03 1.204 -98.3813 402.1701)">
					<stop  offset="0" style="stop-color:#4F52FF"/>
					<stop  offset="1" style="stop-color:#4042E2"/>
				</linearGradient>
				<path class="st41" d="M1364.5,2037.6l-0.4,35.6c-0.3,29.7,26.7,52.3,58.6,52.6l1.2,0c31.9,0.3,58.7-21.8,59-51.4l0.4-35.6
					L1364.5,2037.6z"/>
			</g>
			<g>
				
					<linearGradient id="SVGID_37_" gradientUnits="userSpaceOnUse" x1="1797.3053" y1="1282.7045" x2="1796.3491" y2="1515.0436" gradientTransform="matrix(0.9331 9.400000e-03 -1.220000e-02 1.204 -117.7654 418.2314)">
					<stop  offset="0" style="stop-color:#FF928E"/>
					<stop  offset="1" style="stop-color:#FE7062"/>
				</linearGradient>
				<path class="st42" d="M1483.4,2038.8l-0.4,35.6c-0.3,29.7,25.9,52.3,58.4,52.6l1.3,0c32.4,0.3,58.9-21.8,59.2-51.4l0.4-35.6
					L1483.4,2038.8z"/>
				
					<linearGradient id="SVGID_38_" gradientUnits="userSpaceOnUse" x1="1873.4325" y1="1477.3234" x2="1918.1498" y2="1184.9408" gradientTransform="matrix(0.9331 -2.700000e-03 -2.700000e-03 1.204 -98.3813 402.1701)">
					<stop  offset="0" style="stop-color:#4F52FF"/>
					<stop  offset="1" style="stop-color:#4042E2"/>
				</linearGradient>
				<path class="st43" d="M1602.2,2040l-0.4,35.6c-0.3,29.7,24.3,52.3,56.2,52.6l1.2,0c31.9,0.3,57.7-21.8,58-51.4l0.4-35.6
					L1602.2,2040z"/>
			</g>
		</g>
	</g>
</g>
</svg>
