<?xml version="1.0" encoding="utf-8"?>
<!-- Generator: Adobe Illustrator 23.1.1, SVG Export Plug-In . SVG Version: 6.00 Build 0)  -->
<svg version="1.1" xmlns="http://www.w3.org/2000/svg" xmlns:xlink="http://www.w3.org/1999/xlink" x="0px" y="0px"
	 width="1497.9px" height="1540.8px" viewBox="0 0 1497.9 1540.8" style="enable-background:new 0 0 1497.9 1540.8;"
	 xml:space="preserve">
<style type="text/css">
	.st0{fill:url(#SVGID_1_);}
	.st1{fill:#91B3FA;}
	.st2{fill:#7D97F4;}
	.st3{fill:#BDD0FB;}
	.st4{fill:url(#SVGID_2_);}
	.st5{fill:#1F5AA9;}
	.st6{opacity:0.8;}
	.st7{fill:#FFFFFF;}
	.st8{fill:url(#SVGID_3_);}
	.st9{fill:url(#SVGID_4_);}
	.st10{fill:url(#SVGID_5_);}
	.st11{fill:url(#SVGID_6_);}
	.st12{fill:url(#SVGID_7_);}
	.st13{fill:url(#SVGID_8_);}
	.st14{fill:url(#SVGID_9_);}
	.st15{fill:url(#SVGID_10_);}
	.st16{fill:url(#SVGID_11_);}
	.st17{fill:url(#SVGID_12_);}
	.st18{fill:url(#SVGID_13_);}
	.st19{fill:url(#SVGID_14_);}
	.st20{fill:url(#SVGID_15_);}
	.st21{fill:url(#SVGID_16_);}
	.st22{fill:url(#SVGID_17_);}
	.st23{fill:url(#SVGID_18_);}
	.st24{fill:url(#SVGID_19_);}
	.st25{fill:url(#SVGID_20_);}
	.st26{fill:url(#SVGID_21_);}
	.st27{fill:url(#SVGID_22_);}
	.st28{fill:url(#SVGID_23_);}
	.st29{fill:url(#SVGID_24_);}
	.st30{fill:url(#SVGID_25_);}
	.st31{fill:url(#SVGID_26_);}
	.st32{fill:url(#SVGID_27_);}
	.st33{fill:url(#SVGID_28_);}
	.st34{fill:url(#SVGID_29_);}
	.st35{fill:url(#SVGID_30_);}
	.st36{fill:url(#SVGID_31_);}
	.st37{fill:url(#SVGID_32_);}
	.st38{fill:url(#SVGID_33_);}
	.st39{fill:url(#SVGID_34_);}
	.st40{fill:url(#SVGID_35_);}
	.st41{fill:url(#SVGID_36_);}
	.st42{fill:url(#SVGID_37_);}
	.st43{fill:url(#SVGID_38_);}
</style>
<g id="Background">
</g>
<g id="Illustration">
	<g>
		<linearGradient id="SVGID_1_" gradientUnits="userSpaceOnUse" x1="1645.368" y1="1877.8878" x2="401.7863" y2="333.4373">
			<stop  offset="0" style="stop-color:#DAE3FE"/>
			<stop  offset="1" style="stop-color:#E9EFFD"/>
		</linearGradient>
		<path class="st0" d="M1303.3,1268.8c-28.6,30.1-55.6,49.5-76.9,64.8c-251,180.1-548,127.6-611.1,114.8
			c-93.2-18.9-273.4-55.5-403.7-208.7C14.4,1007.9,45.1,642.8,198,401.7c28-44.1,175.7-288.8,475.9-328
			c181.7-23.7,393.5,24.2,546.8,152.6C1542.6,496,1519.7,1040.9,1303.3,1268.8z"/>
		<g>
			<g>
				<path class="st1" d="M438.1,948.5c0,0,4.3-181.4-79.2-229.9c-83.5-48.5-242.3-78.9-248.3-339.3c-3.5-152.5-7.3-219.1-9.8-248.2
					c-1-11.3,9.1-20.5,20.3-18.4c79.1,14.9,336.1,76.2,390,251.7C574.9,572.3,438.1,948.5,438.1,948.5z"/>
				<path class="st2" d="M182.3,185.2c86.8,77.4,187.3,214.5,240.8,351.6c6.9,22.6,27,70.6,35.7,156c7.8,71.2,3.9,146.4-5.5,196.2
					c-0.6,3.1-3.6,5.2-6.8,4.6c-5.4-1-4.7-6.8-4.6-6.7c10.8-85.1,6.3-191-18.4-286.5c-31.6-117.3-102.1-231.1-175-327.5l-7.5-9.5
					c-56.5-72.5-68.4-73.1-63.1-78.1C179,184.1,181,184,182.3,185.2z"/>
			</g>
			<g>
				<path class="st3" d="M572.4,1297.1c11.3,5.5-107-143.2-144-376.8c-17.5-110.1-17.7-248-80.4-301.2
					c-52.2-44.2-229.8-16.3-287.9-5.7c-7.3,1.3-9.7,10.5-4.1,15.2c27.9,23.4,87.5,78.6,103,134.2c20.5,73.3,90.2,120,152.6,132.6
					c62.4,12.6,97.1,24.9,127.5,124.7C469.5,1120,540.2,1281.4,572.4,1297.1z"/>
				<path class="st1" d="M141.7,644.4c74.1,3.1,153.7,36.9,194.1,100.4l3.8,6.1c8.8,14.2,58.7,115.1,86.4,198.8
					c0.3,1-0.2,2.2-1.3,2.5c-1.8,0.6-2.7-1.4-2.5-1.2c-19.3-47.3-47-107.2-69.1-152c-23.7-48.9-40.3-82-94.3-113.7
					c-60.1-34.2-117.6-37.7-117.4-37.6c-0.9-0.1-1.5-0.9-1.4-1.7C140.2,645,140.9,644.4,141.7,644.4z"/>
			</g>
			<g>
				<path class="st1" d="M521.6,1316.7c6.7,3.5-37.8-73-41.2-140.5c-3.4-67.5-18.6-182.6-76.8-251.5
					c-58.2-68.9-121.9-75.2-202.1-12.5c-66.9,52.2-108.6,78.5-133.1,83.4c-6.1,1.2-9.2,8.1-6.2,13.5c15.7,28.9,60.1,95.3,134.6,90.6
					c95-6,210.2-67.7,245.3-16.2c35.1,51.5,30.6,80.4,31.7,104.8C474.9,1212.7,477.3,1293.3,521.6,1316.7z"/>
				<path class="st2" d="M228.5,994.9c29.1-27.9,76.5-55.3,118-50.2c53.9,8.7,89.8,44.7,109.4,98.3c7.7,22.8,10.8,34.9,15.3,62.8
					c0.4,2.2-2.9,2.9-3.5,0.7c-3.3-13.1-6.6-26.8-11.4-41c-28.4-91.5-89.1-103.9-91.4-105.7c-4.6,0.5-32.4-20.4-98.4,15.1
					c-12.3,6.7-24.3,14.4-35.6,22.8l-0.1,0c-0.8,0.6-2,0.4-2.6-0.4C227.7,996.6,227.8,995.6,228.5,994.9z"/>
			</g>
		</g>
		<g>
			<g>
				
					<linearGradient id="SVGID_2_" gradientUnits="userSpaceOnUse" x1="321.8057" y1="820.2974" x2="1187.4796" y2="820.2974" gradientTransform="matrix(0.9998 -2.190000e-02 2.190000e-02 0.9998 67.0565 -37.1347)">
					<stop  offset="0" style="stop-color:#09005D"/>
					<stop  offset="1" style="stop-color:#1A0F91"/>
				</linearGradient>
				<path class="st4" d="M469.3,130.6c-33.6,2.9-59.3,31-59.4,64.7c-0.6,206-1.5,916.8,11.9,1168.3c1.4,26.6,23.3,47.5,49.9,47.8
					c132,1.4,511.7,4,727.2-9.8c44.9-2.9,79.8-40.1,79.7-85c-0.3-221.5-3.9-854.1-35.5-1122c-2.6-21.9-20.3-39-42.3-40.7
					C1075.1,143.8,664.4,113.6,469.3,130.6z"/>
				<path class="st1" d="M462.8,249.3c-2.6,176.2-10,762.5,2.9,978.9c1.9,31.6,26.5,56.6,56.8,57.7c124.9,4.4,445.2,12.8,627.7-7.3
					c32.9-3.6,58-32.1,58.9-66.6c4.6-179.9,16.9-725.9,4.4-939.9c-2-34.1-28.1-61.4-60.8-63.6c-135.2-9.1-482.5-30.1-637.7-17.2
					C485.9,193.7,463.3,218.8,462.8,249.3z"/>
				<path class="st5" d="M764.6,161.2c0.1,4.9,4,8.8,8.9,8.9c24,0.7,91.7,2.8,122,3.9c6,0.2,10.5-5.2,9.3-11.1
					c-0.1-0.2-0.9-7.7-8.5-8.2c-20.5-1.4-82.2-5.3-123-2.9C764.8,152.3,764.3,161.9,764.6,161.2z"/>
			</g>
		</g>
		<g>
			<g class="st6">
				<path class="st7" d="M1001.1,906.1c-2.1-2.6-5.5-3.7-9-3.6l-322,6.8l-8.1-25.8c-1.1-3.6-4.5-5.9-8.3-5.8l-44.2,1.2
					c-4.7,0.1-8.6,3.4-8.6,8.2c0,4.7,3.8,7.8,8.6,7.7l37.8-0.9l68.4,218.4c1.2,3.7,4.6,6.2,8.5,6.3l226,3c5.3,0.1,9.6-3.3,9.6-8.3
					c0-5-4.3-8.4-9.6-8.5l-219.4-2.4l-17.6-56.7l241.1,0.4c4.9,0,9.3-3.2,10.7-7.7l38.1-123C1003.9,912,1003.2,908.7,1001.1,906.1z"
					/>
				<path class="st7" d="M757.1,1131.9c-18.6-0.3-33.6,14.2-33.6,32.3c0,18.1,15,33.2,33.6,33.7c18.7,0.5,34-14,34-32.3
					C791.2,1147.3,775.9,1132.2,757.1,1131.9z M757.1,1180.2c-8.7-0.2-15.7-7.3-15.7-15.7c0-8.5,7.1-15.2,15.7-15.1
					c8.7,0.2,15.8,7.2,15.8,15.7C773,1173.7,765.9,1180.5,757.1,1180.2z"/>
				<path class="st7" d="M907.8,1134.2c-19.5-0.3-35.3,14.5-35.3,33c0,18.5,15.8,34,35.3,34.5c19.6,0.5,35.7-14.3,35.7-33
					C943.5,1150,927.4,1134.5,907.8,1134.2z M907.8,1183.8c-9.1-0.2-16.5-7.4-16.5-16.1c0-8.7,7.4-15.6,16.5-15.4
					c9.1,0.2,16.6,7.4,16.6,16.1C924.4,1177.1,917,1184,907.8,1183.8z"/>
			</g>
		</g>
		<g>
			<g>
				<g>
					
						<linearGradient id="SVGID_3_" gradientUnits="userSpaceOnUse" x1="-6588.6738" y1="1162.6403" x2="-6522.6372" y2="1162.6403" gradientTransform="matrix(0.9987 5.070000e-02 -5.070000e-02 0.9987 7052.7188 614.5347)">
						<stop  offset="0" style="stop-color:#09005D"/>
						<stop  offset="1" style="stop-color:#1A0F91"/>
					</linearGradient>
					<path class="st8" d="M424,1418.8c0,0-7.9,11.2-11.4,43.4c-0.3,3,1.9,5.7,5,5.8l57.3,2.9c2.3,0.1,4.1-2.1,3.4-4.3
						c-2.9-10.1-11.8-34.9-33.7-49.9L424,1418.8z"/>
					
						<linearGradient id="SVGID_4_" gradientUnits="userSpaceOnUse" x1="-6620.2764" y1="712.1273" x2="-6593.4937" y2="712.1273" gradientTransform="matrix(0.9937 -0.112 0.112 0.9937 6916.6899 -33.3659)">
						<stop  offset="0" style="stop-color:#FEBBBA"/>
						<stop  offset="1" style="stop-color:#FF928E"/>
					</linearGradient>
					<path class="st9" d="M416.3,1401.3l6.3,26.7c0.5,2.3,2.6,4,4.9,4c3.2,0,7.7-0.3,12-1.5c3.9-1.1,6.4-5,6-9.1l-2.9-26.1
						L416.3,1401.3z"/>
					
						<linearGradient id="SVGID_5_" gradientUnits="userSpaceOnUse" x1="-6417.376" y1="922.657" x2="-6313.7637" y2="922.657" gradientTransform="matrix(0.9994 3.490000e-02 -3.490000e-02 0.9994 6989.019 747.5132)">
						<stop  offset="0" style="stop-color:#09005D"/>
						<stop  offset="1" style="stop-color:#1A0F91"/>
					</linearGradient>
					<path class="st10" d="M554.9,1420.8c0,0-11.6,16.7-12.2,40.1c-0.1,5.5,4.3,10.1,9.8,10.3l89.1,3.1c4.2,0.1,6.1-5.2,2.7-7.7
						c-16.4-12.4-48.8-35.7-72.5-45.2L554.9,1420.8z"/>
					
						<linearGradient id="SVGID_6_" gradientUnits="userSpaceOnUse" x1="-6359.085" y1="1143.9349" x2="-6332.4502" y2="1143.9349" gradientTransform="matrix(0.9907 0.1362 -0.1362 0.9907 7006.666 1138.1613)">
						<stop  offset="0" style="stop-color:#FEBBBA"/>
						<stop  offset="1" style="stop-color:#FF928E"/>
					</linearGradient>
					<path class="st11" d="M552.7,1392.4l2.3,34.2c0.3,3.8,3.6,6.8,7.4,6.5c2.3-0.2,5.1-0.8,8.2-2.2c2.9-1.3,4.7-4.3,4.6-7.6
						l-1.5-41.3L552.7,1392.4z"/>
					<linearGradient id="SVGID_7_" gradientUnits="userSpaceOnUse" x1="1075.672" y1="345.6478" x2="626.6584" y2="965.0909">
						<stop  offset="0" style="stop-color:#09005D"/>
						<stop  offset="1" style="stop-color:#1A0F91"/>
					</linearGradient>
					<path class="st12" d="M375.4,940.7c0,0-21.5,23.8-23.2,49.7c-1.6,25.9,62.1,436.4,62.1,436.4s24.4,1.3,35.9-7.6
						c0,0-15.6-269.3-11.4-332.4c0,0,89.6,270.7,111.4,319c0,0,23.4,0.2,30.3-5c0,0-55.8-357.7-82.2-419.4L375.4,940.7z"/>
					<linearGradient id="SVGID_8_" gradientUnits="userSpaceOnUse" x1="395.1813" y1="1050.7844" x2="440.2573" y2="1050.7844">
						<stop  offset="0" style="stop-color:#4F52FF"/>
						<stop  offset="1" style="stop-color:#4042E2"/>
					</linearGradient>
					<path class="st13" d="M436.8,1079c-1.4,0-2.7-0.9-3.3-2.2l-14.1-36.6l-22.3-11c-1.7-0.9-2.4-2.9-1.6-4.7
						c0.9-1.7,2.9-2.4,4.7-1.6l23.5,11.6c0.8,0.4,1.4,1.1,1.7,1.9l14.6,37.8c0.7,1.8-0.2,3.8-2,4.5
						C437.6,1078.9,437.2,1079,436.8,1079z"/>
					<linearGradient id="SVGID_9_" gradientUnits="userSpaceOnUse" x1="639.5305" y1="194.9271" x2="601.6947" y2="466.6581">
						<stop  offset="0" style="stop-color:#4F52FF"/>
						<stop  offset="1" style="stop-color:#4042E2"/>
					</linearGradient>
					<path class="st14" d="M584.6,675.8c-101.6,3-125.6,26.8-125.6,26.8l57,70.9c0,0,98.7-13.1,163.5-75.8
						c-14.9-12.8-25.9-27.5-33.2-39.2C628.8,668.2,608.3,675.1,584.6,675.8z"/>
					
						<linearGradient id="SVGID_10_" gradientUnits="userSpaceOnUse" x1="-6308.54" y1="-60.5693" x2="-6201.3579" y2="-60.5693" gradientTransform="matrix(0.9937 -0.112 0.112 0.9937 6916.6899 -33.3659)">
						<stop  offset="0" style="stop-color:#FEBBBA"/>
						<stop  offset="1" style="stop-color:#FF928E"/>
					</linearGradient>
					<path class="st15" d="M740.1,534.2c-0.5-3.2-9.1-29.8-26.2-15.2l-4.1,19.5c-1.9,5.6-2,11.6-0.4,17.3l6.3,15.5
						c2.2,7.6,1.1,15.8-3.1,22.6c-10.1,16.1-32.2,45.9-66.4,64.8c7.3,11.6,18.3,26.4,33.2,39.2c23.8-23,42.9-52.6,51-90.8
						c5.6-2.5,8.9-8.4,8-14.5L740.1,534.2z"/>
					<linearGradient id="SVGID_11_" gradientUnits="userSpaceOnUse" x1="667.7044" y1="619.1262" x2="413.1711" y2="1073.1577">
						<stop  offset="0" style="stop-color:#4F52FF"/>
						<stop  offset="1" style="stop-color:#4042E2"/>
					</linearGradient>
					<path class="st16" d="M622.7,716.3c-39.8-34.2-109.2-43.8-149.1-46.5c-17.5-1.2-33.3,10.3-37.5,27.3
						c-12.3,49.3-46.2,177.7-53.1,199.9c-5.7,18.2-11.7,36-15.5,47.2c-2.3,6.7,1.2,13.9,7.8,16.3c34.7,12.1,95.9,23.4,120.7,27.7
						c5.5,0.9,10.3-3.6,9.6-9.1c-0.5-4.7,0.2-9.4,2.2-13.6l73.8-161.7c63.7,56.4,114,56.6,150.5,38.5c-8.6-19.1-15.1-38.4-19.3-58.1
						C655.4,780.9,622.7,716.3,622.7,716.3z"/>
					
						<linearGradient id="SVGID_12_" gradientUnits="userSpaceOnUse" x1="-6084.3945" y1="-42.5832" x2="-6298.2788" y2="223.509" gradientTransform="matrix(0.9937 -0.112 0.112 0.9937 6916.6899 -33.3659)">
						<stop  offset="0" style="stop-color:#FEBBBA"/>
						<stop  offset="1" style="stop-color:#FF928E"/>
					</linearGradient>
					<path class="st17" d="M804.6,763.1l-11.7-12.4c-30.3,26.3-57.2,34.7-80.2,33.4c4.3,19.6,10.7,39,19.3,58.1
						C780.2,818.5,804.6,763.1,804.6,763.1z"/>
					
						<linearGradient id="SVGID_13_" gradientUnits="userSpaceOnUse" x1="-6043.8428" y1="-9.9948" x2="-6257.7329" y2="256.1051" gradientTransform="matrix(0.9937 -0.112 0.112 0.9937 6916.6899 -33.3659)">
						<stop  offset="0" style="stop-color:#FEBBBA"/>
						<stop  offset="1" style="stop-color:#FF928E"/>
					</linearGradient>
					<path class="st18" d="M797.5,764.2l57.5-4.2l49.4-35.4c-8.1-3.9-49.8,10.6-49.8,10.6s-45.5-1.7-57.6-0.4
						c-10.1,1.1-7,15.4-5.7,20.2c0.3,1,0.5,1.6,0.5,1.6L797.5,764.2z"/>
					
						<linearGradient id="SVGID_14_" gradientUnits="userSpaceOnUse" x1="-6325.0239" y1="-203.3849" x2="-6532.1685" y2="177.2231" gradientTransform="matrix(0.9937 -0.112 0.112 0.9937 6916.6899 -33.3659)">
						<stop  offset="0" style="stop-color:#FEBBBA"/>
						<stop  offset="1" style="stop-color:#FF928E"/>
					</linearGradient>
					<path class="st19" d="M519.4,593.6l-21.9,77.1c0,0,37.4,20.1,65.1,14.7l7.6-68L519.4,593.6z"/>
					<g>
						
							<linearGradient id="SVGID_15_" gradientUnits="userSpaceOnUse" x1="-5415.7417" y1="-1545.0422" x2="-5507.291" y2="-1423.9299" gradientTransform="matrix(0.7472 -0.6646 0.6646 0.7472 5625.1895 -1894.9229)">
							<stop  offset="0" style="stop-color:#FEBBBA"/>
							<stop  offset="1" style="stop-color:#FF928E"/>
						</linearGradient>
						<path class="st20" d="M564.8,537.6c0.8,0.9,30.6,74.9,30.6,74.9l-42.6,16.1l-38.6-66C514.1,562.6,551.4,522.5,564.8,537.6z"/>
						
							<linearGradient id="SVGID_16_" gradientUnits="userSpaceOnUse" x1="-5485.6587" y1="-1515.8269" x2="-5376.3003" y2="-1515.8269" gradientTransform="matrix(0.7472 -0.6646 0.6646 0.7472 5625.1895 -1894.9229)">
							<stop  offset="0" style="stop-color:#09005D"/>
							<stop  offset="1" style="stop-color:#1A0F91"/>
						</linearGradient>
						<path class="st21" d="M531.8,571.3l17.6,36.3c0.2,0.5,0.5,0.9,0.8,1.3c2.1,2.4,9.9,10,17.3,1.5c6.6-7.7,12.8-14.6,19-16.5
							c2.8-0.8,5.7,0.6,6.8,3.3c2.7,6.7,8.5,22,11.5,36c0.6,2.8-1.1,5.7-3.9,6.5c-8.4,2.6-26.2,7.6-41.5,8.2c-2.1,0.1-4-0.9-5.1-2.7
							c-5.2-8.7-21.2-34.9-26.7-41.6c-5.2-6.2-16.2-4.8-20.7-3.9c-1.5,0.3-3,0-4.3-0.9c-4.4-3.1-13.1-11.2-3.5-23.2
							c2-2.5,1.5-6.1-1-8.1c-5.1-3.8-10.9-11-4.3-21.4c6.7-10.6,17.3-10.2,23.8-8.6c2.7,0.6,5.3-0.8,6.5-3.3
							c0.6-1.4,1.9-2.6,4.3-2.7c3.3-0.1,5.7-3.1,5.3-6.3c-0.8-6.2,0.5-14.3,11-18.9c18.5-8.1,32.5,9,35.3,22.7
							c2.7,13.7-17.8,21.4-30.4,21.8c-9.5,0.4-15.5,10.5-17.8,15.4C531,568,531.1,569.8,531.8,571.3z"/>
						
							<linearGradient id="SVGID_17_" gradientUnits="userSpaceOnUse" x1="-5549.8257" y1="-1449.132" x2="-5476.3955" y2="-1524.4692" gradientTransform="matrix(0.7472 -0.6646 0.6646 0.7472 5625.1895 -1894.9229)">
							<stop  offset="0" style="stop-color:#FEBBBA"/>
							<stop  offset="1" style="stop-color:#FF928E"/>
						</linearGradient>
						<path class="st22" d="M534.2,616.9c0,0-5.8-23.6-15.9-23.7c-10.1-0.1-18.9,9.2-7.5,21.6C525.1,630.2,534.2,616.9,534.2,616.9z
							"/>
					</g>
				</g>
			</g>
			<g>
				<linearGradient id="SVGID_18_" gradientUnits="userSpaceOnUse" x1="775.6746" y1="86.7385" x2="806.3041" y2="350.1537">
					<stop  offset="0" style="stop-color:#E1473D"/>
					<stop  offset="1" style="stop-color:#E9605A"/>
				</linearGradient>
				<path class="st23" d="M816.6,753.9c-11.6,0.8-22.4-4.6-28.5-14.3l-101-162.3c-9.5-15.2-4.4-36,11.4-46.5
					c15.7-10.5,36.2-6.6,45.6,8.5L814.2,652l92.5-188.3c8.3-16.9,28.2-24.7,44.5-17.3c16.3,7.3,22.8,27,14.5,43.8L846.1,733.7
					c-5.5,11.2-16.3,18.8-28.4,20C817.4,753.8,817,753.9,816.6,753.9z"/>
			</g>
		</g>
		<g>
			<linearGradient id="SVGID_19_" gradientUnits="userSpaceOnUse" x1="1351.7722" y1="612.9815" x2="1159.1538" y2="1084.2096">
				<stop  offset="0" style="stop-color:#E1473D"/>
				<stop  offset="1" style="stop-color:#E9605A"/>
			</linearGradient>
			<path class="st24" d="M1118.1,978.9c-2.3,0-4.2-1.8-4.3-4.2c0-1.6-1-38.7,9.9-78.4c14.7-53.5,44.3-85.1,85.5-91.6
				c20.2-3.2,38.2,1.6,53.4,14.2c49.8,41,54.6,150.9,54.7,155.6c0.1,2.4-1.8,4.4-4.1,4.5c-2.4,0.1-4.4-1.8-4.5-4.1
				c0-1.1-4.8-110.8-51.6-149.3c-13.3-10.9-29-15.1-46.6-12.3c-91.5,14.4-88.2,159.8-88.1,161.3c0.1,2.4-1.8,4.4-4.2,4.4
				C1118.2,978.9,1118.2,978.9,1118.1,978.9z"/>
			<linearGradient id="SVGID_20_" gradientUnits="userSpaceOnUse" x1="1315.7271" y1="1031.3035" x2="916.7319" y2="1616.0375">
				<stop  offset="0" style="stop-color:#FF928E"/>
				<stop  offset="1" style="stop-color:#FE7062"/>
			</linearGradient>
			<path class="st25" d="M937,1449.7l73.9-509.5l277.5-4.7l89.5,542.4H961.1C946.2,1478,934.9,1464.6,937,1449.7z"/>
			<linearGradient id="SVGID_21_" gradientUnits="userSpaceOnUse" x1="1923.1746" y1="1028.9333" x2="1379.7124" y2="1200.9153">
				<stop  offset="0" style="stop-color:#FF928E"/>
				<stop  offset="1" style="stop-color:#FE7062"/>
			</linearGradient>
			<path class="st26" d="M1342.4,940.2l-53.9-4.7l89.5,542.4h53.5c10.8,0,19-10.1,16.7-20.9L1342.4,940.2z"/>
			<linearGradient id="SVGID_22_" gradientUnits="userSpaceOnUse" x1="1300.2654" y1="591.9287" x2="1107.6464" y2="1063.1582">
				<stop  offset="0" style="stop-color:#E1473D"/>
				<stop  offset="1" style="stop-color:#E9605A"/>
			</linearGradient>
			<path class="st27" d="M1253.5,977.7c-2.3,0-4.2-1.8-4.3-4.1c0-1.1-4.8-110.8-51.6-149.3c-13.3-10.9-29-15.1-46.6-12.3
				c-91.5,14.4-88.2,159.8-88.1,161.3c0.1,2.4-1.8,4.4-4.2,4.4c-2.4,0.1-4.4-1.8-4.4-4.2c0-1.6-1-38.7,9.9-78.4
				c14.7-53.5,44.3-85.1,85.5-91.6c20.2-3.2,38.2,1.6,53.4,14.2c49.8,41,54.6,150.9,54.7,155.6c0.1,2.4-1.8,4.4-4.1,4.5
				C1253.6,977.7,1253.5,977.7,1253.5,977.7z"/>
		</g>
		<g>
			<g>
				
					<linearGradient id="SVGID_23_" gradientUnits="userSpaceOnUse" x1="555.1553" y1="-65.9657" x2="716.8075" y2="-705.696" gradientTransform="matrix(0.9331 9.400000e-03 -1.220000e-02 1.204 -167.3209 784.6598)">
					<stop  offset="0" style="stop-color:#FF928E"/>
					<stop  offset="1" style="stop-color:#FE7062"/>
				</linearGradient>
				<path class="st28" d="M491.1,51.5c-3.5,0-6.9,1.3-8.8,4.5c-40.6,66.4-81.3,135.2-121.9,198.7c39.3,0.4,78.5,0.8,117.8,1.2
					c31.4-63.6,62.8-134.5,94.2-203.5C545.3,52.1,518.2,51.8,491.1,51.5z"/>
				
					<linearGradient id="SVGID_24_" gradientUnits="userSpaceOnUse" x1="988.3534" y1="-882.6612" x2="655.567" y2="-317.6974" gradientTransform="matrix(0.9331 -2.700000e-03 -2.700000e-03 1.204 -131.0551 763.5567)">
					<stop  offset="0" style="stop-color:#4F52FF"/>
					<stop  offset="1" style="stop-color:#4042E2"/>
				</linearGradient>
				<path class="st29" d="M596,258.6c-39.3-0.4-78.5-0.8-117.8-1.2C509.6,189.2,541,121,572.4,52.8c29,0.3,58,0.6,87,0.9
					C638.3,122,617.1,190.3,596,258.6z"/>
				<g>
					
						<linearGradient id="SVGID_25_" gradientUnits="userSpaceOnUse" x1="766.4835" y1="-12.5526" x2="928.1367" y2="-652.2874" gradientTransform="matrix(0.9331 9.400000e-03 -1.220000e-02 1.204 -167.3209 784.6598)">
						<stop  offset="0" style="stop-color:#FF928E"/>
						<stop  offset="1" style="stop-color:#FE7062"/>
					</linearGradient>
					<path class="st30" d="M713.7,259.8c-39.3-0.4-78.5-0.8-117.8-1.2c21.2-68.3,42.4-136.6,63.5-204.9c29,0.3,58,0.6,87.1,0.9
						C735.6,123,724.7,191.4,713.7,259.8z"/>
				</g>
				
					<linearGradient id="SVGID_26_" gradientUnits="userSpaceOnUse" x1="1115.9976" y1="-796.951" x2="891.5619" y2="-291.3268" gradientTransform="matrix(0.9331 -2.700000e-03 -2.700000e-03 1.204 -131.0551 763.5567)">
					<stop  offset="0" style="stop-color:#4F52FF"/>
					<stop  offset="1" style="stop-color:#4042E2"/>
				</linearGradient>
				<path class="st31" d="M831.5,261c-39.3-0.4-78.5-0.8-117.8-1.2c10.9-68.4,21.9-136.8,32.8-205.2c29,0.3,58,0.6,87,0.9
					C832.9,124,832.2,192.5,831.5,261z"/>
				<g>
					
						<linearGradient id="SVGID_27_" gradientUnits="userSpaceOnUse" x1="983.496" y1="42.2953" x2="1145.1512" y2="-597.4474" gradientTransform="matrix(0.9331 9.400000e-03 -1.220000e-02 1.204 -167.3209 784.6598)">
						<stop  offset="0" style="stop-color:#FF928E"/>
						<stop  offset="1" style="stop-color:#FE7062"/>
					</linearGradient>
					<path class="st32" d="M949.3,262.2c-39.3-0.4-78.5-0.8-117.8-1.2c0.7-68.5,1.4-137,2.1-205.5c29,0.3,58,0.6,87.1,0.9
						C930.2,125,939.7,193.6,949.3,262.2z"/>
				</g>
				
					<linearGradient id="SVGID_28_" gradientUnits="userSpaceOnUse" x1="1280.2987" y1="-744.9539" x2="1135.8362" y2="-278.0313" gradientTransform="matrix(0.9331 -2.700000e-03 -2.700000e-03 1.204 -131.0551 763.5567)">
					<stop  offset="0" style="stop-color:#4F52FF"/>
					<stop  offset="1" style="stop-color:#4042E2"/>
				</linearGradient>
				<path class="st33" d="M1067.1,263.4c-39.3-0.4-78.5-0.8-117.8-1.2c-9.5-68.6-19.1-137.2-28.6-205.8c29,0.3,58,0.6,87,0.9
					C1027.5,125.9,1047.3,194.7,1067.1,263.4z"/>
				<g>
					
						<linearGradient id="SVGID_29_" gradientUnits="userSpaceOnUse" x1="1189.8282" y1="94.4495" x2="1351.4856" y2="-545.3015" gradientTransform="matrix(0.9331 9.400000e-03 -1.220000e-02 1.204 -167.3209 784.6598)">
						<stop  offset="0" style="stop-color:#FF928E"/>
						<stop  offset="1" style="stop-color:#FE7062"/>
					</linearGradient>
					<path class="st34" d="M1184.8,264.6c-39.3-0.4-78.5-0.8-117.8-1.2c-19.8-68.7-39.6-137.4-59.4-206.1c29,0.3,58,0.6,87.1,0.9
						C1124.8,126.9,1154.8,195.7,1184.8,264.6z"/>
				</g>
				
					<linearGradient id="SVGID_30_" gradientUnits="userSpaceOnUse" x1="1438.2416" y1="-757.8363" x2="1407.286" y2="-239.3339" gradientTransform="matrix(0.9331 -2.700000e-03 -2.700000e-03 1.204 -131.0551 763.5567)">
					<stop  offset="0" style="stop-color:#4F52FF"/>
					<stop  offset="1" style="stop-color:#4042E2"/>
				</linearGradient>
				<path class="st35" d="M1184.8,63.1c-1.9-3.2-5.2-4.6-8.7-4.7c-27.1-0.3-54.2-0.5-81.3-0.8c30,69.7,60,141.2,90.1,205.4
					l114.5,1.2c1.3,0,2.1-1.9,1.3-3.3C1262,197.5,1223.4,129.2,1184.8,63.1z"/>
			</g>
			<g>
				
					<linearGradient id="SVGID_31_" gradientUnits="userSpaceOnUse" x1="622.8411" y1="-494.3424" x2="621.8849" y2="-262.0066" gradientTransform="matrix(0.9331 9.400000e-03 -1.220000e-02 1.204 -167.3209 784.6598)">
					<stop  offset="0" style="stop-color:#FF928E"/>
					<stop  offset="1" style="stop-color:#FE7062"/>
				</linearGradient>
				<path class="st36" d="M361.5,254.7c-1.5,0-2.8,1.6-2.8,3.6l-0.3,32c-0.3,29.7,27.9,52.3,60.3,52.6l1.3,0
					c32.4,0.3,58.7-21.8,59-51.4l0.4-35.6L361.5,254.7z"/>
				
					<linearGradient id="SVGID_32_" gradientUnits="userSpaceOnUse" x1="716.0203" y1="-412.9579" x2="760.7376" y2="-705.3408" gradientTransform="matrix(0.9331 -2.700000e-03 -2.700000e-03 1.204 -131.0551 763.5567)">
					<stop  offset="0" style="stop-color:#4F52FF"/>
					<stop  offset="1" style="stop-color:#4042E2"/>
				</linearGradient>
				<path class="st37" d="M479.3,255.9l-0.4,35.6c-0.3,29.7,24.5,52.3,56.4,52.6l1.2,0c31.9,0.3,57.4-21.8,57.7-51.4l0.4-35.6
					L479.3,255.9z"/>
			</g>
			<g>
				
					<linearGradient id="SVGID_33_" gradientUnits="userSpaceOnUse" x1="874.8163" y1="-494.3268" x2="873.8602" y2="-262.0058" gradientTransform="matrix(0.9331 9.400000e-03 -1.220000e-02 1.204 -167.3209 784.6598)">
					<stop  offset="0" style="stop-color:#FF928E"/>
					<stop  offset="1" style="stop-color:#FE7062"/>
				</linearGradient>
				<path class="st38" d="M594.7,257l-0.4,35.6c-0.3,29.7,27.2,52.3,59.7,52.6l1.3,0c32.4,0.3,57.6-21.8,57.9-51.4l0.4-35.6
					L594.7,257z"/>
				
					<linearGradient id="SVGID_34_" gradientUnits="userSpaceOnUse" x1="962.6265" y1="-375.25" x2="1007.3438" y2="-667.6331" gradientTransform="matrix(0.9331 -2.700000e-03 -2.700000e-03 1.204 -131.0551 763.5567)">
					<stop  offset="0" style="stop-color:#4F52FF"/>
					<stop  offset="1" style="stop-color:#4042E2"/>
				</linearGradient>
				<path class="st39" d="M713.6,258.2l-0.4,35.6c-0.3,29.7,25.6,52.3,57.5,52.6l1.2,0c31.9,0.3,58.1-21.8,58.4-51.4l0.4-35.6
					L713.6,258.2z"/>
			</g>
			<g>
				
					<linearGradient id="SVGID_35_" gradientUnits="userSpaceOnUse" x1="1126.7977" y1="-494.3112" x2="1125.8417" y2="-262.0051" gradientTransform="matrix(0.9331 9.400000e-03 -1.220000e-02 1.204 -167.3209 784.6598)">
					<stop  offset="0" style="stop-color:#FF928E"/>
					<stop  offset="1" style="stop-color:#FE7062"/>
				</linearGradient>
				<path class="st40" d="M830.7,259.4l-0.4,35.6c-0.3,29.7,26.6,52.3,59,52.6l1.3,0c32.4,0.3,56.5-21.8,56.8-51.4l0.4-35.6
					L830.7,259.4z"/>
				
					<linearGradient id="SVGID_36_" gradientUnits="userSpaceOnUse" x1="1209.2328" y1="-337.542" x2="1253.9501" y2="-629.9246" gradientTransform="matrix(0.9331 -2.700000e-03 -2.700000e-03 1.204 -131.0551 763.5567)">
					<stop  offset="0" style="stop-color:#4F52FF"/>
					<stop  offset="1" style="stop-color:#4042E2"/>
				</linearGradient>
				<path class="st41" d="M947.8,260.6l-0.4,35.6c-0.3,29.7,26.7,52.3,58.6,52.6l1.2,0c31.9,0.3,58.7-21.8,59-51.4l0.4-35.6
					L947.8,260.6z"/>
			</g>
			<g>
				
					<linearGradient id="SVGID_37_" gradientUnits="userSpaceOnUse" x1="1380.6252" y1="-494.3132" x2="1379.6691" y2="-261.9741" gradientTransform="matrix(0.9331 9.400000e-03 -1.220000e-02 1.204 -167.3209 784.6598)">
					<stop  offset="0" style="stop-color:#FF928E"/>
					<stop  offset="1" style="stop-color:#FE7062"/>
				</linearGradient>
				<path class="st42" d="M1066.7,261.8l-0.4,35.6c-0.3,29.7,25.9,52.3,58.4,52.6l1.3,0c32.4,0.3,58.9-21.8,59.2-51.4l0.4-35.6
					L1066.7,261.8z"/>
				
					<linearGradient id="SVGID_38_" gradientUnits="userSpaceOnUse" x1="1456.7524" y1="-299.6944" x2="1501.4697" y2="-592.0769" gradientTransform="matrix(0.9331 -2.700000e-03 -2.700000e-03 1.204 -131.0551 763.5567)">
					<stop  offset="0" style="stop-color:#4F52FF"/>
					<stop  offset="1" style="stop-color:#4042E2"/>
				</linearGradient>
				<path class="st43" d="M1185.5,263l-0.4,35.6c-0.3,29.7,24.3,52.3,56.2,52.6l1.2,0c31.9,0.3,57.7-21.8,58-51.4l0.4-35.6
					L1185.5,263z"/>
			</g>
		</g>
	</g>
</g>
</svg>
