<?xml version="1.0" encoding="utf-8"?>
<!-- Generator: Adobe Illustrator 23.1.1, SVG Export Plug-In . SVG Version: 6.00 Build 0)  -->
<svg version="1.1" xmlns="http://www.w3.org/2000/svg" xmlns:xlink="http://www.w3.org/1999/xlink" x="0px" y="0px" width="500px"
	 height="500px" viewBox="0 0 500 500" style="enable-background:new 0 0 500 500;" xml:space="preserve">
<style type="text/css">
	.st0{fill:#EBEBEB;}
	.st1{fill:#E0E0E0;}
	.st2{display:none;}
	.st3{display:inline;}
	.st4{fill:#F5F5F5;}
	.st5{fill:#263238;}
	.st6{fill:#FFBF9D;}
	.st7{fill:#FF9A6C;}
	.st8{fill:#455A64;}
	.st9{opacity:0.1;}
	.st10{fill:#FFFFFF;}
	.st11{fill:#FF725E;}
	.st12{opacity:0.3;}
	.st13{opacity:0.2;}
</style>
<g id="Background_Complete">
	<g>
		<g>
			<g>
				<g>
					<g>
						<g>
							<g>
								<path class="st0" d="M319.2,243.1c-48-0.4-91.4-0.8-122.9-1.1c-15.7-0.1-28.4-0.1-37.2-0.2c-4.4,0-7.8,0-10.1,0
									c-1.1,0-2,0-2.6,0c-0.6,0-0.9,0-0.9,0c0,0,0.3,0,0.9,0.1c0.6,0,1.5,0,2.6,0.1c2.3,0,5.8,0.1,10.1,0.1
									c8.8,0,21.5,0.1,37.2,0.2c31.5,0,74.9,0,122.9,0.1c48,0,91.4,0.1,122.8,0.3c15.7,0.1,28.4,0.3,37.2,0.4
									c4.4,0.1,7.8,0.2,10.1,0.3c2.3,0.1,3.5,0.2,3.5,0.3c0,0.1-1.2,0.2-3.5,0.2c-2.3,0.1-5.7,0.1-10.1,0.2
									c-8.8,0.1-21.5,0.1-37.2,0C410.6,243.9,367.2,243.6,319.2,243.1z"/>
							</g>
						</g>
					</g>
				</g>
			</g>
		</g>
		<g>
			<g>
				<g>
					<g>
						<g>
							<g>
								<path class="st0" d="M318.3,253.5C271,245.9,228.1,239,197.1,234c-15.5-2.4-28-4.4-36.8-5.7c-4.3-0.6-7.7-1.1-10-1.5
									c-1.1-0.2-2-0.3-2.6-0.4c-0.6-0.1-0.9-0.1-0.9-0.1c0,0,0.3,0.1,0.9,0.2c0.6,0.1,1.5,0.3,2.6,0.5c2.3,0.4,5.7,0.9,10,1.6
									c8.7,1.4,21.3,3.3,36.8,5.8c31.1,4.7,74,11.2,121.4,18.4c47.4,7.2,90.3,13.7,121.3,18.6c15.5,2.5,28.1,4.5,36.7,6
									c4.3,0.7,7.7,1.3,10,1.8s3.5,0.7,3.4,0.8c0,0.1-1.2,0-3.5-0.3c-2.3-0.3-5.7-0.7-10-1.4c-8.7-1.2-21.3-3.1-36.8-5.5
									C408.4,268,365.6,261.1,318.3,253.5z"/>
							</g>
						</g>
					</g>
				</g>
			</g>
		</g>
		<g>
			<g>
				<g>
					<g>
						<g>
							<g>
								<path class="st0" d="M315.6,263.6c-45.5-14.7-86.6-28-116.5-37.6c-14.9-4.7-27-8.6-35.4-11.2c-4.2-1.3-7.4-2.3-9.6-3
									c-1.1-0.3-1.9-0.6-2.5-0.7c-0.6-0.2-0.9-0.2-0.9-0.2c0,0,0.3,0.1,0.8,0.3c0.6,0.2,1.4,0.5,2.5,0.8c2.2,0.7,5.4,1.8,9.6,3.1
									c8.4,2.7,20.4,6.5,35.3,11.2c29.9,9.4,71.2,22.3,116.8,36.6c45.6,14.2,86.9,27.2,116.7,36.7c14.9,4.8,27,8.7,35.3,11.5
									c4.2,1.4,7.4,2.5,9.5,3.3c2.2,0.8,3.3,1.2,3.3,1.3c0,0.1-1.2-0.2-3.4-0.8c-2.2-0.6-5.5-1.6-9.7-2.9
									c-8.4-2.5-20.5-6.3-35.4-11C402.3,291.6,361.1,278.3,315.6,263.6z"/>
							</g>
						</g>
					</g>
				</g>
			</g>
		</g>
		<g>
			<g>
				<g>
					<g>
						<g>
							<g>
								<path class="st0" d="M311.4,273.2c-42.5-21.4-81-40.7-108.9-54.7c-13.9-6.9-25.2-12.5-33.1-16.4c-3.9-1.9-6.9-3.4-9-4.4
									c-1-0.5-1.8-0.9-2.4-1.1c-0.5-0.2-0.8-0.4-0.8-0.3c0,0,0.3,0.2,0.8,0.4c0.5,0.3,1.3,0.7,2.3,1.2c2.1,1.1,5.1,2.6,9,4.5
									c7.8,3.9,19.1,9.5,33.1,16.5c28,13.8,66.7,32.8,109.4,53.8c42.7,21,81.4,40,109.3,53.9c13.9,7,25.2,12.7,33,16.7
									c3.9,2,6.9,3.6,8.9,4.7c2,1.1,3.1,1.7,3,1.8c0,0.1-1.2-0.4-3.3-1.3c-2.1-1-5.2-2.4-9.1-4.3c-7.9-3.8-19.2-9.3-33.2-16.2
									C392.3,313.9,353.8,294.6,311.4,273.2z"/>
							</g>
						</g>
					</g>
				</g>
			</g>
		</g>
		<g>
			<g>
				<g>
					<g>
						<g>
							<g>
								<path class="st0" d="M305.6,282.1c-38.5-27.5-73.4-52.4-98.6-70.4c-12.6-8.9-22.9-16.2-30-21.2c-3.5-2.5-6.3-4.4-8.2-5.7
									c-0.9-0.6-1.6-1.1-2.2-1.5c-0.5-0.3-0.7-0.5-0.8-0.5c0,0,0.2,0.2,0.7,0.6c0.5,0.4,1.2,0.9,2.1,1.5c1.9,1.4,4.6,3.3,8.1,5.8
									c7.1,5,17.3,12.3,30,21.2c25.4,17.8,60.5,42.4,99.3,69.6c38.8,27.1,73.9,51.7,99.1,69.7c12.6,9,22.8,16.3,29.8,21.4
									c3.5,2.6,6.2,4.6,8,5.9c1.8,1.4,2.7,2.1,2.7,2.2c-0.1,0.1-1.1-0.6-3-1.8c-1.9-1.3-4.7-3.1-8.3-5.6
									c-7.2-4.9-17.5-12.1-30.1-21C378.9,334.5,344.1,309.6,305.6,282.1z"/>
							</g>
						</g>
					</g>
				</g>
			</g>
		</g>
		<g>
			<g>
				<g>
					<g>
						<g>
							<g>
								<path class="st0" d="M298.4,289.9c-33.6-32.9-64-62.7-86-84.3c-11-10.7-20-19.4-26.2-25.4c-3.1-3-5.5-5.3-7.2-6.9
									c-0.8-0.8-1.4-1.3-1.9-1.8c-0.4-0.4-0.7-0.6-0.7-0.6c0,0,0.2,0.2,0.6,0.6c0.4,0.4,1,1,1.8,1.8c1.6,1.6,4,4,7.1,7
									c6.2,6,15.1,14.7,26.2,25.4c22.2,21.4,52.9,50.9,86.8,83.6c33.9,32.6,64.6,62.1,86.7,83.7c11,10.8,19.9,19.5,26,25.6
									c3,3,5.4,5.4,7,7.1c1.6,1.6,2.4,2.5,2.3,2.6c-0.1,0.1-1-0.7-2.7-2.2c-1.7-1.5-4.1-3.8-7.3-6.8c-6.3-5.9-15.3-14.6-26.4-25.3
									C362.4,352.6,332,322.9,298.4,289.9z"/>
							</g>
						</g>
					</g>
				</g>
			</g>
		</g>
		<g>
			<g>
				<g>
					<g>
						<g>
							<g>
								<path class="st0" d="M290.1,296.6c-27.9-37.6-53.1-71.5-71.4-96.2c-9.2-12.2-16.6-22.2-21.8-29c-2.6-3.4-4.6-6-6-7.9
									c-0.7-0.9-1.2-1.5-1.6-2c-0.4-0.5-0.6-0.7-0.6-0.7s0.1,0.3,0.5,0.7c0.4,0.5,0.9,1.2,1.5,2.1c1.4,1.8,3.3,4.5,5.9,7.9
									c5.2,6.9,12.6,16.8,21.8,29.1c18.5,24.5,44,58.2,72.3,95.5c28.2,37.3,53.7,71.1,72.1,95.6c9.2,12.3,16.5,22.3,21.6,29.2
									c2.5,3.5,4.5,6.2,5.7,8c1.3,1.8,1.9,2.8,1.9,2.9c-0.1,0-0.9-0.9-2.3-2.6c-1.4-1.8-3.5-4.4-6.1-7.8
									c-5.2-6.8-12.7-16.7-22-28.9C343.2,368.2,317.9,334.2,290.1,296.6z"/>
							</g>
						</g>
					</g>
				</g>
			</g>
		</g>
		<g>
			<g>
				<g>
					<g>
						<g>
							<g>
								<path class="st0" d="M280.8,302c-21.4-41.3-40.8-78.6-54.8-105.7c-7.1-13.5-12.8-24.4-16.8-32c-2-3.7-3.6-6.6-4.6-8.7
									c-0.5-1-0.9-1.7-1.2-2.2c-0.3-0.5-0.4-0.8-0.5-0.7c0,0,0.1,0.3,0.4,0.8c0.3,0.5,0.6,1.3,1.1,2.3c1,2,2.6,5,4.5,8.7
									c4,7.6,9.7,18.5,16.8,32c14.3,27,34,64.1,55.8,105.2c21.8,41.1,41.5,78.3,55.6,105.3c7.1,13.5,12.7,24.5,16.6,32.1
									c1.9,3.8,3.4,6.8,4.4,8.8c1,2,1.4,3.1,1.4,3.1c-0.1,0-0.7-1-1.8-2.9c-1.1-2-2.7-4.9-4.8-8.6c-4.1-7.5-9.9-18.4-17-31.9
									C321.6,380.6,302.2,343.3,280.8,302z"/>
							</g>
						</g>
					</g>
				</g>
			</g>
		</g>
		<g>
			<g>
				<g>
					<g>
						<g>
							<g>
								<path class="st0" d="M270.7,305.9c-14.4-44-27.4-83.8-36.9-112.7c-4.8-14.4-8.7-26-11.3-34.1c-1.4-4-2.4-7.1-3.2-9.2
									c-0.4-1-0.6-1.8-0.9-2.4c-0.2-0.5-0.3-0.8-0.3-0.8c0,0,0.1,0.3,0.2,0.8c0.2,0.6,0.4,1.4,0.8,2.4c0.7,2.2,1.7,5.3,3,9.3
									c2.7,8.1,6.5,19.7,11.3,34.1c9.7,28.8,23.1,68.5,37.9,112.4c14.8,43.8,28.2,83.6,37.7,112.4c4.8,14.4,8.5,26.1,11.1,34.2
									c1.3,4,2.2,7.2,2.9,9.3c0.6,2.1,0.9,3.3,0.8,3.3c-0.1,0-0.5-1.1-1.3-3.2c-0.8-2.1-1.9-5.2-3.3-9.2c-2.8-8-6.7-19.6-11.6-34
									C298.1,389.7,285.1,349.9,270.7,305.9z"/>
							</g>
						</g>
					</g>
				</g>
			</g>
		</g>
		<g>
			<g>
				<g>
					<g>
						<g>
							<g>
								<path class="st0" d="M260.2,308.2c-7-45.6-13.4-86.9-18-116.9c-2.4-14.9-4.3-27-5.6-35.4c-0.7-4.2-1.2-7.4-1.6-9.6
									c-0.2-1.1-0.3-1.9-0.4-2.5c-0.1-0.6-0.2-0.8-0.2-0.8c0,0,0,0.3,0.1,0.9c0.1,0.6,0.2,1.4,0.3,2.5c0.3,2.2,0.8,5.5,1.4,9.6
									c1.3,8.4,3.2,20.5,5.6,35.4c4.9,29.9,11.6,71.1,19.1,116.7c7.5,45.5,14.2,86.8,18.8,116.7c2.3,14.9,4.2,27,5.4,35.4
									c0.6,4.2,1,7.4,1.3,9.7c0.3,2.2,0.4,3.4,0.3,3.4c-0.1,0-0.4-1.1-0.8-3.3c-0.4-2.2-1-5.4-1.7-9.6c-1.4-8.3-3.4-20.4-5.8-35.4
									C273.5,395.1,267.1,353.8,260.2,308.2z"/>
							</g>
						</g>
					</g>
				</g>
			</g>
		</g>
		<g>
			<g>
				<g>
					<g>
						<g>
							<g>
								<path class="st0" d="M249.3,308.9c0.4-46.1,0.8-87.9,1.1-118.1c0.1-15.1,0.1-27.3,0.2-35.8c0-4.2,0-7.5,0-9.7
									c0-1.1,0-1.9,0-2.5c0-0.6,0-0.9,0-0.9c0,0,0,0.3-0.1,0.9c0,0.6,0,1.4-0.1,2.5c0,2.3-0.1,5.5-0.1,9.7
									c0,8.5-0.1,20.7-0.2,35.8c0,30.3,0,72,0,118.1c0,46.1,0,87.9-0.2,118.1c-0.1,15.1-0.2,27.3-0.4,35.8
									c-0.1,4.2-0.2,7.5-0.3,9.7c-0.1,2.2-0.2,3.4-0.3,3.4c-0.1,0-0.2-1.2-0.2-3.4c-0.1-2.2-0.1-5.5-0.2-9.7
									c-0.1-8.5-0.1-20.7-0.1-35.8C248.5,396.8,248.9,355,249.3,308.9z"/>
							</g>
						</g>
					</g>
				</g>
			</g>
		</g>
		<g>
			<g>
				<g>
					<g>
						<g>
							<g>
								<path class="st0" d="M238.5,308c7.9-45.5,15-86.7,20.2-116.5c2.5-14.9,4.5-27,5.9-35.3c0.7-4.2,1.2-7.4,1.5-9.6
									c0.2-1.1,0.3-1.9,0.4-2.5c0.1-0.6,0.1-0.9,0.1-0.9c0,0-0.1,0.3-0.2,0.8c-0.1,0.6-0.3,1.4-0.5,2.5c-0.4,2.2-1,5.5-1.7,9.6
									c-1.4,8.4-3.4,20.4-6,35.3c-4.9,29.9-11.6,71.1-19.1,116.7c-7.4,45.5-14.2,86.8-19.3,116.6c-2.5,14.9-4.7,27-6.2,35.3
									c-0.8,4.2-1.4,7.4-1.8,9.6c-0.4,2.2-0.7,3.3-0.8,3.3c-0.1,0,0-1.2,0.3-3.4c0.3-2.2,0.8-5.5,1.4-9.6
									c1.3-8.4,3.2-20.4,5.7-35.4C223.5,394.7,230.6,353.5,238.5,308z"/>
							</g>
						</g>
					</g>
				</g>
			</g>
		</g>
		<g>
			<g>
				<g>
					<g>
						<g>
							<g>
								<path class="st0" d="M227.9,305.5c15.2-43.7,29-83.3,39-112c4.9-14.3,8.9-25.9,11.7-34c1.3-4,2.4-7.1,3.1-9.3
									c0.3-1,0.6-1.8,0.8-2.4c0.2-0.5,0.2-0.8,0.2-0.8c0,0-0.1,0.3-0.3,0.8c-0.2,0.6-0.5,1.4-0.9,2.4c-0.8,2.1-1.8,5.2-3.2,9.2
									c-2.8,8.1-6.8,19.7-11.7,34c-9.7,28.8-23.1,68.5-38,112.3c-14.8,43.9-28.2,83.6-38.1,112.2c-5,14.3-9,25.9-11.9,33.9
									c-1.4,4-2.6,7.1-3.4,9.2c-0.8,2.1-1.3,3.2-1.3,3.1c-0.1,0,0.2-1.2,0.9-3.3c0.6-2.1,1.6-5.3,3-9.3
									c2.6-8.1,6.5-19.7,11.4-34.1C198.9,388.8,212.7,349.2,227.9,305.5z"/>
							</g>
						</g>
					</g>
				</g>
			</g>
		</g>
		<g>
			<g>
				<g>
					<g>
						<g>
							<g>
								<path class="st0" d="M218,301.4c22.2-40.9,42.3-77.9,56.9-104.7c7.2-13.4,13-24.3,17.1-31.8c2-3.7,3.5-6.7,4.6-8.7
									c0.5-1,0.9-1.7,1.2-2.3c0.3-0.5,0.4-0.8,0.4-0.8c0,0-0.2,0.2-0.5,0.7c-0.3,0.5-0.7,1.3-1.3,2.2c-1.1,2-2.7,4.9-4.7,8.6
									c-4.1,7.5-9.9,18.4-17.1,31.8c-14.3,26.9-34.1,64.1-55.9,105.2c-21.8,41.1-41.6,78.2-56,105.1
									c-7.2,13.4-13.2,24.2-17.3,31.7c-2.1,3.7-3.7,6.6-4.8,8.6c-1.1,1.9-1.8,2.9-1.8,2.9c-0.1,0,0.4-1.1,1.4-3.1
									c1-2,2.5-5,4.5-8.7c3.9-7.6,9.7-18.5,16.9-31.9C175.7,379.3,195.7,342.3,218,301.4z"/>
							</g>
						</g>
					</g>
				</g>
			</g>
		</g>
		<g>
			<g>
				<g>
					<g>
						<g>
							<g>
								<path class="st0" d="M208.8,295.9c28.6-37,54.4-70.6,73.2-94.9c9.3-12.2,16.8-22,22-28.9c2.6-3.4,4.6-6.1,5.9-7.9
									c0.7-0.9,1.2-1.6,1.5-2.1c0.3-0.5,0.5-0.7,0.5-0.7c0,0-0.2,0.2-0.6,0.7c-0.4,0.5-0.9,1.1-1.6,2c-1.4,1.8-3.4,4.4-6.1,7.8
									c-5.2,6.8-12.8,16.7-22.1,28.8c-18.5,24.5-44.1,58.2-72.3,95.5c-28.2,37.3-53.8,71-72.4,95.4c-9.3,12.2-16.9,22-22.2,28.7
									c-2.7,3.4-4.7,6-6.2,7.7c-1.4,1.7-2.2,2.6-2.3,2.6c-0.1,0,0.6-1,1.9-2.9c1.3-1.8,3.3-4.5,5.8-8c5.1-6.9,12.6-16.8,21.8-29
									C154.3,366.4,180.2,332.9,208.8,295.9z"/>
							</g>
						</g>
					</g>
				</g>
			</g>
		</g>
		<g>
			<g>
				<g>
					<g>
						<g>
							<g>
								<path class="st0" d="M200.6,289c34.2-32.3,65.2-61.6,87.7-82.8c11.1-10.6,20.2-19.2,26.4-25.2c3.1-3,5.5-5.3,7.1-6.9
									c0.8-0.8,1.4-1.4,1.8-1.8c0.4-0.4,0.6-0.6,0.6-0.6c0,0-0.2,0.2-0.7,0.6c-0.5,0.4-1.1,1-1.9,1.7c-1.7,1.6-4.1,3.9-7.2,6.8
									c-6.3,6-15.3,14.6-26.5,25.2c-22.3,21.4-52.9,50.9-86.9,83.5c-33.9,32.6-64.6,62.1-87,83.4c-11.2,10.6-20.3,19.2-26.6,25
									c-3.2,2.9-5.6,5.2-7.3,6.7c-1.7,1.5-2.6,2.3-2.7,2.2c-0.1-0.1,0.7-0.9,2.3-2.6c1.6-1.6,4-4,7-7c6.2-6,15.1-14.7,26.3-25.4
									C135.4,350.6,166.3,321.3,200.6,289z"/>
							</g>
						</g>
					</g>
				</g>
			</g>
		</g>
		<g>
			<g>
				<g>
					<g>
						<g>
							<g>
								<path class="st0" d="M193.6,281c39-26.8,74.4-51.1,100-68.7c12.7-8.8,23-16,30.2-20.9c3.5-2.5,6.3-4.4,8.2-5.8
									c0.9-0.7,1.6-1.2,2.1-1.5c0.5-0.3,0.7-0.5,0.7-0.5c0,0-0.3,0.1-0.8,0.5c-0.5,0.3-1.2,0.8-2.2,1.4c-1.9,1.3-4.7,3.2-8.3,5.6
									c-7.2,5-17.5,12.1-30.2,20.9c-25.4,17.8-60.5,42.4-99.3,69.5c-38.7,27.2-73.9,51.7-99.4,69.3c-12.8,8.8-23.1,15.9-30.3,20.7
									c-3.6,2.4-6.4,4.3-8.3,5.5c-1.9,1.2-3,1.9-3,1.8c-0.1-0.1,0.9-0.8,2.7-2.2c1.8-1.4,4.6-3.3,8.1-5.9
									c7.1-5,17.3-12.3,30.1-21.1C119.2,332.1,154.6,307.8,193.6,281z"/>
							</g>
						</g>
					</g>
				</g>
			</g>
		</g>
		<g>
			<g>
				<g>
					<g>
						<g>
							<g>
								<path class="st0" d="M188,272.1c42.9-20.6,81.8-39.3,109.9-52.8c14-6.8,25.4-12.3,33.2-16.2c3.9-1.9,6.9-3.4,9-4.5
									c1-0.5,1.8-0.9,2.3-1.2c0.5-0.3,0.8-0.4,0.8-0.4c0,0-0.3,0.1-0.8,0.3c-0.6,0.3-1.4,0.6-2.4,1.1c-2.1,1-5.2,2.5-9.1,4.3
									c-7.9,3.8-19.2,9.3-33.2,16.1c-28,13.8-66.7,32.8-109.4,53.7c-42.7,21-81.4,40-109.5,53.5c-14,6.8-25.4,12.2-33.3,15.9
									c-4,1.9-7,3.3-9.1,4.2c-2.1,0.9-3.2,1.4-3.3,1.3c0-0.1,1-0.7,3-1.7c2-1.1,5-2.6,8.9-4.6c7.8-3.9,19.1-9.5,33.1-16.4
									C106.3,311.3,145.1,292.6,188,272.1z"/>
							</g>
						</g>
					</g>
				</g>
			</g>
		</g>
		<g>
			<g>
				<g>
					<g>
						<g>
							<g>
								<path class="st0" d="M183.9,262.4c45.8-13.9,87.2-26.4,117.2-35.5c15-4.6,27.1-8.3,35.5-10.9c4.2-1.3,7.4-2.3,9.6-3
									c1.1-0.4,1.9-0.6,2.5-0.8c0.6-0.2,0.8-0.3,0.8-0.3c0,0-0.3,0.1-0.9,0.2c-0.6,0.2-1.4,0.4-2.5,0.7c-2.2,0.7-5.5,1.6-9.7,2.9
									c-8.4,2.6-20.5,6.3-35.5,10.9c-29.9,9.4-71.2,22.3-116.8,36.5c-45.6,14.3-86.9,27.2-116.9,36.3c-15,4.6-27.1,8.2-35.5,10.7
									c-4.2,1.2-7.5,2.2-9.7,2.8c-2.2,0.6-3.4,0.9-3.4,0.8c0-0.1,1.1-0.5,3.3-1.3c2.2-0.8,5.4-1.8,9.6-3.2
									c8.3-2.7,20.4-6.5,35.4-11.1C96.8,288.8,138.2,276.2,183.9,262.4z"/>
							</g>
						</g>
					</g>
				</g>
			</g>
		</g>
		<g>
			<g>
				<g>
					<g>
						<g>
							<g>
								<path class="st0" d="M181.5,252.2c47.5-6.8,90.4-12.9,121.5-17.3c15.5-2.3,28.1-4.1,36.8-5.4c4.3-0.7,7.7-1.2,10-1.5
									c1.1-0.2,2-0.3,2.6-0.4c0.6-0.1,0.9-0.2,0.9-0.2c0,0-0.3,0-0.9,0.1c-0.6,0.1-1.5,0.2-2.6,0.3c-2.3,0.3-5.7,0.8-10,1.4
									c-8.7,1.3-21.3,3.1-36.8,5.4c-31.1,4.7-74,11.2-121.4,18.4c-47.4,7.2-90.3,13.7-121.4,18.2c-15.5,2.3-28.1,4-36.8,5.2
									c-4.4,0.6-7.7,1-10,1.3c-2.3,0.3-3.5,0.4-3.5,0.3c0-0.1,1.2-0.3,3.5-0.8c2.3-0.4,5.6-1,10-1.7c8.7-1.4,21.2-3.3,36.8-5.6
									C91.1,265.1,134.1,258.9,181.5,252.2z"/>
							</g>
						</g>
					</g>
				</g>
			</g>
		</g>
		<g>
			<g>
				<g>
					<g>
						<g>
							<g>
								<path class="st0" d="M180.8,241.8c48,0.4,91.4,0.7,122.9,1c15.7,0.1,28.4,0.1,37.2,0.1c4.4,0,7.8,0,10.1,0c1.1,0,2,0,2.6,0
									c0.6,0,0.9,0,0.9,0c0,0-0.3,0-0.9-0.1c-0.6,0-1.5,0-2.6-0.1c-2.3,0-5.8-0.1-10.1-0.1c-8.8,0-21.5-0.1-37.2-0.1
									c-31.5,0-74.9,0-122.9,0.1c-48,0.1-91.4,0.1-122.8-0.1c-15.7-0.1-28.4-0.2-37.2-0.4c-4.4-0.1-7.8-0.2-10.1-0.2
									c-2.3-0.1-3.5-0.2-3.5-0.3c0-0.1,1.2-0.2,3.5-0.2c2.3-0.1,5.7-0.1,10.1-0.2C29.5,241,42.2,241,58,241
									C89.4,241,132.8,241.4,180.8,241.8z"/>
							</g>
						</g>
					</g>
				</g>
			</g>
		</g>
		<g>
			<g>
				<g>
					<g>
						<g>
							<g>
								<path class="st0" d="M181.7,231.4c47.3,7.6,90.2,14.4,121.2,19.3c15.5,2.4,28,4.3,36.8,5.7c4.3,0.6,7.7,1.1,10,1.5
									c1.1,0.2,2,0.3,2.6,0.4c0.6,0.1,0.9,0.1,0.9,0.1c0,0-0.3-0.1-0.9-0.2c-0.6-0.1-1.5-0.3-2.6-0.5c-2.3-0.4-5.7-0.9-10-1.6
									c-8.7-1.4-21.3-3.3-36.8-5.7c-31.1-4.7-74-11.1-121.4-18.3c-47.4-7.1-90.3-13.6-121.3-18.5c-15.5-2.4-28.1-4.5-36.7-5.9
									c-4.3-0.7-7.7-1.3-10-1.8c-2.3-0.4-3.5-0.7-3.4-0.8c0-0.1,1.2,0,3.5,0.3c2.3,0.3,5.7,0.7,10,1.3c8.7,1.2,21.3,3.1,36.8,5.5
									C91.6,217,134.4,223.8,181.7,231.4z"/>
							</g>
						</g>
					</g>
				</g>
			</g>
		</g>
		<g>
			<g>
				<g>
					<g>
						<g>
							<g>
								<path class="st0" d="M184.3,221.2c45.5,14.6,86.7,27.9,116.5,37.5c14.9,4.7,27,8.5,35.4,11.2c4.2,1.3,7.4,2.3,9.6,3
									c1.1,0.3,1.9,0.6,2.5,0.7c0.6,0.2,0.9,0.2,0.9,0.2c0,0-0.3-0.1-0.8-0.3c-0.6-0.2-1.4-0.5-2.5-0.8c-2.2-0.7-5.4-1.8-9.6-3.1
									c-8.4-2.7-20.5-6.5-35.4-11.2c-29.9-9.3-71.2-22.2-116.9-36.4c-45.6-14.2-86.9-27.1-116.8-36.6c-14.9-4.8-27-8.7-35.3-11.4
									c-4.2-1.4-7.4-2.5-9.5-3.2c-2.2-0.8-3.3-1.2-3.3-1.3c0-0.1,1.2,0.2,3.4,0.8c2.2,0.6,5.5,1.6,9.7,2.8
									c8.4,2.5,20.5,6.3,35.4,11C97.7,193.4,138.9,206.6,184.3,221.2z"/>
							</g>
						</g>
					</g>
				</g>
			</g>
		</g>
		<g>
			<g>
				<g>
					<g>
						<g>
							<g>
								<path class="st0" d="M188.6,211.6c42.5,21.3,81,40.6,109,54.6c14,6.9,25.3,12.5,33.1,16.4c3.9,1.9,6.9,3.4,9,4.4
									c1,0.5,1.8,0.9,2.4,1.1c0.5,0.2,0.8,0.4,0.8,0.3c0,0-0.3-0.2-0.8-0.4c-0.6-0.3-1.3-0.7-2.3-1.2c-2.1-1.1-5.1-2.6-9-4.5
									c-7.8-3.9-19.1-9.5-33.1-16.4c-28-13.7-66.7-32.7-109.5-53.7c-42.7-20.9-81.4-39.9-109.3-53.8c-14-7-25.2-12.6-33-16.6
									c-3.9-2-6.9-3.6-8.9-4.6c-2-1.1-3.1-1.7-3-1.8c0-0.1,1.2,0.4,3.3,1.3c2.1,1,5.2,2.4,9.1,4.3c7.9,3.8,19.2,9.3,33.2,16.2
									C107.6,171,146.1,190.3,188.6,211.6z"/>
							</g>
						</g>
					</g>
				</g>
			</g>
		</g>
		<g>
			<g>
				<g>
					<g>
						<g>
							<g>
								<path class="st0" d="M194.4,202.8c38.6,27.5,73.4,52.3,98.7,70.3c12.7,8.9,22.9,16.1,30,21.2c3.5,2.5,6.3,4.4,8.2,5.7
									c0.9,0.6,1.6,1.1,2.2,1.5c0.5,0.3,0.7,0.5,0.8,0.5c0,0-0.2-0.2-0.7-0.6c-0.5-0.4-1.2-0.9-2.1-1.5c-1.9-1.4-4.6-3.3-8.1-5.8
									c-7.1-5-17.4-12.3-30-21.2c-25.5-17.8-60.6-42.3-99.4-69.4c-38.8-27.1-73.9-51.6-99.2-69.6c-12.7-9-22.9-16.3-29.9-21.4
									c-3.5-2.5-6.2-4.5-8-5.9c-1.8-1.4-2.7-2.1-2.7-2.2c0.1-0.1,1.1,0.6,3,1.8c1.9,1.3,4.7,3.1,8.3,5.6
									c7.2,4.9,17.5,12.1,30.2,21C120.9,150.5,155.8,175.3,194.4,202.8z"/>
							</g>
						</g>
					</g>
				</g>
			</g>
		</g>
		<g>
			<g>
				<g>
					<g>
						<g>
							<g>
								<path class="st0" d="M201.5,194.9c33.6,32.9,64.1,62.6,86.2,84.2c11.1,10.7,20,19.4,26.2,25.4c3.1,3,5.5,5.3,7.2,6.9
									c0.8,0.8,1.4,1.3,1.9,1.8c0.4,0.4,0.7,0.6,0.7,0.6c0,0-0.2-0.2-0.6-0.6c-0.4-0.4-1-1-1.8-1.8c-1.6-1.6-4-4-7.1-7
									c-6.2-6-15.2-14.7-26.2-25.4c-22.3-21.4-53-50.9-86.9-83.5c-34-32.5-64.7-62.1-86.8-83.6c-11.1-10.7-20-19.5-26.1-25.6
									c-3.1-3-5.4-5.4-7-7.1c-1.6-1.6-2.4-2.5-2.3-2.6c0.1-0.1,1,0.7,2.7,2.2c1.7,1.5,4.1,3.8,7.3,6.8
									c6.3,5.9,15.3,14.5,26.4,25.2C137.4,132.3,167.9,162,201.5,194.9z"/>
							</g>
						</g>
					</g>
				</g>
			</g>
		</g>
		<g>
			<g>
				<g>
					<g>
						<g>
							<g>
								<path class="st0" d="M209.8,188.2c27.9,37.5,53.2,71.5,71.5,96.1c9.2,12.2,16.6,22.1,21.8,29c2.6,3.4,4.6,6,6,7.8
									c0.7,0.9,1.2,1.5,1.6,2c0.4,0.5,0.6,0.7,0.6,0.7c0,0-0.1-0.3-0.5-0.7c-0.4-0.5-0.9-1.2-1.5-2.1c-1.4-1.8-3.3-4.5-5.9-7.9
									c-5.2-6.9-12.6-16.8-21.8-29c-18.5-24.4-44.1-58.2-72.4-95.4c-28.3-37.2-53.8-71-72.2-95.5c-9.2-12.3-16.6-22.2-21.6-29.2
									c-2.5-3.5-4.5-6.2-5.8-8c-1.3-1.8-1.9-2.8-1.9-2.9c0.1,0,0.9,0.9,2.3,2.6c1.4,1.8,3.5,4.4,6.1,7.8
									c5.2,6.8,12.8,16.6,22,28.9C156.6,116.7,181.9,150.7,209.8,188.2z"/>
							</g>
						</g>
					</g>
				</g>
			</g>
		</g>
		<g>
			<g>
				<g>
					<g>
						<g>
							<g>
								<path class="st0" d="M219.1,182.8c21.5,41.3,40.9,78.6,55,105.6c7.1,13.5,12.8,24.4,16.8,31.9c2,3.7,3.6,6.6,4.6,8.6
									c0.5,1,0.9,1.7,1.2,2.2c0.3,0.5,0.4,0.8,0.5,0.7c0,0-0.1-0.3-0.4-0.8c-0.3-0.5-0.7-1.3-1.1-2.3c-1-2-2.6-5-4.5-8.7
									c-4-7.6-9.7-18.5-16.8-31.9c-14.3-26.9-34.1-64.1-56-105.2c-21.9-41-41.6-78.2-55.8-105.2c-7.1-13.5-12.7-24.4-16.6-32
									c-1.9-3.8-3.4-6.8-4.4-8.8c-1-2-1.4-3.1-1.4-3.1c0.1,0,0.7,1,1.8,2.9c1.1,2,2.7,4.8,4.8,8.6c4.1,7.5,9.9,18.4,17,31.8
									C178.2,104.2,197.7,141.6,219.1,182.8z"/>
							</g>
						</g>
					</g>
				</g>
			</g>
		</g>
		<g>
			<g>
				<g>
					<g>
						<g>
							<g>
								<path class="st0" d="M229.2,178.9c14.4,44,27.5,83.8,37,112.6c4.8,14.4,8.7,26,11.4,34.1c1.4,4,2.4,7.1,3.2,9.2
									c0.4,1,0.7,1.8,0.9,2.4c0.2,0.5,0.3,0.8,0.3,0.8c0,0-0.1-0.3-0.2-0.8c-0.2-0.6-0.4-1.4-0.8-2.4c-0.7-2.2-1.7-5.3-3-9.3
									c-2.7-8.1-6.6-19.7-11.4-34.1c-9.8-28.8-23.2-68.5-38.1-112.3c-14.9-43.8-28.3-83.5-37.9-112.3
									c-4.8-14.4-8.6-26.1-11.1-34.2c-1.3-4-2.3-7.2-2.9-9.3c-0.6-2.1-0.9-3.3-0.8-3.3c0.1,0,0.5,1.1,1.3,3.2
									c0.8,2.1,1.9,5.2,3.3,9.2c2.8,8,6.8,19.6,11.6,34C201.7,95.1,214.8,134.9,229.2,178.9z"/>
							</g>
						</g>
					</g>
				</g>
			</g>
		</g>
		<g>
			<g>
				<g>
					<g>
						<g>
							<g>
								<path class="st0" d="M239.8,176.6c7.1,45.6,13.5,86.9,18.1,116.8c2.4,14.9,4.3,27,5.7,35.4c0.7,4.1,1.2,7.4,1.6,9.6
									c0.2,1.1,0.3,1.9,0.5,2.5c0.1,0.6,0.2,0.8,0.2,0.8c0,0,0-0.3-0.1-0.9c-0.1-0.6-0.2-1.4-0.3-2.5c-0.3-2.2-0.8-5.5-1.5-9.6
									c-1.3-8.4-3.3-20.5-5.6-35.4c-4.9-29.9-11.7-71.1-19.2-116.7c-7.5-45.5-14.3-86.8-19-116.7c-2.4-14.9-4.2-27-5.4-35.4
									c-0.6-4.2-1.1-7.4-1.3-9.7c-0.3-2.2-0.4-3.4-0.3-3.4c0.1,0,0.4,1.1,0.8,3.3c0.4,2.2,1,5.4,1.8,9.6
									c1.5,8.3,3.5,20.4,5.9,35.3C226.3,89.7,232.7,131,239.8,176.6z"/>
							</g>
						</g>
					</g>
				</g>
			</g>
		</g>
		<g>
			<g>
				<g>
					<g>
						<g>
							<g>
								<path class="st0" d="M250.6,175.8c-0.4,46.1-0.7,87.9-1,118.1c0,15.1-0.1,27.3-0.1,35.8c0,4.2,0,7.5,0,9.7
									c0,1.1,0,1.9,0,2.5c0,0.6,0,0.9,0.1,0.9c0,0,0-0.3,0.1-0.9c0-0.6,0-1.4,0.1-2.5c0-2.3,0.1-5.5,0.1-9.7
									c0-8.5,0.1-20.7,0.1-35.8c0-30.3-0.1-72-0.2-118.1c-0.1-46.1-0.1-87.9,0.1-118.1c0.1-15.1,0.2-27.3,0.4-35.8
									c0.1-4.2,0.2-7.5,0.2-9.7c0.1-2.2,0.2-3.4,0.3-3.4c0.1,0,0.2,1.2,0.2,3.4c0.1,2.2,0.1,5.5,0.2,9.7
									c0.1,8.5,0.1,20.7,0.1,35.8C251.3,88,251,129.7,250.6,175.8z"/>
							</g>
						</g>
					</g>
				</g>
			</g>
		</g>
		<g>
			<g>
				<g>
					<g>
						<g>
							<g>
								<path class="st0" d="M261.4,176.7c-7.8,45.5-14.9,86.7-20,116.5c-2.5,14.9-4.5,27-5.9,35.3c-0.7,4.2-1.2,7.4-1.5,9.6
									c-0.2,1.1-0.3,1.9-0.4,2.5c-0.1,0.6-0.1,0.9-0.1,0.9c0,0,0.1-0.3,0.2-0.8c0.1-0.6,0.3-1.4,0.5-2.5c0.4-2.2,1-5.5,1.7-9.6
									c1.4-8.4,3.4-20.4,5.9-35.3c4.8-29.9,11.5-71.1,18.9-116.7c7.4-45.6,14.1-86.8,19.1-116.6c2.5-14.9,4.6-27,6.1-35.3
									c0.8-4.2,1.4-7.4,1.8-9.6c0.4-2.2,0.7-3.3,0.8-3.3c0.1,0,0,1.2-0.3,3.4c-0.3,2.2-0.8,5.5-1.4,9.6
									c-1.3,8.4-3.2,20.5-5.7,35.4C276.3,90.1,269.3,131.3,261.4,176.7z"/>
							</g>
						</g>
					</g>
				</g>
			</g>
		</g>
		<g>
			<g>
				<g>
					<g>
						<g>
							<g>
								<path class="st0" d="M272,179.3c-15.2,43.8-28.9,83.4-38.9,112.1c-4.9,14.3-8.9,26-11.6,34c-1.3,4-2.4,7.1-3.1,9.3
									c-0.3,1-0.6,1.8-0.8,2.4c-0.2,0.5-0.2,0.8-0.2,0.8c0,0,0.1-0.3,0.3-0.8c0.2-0.6,0.5-1.4,0.9-2.4c0.8-2.1,1.8-5.2,3.2-9.2
									c2.8-8.1,6.7-19.7,11.6-34c9.7-28.8,23-68.5,37.8-112.4c14.7-43.9,28.1-83.6,38-112.3c4.9-14.3,9-25.9,11.9-33.9
									c1.4-4,2.6-7.1,3.4-9.2c0.8-2.1,1.3-3.2,1.3-3.1c0.1,0-0.2,1.2-0.9,3.3c-0.6,2.1-1.6,5.3-3,9.3c-2.6,8.1-6.5,19.7-11.4,34.1
									C300.9,95.9,287.2,135.5,272,179.3z"/>
							</g>
						</g>
					</g>
				</g>
			</g>
		</g>
		<g>
			<g>
				<g>
					<g>
						<g>
							<g>
								<path class="st0" d="M282,183.3c-22.2,40.9-42.2,77.9-56.7,104.8c-7.2,13.4-13,24.3-17,31.8c-2,3.8-3.5,6.7-4.6,8.7
									c-0.5,1-0.9,1.7-1.2,2.3c-0.3,0.5-0.4,0.8-0.4,0.8c0,0,0.2-0.2,0.5-0.7c0.3-0.5,0.7-1.3,1.3-2.2c1.1-2,2.7-4.9,4.7-8.6
									c4-7.5,9.9-18.4,17.1-31.8c14.3-27,34-64.2,55.7-105.3c21.7-41.1,41.5-78.3,55.9-105.1c7.2-13.4,13.1-24.3,17.3-31.7
									c2.1-3.7,3.7-6.6,4.8-8.6c1.1-1.9,1.8-2.9,1.8-2.9c0.1,0-0.4,1.1-1.4,3.1c-1,2-2.5,5-4.4,8.7c-3.9,7.6-9.7,18.5-16.8,31.9
									C324.2,105.4,304.1,142.5,282,183.3z"/>
							</g>
						</g>
					</g>
				</g>
			</g>
		</g>
		<g>
			<g>
				<g>
					<g>
						<g>
							<g>
								<path class="st0" d="M291.2,188.9c-28.5,37.1-54.4,70.6-73.1,95c-9.3,12.2-16.8,22-22,28.9c-2.6,3.4-4.5,6.1-5.9,7.9
									c-0.7,0.9-1.2,1.6-1.5,2.1c-0.3,0.5-0.5,0.7-0.5,0.7c0,0,0.2-0.2,0.6-0.7c0.4-0.5,0.9-1.1,1.6-2c1.4-1.8,3.4-4.4,6-7.8
									c5.2-6.8,12.7-16.7,22-28.9c18.5-24.5,44-58.3,72.2-95.6c28.1-37.3,53.7-71.1,72.3-95.4c9.3-12.2,16.9-22,22.2-28.7
									c2.6-3.4,4.7-6,6.2-7.7c1.4-1.8,2.2-2.6,2.3-2.6c0.1,0-0.6,1-1.9,2.9c-1.3,1.8-3.3,4.5-5.8,8c-5.1,6.9-12.5,16.8-21.8,29
									C345.5,118.2,319.7,151.8,291.2,188.9z"/>
							</g>
						</g>
					</g>
				</g>
			</g>
		</g>
		<g>
			<g>
				<g>
					<g>
						<g>
							<g>
								<path class="st0" d="M299.4,195.7c-34.2,32.4-65.1,61.7-87.5,82.9c-11.1,10.6-20.1,19.3-26.4,25.2c-3.1,3-5.5,5.3-7.1,6.9
									c-0.8,0.8-1.4,1.4-1.8,1.8c-0.4,0.4-0.6,0.6-0.6,0.6c0,0,0.2-0.2,0.7-0.6c0.5-0.4,1.1-1,1.9-1.7c1.7-1.6,4.1-3.9,7.2-6.8
									c6.3-6,15.3-14.6,26.4-25.2c22.2-21.4,52.9-51,86.8-83.6c33.8-32.7,64.5-62.2,86.9-83.5c11.2-10.6,20.3-19.2,26.6-25.1
									c3.2-2.9,5.6-5.2,7.3-6.7c1.7-1.5,2.6-2.3,2.7-2.2c0.1,0.1-0.7,0.9-2.3,2.6c-1.6,1.6-4,4-7,7c-6.1,6-15.1,14.7-26.2,25.4
									C364.5,134.1,333.6,163.4,299.4,195.7z"/>
							</g>
						</g>
					</g>
				</g>
			</g>
		</g>
		<g>
			<g>
				<g>
					<g>
						<g>
							<g>
								<path class="st0" d="M306.3,203.7c-39,26.9-74.3,51.2-99.9,68.8c-12.7,8.8-23,16-30.2,21c-3.5,2.5-6.3,4.4-8.2,5.8
									c-0.9,0.7-1.6,1.2-2.1,1.5c-0.5,0.3-0.7,0.5-0.7,0.5c0,0,0.3-0.1,0.8-0.5c0.5-0.3,1.2-0.8,2.2-1.4c1.9-1.3,4.7-3.2,8.2-5.6
									c7.2-5,17.5-12.1,30.2-21c25.4-17.8,60.5-42.5,99.2-69.7c38.7-27.2,73.8-51.8,99.3-69.5c12.8-8.8,23.1-15.9,30.3-20.8
									c3.6-2.4,6.4-4.3,8.3-5.5c1.9-1.2,3-1.9,3-1.8c0.1,0.1-0.9,0.8-2.7,2.2s-4.6,3.3-8.1,5.9c-7.1,5.1-17.3,12.3-30,21.2
									C380.6,152.6,345.4,176.9,306.3,203.7z"/>
							</g>
						</g>
					</g>
				</g>
			</g>
		</g>
		<g>
			<g>
				<g>
					<g>
						<g>
							<g>
								<path class="st0" d="M312,212.7c-42.9,20.7-81.7,39.4-109.9,52.9c-14,6.8-25.3,12.4-33.2,16.2c-3.9,1.9-6.9,3.4-9,4.5
									c-1,0.5-1.8,0.9-2.3,1.2c-0.5,0.3-0.8,0.4-0.8,0.4c0,0,0.3-0.1,0.8-0.3c0.6-0.3,1.4-0.6,2.4-1.1c2.1-1,5.2-2.5,9.1-4.3
									c7.9-3.8,19.2-9.4,33.2-16.2c28-13.8,66.6-32.8,109.3-53.9C354.3,191,392.9,172,421,158.4c14-6.8,25.4-12.3,33.3-16
									c3.9-1.9,7-3.3,9.1-4.2c2.1-0.9,3.2-1.4,3.3-1.3c0,0.1-1,0.7-3,1.8c-2,1.1-5,2.6-8.9,4.6c-7.8,3.9-19.1,9.5-33.1,16.4
									C393.7,173.3,354.8,192,312,212.7z"/>
							</g>
						</g>
					</g>
				</g>
			</g>
		</g>
		<g>
			<g>
				<g>
					<g>
						<g>
							<g>
								<path class="st0" d="M316,222.3c-45.7,13.9-87.1,26.5-117.1,35.6c-14.9,4.6-27,8.4-35.4,11c-4.2,1.3-7.4,2.3-9.6,3.1
									c-1.1,0.4-1.9,0.6-2.5,0.8c-0.6,0.2-0.8,0.3-0.8,0.3c0,0,0.3-0.1,0.9-0.2c0.6-0.2,1.4-0.4,2.5-0.7c2.2-0.7,5.5-1.7,9.7-2.9
									c8.4-2.6,20.5-6.3,35.5-10.9c29.9-9.4,71.2-22.4,116.8-36.7c45.6-14.3,86.9-27.3,116.8-36.5c15-4.6,27.1-8.3,35.5-10.7
									c4.2-1.2,7.5-2.2,9.7-2.8c2.2-0.6,3.4-0.9,3.4-0.8c0,0.1-1.1,0.5-3.3,1.3c-2.2,0.8-5.4,1.8-9.6,3.2
									c-8.3,2.7-20.4,6.5-35.4,11.2C403.2,195.8,361.8,208.5,316,222.3z"/>
							</g>
						</g>
					</g>
				</g>
			</g>
		</g>
		<g>
			<g>
				<g>
					<g>
						<g>
							<g>
								<path class="st0" d="M318.5,232.5c-47.5,6.8-90.4,13-121.5,17.5c-15.5,2.3-28.1,4.2-36.8,5.5c-4.3,0.7-7.7,1.2-10,1.6
									c-1.1,0.2-2,0.3-2.6,0.4c-0.6,0.1-0.9,0.2-0.9,0.2c0,0,0.3,0,0.9-0.1c0.6-0.1,1.5-0.2,2.6-0.3c2.3-0.3,5.7-0.8,10-1.4
									c8.7-1.3,21.3-3.2,36.8-5.4c31.1-4.8,74-11.3,121.3-18.5c47.4-7.3,90.2-13.8,121.3-18.3c15.5-2.3,28.1-4.1,36.8-5.2
									c4.4-0.6,7.7-1,10-1.3c2.3-0.3,3.5-0.4,3.5-0.3c0,0.1-1.2,0.3-3.5,0.8c-2.3,0.4-5.6,1-10,1.7c-8.7,1.4-21.2,3.4-36.8,5.7
									C408.8,219.5,365.9,225.7,318.5,232.5z"/>
							</g>
						</g>
					</g>
				</g>
			</g>
		</g>
	</g>
	<g>
		<g>
			<g>
				<g>
					<g>
						<path class="st1" d="M43.8,241.6c28.7-15.5,57.2-6.8,57.2-6.8C80.6,253.4,43.8,241.6,43.8,241.6z"/>
					</g>
				</g>
			</g>
		</g>
		<g>
			<g>
				<g>
					<g>
						<path class="st1" d="M134.6,213.6c5.6,19.2-3.3,36.3-3.3,36.3C122.6,235.5,134.6,213.6,134.6,213.6z"/>
					</g>
				</g>
			</g>
		</g>
		<g>
			<g>
				<g>
					<g>
						<path class="st1" d="M131.4,258.9c-21.3,11.1-43.5,4.5-43.5,4.5C102.8,250,131.4,258.9,131.4,258.9z"/>
					</g>
				</g>
			</g>
		</g>
		<g>
			<g>
				<g>
					<g>
						<g>
							<path class="st1" d="M86.7,217.6c0.3-0.3,14.1,10.2,30.9,23.6c16.8,13.4,30.1,24.5,29.8,24.9c-0.3,0.3-14.1-10.2-30.9-23.6
								C99.7,229,86.4,217.9,86.7,217.6z"/>
						</g>
					</g>
				</g>
			</g>
		</g>
		<g>
			<g>
				<g>
					<g>
						<path class="st1" d="M42.3,191c0,0,37.1,2,50.7,32.3C93,223.3,61.3,222,42.3,191z"/>
					</g>
				</g>
			</g>
		</g>
		<g>
			<g>
				<g>
					<g>
						<path class="st1" d="M94,179.8c0,0,28.6,23.7,21.4,56.2C115.4,235.9,90.7,216,94,179.8z"/>
					</g>
				</g>
			</g>
		</g>
	</g>
	<g>
		<g>
			<g>
				<g>
					<g>
						<path class="st1" d="M431.5,407.3c-26.9-13.7-53.1-5-53.1-5C397.7,419,431.5,407.3,431.5,407.3z"/>
					</g>
				</g>
			</g>
		</g>
		<g>
			<g>
				<g>
					<g>
						<path class="st1" d="M346.9,383.3c-4.8,17.9,3.9,33.5,3.9,33.5C358.4,403.4,346.9,383.3,346.9,383.3z"/>
					</g>
				</g>
			</g>
		</g>
		<g>
			<g>
				<g>
					<g>
						<path class="st1" d="M350.8,425.1c20,9.8,40.3,3.3,40.3,3.3C377.1,416.3,350.8,425.1,350.8,425.1z"/>
					</g>
				</g>
			</g>
		</g>
		<g>
			<g>
				<g>
					<g>
						<g>
							<path class="st1" d="M391.3,386c-0.3-0.3-12.8,9.8-28.1,22.5c-15.2,12.7-27.4,23.3-27.1,23.6c0.3,0.3,12.8-9.8,28.1-22.5
								C379.5,396.9,391.6,386.3,391.3,386z"/>
						</g>
					</g>
				</g>
			</g>
		</g>
		<g>
			<g>
				<g>
					<g>
						<path class="st1" d="M431.9,360.4c0,0-34.3,2.6-46.3,31C385.6,391.4,414.9,389.6,431.9,360.4z"/>
					</g>
				</g>
			</g>
		</g>
		<g>
			<g>
				<g>
					<g>
						<path class="st1" d="M383.7,351.1c0,0-26,22.6-18.7,52.5C365.1,403.6,387.5,384.6,383.7,351.1z"/>
					</g>
				</g>
			</g>
		</g>
	</g>
	<g>
		<g>
			<g>
				<g>
					<g>
						<path class="st1" d="M381.4,79c-27.5-2.6-46.9,13.6-46.9,13.6C356.6,100.3,381.4,79,381.4,79z"/>
					</g>
				</g>
			</g>
		</g>
		<g>
			<g>
				<g>
					<g>
						<path class="st1" d="M301.3,86.9c1.9,16.9,14.6,27.2,14.6,27.2C317.9,100.2,301.3,86.9,301.3,86.9z"/>
					</g>
				</g>
			</g>
		</g>
		<g>
			<g>
				<g>
					<g>
						<path class="st1" d="M318.7,121.3c20.3,1.6,35.5-10.8,35.5-10.8C338.1,105,318.7,121.3,318.7,121.3z"/>
					</g>
				</g>
			</g>
		</g>
		<g>
			<g>
				<g>
					<g>
						<g>
							<path class="st1" d="M340.1,74.3c-0.3-0.2-7.6,12.6-16.3,28.6c-8.7,16-15.5,29.1-15.1,29.3c0.3,0.2,7.6-12.6,16.3-28.6
								C333.6,87.6,340.4,74.5,340.1,74.3z"/>
						</g>
					</g>
				</g>
			</g>
		</g>
		<g>
			<g>
				<g>
					<g>
						<path class="st1" d="M366,38.9c0,0-28.4,13.8-29,42C337,80.8,361.4,69.4,366,38.9z"/>
					</g>
				</g>
			</g>
		</g>
		<g>
			<g>
				<g>
					<g>
						<path class="st1" d="M321.9,47.2c0,0-14.6,28,1.7,51C323.6,98.1,336.4,74.4,321.9,47.2z"/>
					</g>
				</g>
			</g>
		</g>
	</g>
</g>
<g id="Background_Simple" class="st2">
	<g class="st3">
		<path class="st4" d="M404.1,103.1l-2.2-3.6c-18.3-30.1-51.4-48.3-86.2-46.1c-4.5,0.3-8.9,0.9-13.3,1.8
			C270.6,62,243,86,231.6,116.7c-6.7,18.1-8.6,38.9-21.4,53.2c-16.6,18.7-44.8,19.2-69.6,18.5c-24.8-0.8-53-0.1-69.5,18.6
			c-10.4,11.7-13.6,28.4-12.8,44.1c2.2,41.6,31.2,78.8,68,97.3c36.9,18.5,80.2,20.1,120.6,12c56.5-11.4,110.2-42.7,142.5-91
			S429.9,155.2,404.1,103.1z"/>
	</g>
	<g class="st3">
		<circle class="st4" cx="405.9" cy="343.5" r="34.1"/>
	</g>
	<g class="st3">
		<circle class="st4" cx="107.5" cy="90.8" r="34.1"/>
	</g>
</g>
<g id="Table">
	<g>
		<g>
			<path class="st5" d="M469.3,476.6c0,0.1-98.2,0.3-219.3,0.3c-121.2,0-219.4-0.1-219.4-0.3c0-0.1,98.2-0.3,219.4-0.3
				C371.1,476.3,469.3,476.4,469.3,476.6z"/>
		</g>
	</g>
</g>
<g id="Character_1_">
	<g>
		<g>
			<g>
				<g>
					<g>
						<g>
							<g>
								<g>
									<path class="st5" d="M270,100.1c11.1-0.2,21.6,16.9,20.5,26.8c-0.5,4.8-2.2,10.4,1.6,13.8c3.8,3.4,11.4,2.8,15,6.2
										c0,0,4.7,4.5,4.5,10.5c-0.1,6.1,1.3,14,5.9,16l-21.9,9.5c-2.5-2.4-3.6-6.3-6.1-8.7c2.8,2.5,5.9,11.7-6,13.2l-7.9-6.7
										c-20.1,6.4-41.1,14.2-58,5.5"/>
								</g>
							</g>
						</g>
					</g>
					<g>
						<g>
							<g>
								<g>
									<path class="st5" d="M166.4,157.2c1.3-4.6,3.7-8.9,4.6-13.6c1.8-10.1-3.4-21.3,1.2-30.6c3.3-6.6,10.6-10,17.5-12.4
										c6.9-2.4,13.6-3.9,18.7-9.2c3.7-3.9,5.7-9.2,9.4-13.1c5.3-5.6,13.3-7.7,20.9-8.4c7.8-0.7,16-0.2,23.2,3
										c7.2,3.2,13.3,9.6,14.8,17.3c0.7,3.8,0.4,7.8,1.7,11.4c1.4,4,4.7,7,6.8,10.7c4.4,7.8,2.5,18.5-4.3,24.4L229,208
										c-11.2,4.6-24.3-9.2-33.4-17.3C186.6,182.7,163,168.8,166.4,157.2z"/>
								</g>
							</g>
						</g>
					</g>
					<g>
						<g>
							<path class="st6" d="M279,127.8c-2.7-15.7-15.4-34.1-31-30.7l-48,17.9c-4.7,1-7.1,5-4.2,3.8l15.6,114.4l33.6,22.8l19.4-28.6
								c-0.9-9.6-1.3-16.5-1.3-16.5s20-3.8,21.3-30.7C285.1,166.8,282,145.3,279,127.8z"/>
						</g>
					</g>
					<g>
						<g>
							<g>
								<g>
									<g>
										<g>
											<g>
												<g>
													<g>
														<g>
															<g>
																<g>
																	<g>
																		<g>
																			<g>
																				<g>
																					<g>
																						<g>
																							<g>
																								<g>
																									<g>
																										<g>
																											<g>
																												<path class="st5" d="M238.2,155c0.3,1.8-1,3.5-2.9,3.8c-1.9,0.3-3.6-0.9-3.8-2.7
																													c-0.3-1.8,1-3.5,2.9-3.8C236.2,152.1,237.9,153.3,238.2,155z"/>
																											</g>
																										</g>
																									</g>
																								</g>
																							</g>
																						</g>
																					</g>
																				</g>
																			</g>
																		</g>
																	</g>
																</g>
															</g>
														</g>
													</g>
												</g>
											</g>
											<g>
												<g>
													<g>
														<g>
															<g>
																<g>
																	<g>
																		<g>
																			<g>
																				<g>
																					<g>
																						<g>
																							<g>
																								<g>
																									<g>
																										<g>
																											<g>
																												<path class="st5" d="M271.7,151.8c0.3,1.8-1,3.5-2.9,3.8c-1.9,0.3-3.6-0.9-3.8-2.7
																													c-0.3-1.8,1-3.5,2.9-3.8C269.8,148.8,271.5,150,271.7,151.8z"/>
																											</g>
																										</g>
																									</g>
																								</g>
																							</g>
																						</g>
																					</g>
																				</g>
																			</g>
																		</g>
																	</g>
																</g>
															</g>
														</g>
													</g>
												</g>
											</g>
											<g>
												<g>
													<g>
														<g>
															<g>
																<g>
																	<g>
																		<g>
																			<g>
																				<g>
																					<g>
																						<g>
																							<g>
																								<g>
																									<g>
																										<g>
																											<g>
																												<g>
																													<path class="st5" d="M276.5,140.1c-0.3,0.6-3.6-1.3-7.5-0.6c-3.9,0.6-6.4,3.5-6.9,3
																														c-0.3-0.2,0-1.3,1.1-2.6c1-1.3,3-2.7,5.4-3.1c2.5-0.4,4.7,0.3,6.1,1.1
																														C276.1,138.9,276.7,139.8,276.5,140.1z"/>
																												</g>
																											</g>
																										</g>
																									</g>
																								</g>
																							</g>
																						</g>
																					</g>
																				</g>
																			</g>
																		</g>
																	</g>
																</g>
															</g>
														</g>
													</g>
												</g>
											</g>
										</g>
										<g>
											<g>
												<g>
													<g>
														<g>
															<g>
																<g>
																	<g>
																		<g>
																			<g>
																				<g>
																					<g>
																						<g>
																							<g>
																								<g>
																									<g>
																										<g>
																											<g>
																												<g>
																													<path class="st5" d="M240.4,145.3c-0.4,0.6-3.6-1.6-7.9-1.3c-4.3,0.3-7.2,2.8-7.7,2.3
																														c-0.2-0.2,0.2-1.3,1.5-2.4c1.3-1.2,3.5-2.3,6.1-2.5c2.7-0.2,5,0.7,6.3,1.7
																														C240.1,144,240.6,145,240.4,145.3z"/>
																												</g>
																											</g>
																										</g>
																									</g>
																								</g>
																							</g>
																						</g>
																					</g>
																				</g>
																			</g>
																		</g>
																	</g>
																</g>
															</g>
														</g>
													</g>
												</g>
											</g>
										</g>
										<g>
											<g>
												<g>
													<g>
														<g>
															<g>
																<g>
																	<g>
																		<g>
																			<g>
																				<g>
																					<g>
																						<g>
																							<g>
																								<g>
																									<g>
																										<g>
																											<g>
																												<g>
																													<path class="st5" d="M256,169.8c0-0.2,2.2-0.8,5.8-1.7c0.9-0.2,1.8-0.5,1.9-1.1
																														c0.1-0.7-0.4-1.7-0.9-2.7c-1.1-2.2-2.3-4.4-3.5-6.8c-4.9-9.7-8.6-17.7-8.2-17.9
																														c0.4-0.2,4.7,7.5,9.6,17.2c1.2,2.4,2.3,4.7,3.4,6.8c0.5,1,1.2,2.2,0.9,3.6c-0.2,0.7-0.8,1.3-1.4,1.5
																														c-0.6,0.2-1.1,0.3-1.6,0.4C258.3,169.7,256,170,256,169.8z"/>
																												</g>
																											</g>
																										</g>
																									</g>
																								</g>
																							</g>
																						</g>
																					</g>
																				</g>
																			</g>
																		</g>
																	</g>
																</g>
															</g>
														</g>
													</g>
												</g>
											</g>
										</g>
										<g>
											<g>
												<g>
													<g>
														<g>
															<g>
																<g>
																	<g>
																		<g>
																			<g>
																				<g>
																					<g>
																						<g>
																							<g>
																								<g>
																									<g>
																										<g>
																											<g>
																												<path class="st7" d="M263.2,211c0,0-17.7,3.1-36.4-5.6c0,0,10.7,18.8,36.8,13.4L263.2,211z"/>
																											</g>
																										</g>
																									</g>
																								</g>
																							</g>
																						</g>
																					</g>
																				</g>
																			</g>
																		</g>
																	</g>
																</g>
															</g>
														</g>
													</g>
												</g>
											</g>
										</g>
									</g>
								</g>
							</g>
							<g>
								<g>
									<g>
										<g>
											<g>
												<g>
													<g>
														<g>
															<g>
																<g>
																	<g>
																		<g>
																			<g>
																				<g>
																					<g>
																						<g>
																							<g>
																								<g>
																									<path class="st5" d="M239.6,132.8c-0.3,1-3.9,1-8.2,1.9c-4.2,0.9-7.6,2.5-8.2,1.7
																										c-0.3-0.4,0.2-1.4,1.5-2.5c1.3-1.1,3.4-2.3,5.9-2.8c2.5-0.6,4.9-0.4,6.6,0.1
																										C238.9,131.6,239.7,132.3,239.6,132.8z"/>
																								</g>
																							</g>
																						</g>
																					</g>
																				</g>
																			</g>
																		</g>
																	</g>
																</g>
															</g>
														</g>
													</g>
												</g>
											</g>
										</g>
									</g>
								</g>
							</g>
							<g>
								<g>
									<g>
										<g>
											<g>
												<g>
													<g>
														<g>
															<g>
																<g>
																	<g>
																		<g>
																			<g>
																				<g>
																					<g>
																						<g>
																							<g>
																								<g>
																									<path class="st5" d="M274.7,127c-0.6,0.9-3.6,0.4-7.1,0.7c-3.5,0.2-6.3,1.3-7.1,0.5
																										c-0.3-0.4,0-1.3,1.2-2.2c1.2-0.9,3.2-1.8,5.6-2c2.4-0.2,4.5,0.3,5.8,1.1C274.5,125.7,275,126.5,274.7,127z
																										"/>
																								</g>
																							</g>
																						</g>
																					</g>
																				</g>
																			</g>
																		</g>
																	</g>
																</g>
															</g>
														</g>
													</g>
												</g>
											</g>
										</g>
									</g>
								</g>
							</g>
						</g>
					</g>
					<g>
						<g>
							<g>
								<g>
									<path class="st5" d="M150.4,152.9c2.3-4.8-2.8-9.7,0.8-14.1c3.3-4.1,12.5-4.7,15.6-8.8c2.4-3.2,2.5-4.1,2.4-7
										c-0.1-3.6,0.8-19,23-23.2l3.8,13.7c1.4-0.7,2.8-1.4,4.2-2c17.8-7.6,36.6-13,55.7-16.1c2.5,3.9,0.5,9.3-3,12.3
										c-3.5,3-8.1,4.3-12.4,6c-4.3,1.8-8.6,4.4-10.3,8.7c-1.7,4.6,0,9.9-1.5,14.6c-2.6,8-13.6,10.9-16.2,19
										c-1.9,6.1,1.8,12.4,2.8,18.7c1.2,7.1-1.2,14.8-6.3,19.9c-4,4.1-1.4,12.2-1.4,12.2l-71.6-36.6
										C132.3,162,147.3,159.4,150.4,152.9z"/>
								</g>
							</g>
						</g>
					</g>
				</g>
				<g>
					<g>
						<g>
							<g>
								<g>
									<path class="st8" d="M165,185.5c0,0,0-0.1-0.2-0.4c-0.1-0.3-0.3-0.6-0.5-1.2c-0.4-1-0.7-2.7-0.4-4.8
										c0.3-2.1,1.2-4.7,3.3-6.8c1-1.1,2.4-2,4-2.5c1.6-0.5,3.4-0.8,5.2-1.5c0.9-0.4,1.8-0.9,2.5-1.6c0.7-0.7,1.2-1.7,1.6-2.7
										c0.7-2,0.7-4.3,0.4-6.5c-0.2-2.2-0.6-4.5-0.4-6.9c0.1-1.2,0.4-2.3,1-3.4c0.6-1,1.4-2,2.4-2.7c2-1.4,4.5-2.2,7-2.9
										c2.5-0.8,5.2-1.5,7.5-3.2c1.1-0.8,2.1-2,2.7-3.2c0.7-1.3,1-2.7,1.2-4.1c0.4-2.8,0.3-5.7,0.6-8.6c0.7-5.7,4.7-10.6,9.7-12.7
										c2.5-1.1,5.2-1.3,7.8-1.7c1.3-0.2,2.6-0.4,3.9-0.9c1.2-0.5,2.4-1.2,3.3-2.2c1.8-2,2.3-4.5,3-6.8c0.6-2.3,1.7-4.3,3.1-6
										c2.9-3.4,6.7-5.4,10.5-6c3.7-0.6,7.2,0.2,9.9,1.6c2.7,1.4,4.6,3.3,5.9,4.9c1.3,1.7,2,3.2,2.4,4.3c0.2,0.5,0.3,0.9,0.4,1.2
										c0.1,0.3,0.1,0.4,0.1,0.4c0,0-0.1-0.6-0.5-1.7c-0.3-1.1-1-2.6-2.3-4.3c-1.3-1.7-3.2-3.6-5.9-5.1c-2.7-1.4-6.2-2.4-10.1-1.7
										c-3.8,0.6-7.8,2.6-10.7,6.1c-1.4,1.7-2.6,3.9-3.2,6.2c-0.7,2.3-1.2,4.8-2.9,6.6c-1.7,1.9-4.3,2.5-6.8,2.9
										c-2.6,0.4-5.4,0.6-7.9,1.7c-5.1,2.2-9.2,7.2-10,13.2c-0.4,2.9-0.3,5.8-0.6,8.6c-0.2,1.4-0.5,2.7-1.1,4
										c-0.6,1.2-1.5,2.3-2.6,3c-4.4,3.2-10.2,3.1-14.5,6.2c-1.1,0.7-1.9,1.8-2.5,2.9c-0.6,1.1-0.9,2.4-1,3.6
										c-0.2,2.4,0.2,4.8,0.5,7c0.2,2.2,0.2,4.4-0.4,6.3c-0.3,1-0.8,1.8-1.5,2.5c-0.7,0.7-1.5,1.2-2.4,1.6c-1.7,0.7-3.6,1-5.2,1.5
										c-1.7,0.6-3.1,1.5-4.1,2.6c-2.1,2.2-3,4.9-3.3,7c-0.2,2.1,0.1,3.8,0.5,4.9c0.2,0.5,0.4,0.9,0.5,1.2
										C164.9,185.4,165,185.5,165,185.5z"/>
								</g>
							</g>
						</g>
					</g>
				</g>
			</g>
			<g>
				<g>
					<path class="st7" d="M254.9,176.9c-3.6-0.8-8.2-1.9-11.9-2.7c-1.5,3-0.8,7,1.6,9.4c2.4,2.4,6.4,3,9.4,1.5"/>
				</g>
				<g>
					<g>
						<path class="st5" d="M254,185c0,0.1-0.3,0.4-1.1,0.7c-0.8,0.3-2,0.6-3.6,0.5c-1.5-0.1-3.4-0.7-4.9-2.2c-1.5-1.4-2.6-3.6-2.6-6
							c0-1.4,0.3-2.8,0.9-4l0.2-0.4l0.4,0.1c3.5,0.8,6.5,1.5,8.7,2c2.2,0.5,3.4,0.9,3.4,1.1c0,0.1-1.3,0-3.5-0.4
							c-2.2-0.4-5.2-1-8.7-1.7l0.6-0.3c-0.5,1-0.8,2.3-0.7,3.5c0.1,2.1,1,4.1,2.3,5.4c1.3,1.3,3,1.9,4.3,2.1
							c1.4,0.2,2.6,0.1,3.4-0.1C253.5,185.1,254,185,254,185z"/>
					</g>
				</g>
			</g>
		</g>
		<g>
			<g>
				<g>
					<path class="st6" d="M128.8,304.3c-0.4,2.7-17.8,53-23.8,87.3c-1.8,10.6,2.9,17.1,4.9,20c5.8,8.6,34.8,30.9,34.8,30.9l13.6,8.5
						c2.4-10.3,8.8-16,8.4-24.3c0,0-6.1-4-10.4-15.3c-4.5-11.6-11.5-18.9-11.5-18.9l26.7-72.3L128.8,304.3z"/>
				</g>
				<g>
					<path class="st8" d="M175.3,236.3l34.9-12.2l0,0c5.7,10.8,14,17,26.7,16.9c13.5-0.1,21-6.7,27.6-18.2l6.6,1.3l43.3,8.8
						l6.5,81.1l-6,75l13.9,74.7c-54.7,6.8-105.2,8.2-160.4,0.8l8.5-70.3L159.3,242L175.3,236.3z"/>
				</g>
				<g>
					<path class="st8" d="M162.3,243l-2.9-1c0,0-16.8,8-29.8,44.1c-11.8,32.8-19.7,48.9-19.7,48.9l55.1,20.2l11.4-49.7L162.3,243z"
						/>
				</g>
				<g>
					<g>
						<path class="st7" d="M144.7,393.2c-0.1,0.2-1.5-0.3-3.8-0.5c-2.3-0.3-5.6-0.2-9,0.7c-3.4,1-6.2,2.7-7.9,4.1
							c-1.8,1.4-2.7,2.5-2.9,2.4c-0.1-0.1,0.6-1.4,2.3-3c1.7-1.6,4.5-3.6,8.2-4.6c3.6-1,7.1-0.9,9.5-0.5
							C143.4,392.4,144.7,393,144.7,393.2z"/>
					</g>
				</g>
			</g>
			<g>
				<path class="st8" d="M314.4,233L314.4,233c3.6,1.6,11,6,14.6,10.1l38.1,38.2l-31.3,55.1l-25.2-19.6L314.4,233z"/>
			</g>
			<g>
				<g>
					<path class="st5" d="M323.2,277.2c0,0,0,0.1,0,0.3c0,0.2,0,0.5,0,0.9c-0.1,0.8-0.1,1.9-0.2,3.3c-0.2,2.9-0.5,7-0.9,12.1
						c-0.8,10.2-2,24.4-3.4,40c-1.3,15.6-2.5,29.8-3.2,40c-0.4,5.1-0.7,9.2-0.9,12.1c-0.1,1.4-0.2,2.5-0.2,3.3
						c0,0.4-0.1,0.6-0.1,0.9c0,0.2,0,0.3,0,0.3c0,0,0-0.1,0-0.3c0-0.2,0-0.5,0-0.9c0-0.8,0.1-1.9,0.2-3.3c0.1-2.9,0.4-7,0.7-12.1
						c0.6-10.3,1.7-24.4,3-40c1.4-15.6,2.6-29.7,3.5-40c0.4-5.1,0.8-9.2,1.1-12.1c0.1-1.4,0.2-2.5,0.3-3.3c0-0.4,0.1-0.6,0.1-0.9
						C323.2,277.3,323.2,277.2,323.2,277.2z"/>
				</g>
			</g>
			<g>
				<g>
					<path class="st5" d="M163.9,281.4c0,0,0,0.1,0.1,0.2c0,0.2,0.1,0.4,0.1,0.7c0.1,0.6,0.2,1.5,0.4,2.6c0.3,2.3,0.8,5.5,1.3,9.6
						c1,8.1,2.3,19.4,3.6,31.8c1.3,12.4,2.5,23.6,3.3,31.8c0.4,4,0.8,7.3,1,9.6c0.1,1.1,0.2,2,0.3,2.6c0,0.3,0,0.5,0.1,0.7
						c0,0.2,0,0.2,0,0.2s0-0.1-0.1-0.2c0-0.2-0.1-0.4-0.1-0.7c-0.1-0.6-0.2-1.5-0.4-2.6c-0.3-2.3-0.7-5.6-1.2-9.6
						c-1-8.1-2.2-19.4-3.5-31.8c-1.3-12.4-2.5-23.7-3.5-31.8c-0.5-4-0.8-7.3-1.1-9.6c-0.1-1.1-0.2-2-0.3-2.6c0-0.3,0-0.5-0.1-0.7
						C163.9,281.5,163.9,281.4,163.9,281.4z"/>
				</g>
			</g>
			<g>
				<g>
					<path class="st5" d="M271.1,224.1c0,0-0.1,0.3-0.2,0.9c-0.2,0.6-0.5,1.4-0.9,2.4c-0.8,2-2.3,4.9-4.7,8c-2.4,3.1-5.9,6.4-10.4,9
						c-4.5,2.6-10.2,4.3-16.2,4.6c-6,0.2-11.8-1.1-16.5-3.4c-4.7-2.3-8.4-5.3-11.1-8.2c-2.6-2.9-4.3-5.7-5.3-7.7
						c-0.5-1-0.8-1.8-1-2.3c-0.2-0.5-0.3-0.8-0.3-0.8c0,0,0.2,0.3,0.4,0.8c0.2,0.5,0.6,1.3,1.1,2.3c1,1.9,2.7,4.6,5.4,7.5
						c2.7,2.8,6.3,5.9,11,8.1c4.7,2.2,10.3,3.5,16.3,3.3c6-0.2,11.5-1.9,16-4.5c4.5-2.5,7.9-5.8,10.4-8.8c2.4-3.1,3.9-5.9,4.8-7.9
						c0.4-1,0.8-1.8,1-2.3C271,224.4,271.1,224.1,271.1,224.1z"/>
				</g>
			</g>
			<g>
				<g>
					<path class="st5" d="M162.3,279.6c-0.1,0.1-5.1-3.1-11.3-7.2c-6.2-4.1-11.1-7.6-11-7.7c0.1-0.1,5.1,3.1,11.3,7.2
						C157.4,276,162.4,279.5,162.3,279.6z"/>
				</g>
			</g>
			<g>
				<g>
					<path class="st5" d="M336.9,256c0.1,0.1-2.2,4.2-5.3,9.2c-3,5-5.6,9-5.7,8.9c-0.1-0.1,2.2-4.2,5.3-9.2
						C334.3,260,336.8,256,336.9,256z"/>
				</g>
			</g>
		</g>
		<g>
			<g class="st9">
				
					<ellipse transform="matrix(0.2267 -0.974 0.974 0.2267 -113.2447 476.6012)" class="st10" cx="243.5" cy="309.6" rx="31.7" ry="31.7"/>
			</g>
			<g>
				<g>
					<g>
						<g>
							<g>
								<g>
									<g>
										<g>
											<g>
												<path class="st11" d="M263.8,308c0-11.3-9.2-20.4-20.4-20.4c-11.3,0-20.4,9.2-20.4,20.4c0,8.2,4.8,15.2,11.7,18.5
													c0,2.4,0,5.2,0,5.2h17.9c0,0,0.1-2.9,0.1-5.5C259.3,322.8,263.8,315.9,263.8,308z"/>
											</g>
										</g>
									</g>
								</g>
							</g>
							<g>
								<g>
									<g>
										<g>
											<g>
												<path class="st5" d="M252.6,335h-17.8c-0.7,0-1.3-0.5-1.3-1.2l0,0c0-0.6,0.6-1.2,1.3-1.2h17.8c0.7,0,1.3,0.5,1.3,1.2
													l0,0C253.9,334.5,253.3,335,252.6,335z"/>
											</g>
										</g>
									</g>
								</g>
							</g>
							<g>
								<g>
									<g>
										<g>
											<g>
												<path class="st5" d="M251.2,336l-15.4,0c-0.6,0-1.2,0.5-1.2,1.2c0,0.6,0.5,1.2,1.2,1.2h1.7l2.2,4.3
													c0.3,0.5,0.8,0.8,1.3,0.8h5.5c0.6,0,1.1-0.3,1.3-0.8l2.2-4.3h1.1c0.6,0,1.2-0.5,1.2-1.2
													C252.4,336.5,251.8,336,251.2,336z"/>
											</g>
										</g>
									</g>
								</g>
							</g>
						</g>
						<g>
							<g>
								<g>
									<g>
										<g>
											<g>
												<path class="st8" d="M247.6,342.9c0,0-0.4-0.1-1.1-0.3c-0.7-0.2-1.6-0.4-2.6-0.3c-1,0-1.9,0.3-2.6,0.5
													c-0.6,0.2-1,0.4-1,0.4c0,0,0.3-0.3,1-0.6c0.6-0.3,1.6-0.5,2.6-0.6c1.1,0,2,0.2,2.7,0.4
													C247.2,342.7,247.6,342.9,247.6,342.9z"/>
											</g>
										</g>
									</g>
								</g>
							</g>
						</g>
						<g>
							<g>
								<g>
									<g>
										<g>
											<g>
												<path class="st8" d="M250.1,338.4c0,0.1-2.8,0.1-6.2,0.1c-3.4,0-6.2-0.1-6.2-0.1c0-0.1,2.8-0.1,6.2-0.1
													C247.3,338.2,250.1,338.3,250.1,338.4z"/>
											</g>
										</g>
									</g>
								</g>
							</g>
						</g>
						<g>
							<g>
								<g>
									<g>
										<g>
											<g>
												<path class="st8" d="M249.1,340.2c0,0-0.6,0.1-1.5,0.2c-0.9,0.1-2.2,0.1-3.7,0.1c-1.4,0-2.7,0-3.7,0
													c-0.9,0-1.5-0.1-1.5-0.1c0,0,0.6-0.1,1.5-0.1c1,0,2.3,0,3.7,0c1.4,0,2.7,0,3.7-0.1C248.5,340.1,249.1,340.1,249.1,340.2
													z"/>
											</g>
										</g>
									</g>
								</g>
							</g>
						</g>
					</g>
					<g>
						<g>
							<g>
								<path class="st10" d="M237.9,291.5c0.1,0.2-1.4,0.6-3.4,1.8c-2,1.2-4.6,3.3-6.3,6.5c-1.7,3.1-2,6.5-1.8,8.8
									c0.2,2.4,0.7,3.8,0.5,3.9c-0.1,0.1-1-1.3-1.4-3.7c-0.4-2.4-0.2-6.1,1.6-9.5c1.8-3.4,4.7-5.6,7-6.7
									C236.3,291.5,237.9,291.4,237.9,291.5z"/>
							</g>
						</g>
					</g>
					<g>
						<g>
							<g>
								<path class="st10" d="M243.8,290.5c0.1,0.4-0.3,0.7-0.8,0.8c-0.5,0.1-1-0.1-1.1-0.5c-0.1-0.4,0.3-0.7,0.8-0.8
									C243.3,289.9,243.8,290.1,243.8,290.5z"/>
							</g>
						</g>
					</g>
				</g>
				<g>
					<g>
						<path class="st1" d="M203.2,330.1l0.7,0.7c0.1,0.1,0.2,0.1,0.3,0.1l1-0.1c0.2,0,0.4,0.2,0.3,0.4l-0.5,0.9c0,0.1,0,0.2,0,0.3
							l0.4,0.9c0.1,0.2-0.1,0.5-0.3,0.4l-1-0.2c-0.1,0-0.2,0-0.3,0.1l-0.7,0.7c-0.2,0.2-0.5,0.1-0.5-0.2l-0.1-1
							c0-0.1-0.1-0.2-0.2-0.2l-0.9-0.5c-0.2-0.1-0.2-0.4,0-0.5l0.9-0.4c0.1,0,0.1-0.1,0.2-0.2l0.2-1
							C202.7,330.1,203,330,203.2,330.1z"/>
					</g>
				</g>
				<g>
					<g>
						<path class="st1" d="M290.3,304.5l0.5,1.1c0.1,0.1,0.2,0.2,0.3,0.2l1.2,0.2c0.3,0,0.4,0.4,0.2,0.6l-0.9,0.9
							c-0.1,0.1-0.1,0.2-0.1,0.3l0.2,1.2c0.1,0.3-0.3,0.5-0.5,0.4l-1.1-0.6c-0.1-0.1-0.2-0.1-0.3,0l-1.1,0.6
							c-0.3,0.1-0.6-0.1-0.5-0.4l0.2-1.2c0-0.1,0-0.2-0.1-0.3l-0.9-0.9c-0.2-0.2-0.1-0.6,0.2-0.6l1.2-0.2c0.1,0,0.2-0.1,0.3-0.2
							l0.5-1.1C289.8,304.2,290.2,304.2,290.3,304.5z"/>
					</g>
				</g>
				<g>
					<g>
						<path class="st1" d="M225.6,260.8l0.5,1.1c0.1,0.1,0.2,0.2,0.3,0.2l1.2,0.2c0.3,0,0.4,0.4,0.2,0.6l-0.9,0.9
							c-0.1,0.1-0.1,0.2-0.1,0.3l0.2,1.2c0.1,0.3-0.3,0.5-0.5,0.4l-1.1-0.6c-0.1-0.1-0.2-0.1-0.3,0l-1.1,0.6
							c-0.3,0.1-0.6-0.1-0.5-0.4l0.2-1.2c0-0.1,0-0.2-0.1-0.3l-0.9-0.9c-0.2-0.2-0.1-0.6,0.2-0.6l1.2-0.2c0.1,0,0.2-0.1,0.3-0.2
							l0.5-1.1C225.1,260.6,225.5,260.6,225.6,260.8z"/>
					</g>
				</g>
				<g>
					<g>
						<g>
							<g>
								<path class="st5" d="M297.4,293.3c0.1,0.4-5.6,1.7-12.6,3.1c-7.1,1.4-12.8,2.2-12.9,1.8c-0.1-0.4,5.6-1.7,12.7-3.1
									C291.6,293.7,297.3,292.9,297.4,293.3z"/>
							</g>
						</g>
					</g>
					<g>
						<g>
							<g>
								<path class="st5" d="M273,269.3c0.3,0.2-2.5,4.7-6.3,9.9c-3.8,5.3-7,9.4-7.3,9.2c-0.3-0.2,2.5-4.7,6.3-9.9
									C269.4,273.2,272.7,269.1,273,269.3z"/>
							</g>
						</g>
					</g>
					<g>
						<g>
							<g>
								<path class="st5" d="M240.5,253.8c0.4,0,0.7,6.2,0.7,13.8c0,7.6-0.3,13.8-0.7,13.8c-0.4,0-0.7-6.2-0.7-13.8
									C239.8,260,240.1,253.8,240.5,253.8z"/>
							</g>
						</g>
					</g>
					<g>
						<g>
							<g>
								<path class="st5" d="M223.2,286.8c-0.3,0.2-2.9-2.2-5.8-5.5c-2.9-3.3-5.1-6.1-4.8-6.4c0.3-0.2,2.9,2.2,5.8,5.5
									C221.4,283.7,223.5,286.5,223.2,286.8z"/>
							</g>
						</g>
					</g>
					<g>
						<g>
							<g>
								<path class="st5" d="M218.1,300c-0.1,0.4-6.4-0.6-14-2.2c-7.7-1.5-13.8-3.1-13.8-3.5c0.1-0.4,6.4,0.6,14,2.2
									C212,298.1,218.2,299.6,218.1,300z"/>
							</g>
						</g>
					</g>
					<g>
						<g>
							<g>
								<path class="st5" d="M217.1,314c0.1,0.3-3.2,1.9-7.4,3.5c-4.2,1.6-7.8,2.6-7.9,2.3c-0.1-0.3,3.2-1.9,7.4-3.5
									C213.5,314.6,217,313.6,217.1,314z"/>
							</g>
						</g>
					</g>
					<g>
						<g>
							<g>
								<path class="st5" d="M285.9,321.2c-0.1,0.3-3.4-0.5-7.3-1.9c-3.9-1.4-6.9-2.8-6.8-3.2c0.1-0.3,3.4,0.5,7.3,1.9
									C283,319.4,286.1,320.8,285.9,321.2z"/>
							</g>
						</g>
					</g>
					<g>
						<g>
							<path class="st5" d="M210.7,341.4c-0.1-0.1,2.7-2.9,6.2-6.1c3.5-3.3,6.5-5.9,6.6-5.8c0.1,0.1-2.7,2.9-6.2,6.1
								C213.7,338.9,210.8,341.5,210.7,341.4z"/>
						</g>
					</g>
					<g>
						<g>
							<path class="st5" d="M270.2,338.4c-0.1,0.1-1.9-2.1-4-4.9c-2.1-2.8-3.7-5.1-3.6-5.2c0.1-0.1,1.9,2.1,4,4.9
								C268.7,336,270.3,338.3,270.2,338.4z"/>
						</g>
					</g>
				</g>
				<g>
					<g>
						<path class="st10" d="M248.4,331.1c0,0,0-0.2-0.1-0.7c-0.1-0.5-0.2-1.2-0.3-2.1c-0.2-1.9-0.5-4.5-0.9-7.7
							c-0.2-1.6-0.4-3.4-0.6-5.3c0-0.5,0.1-1,0.5-1.4c0.4-0.4,1.1-0.5,1.5-0.2c0.5,0.3,0.7,0.9,0.8,1.4c0.1,0.6,0,1.1-0.2,1.6
							c-0.4,1.1-1.2,1.9-2.3,2.4c-1.1,0.5-2.4,0.5-3.5-0.1c-1.1-0.6-1.9-1.6-2.3-2.8c-0.2-0.6-0.3-1.2-0.2-1.9
							c0-0.3,0.1-0.6,0.3-0.9c0.2-0.3,0.5-0.5,0.9-0.5c0.4,0,0.7,0.2,0.9,0.4c0.2,0.2,0.4,0.5,0.5,0.8c0.3,0.6,0.3,1.2,0.3,1.9
							c0,1.2-0.4,2.5-1.3,3.4c-0.9,0.8-2.2,1.2-3.3,0.8c-1.1-0.4-1.9-1.3-2.5-2.3c-0.3-0.5-0.5-1-0.6-1.5c-0.1-0.5-0.3-1-0.2-1.6
							c0.1-0.3,0.2-0.5,0.4-0.7c0.2-0.2,0.6-0.2,0.9-0.1c0.5,0.3,0.6,0.9,0.7,1.3c0.5,1.9,0.8,3.6,1,5.3c0.3,3.3,0,5.9-0.4,7.7
							c-0.4,1.8-0.7,2.7-0.7,2.7s0-0.2,0.2-0.7c0.1-0.5,0.3-1.2,0.4-2.1c0.3-1.8,0.6-4.4,0.3-7.7c-0.2-1.6-0.5-3.4-1-5.2
							c-0.1-0.5-0.3-1-0.6-1.2c-0.2-0.1-0.4-0.1-0.5,0.1c-0.2,0.1-0.2,0.4-0.3,0.6c-0.1,0.5,0,1,0.2,1.5c0.1,0.5,0.4,1,0.6,1.4
							c0.5,0.9,1.3,1.8,2.3,2.1c1,0.4,2.2,0,3-0.8c0.8-0.8,1.2-2,1.2-3.1c0-0.6-0.1-1.2-0.3-1.7c-0.2-0.5-0.7-1-1.2-1
							c-0.6,0-0.9,0.6-1,1.2c-0.1,0.6,0,1.2,0.2,1.7c0.4,1.1,1.2,2.1,2.2,2.6c1,0.5,2.2,0.6,3.2,0.1c1-0.4,1.8-1.3,2.2-2.2
							c0.2-0.5,0.3-1,0.2-1.5c-0.1-0.5-0.3-1-0.7-1.2c-0.4-0.3-0.9-0.2-1.2,0.1c-0.3,0.3-0.4,0.8-0.5,1.2c0.1,1.9,0.4,3.7,0.5,5.3
							c0.3,3.2,0.6,5.8,0.8,7.7c0.1,0.9,0.2,1.6,0.2,2.1C248.4,330.8,248.4,331.1,248.4,331.1z"/>
					</g>
				</g>
			</g>
		</g>
		<g>
			<g>
				<g>
					<path class="st5" d="M153.6,477.3c-0.6,0,15.4-45,15.4-45h145.7l21.5,45H153.6z"/>
				</g>
				<g>
					<g>
						<polygon class="st11" points="165.9,352.3 141.5,384.1 275,384.1 300.9,353.6 						"/>
					</g>
					<g>
						<g>
							<polygon class="st11" points="328.8,475.9 163.2,475.9 165.4,352.3 328.8,353.9 							"/>
						</g>
					</g>
					<g class="st12">
						<polygon points="300.4,475.9 300.9,353.6 328.8,353.9 328.8,475.9 						"/>
					</g>
					<g>
						<polygon class="st11" points="300.9,353.6 321,384.1 360.3,384.1 335.7,353.2 						"/>
					</g>
					<g>
						<g>
							<path class="st5" d="M360.3,384.1c0,0-0.2,0-0.7,0c-0.5,0-1.2,0-2,0c-1.8,0-4.4,0-7.8,0.1c-6.8,0-16.6,0-28.8,0.1l-0.1,0
								l-0.1-0.1c-5.7-8.7-12.6-19-20.1-30.4l0.4,0c-8.1,9.4-16.9,19.7-26.2,30.5l-0.1,0.1h-0.1c-3,0-6.1,0-9.3,0
								c-34.6,0-65.9-0.1-88.6-0.1c-11.3,0-20.5-0.1-26.9-0.1c-3.2,0-5.6,0-7.3,0c-0.8,0-1.5,0-1.9,0c-0.4,0-0.6,0-0.6,0
								s0.2,0,0.6,0c0.4,0,1.1,0,1.9,0c1.7,0,4.1,0,7.3,0c6.4,0,15.5,0,26.9-0.1c22.7,0,54,0,88.6-0.1c3.2,0,6.4,0,9.3,0l-0.2,0.1
								c9.3-10.8,18.2-21.1,26.3-30.5l0.2-0.2l0.2,0.3c7.5,11.4,14.3,21.8,20,30.5l-0.2-0.1c12.2,0,22,0.1,28.8,0.1
								c3.4,0,6,0,7.8,0.1c0.9,0,1.6,0,2,0C360.1,384.1,360.3,384.1,360.3,384.1z"/>
						</g>
					</g>
				</g>
				<g class="st13">
					<g>
						<path class="st10" d="M262.8,458.4c-1-1.9-1.2-3.9-0.6-6c0.7-2.1,1.9-3.6,3.9-4.5c1.9-0.9,4-1,6.3-0.3c2.3,0.7,4,2,5,3.9
							c1,1.9,1.2,3.8,0.6,5.9c-0.7,2.1-2,3.6-3.9,4.6c-2,1-4.1,1.1-6.3,0.4C265.5,461.6,263.8,460.3,262.8,458.4z M278.4,402
							l15.2,4.8l-14.4,36.6l-10.1-3.2L278.4,402z"/>
					</g>
				</g>
				<g class="st13">
					<g>
						<path class="st10" d="M186.3,391.1l7.5-3.3l5.2,15.2l-5,2.2L186.3,391.1z M197.2,413.1c-1-0.4-1.7-1-2.1-2c-0.4-1-0.4-2,0-2.9
							c0.4-0.9,1.2-1.7,2.3-2.1c1.1-0.5,2.1-0.6,3.1-0.2c1,0.3,1.7,1,2.1,2c0.4,1,0.4,1.9,0,2.9c-0.4,1-1.2,1.7-2.2,2.2
							C199.2,413.4,198.2,413.4,197.2,413.1z"/>
					</g>
				</g>
				<g class="st12">
					<polygon points="164.8,388.7 275,388.7 300.9,353.6 275,384.1 164.9,384.1 					"/>
				</g>
			</g>
			<g>
				<g>
					<g>
						<g>
							<path class="st6" d="M157.4,420.4c0,0-2.3-6.5,5.4-8.7c5-1.4,20.4-4.4,18,2.9c-0.9,2.6-3.4,4.2-6.1,4.6
								c-3.6,0.4-6.6,3.3-6.6,3.3s-2.4,1.9-2.1,4.1c0.3,2.2,0.1,7.4,6.8,9.7c6.7,2.3,9.9,4.9,12.1,9.2c1.9,3.8-0.5,5.4-0.5,5.4
								s4.1,3.1,3.4,6.1c-0.3,1.1,0.2,2.4,0.7,3.3c0,0,0,0,0,0c1,1.9-0.3,4.2-2.4,4.6l-0.3,0.1c0,0-20.4-0.7-25-5.9
								c-4.6-5.2-5.3-9.9-5.3-9.9s-3.8-6.3,0.5-10c-1.6-7.2,0-10.9,2.9-13L157.4,420.4z"/>
						</g>
						<g>
							<g>
								<path class="st7" d="M157.4,420.4c0,0,0.2,0.5,0.5,1.5c0.3,1.1,0.7,2.5,1.2,4.3l0,0.1l-0.1,0.1c-1.3,1-2.6,2.7-3.1,5
									c-0.5,2.3-0.2,5,0.4,7.9l0,0.2l-0.2,0.1c-1.1,1-1.9,2.6-1.9,4.3c0,1.7,0.6,3.6,1.5,5.2l0,0.1l0,0.1c0.5,2.5,1.7,5,3.4,7.3
									c0.8,1.1,1.7,2.4,2.8,3.2c1.2,0.8,2.6,1.4,4,1.9c5.9,1.9,12.7,2.6,19.6,3l-0.1,0c1.3-0.1,2.3-1,2.6-2.2
									c0.1-0.6,0.1-1.2-0.2-1.7c-0.3-0.6-0.7-1.4-0.8-2.2c-0.2-0.8,0.1-1.8,0.1-2.2c0-0.6-0.2-1.2-0.5-1.8
									c-0.6-1.2-1.7-2.3-2.7-3.1l-0.6-0.5l0.6-0.4c0.1-0.1,0.4-0.3,0.5-0.6c0.8-1.2,0.5-2.9-0.3-4.3c-0.7-1.5-1.7-2.8-2.8-3.9
									c-2.3-2.2-5.3-3.6-8.3-4.7c-1.5-0.5-3.1-1.2-4.3-2.3c-1.3-1.1-2.2-2.5-2.7-4c-0.5-1.6-0.6-3-0.7-4.6c0.1-1.8,1.2-3,2.3-4
									l0,0c1.4-1.2,3-2.2,4.7-2.8c0.8-0.3,1.8-0.5,2.6-0.6c0.8-0.1,1.6-0.4,2.3-0.7c1.4-0.7,2.5-1.8,3.1-3.2
									c0.3-0.7,0.4-1.4,0.3-2c-0.1-0.6-0.5-1.1-1.1-1.5c-1.2-0.7-2.6-0.9-3.9-0.9c-1.4-0.1-2.7,0-3.9,0.1
									c-2.5,0.2-4.9,0.7-6.9,1.1c-2.1,0.4-3.9,1-5.2,2c-1.3,1-1.9,2.3-2.2,3.4C157,419.2,157.5,420.4,157.4,420.4
									c0,0-0.2-0.3-0.3-0.9c-0.1-0.6-0.2-1.5-0.1-2.7c0.2-1.2,0.8-2.6,2.2-3.7c1.3-1.1,3.3-1.8,5.3-2.2c2.1-0.5,4.4-1,7-1.3
									c1.3-0.1,2.6-0.2,4-0.2c1.4,0.1,2.9,0.2,4.3,1c0.7,0.4,1.3,1.2,1.5,2c0.2,0.9,0,1.7-0.3,2.5c-0.6,1.6-1.9,2.9-3.5,3.7
									c-0.8,0.4-1.6,0.7-2.5,0.8c-0.9,0.1-1.6,0.3-2.4,0.6c-1.5,0.6-3,1.5-4.3,2.7l0,0l0,0c-1,0.8-1.9,2-1.9,3.3
									c0.1,1.3,0.2,2.9,0.7,4.3c0.4,1.4,1.2,2.6,2.4,3.6c1.1,1,2.5,1.6,4,2.1c3,1.1,6.2,2.5,8.7,4.9c1.2,1.2,2.3,2.7,3,4.2
									c0.8,1.5,1.4,3.7,0.2,5.4c-0.2,0.3-0.4,0.6-0.8,0.9l0-0.9c1.2,1,2.3,2.1,3,3.5c0.4,0.7,0.7,1.5,0.7,2.3c0,1-0.3,1.4-0.1,2.1
									c0.1,0.6,0.4,1.2,0.7,1.9c0.4,0.7,0.5,1.6,0.3,2.5c-0.4,1.6-1.9,2.8-3.4,3l-0.1,0l0,0c-3.5-0.2-7-0.5-10.3-1
									c-3.3-0.5-6.6-1.1-9.6-2.1c-1.5-0.5-3-1.2-4.3-2.1c-1.3-1-2.2-2.2-3-3.5c-1.7-2.5-2.9-5-3.4-7.7l0.1,0.2
									c-1-1.8-1.6-3.7-1.5-5.7c0-1.9,0.9-3.7,2.2-4.8l-0.1,0.3c-0.6-2.9-0.8-5.7-0.3-8.1c0.5-2.4,1.9-4.2,3.4-5.1l-0.1,0.2
									c-0.4-1.8-0.7-3.3-1-4.3C157.5,421,157.4,420.5,157.4,420.4z"/>
							</g>
						</g>
					</g>
					<g>
						<g>
							<path class="st7" d="M184.3,451c0,0.1-1.6,0-4.2-0.5c-2.6-0.5-6.1-1.5-9.9-2.6c-1.9-0.5-3.8-1.1-5.4-2
								c-1.5-0.9-2.8-1.9-3.7-2.8c-2-1.8-2.6-3.5-2.4-3.5c0.1,0,0.9,1.3,2.9,3c1,0.8,2.2,1.7,3.7,2.5c1.5,0.8,3.2,1.3,5.2,1.9
								c3.6,1.1,6.8,2.1,9.8,2.9C182.8,450.4,184.3,450.8,184.3,451z"/>
						</g>
					</g>
					<g>
						<g>
							<path class="st7" d="M187.2,459.4c0,0.1-2,0.8-5.3,0.7c-3.3,0-7.9-0.9-12.7-2.4c-1.2-0.4-2.4-0.7-3.5-1.1
								c-1.1-0.4-2.3-0.7-3.2-1.4c-2-1.3-3.1-3-4-4.3c-1.9-2.7-2.5-4.8-2.3-4.8c0.1,0,0.9,1.8,2.9,4.4c1,1.2,2.2,2.8,3.9,3.9
								c1.7,1,4.2,1.5,6.5,2.2c4.8,1.5,9.1,2.5,12.4,2.6C185.2,459.6,187.2,459.2,187.2,459.4z"/>
						</g>
					</g>
					<g>
						<g>
							<path class="st7" d="M174.7,419.1c0.1,0.3-2.7,1.6-6.4,2.9c-1.8,0.6-3.5,1.2-4.8,1.4c-1.3,0.2-2.1-0.1-2.1-0.2
								c0-0.2,0.8-0.2,2-0.6c1.2-0.3,2.8-1,4.6-1.7C171.5,419.7,174.6,418.8,174.7,419.1z"/>
						</g>
					</g>
				</g>
			</g>
		</g>
		<g>
			<g>
				<g>
					<g>
						<g>
							<g>
								<g>
									<path class="st6" d="M331.6,194.8c3-0.7,11.3,2.3,18.9,9.4c0.1,0.1,0.3,0.2,0.4,0.3c5.3,4.7,6.3-11.8,5.9-17.9
										c-0.3-3.9,3.4-7,7.4-6.4l20.8,6.4l4.5,4.1c3.1,0.5,3-0.9,2.8,2.2l-3.3,34.9l3.8,14.2l-28.7,4.4l-1.8-15.2l-2.5-2.3
										c-5.2-2.9-9.4-7.3-12.3-12.5c-0.1-0.1-0.1-0.3-0.2-0.4c-1.5-2.8-3.5-5.3-6-7.5c-2.5-2.2-5.9-5-8.6-6.4
										c-0.2-0.1-0.5-0.2-0.7-0.3c-0.5-0.2-0.9-0.4-1.3-0.8C328.2,199.3,328.6,195.5,331.6,194.8z"/>
								</g>
							</g>
						</g>
					</g>
					<g>
						<g>
							<g>
								<g>
									<path class="st5" d="M320.1,176.3l16.8,22.9l6.1-2.8l47.1,27l7.9-24.7c0,0-26.3-6.6-32.3-14.6c-6-8-1.8-8.5-1.8-8.5
										l-12.9-13.6L320.1,176.3z"/>
								</g>
							</g>
						</g>
					</g>
					<g>
						<g>
							<g>
								<g>
									<path class="st6" d="M369.9,173c2.3,0.5,3.8,2.8,3.5,5.2c-0.7,4.6-1.8,11.8-2.9,16.2c-0.3,1.4-0.7,2.9-1.6,4.1
										c-0.8,1.2-2.2,2-3.6,1.8c-1.5-0.3-2.6-1.7-3-3.2c-0.4-1.5-0.2-3.1,0-4.6c0.5-4.3,1.6-10.7,2.6-16
										C365.2,174,367.5,172.4,369.9,173L369.9,173z"/>
								</g>
							</g>
						</g>
					</g>
					<g>
						<g>
							<g>
								<g>
									<path class="st6" d="M377.4,179.7c2.3,0.5,3.8,2.8,3.5,5.2c-0.7,4.6-1.8,11.8-2.9,16.2c-0.3,1.4-0.7,2.9-1.6,4.1
										c-0.8,1.2-2.2,2-3.6,1.8c-1.5-0.3-2.6-1.7-3-3.2c-0.4-1.5-0.2-3.1,0-4.6c0.5-4.3,1.6-10.7,2.6-16
										C372.8,180.8,375,179.2,377.4,179.7L377.4,179.7z"/>
								</g>
							</g>
						</g>
					</g>
					<g>
						<g>
							<g>
								<g>
									<path class="st6" d="M384.2,183.6c2.1,0.4,3.4,2.4,3.1,4.5c-0.7,4-1.7,10.2-2.7,14.1c-0.3,1.2-0.7,2.5-1.4,3.5
										c-0.8,1-2,1.8-3.3,1.6c-1.3-0.2-2.3-1.4-2.7-2.7c-0.4-1.3-0.2-2.7,0-4c0.5-3.7,1.5-9.3,2.4-13.9
										C379.9,184.6,382,183.2,384.2,183.6L384.2,183.6z"/>
								</g>
							</g>
						</g>
					</g>
					<g>
						<g>
							<g>
								<g>
									<path class="st6" d="M392.1,183.9c2.1,0.4,3.4,2.4,3.1,4.5c-0.7,4-1.8,10.3-2.7,14.2c-0.3,1.2-0.7,2.5-1.4,3.6
										c-0.8,1-2,1.8-3.3,1.6c-1.3-0.2-2.3-1.4-2.7-2.8c-0.4-1.3-0.2-2.7,0-4.1c0.5-3.7,1.5-9.3,2.4-13.9
										C387.9,184.8,390,183.4,392.1,183.9L392.1,183.9z"/>
								</g>
							</g>
						</g>
					</g>
					<g>
						<g>
							<g>
								<g>
									<path class="st7" d="M369.3,198.6c0.4,0.1,1.6-3.6,2.6-8.3c1-4.7,1.4-8.5,1-8.6c-0.4-0.1-1.6,3.6-2.6,8.3
										C369.3,194.6,368.9,198.5,369.3,198.6z"/>
								</g>
							</g>
						</g>
					</g>
					<g>
						<g>
							<g>
								<g>
									<path class="st7" d="M377.1,203.9c0.4,0.1,1.6-4.2,2.6-9.5c1-5.3,1.5-9.7,1-9.8c-0.4-0.1-1.6,4.2-2.6,9.5
										C377.2,199.4,376.7,203.8,377.1,203.9z"/>
								</g>
							</g>
						</g>
					</g>
					<g>
						<g>
							<g>
								<g>
									<path class="st7" d="M384.1,203.4c0.4,0.1,1.9-3.5,2.9-8.3c1-4.8,1.1-8.7,0.6-8.8c-0.5-0.1-1.3,3.8-2.2,8.4
										C384.5,199.5,383.7,203.3,384.1,203.4z"/>
								</g>
							</g>
						</g>
					</g>
					<g>
						<g>
							<g>
								<g>
									<g>
										<path class="st11" d="M333.4,144c0,0,12.1-6.1,29.9-24.2c17.8-18.1,26.6-38.8,28.9-38.8c2.2,0.1,11.9-4.7,31.6,35.2
											c19.7,40,12.6,49.6,8.9,49.6c-3.7,0-28.7-3.3-44.4-1.1c-15.7,2.2-38.5,11.1-38.5,11.1L333.4,144z"/>
									</g>
								</g>
							</g>
						</g>
						<g>
							<g>
								<g>
									<g>
										<polygon class="st11" points="306.5,185.9 314.6,183.1 307.8,173.1 301.5,178.1 										"/>
									</g>
								</g>
							</g>
						</g>
						<g>
							<g>
								<g>
									<g>
										<path class="st11" d="M306.5,172.2l5.3,7.8l2.9,4.3c4,5.8,11.8,7.6,17.8,3.9l32.1-15.3l-21.5-39.7l-31.9,18.8
											C305.2,156,302.2,164.5,306.5,172.2z"/>
									</g>
								</g>
							</g>
						</g>
						<g class="st12">
							<g>
								<g>
									<g>
										<path d="M306.5,172.2l5.3,7.8l2.9,4.3c4,5.8,11.8,7.6,17.8,3.9l32.1-15.3l-21.5-39.7l-31.9,18.8
											C305.2,156,302.2,164.5,306.5,172.2z"/>
									</g>
								</g>
							</g>
						</g>
						<g>
							<g>
								<g>
									<g>
										<path class="st5" d="M422.3,117.1c10.5,21.7,15.1,41.1,10.4,43.4c-4.8,2.3-17.1-13.4-27.6-35
											c-10.5-21.7-15.1-41.1-10.4-43.4C399.4,79.8,411.8,95.4,422.3,117.1z"/>
									</g>
								</g>
							</g>
						</g>
						<g>
							<g>
								<g>
									<g>
										<path class="st11" d="M402,112.8c0,0,11.1-7.3,17.7,7.8c6.6,15.1-5.2,17.9-5.2,17.9C409.4,131.1,405.2,122.5,402,112.8z"
											/>
									</g>
								</g>
							</g>
						</g>
						<g>
							<g>
								<g>
									<g>
										<path class="st5" d="M389.5,94.9c-0.1,0,0.1,1,0.5,2.9c0.4,1.9,1,4.6,1.8,7.9c0.5,1.6,1.1,3.4,1.7,5.3c0.3,1,0.6,1.9,1,3
											c0.2,0.5,0.3,1,0.5,1.5c0.2,0.5,0.4,1,0.6,1.5c0.9,2.1,1.8,4.3,2.7,6.5c0.2,0.6,0.5,1.1,0.7,1.7c0.2,0.6,0.6,1.1,0.8,1.7
											c0.6,1.1,1.2,2.3,1.8,3.4c0.6,1.2,1.2,2.3,1.8,3.4c0.3,0.6,0.6,1.1,0.9,1.7c0.3,0.5,0.7,1.1,1,1.6c1.3,2.1,2.6,4.1,3.8,6
											c0.3,0.5,0.6,1,0.9,1.4c0.3,0.4,0.7,0.9,1,1.3c0.6,0.9,1.3,1.7,1.9,2.5c1.2,1.6,2.3,3.1,3.4,4.4c2.2,2.6,4.1,4.6,5.4,6
											c1.3,1.4,2,2.1,2.1,2.1c0.1,0-0.6-0.9-1.8-2.3c-1.2-1.5-3-3.6-5.1-6.2c-1-1.4-2.1-2.9-3.2-4.5c-0.6-0.8-1.2-1.6-1.8-2.5
											c-0.3-0.4-0.6-0.9-0.9-1.3c-0.3-0.4-0.6-0.9-0.9-1.4c-1.2-1.9-2.4-3.9-3.7-6c-0.3-0.5-0.6-1-1-1.6
											c-0.3-0.5-0.6-1.1-0.9-1.6c-0.6-1.1-1.2-2.2-1.8-3.4c-0.6-1.1-1.2-2.3-1.8-3.4c-0.3-0.6-0.6-1.1-0.8-1.7
											c-0.2-0.6-0.5-1.1-0.7-1.7c-1-2.2-1.9-4.4-2.8-6.5c-0.2-0.5-0.5-1-0.6-1.5c-0.2-0.5-0.3-1-0.5-1.5c-0.3-1-0.7-2-1-2.9
											c-0.6-1.9-1.3-3.6-1.8-5.2c-0.9-3.2-1.6-5.9-2.1-7.8C389.8,95.9,389.5,94.9,389.5,94.9z"/>
									</g>
								</g>
							</g>
						</g>
						<g>
							<g>
								<g>
									<path class="st5" d="M339.4,150.8c0.1,0.2-5.3,3.4-12.1,7.1c-6.8,3.7-12.4,6.6-12.5,6.4c-0.1-0.2,5.3-3.4,12.1-7.1
										C333.7,153.4,339.3,150.6,339.4,150.8z"/>
								</g>
							</g>
						</g>
						<g>
							<g>
								<g>
									<path class="st5" d="M341.7,155.2c0.1,0.2-5.3,3.4-12.1,7.1c-6.8,3.7-12.4,6.6-12.5,6.4c-0.1-0.2,5.3-3.4,12.1-7.1
										C336,157.8,341.6,155,341.7,155.2z"/>
								</g>
							</g>
						</g>
						<g>
							<g>
								<g>
									<path class="st5" d="M344.1,159.5c0.1,0.2-5.3,3.4-12.1,7.1c-6.8,3.7-12.4,6.6-12.5,6.4c-0.1-0.2,5.3-3.4,12.1-7.1
										C338.4,162.2,343.9,159.3,344.1,159.5z"/>
								</g>
							</g>
						</g>
						<g>
							<g>
								<g>
									<path class="st5" d="M346.4,163.9c0.1,0.2-5.3,3.4-12.1,7.1c-6.8,3.7-12.4,6.6-12.5,6.4c-0.1-0.2,5.3-3.4,12.1-7.1
										C340.7,166.6,346.3,163.7,346.4,163.9z"/>
								</g>
							</g>
						</g>
					</g>
				</g>
				<g>
					<path class="st6" d="M411,306.4c-2.1-21.1-23.1-77.7-23.1-77.7h-27.2l12.1,63.2c0,0-3.3-2.9-7.7-6.8l-23.7,41.8
						c6.5,4,14.4,7.8,22.3,11.1C397.8,352.1,413.6,332.4,411,306.4z"/>
				</g>
			</g>
			<g>
				<g>
					<path class="st7" d="M382.5,313.1c-0.1,0-0.6-1.2-1.6-3.2c-0.9-2-2.2-4.8-3.7-7.8c-1.5-3-2.9-5.7-3.9-7.7c-1-2-1.7-3.2-1.6-3.2
						c0,0,0.2,0.3,0.6,0.8c0.3,0.5,0.8,1.3,1.4,2.2c1.1,1.9,2.6,4.6,4.1,7.6c1.5,3,2.7,5.8,3.5,7.9c0.4,1,0.7,1.9,0.9,2.4
						C382.4,312.8,382.5,313.1,382.5,313.1z"/>
				</g>
			</g>
		</g>
	</g>
</g>
<g id="Text">
	<g>
		<g>
			<path class="st8" d="M199,420.8c0.9,0.4,1.7,1,2.2,1.8c0.5,0.8,0.8,1.7,0.8,2.8c0,1.1-0.3,2-0.8,2.8c-0.5,0.8-1.2,1.4-2.2,1.8
				c-0.9,0.4-2,0.6-3.3,0.6h-2.5v3.7h-4v-14.1h6.4C196.9,420.2,198,420.4,199,420.8z M197.2,426.9c0.4-0.4,0.6-0.9,0.6-1.5
				c0-0.7-0.2-1.2-0.6-1.5c-0.4-0.4-1-0.5-1.8-0.5h-2.2v4.1h2.2C196.2,427.5,196.8,427.3,197.2,426.9z"/>
			<path class="st8" d="M210,430.5h-2.2v3.7h-4v-14.1h6.4c1.3,0,2.4,0.2,3.3,0.6c0.9,0.4,1.7,1,2.2,1.8c0.5,0.8,0.8,1.7,0.8,2.8
				c0,1-0.2,1.9-0.7,2.7c-0.5,0.8-1.2,1.4-2,1.8l3,4.4h-4.3L210,430.5z M211.9,423.9c-0.4-0.4-1-0.5-1.8-0.5h-2.2v4.1h2.2
				c0.8,0,1.4-0.2,1.8-0.5c0.4-0.4,0.6-0.9,0.6-1.5C212.5,424.8,212.3,424.2,211.9,423.9z"/>
			<path class="st8" d="M221.8,433.6c-1.2-0.6-2.1-1.5-2.8-2.6s-1-2.4-1-3.8c0-1.4,0.3-2.6,1-3.8s1.6-2,2.8-2.6
				c1.2-0.6,2.5-0.9,4-0.9c1.5,0,2.8,0.3,4,0.9c1.2,0.6,2.1,1.5,2.8,2.6c0.7,1.1,1,2.4,1,3.8c0,1.4-0.3,2.6-1,3.8
				c-0.7,1.1-1.6,2-2.8,2.6c-1.2,0.6-2.5,0.9-4,0.9C224.3,434.6,223,434.2,221.8,433.6z M227.7,430.8c0.6-0.3,1-0.8,1.4-1.4
				c0.3-0.6,0.5-1.3,0.5-2.1c0-0.8-0.2-1.5-0.5-2.1c-0.3-0.6-0.8-1.1-1.4-1.4c-0.6-0.3-1.2-0.5-1.9-0.5c-0.7,0-1.4,0.2-1.9,0.5
				c-0.6,0.3-1,0.8-1.4,1.4c-0.3,0.6-0.5,1.3-0.5,2.1c0,0.8,0.2,1.5,0.5,2.1c0.3,0.6,0.8,1.1,1.4,1.4c0.6,0.3,1.2,0.5,1.9,0.5
				C226.5,431.3,227.1,431.1,227.7,430.8z"/>
			<path class="st8" d="M235.7,420.2h6.7c1.5,0,2.9,0.3,4.1,0.9c1.2,0.6,2.1,1.4,2.8,2.5c0.7,1.1,1,2.3,1,3.7c0,1.4-0.3,2.7-1,3.7
				c-0.7,1.1-1.6,1.9-2.8,2.5c-1.2,0.6-2.6,0.9-4.1,0.9h-6.7V420.2z M242.2,431.1c1.2,0,2.2-0.3,2.9-1c0.7-0.7,1.1-1.6,1.1-2.8
				c0-1.2-0.4-2.2-1.1-2.8c-0.7-0.7-1.7-1-2.9-1h-2.5v7.7H242.2z"/>
			<path class="st8" d="M253.9,432.8c-1.2-1.1-1.7-2.8-1.7-4.8v-7.8h4v7.7c0,2.3,0.9,3.4,2.7,3.4c1.8,0,2.7-1.1,2.7-3.4v-7.7h3.9
				v7.8c0,2.1-0.6,3.7-1.7,4.8c-1.2,1.1-2.8,1.7-4.9,1.7C256.7,434.6,255.1,434,253.9,432.8z"/>
			<path class="st8" d="M271.1,433.6c-1.2-0.6-2.1-1.5-2.8-2.6c-0.7-1.1-1-2.4-1-3.8c0-1.4,0.3-2.7,1-3.8c0.7-1.1,1.6-2,2.8-2.6
				c1.2-0.6,2.5-0.9,4-0.9c1.3,0,2.4,0.2,3.5,0.7c1,0.5,1.9,1.1,2.6,2l-2.5,2.3c-0.9-1.1-2-1.6-3.3-1.6c-0.8,0-1.4,0.2-2,0.5
				c-0.6,0.3-1.1,0.8-1.4,1.4c-0.3,0.6-0.5,1.3-0.5,2.1c0,0.8,0.2,1.5,0.5,2.1c0.3,0.6,0.8,1.1,1.4,1.4c0.6,0.3,1.3,0.5,2,0.5
				c1.3,0,2.4-0.5,3.3-1.6l2.5,2.3c-0.7,0.9-1.5,1.5-2.6,2c-1,0.5-2.2,0.7-3.5,0.7C273.6,434.6,272.3,434.2,271.1,433.6z"/>
			<path class="st8" d="M285.8,423.4h-4.3v-3.2h12.6v3.2h-4.3v10.9h-4V423.4z"/>
		</g>
		<g>
			<path class="st8" d="M226.8,400.7v14.1h-3.3l-6.2-7.5v7.5h-3.9v-14.1h3.3l6.2,7.5v-7.5H226.8z"/>
			<path class="st8" d="M240.9,411.7v3.1h-11.3v-14.1h11v3.1h-7.1v2.4h6.3v3h-6.3v2.6H240.9z"/>
			<path class="st8" d="M265,400.7l-4.6,14.1h-4.3l-2.7-8.6l-2.8,8.6h-4.3l-4.6-14.1h4.1l2.8,9l3-9h3.7l2.8,9.1l3-9.1H265z"/>
		</g>
	</g>
</g>
</svg>
