<?xml version="1.0" encoding="utf-8"?>
<!-- Generator: Adobe Illustrator 23.1.1, SVG Export Plug-In . SVG Version: 6.00 Build 0)  -->
<svg version="1.1" xmlns="http://www.w3.org/2000/svg" xmlns:xlink="http://www.w3.org/1999/xlink" x="0px" y="0px" width="500px"
	 height="500px" viewBox="0 0 500 500" style="enable-background:new 0 0 500 500;" xml:space="preserve">
<style type="text/css">
	.st0{fill:#EBEBEB;}
	.st1{fill:#FAFAFA;}
	.st2{fill:#F0F0F0;}
	.st3{fill:#E0E0E0;}
	.st4{fill:#F0F0F0;stroke:#E0E0E0;stroke-width:2;stroke-linecap:round;stroke-linejoin:round;stroke-miterlimit:10;}
	.st5{fill:#F5F5F5;}
	.st6{fill:#E6E6E6;}
	.st7{display:none;}
	.st8{display:inline;}
	.st9{fill:#407BFF;}
	.st10{opacity:0.9;fill:#FFFFFF;}
	.st11{opacity:0.2;fill:#FFFFFF;enable-background:new    ;}
	.st12{opacity:0.3;fill:#FFFFFF;enable-background:new    ;}
	.st13{fill:#263238;}
	.st14{opacity:0.6;enable-background:new    ;}
	.st15{fill:#FFFFFF;}
	.st16{opacity:0.6;fill:#FFFFFF;enable-background:new    ;}
	.st17{opacity:0.1;fill:#FFFFFF;enable-background:new    ;}
	.st18{opacity:0.4;}
	.st19{opacity:0.2;}
	.st20{opacity:0.5;}
	.st21{opacity:0.7;fill:#FFFFFF;}
	.st22{enable-background:new    ;}
	.st23{opacity:0.3;enable-background:new    ;}
	.st24{fill:#B65B52;}
	.st25{opacity:0.2;enable-background:new    ;}
	.st26{fill:#B55B52;}
	.st27{opacity:0.4;fill:#FFFFFF;enable-background:new    ;}
	.st28{opacity:0.2;fill:#FFFFFF;}
	.st29{fill:#A02724;}
	.st30{opacity:0.5;fill:#FFFFFF;enable-background:new    ;}
	.st31{opacity:0.1;enable-background:new    ;}
	.st32{opacity:0.4;enable-background:new    ;}
</style>
<g id="Background_Complete">
	<g>
		<rect y="382.4" class="st0" width="500" height="0.2"/>
		<rect x="416.8" y="398.5" class="st0" width="33.1" height="0.2"/>
		<rect x="322.5" y="401.2" class="st0" width="8.7" height="0.2"/>
		<rect x="396.6" y="389.2" class="st0" width="19.2" height="0.2"/>
		<rect x="52.5" y="390.9" class="st0" width="43.2" height="0.2"/>
		<rect x="104.6" y="390.9" class="st0" width="6.3" height="0.2"/>
		<rect x="131.5" y="395.1" class="st0" width="93.7" height="0.2"/>
		<path class="st0" d="M237,337.8H43.9c-3.1,0-5.7-2.6-5.7-5.7V60.7c0-3.1,2.6-5.7,5.7-5.7H237c3.1,0,5.7,2.6,5.7,5.7v271.4
			C242.7,335.2,240.2,337.8,237,337.8z M43.9,55.2c-3,0-5.5,2.4-5.5,5.5v271.4c0,3,2.4,5.5,5.5,5.5H237c3,0,5.5-2.4,5.5-5.5V60.7
			c0-3-2.4-5.5-5.5-5.5H43.9z"/>
		<path class="st0" d="M453.3,337.8H260.2c-3.1,0-5.7-2.6-5.7-5.7V60.7c0-3.1,2.6-5.7,5.7-5.7h193.1c3.1,0,5.7,2.6,5.7,5.7v271.4
			C459,335.2,456.5,337.8,453.3,337.8z M260.2,55.2c-3,0-5.5,2.4-5.5,5.5v271.4c0,3,2.4,5.5,5.5,5.5h193.1c3,0,5.5-2.4,5.5-5.5V60.7
			c0-3-2.4-5.5-5.5-5.5H260.2z"/>
	</g>
	<g>
		<g>
			<rect x="79.3" y="102.7" class="st0" width="169.5" height="189.9"/>
			<rect x="82.7" y="105.7" class="st1" width="166.2" height="183.5"/>
			<g>
				<polygon class="st2" points="88.8,203.1 88.8,190.2 92.5,190.2 92.5,181.6 97.4,181.6 97.4,168.7 98.6,168.7 98.6,181.6 
					103.5,181.6 103.5,190.2 107.2,190.2 107.2,203.1 114,203.1 114,206.8 117,206.8 117,220.9 117.7,220.9 117.7,200.7 
					119.5,200.7 119.5,213.6 121.3,213.6 121.3,182.9 122.6,182.9 122.6,195.8 127.5,195.8 127.5,191.5 129.3,191.5 129.3,173.7 
					133,173.7 133,155.9 134.2,155.9 134.2,158.3 159.4,158.3 159.4,150.9 163.7,150.9 163.7,122.7 165.5,122.7 165.5,150.9 
					171.7,150.9 171.7,158.3 174.1,158.3 174.1,195.1 187,195.1 187,184.1 182.7,184.1 182.7,182.3 187,182.3 187,179.2 
					199.3,179.2 199.3,150.9 202.4,150.9 202.4,146.6 217.1,146.6 217.1,150.9 219,150.9 219,190.2 225.7,190.2 225.7,208 
					229.4,208 229.4,193.9 232.5,193.9 232.5,190.2 239.2,190.2 239.2,177.3 242.9,177.3 242.9,168.7 247.2,168.7 247.2,155.9 
					248.9,155.9 248.9,289.2 82.7,289.2 82.7,203.1 				"/>
				<g>
					<rect x="148.3" y="160.2" class="st1" width="1.7" height="1.7"/>
					<rect x="148.3" y="163.2" class="st1" width="1.7" height="1.7"/>
					<rect x="148.3" y="174.8" class="st1" width="1.7" height="1.7"/>
					<rect x="148.3" y="177.7" class="st1" width="1.7" height="1.7"/>
					<rect x="148.3" y="180.7" class="st1" width="1.7" height="1.7"/>
					<rect x="148.3" y="189.4" class="st1" width="1.7" height="1.7"/>
					<rect x="148.3" y="192.3" class="st1" width="1.7" height="1.7"/>
					<rect x="151" y="171.9" class="st1" width="1.7" height="1.7"/>
					<rect x="151" y="174.8" class="st1" width="1.7" height="1.7"/>
					<rect x="151" y="177.7" class="st1" width="1.7" height="1.7"/>
					<rect x="151" y="180.7" class="st1" width="1.7" height="1.7"/>
					<rect x="151" y="183.6" class="st1" width="1.7" height="1.7"/>
					<rect x="151" y="189.4" class="st1" width="1.7" height="1.7"/>
					<rect x="151" y="192.3" class="st1" width="1.7" height="1.7"/>
					<rect x="153.8" y="160.2" class="st1" width="1.7" height="1.7"/>
					<rect x="153.8" y="163.2" class="st1" width="1.7" height="1.7"/>
					<rect x="153.8" y="166.1" class="st1" width="1.7" height="1.7"/>
					<rect x="153.8" y="169" class="st1" width="1.7" height="1.7"/>
					<rect x="153.8" y="171.9" class="st1" width="1.7" height="1.7"/>
					<rect x="153.8" y="174.8" class="st1" width="1.7" height="1.7"/>
					<rect x="153.8" y="177.7" class="st1" width="1.7" height="1.7"/>
					<rect x="153.8" y="180.7" class="st1" width="1.7" height="1.7"/>
					<rect x="153.8" y="183.6" class="st1" width="1.7" height="1.7"/>
					<rect x="153.8" y="186.5" class="st1" width="1.7" height="1.7"/>
					<rect x="153.8" y="192.3" class="st1" width="1.7" height="1.7"/>
					<rect x="156.6" y="160.2" class="st1" width="1.7" height="1.7"/>
					<rect x="156.6" y="163.2" class="st1" width="1.7" height="1.7"/>
					<rect x="156.6" y="166.1" class="st1" width="1.7" height="1.7"/>
					<rect x="156.6" y="169" class="st1" width="1.7" height="1.7"/>
					<rect x="156.6" y="171.9" class="st1" width="1.7" height="1.7"/>
					<rect x="156.6" y="174.8" class="st1" width="1.7" height="1.7"/>
					<rect x="156.6" y="177.7" class="st1" width="1.7" height="1.7"/>
					<rect x="156.6" y="204" class="st1" width="1.7" height="1.7"/>
					<rect x="159.3" y="160.2" class="st1" width="1.7" height="1.7"/>
					<rect x="159.3" y="163.2" class="st1" width="1.7" height="1.7"/>
					<rect x="159.3" y="166.1" class="st1" width="1.7" height="1.7"/>
					<rect x="159.3" y="169" class="st1" width="1.7" height="1.7"/>
					<rect x="159.3" y="171.9" class="st1" width="1.7" height="1.7"/>
					<rect x="159.3" y="174.8" class="st1" width="1.7" height="1.7"/>
					<rect x="159.3" y="177.7" class="st1" width="1.7" height="1.7"/>
					<rect x="159.3" y="180.7" class="st1" width="1.7" height="1.7"/>
					<rect x="159.3" y="198.1" class="st1" width="1.7" height="1.7"/>
					<rect x="159.3" y="201.1" class="st1" width="1.7" height="1.7"/>
					<rect x="159.3" y="204" class="st1" width="1.7" height="1.7"/>
					<rect x="159.3" y="206.9" class="st1" width="1.7" height="1.7"/>
					<rect x="159.3" y="218.6" class="st1" width="1.7" height="1.7"/>
					<rect x="162.1" y="160.2" class="st1" width="1.7" height="1.7"/>
					<rect x="162.1" y="163.2" class="st1" width="1.7" height="1.7"/>
					<rect x="162.1" y="166.1" class="st1" width="1.7" height="1.7"/>
					<rect x="162.1" y="169" class="st1" width="1.7" height="1.7"/>
					<rect x="162.1" y="171.9" class="st1" width="1.7" height="1.7"/>
					<rect x="162.1" y="174.8" class="st1" width="1.7" height="1.7"/>
					<rect x="162.1" y="177.7" class="st1" width="1.7" height="1.7"/>
					<rect x="162.1" y="180.7" class="st1" width="1.7" height="1.7"/>
					<rect x="162.1" y="183.6" class="st1" width="1.7" height="1.7"/>
					<rect x="162.1" y="186.5" class="st1" width="1.7" height="1.7"/>
					<rect x="162.1" y="195.2" class="st1" width="1.7" height="1.7"/>
					<rect x="162.1" y="198.1" class="st1" width="1.7" height="1.7"/>
					<rect x="162.1" y="201.1" class="st1" width="1.7" height="1.7"/>
					<rect x="162.1" y="204" class="st1" width="1.7" height="1.7"/>
					<rect x="162.1" y="206.9" class="st1" width="1.7" height="1.7"/>
					<rect x="162.1" y="218.6" class="st1" width="1.7" height="1.7"/>
					<rect x="164.8" y="160.2" class="st1" width="1.7" height="1.7"/>
					<rect x="164.8" y="163.2" class="st1" width="1.7" height="1.7"/>
					<rect x="164.8" y="166.1" class="st1" width="1.7" height="1.7"/>
					<rect x="164.8" y="169" class="st1" width="1.7" height="1.7"/>
					<rect x="164.8" y="171.9" class="st1" width="1.7" height="1.7"/>
					<rect x="164.8" y="174.8" class="st1" width="1.7" height="1.7"/>
					<rect x="164.8" y="177.7" class="st1" width="1.7" height="1.7"/>
					<rect x="164.8" y="180.7" class="st1" width="1.7" height="1.7"/>
					<rect x="164.8" y="183.6" class="st1" width="1.7" height="1.7"/>
					<rect x="164.8" y="186.5" class="st1" width="1.7" height="1.7"/>
					<rect x="164.8" y="189.4" class="st1" width="1.7" height="1.7"/>
					<rect x="164.8" y="192.3" class="st1" width="1.7" height="1.7"/>
					<rect x="164.8" y="195.2" class="st1" width="1.7" height="1.7"/>
					<rect x="164.8" y="198.1" class="st1" width="1.7" height="1.7"/>
					<rect x="164.8" y="201.1" class="st1" width="1.7" height="1.7"/>
					<rect x="164.8" y="204" class="st1" width="1.7" height="1.7"/>
					<rect x="164.8" y="206.9" class="st1" width="1.7" height="1.7"/>
					<rect x="164.8" y="209.8" class="st1" width="1.7" height="1.7"/>
					<rect x="167.6" y="160.2" class="st1" width="1.7" height="1.7"/>
					<rect x="167.6" y="163.2" class="st1" width="1.7" height="1.7"/>
					<rect x="167.6" y="166.1" class="st1" width="1.7" height="1.7"/>
					<rect x="167.6" y="169" class="st1" width="1.7" height="1.7"/>
					<rect x="167.6" y="171.9" class="st1" width="1.7" height="1.7"/>
					<rect x="167.6" y="174.8" class="st1" width="1.7" height="1.7"/>
					<rect x="167.6" y="177.7" class="st1" width="1.7" height="1.7"/>
					<rect x="167.6" y="180.7" class="st1" width="1.7" height="1.7"/>
					<rect x="167.6" y="183.6" class="st1" width="1.7" height="1.7"/>
					<rect x="167.6" y="186.5" class="st1" width="1.7" height="1.7"/>
					<rect x="167.6" y="195.2" class="st1" width="1.7" height="1.7"/>
					<rect x="167.6" y="198.1" class="st1" width="1.7" height="1.7"/>
					<rect x="167.6" y="201.1" class="st1" width="1.7" height="1.7"/>
					<rect x="167.6" y="204" class="st1" width="1.7" height="1.7"/>
					<rect x="170.4" y="160.2" class="st1" width="1.7" height="1.7"/>
					<rect x="170.4" y="163.2" class="st1" width="1.7" height="1.7"/>
					<rect x="170.4" y="166.1" class="st1" width="1.7" height="1.7"/>
					<rect x="170.4" y="169" class="st1" width="1.7" height="1.7"/>
					<rect x="170.4" y="171.9" class="st1" width="1.7" height="1.7"/>
					<rect x="170.4" y="174.8" class="st1" width="1.7" height="1.7"/>
					<rect x="170.4" y="177.7" class="st1" width="1.7" height="1.7"/>
					<rect x="170.4" y="180.7" class="st1" width="1.7" height="1.7"/>
					<rect x="170.4" y="183.6" class="st1" width="1.7" height="1.7"/>
					<rect x="170.4" y="186.5" class="st1" width="1.7" height="1.7"/>
					<rect x="170.4" y="195.2" class="st1" width="1.7" height="1.7"/>
					<rect x="170.4" y="198.1" class="st1" width="1.7" height="1.7"/>
					<rect x="170.4" y="201.1" class="st1" width="1.7" height="1.7"/>
					<rect x="201.5" y="152.7" class="st1" width="1.7" height="1.7"/>
					<rect x="201.5" y="155.6" class="st1" width="1.7" height="1.7"/>
					<rect x="201.5" y="158.5" class="st1" width="1.7" height="1.7"/>
					<rect x="201.5" y="161.4" class="st1" width="1.7" height="1.7"/>
					<rect x="201.5" y="164.3" class="st1" width="1.7" height="1.7"/>
					<rect x="201.5" y="167.2" class="st1" width="1.7" height="1.7"/>
					<rect x="201.5" y="170.2" class="st1" width="1.7" height="1.7"/>
					<rect x="201.5" y="173.1" class="st1" width="1.7" height="1.7"/>
					<rect x="201.5" y="181.8" class="st1" width="1.7" height="1.7"/>
					<rect x="201.5" y="184.7" class="st1" width="1.7" height="1.7"/>
					<rect x="204.2" y="152.7" class="st1" width="1.7" height="1.7"/>
					<rect x="204.2" y="155.6" class="st1" width="1.7" height="1.7"/>
					<rect x="204.2" y="158.5" class="st1" width="1.7" height="1.7"/>
					<rect x="204.2" y="161.4" class="st1" width="1.7" height="1.7"/>
					<rect x="204.2" y="164.3" class="st1" width="1.7" height="1.7"/>
					<rect x="204.2" y="167.2" class="st1" width="1.7" height="1.7"/>
					<rect x="204.2" y="170.2" class="st1" width="1.7" height="1.7"/>
					<rect x="204.2" y="173.1" class="st1" width="1.7" height="1.7"/>
					<rect x="204.2" y="184.7" class="st1" width="1.7" height="1.7"/>
					<rect x="207" y="152.7" class="st1" width="1.7" height="1.7"/>
					<rect x="207" y="155.6" class="st1" width="1.7" height="1.7"/>
					<rect x="207" y="158.5" class="st1" width="1.7" height="1.7"/>
					<rect x="207" y="161.4" class="st1" width="1.7" height="1.7"/>
					<rect x="207" y="164.3" class="st1" width="1.7" height="1.7"/>
					<rect x="207" y="167.2" class="st1" width="1.7" height="1.7"/>
					<rect x="207" y="170.2" class="st1" width="1.7" height="1.7"/>
					<rect x="207" y="173.1" class="st1" width="1.7" height="1.7"/>
					<rect x="209.8" y="152.7" class="st1" width="1.7" height="1.7"/>
					<rect x="209.8" y="155.6" class="st1" width="1.7" height="1.7"/>
					<rect x="209.8" y="158.5" class="st1" width="1.7" height="1.7"/>
					<rect x="209.8" y="161.4" class="st1" width="1.7" height="1.7"/>
					<rect x="209.8" y="164.3" class="st1" width="1.7" height="1.7"/>
					<rect x="209.8" y="167.2" class="st1" width="1.7" height="1.7"/>
					<rect x="209.8" y="173.1" class="st1" width="1.7" height="1.7"/>
					<rect x="209.8" y="176" class="st1" width="1.7" height="1.7"/>
					<rect x="209.8" y="184.7" class="st1" width="1.7" height="1.7"/>
					<rect x="209.8" y="187.7" class="st1" width="1.7" height="1.7"/>
					<rect x="209.8" y="190.6" class="st1" width="1.7" height="1.7"/>
					<rect x="209.8" y="193.5" class="st1" width="1.7" height="1.7"/>
					<rect x="209.8" y="196.4" class="st1" width="1.7" height="1.7"/>
					<rect x="209.8" y="199.3" class="st1" width="1.7" height="1.7"/>
					<rect x="209.8" y="202.2" class="st1" width="1.7" height="1.7"/>
					<rect x="212.5" y="152.7" class="st1" width="1.7" height="1.7"/>
					<rect x="212.5" y="155.6" class="st1" width="1.7" height="1.7"/>
					<rect x="212.5" y="158.5" class="st1" width="1.7" height="1.7"/>
					<rect x="212.5" y="161.4" class="st1" width="1.7" height="1.7"/>
					<rect x="212.5" y="164.3" class="st1" width="1.7" height="1.7"/>
					<rect x="212.5" y="167.2" class="st1" width="1.7" height="1.7"/>
					<rect x="212.5" y="176" class="st1" width="1.7" height="1.7"/>
					<rect x="212.5" y="178.9" class="st1" width="1.7" height="1.7"/>
					<rect x="212.5" y="181.8" class="st1" width="1.7" height="1.7"/>
					<rect x="212.5" y="184.7" class="st1" width="1.7" height="1.7"/>
					<rect x="212.5" y="187.7" class="st1" width="1.7" height="1.7"/>
					<rect x="212.5" y="190.6" class="st1" width="1.7" height="1.7"/>
					<rect x="212.5" y="193.5" class="st1" width="1.7" height="1.7"/>
					<rect x="212.5" y="196.4" class="st1" width="1.7" height="1.7"/>
					<rect x="212.5" y="199.3" class="st1" width="1.7" height="1.7"/>
					<rect x="212.5" y="202.2" class="st1" width="1.7" height="1.7"/>
					<rect x="212.5" y="205.2" class="st1" width="1.7" height="1.7"/>
					<rect x="212.5" y="211" class="st1" width="1.7" height="1.7"/>
					<rect x="215.3" y="152.7" class="st1" width="1.7" height="1.7"/>
					<rect x="215.3" y="155.6" class="st1" width="1.7" height="1.7"/>
					<rect x="215.3" y="158.5" class="st1" width="1.7" height="1.7"/>
					<rect x="215.3" y="161.4" class="st1" width="1.7" height="1.7"/>
					<rect x="215.3" y="164.3" class="st1" width="1.7" height="1.7"/>
					<rect x="215.3" y="167.2" class="st1" width="1.7" height="1.7"/>
					<rect x="215.3" y="176" class="st1" width="1.7" height="1.7"/>
					<rect x="215.3" y="178.9" class="st1" width="1.7" height="1.7"/>
					<rect x="215.3" y="181.8" class="st1" width="1.7" height="1.7"/>
					<rect x="215.3" y="184.7" class="st1" width="1.7" height="1.7"/>
					<rect x="215.3" y="193.5" class="st1" width="1.7" height="1.7"/>
					<rect x="215.3" y="196.4" class="st1" width="1.7" height="1.7"/>
					<rect x="215.3" y="199.3" class="st1" width="1.7" height="1.7"/>
					<rect x="215.3" y="202.2" class="st1" width="1.7" height="1.7"/>
					<rect x="215.3" y="205.2" class="st1" width="1.7" height="1.7"/>
					<rect x="215.3" y="211" class="st1" width="1.7" height="1.7"/>
					<rect x="215.3" y="213.9" class="st1" width="1.7" height="1.7"/>
					<rect x="240.4" y="179.8" class="st1" width="1.7" height="1.7"/>
					<rect x="240.4" y="182.7" class="st1" width="1.7" height="1.7"/>
					<rect x="240.4" y="185.6" class="st1" width="1.7" height="1.7"/>
					<rect x="240.4" y="188.5" class="st1" width="1.7" height="1.7"/>
					<rect x="240.4" y="191.4" class="st1" width="1.7" height="1.7"/>
					<rect x="240.4" y="194.4" class="st1" width="1.7" height="1.7"/>
					<rect x="240.4" y="197.3" class="st1" width="1.7" height="1.7"/>
					<rect x="240.4" y="206" class="st1" width="1.7" height="1.7"/>
					<rect x="240.4" y="208.9" class="st1" width="1.7" height="1.7"/>
					<rect x="240.4" y="211.9" class="st1" width="1.7" height="1.7"/>
					<rect x="243.1" y="179.8" class="st1" width="1.7" height="1.7"/>
					<rect x="243.1" y="182.7" class="st1" width="1.7" height="1.7"/>
					<rect x="243.1" y="185.6" class="st1" width="1.7" height="1.7"/>
					<rect x="243.1" y="188.5" class="st1" width="1.7" height="1.7"/>
					<rect x="243.1" y="191.4" class="st1" width="1.7" height="1.7"/>
					<rect x="243.1" y="194.4" class="st1" width="1.7" height="1.7"/>
					<rect x="243.1" y="197.3" class="st1" width="1.7" height="1.7"/>
					<rect x="245.9" y="179.8" class="st1" width="2.5" height="1.7"/>
					<rect x="245.9" y="182.7" class="st1" width="2.5" height="1.7"/>
					<rect x="245.9" y="185.6" class="st1" width="2.5" height="1.7"/>
					<rect x="245.9" y="188.5" class="st1" width="2.5" height="1.7"/>
					<rect x="245.9" y="191.4" class="st1" width="2.5" height="1.7"/>
					<rect x="245.9" y="194.4" class="st1" width="2.5" height="1.7"/>
					<rect x="245.9" y="197.3" class="st1" width="2.5" height="1.7"/>
					<rect x="93.9" y="183.6" class="st1" width="1.7" height="1.7"/>
					<rect x="93.9" y="186.5" class="st1" width="1.7" height="1.7"/>
					<rect x="93.9" y="189.4" class="st1" width="1.7" height="1.7"/>
					<rect x="93.9" y="192.3" class="st1" width="1.7" height="1.7"/>
					<rect x="93.9" y="195.2" class="st1" width="1.7" height="1.7"/>
					<rect x="93.9" y="198.1" class="st1" width="1.7" height="1.7"/>
					<rect x="93.9" y="201.1" class="st1" width="1.7" height="1.7"/>
					<rect x="93.9" y="204" class="st1" width="1.7" height="1.7"/>
					<rect x="93.9" y="206.9" class="st1" width="1.7" height="1.7"/>
					<rect x="93.9" y="209.8" class="st1" width="1.7" height="1.7"/>
					<rect x="93.9" y="212.7" class="st1" width="1.7" height="1.7"/>
					<rect x="93.9" y="215.6" class="st1" width="1.7" height="1.7"/>
					<rect x="93.9" y="218.6" class="st1" width="1.7" height="1.7"/>
					<rect x="93.9" y="221.5" class="st1" width="1.7" height="1.7"/>
					<rect x="93.9" y="224.4" class="st1" width="1.7" height="1.7"/>
					<rect x="93.9" y="227.3" class="st1" width="1.7" height="1.7"/>
					<rect x="93.9" y="230.2" class="st1" width="1.7" height="1.7"/>
					<rect x="93.9" y="233.1" class="st1" width="1.7" height="1.7"/>
					<rect x="93.9" y="236.1" class="st1" width="1.7" height="1.7"/>
					<rect x="93.9" y="239" class="st1" width="1.7" height="1.7"/>
					<rect x="96.7" y="183.6" class="st1" width="1.7" height="1.7"/>
					<rect x="96.7" y="186.5" class="st1" width="1.7" height="1.7"/>
					<rect x="96.7" y="189.4" class="st1" width="1.7" height="1.7"/>
					<rect x="96.7" y="192.3" class="st1" width="1.7" height="1.7"/>
					<rect x="96.7" y="195.2" class="st1" width="1.7" height="1.7"/>
					<rect x="96.7" y="198.1" class="st1" width="1.7" height="1.7"/>
					<rect x="96.7" y="201.1" class="st1" width="1.7" height="1.7"/>
					<rect x="96.7" y="204" class="st1" width="1.7" height="1.7"/>
					<rect x="96.7" y="206.9" class="st1" width="1.7" height="1.7"/>
					<rect x="96.7" y="209.8" class="st1" width="1.7" height="1.7"/>
					<rect x="96.7" y="212.7" class="st1" width="1.7" height="1.7"/>
					<rect x="96.7" y="215.6" class="st1" width="1.7" height="1.7"/>
					<rect x="96.7" y="218.6" class="st1" width="1.7" height="1.7"/>
					<rect x="96.7" y="221.5" class="st1" width="1.7" height="1.7"/>
					<rect x="96.7" y="224.4" class="st1" width="1.7" height="1.7"/>
					<rect x="96.7" y="227.3" class="st1" width="1.7" height="1.7"/>
					<rect x="96.7" y="230.2" class="st1" width="1.7" height="1.7"/>
					<rect x="96.7" y="233.1" class="st1" width="1.7" height="1.7"/>
					<rect x="99.5" y="183.6" class="st1" width="1.7" height="1.7"/>
					<rect x="99.5" y="186.5" class="st1" width="1.7" height="1.7"/>
					<rect x="99.5" y="189.4" class="st1" width="1.7" height="1.7"/>
					<rect x="99.5" y="192.3" class="st1" width="1.7" height="1.7"/>
					<rect x="99.5" y="195.2" class="st1" width="1.7" height="1.7"/>
					<rect x="99.5" y="198.1" class="st1" width="1.7" height="1.7"/>
					<rect x="99.5" y="201.1" class="st1" width="1.7" height="1.7"/>
					<rect x="99.5" y="204" class="st1" width="1.7" height="1.7"/>
					<rect x="99.5" y="206.9" class="st1" width="1.7" height="1.7"/>
					<rect x="99.5" y="209.8" class="st1" width="1.7" height="1.7"/>
					<rect x="99.5" y="212.7" class="st1" width="1.7" height="1.7"/>
					<rect x="99.5" y="215.6" class="st1" width="1.7" height="1.7"/>
					<rect x="99.5" y="218.6" class="st1" width="1.7" height="1.7"/>
					<rect x="99.5" y="221.5" class="st1" width="1.7" height="1.7"/>
					<rect x="99.5" y="224.4" class="st1" width="1.7" height="1.7"/>
					<rect x="99.5" y="227.3" class="st1" width="1.7" height="1.7"/>
					<rect x="99.5" y="230.2" class="st1" width="1.7" height="1.7"/>
					<rect x="99.5" y="233.1" class="st1" width="1.7" height="1.7"/>
					<rect x="83.6" y="204.8" class="st1" width="1.7" height="1.7"/>
					<rect x="83.6" y="207.8" class="st1" width="1.7" height="1.7"/>
					<rect x="83.6" y="210.7" class="st1" width="1.7" height="1.7"/>
					<rect x="83.6" y="213.6" class="st1" width="1.7" height="1.7"/>
					<rect x="83.6" y="216.5" class="st1" width="1.7" height="1.7"/>
					<rect x="83.6" y="219.4" class="st1" width="1.7" height="1.7"/>
					<rect x="83.6" y="222.3" class="st1" width="1.7" height="1.7"/>
					<rect x="83.6" y="225.3" class="st1" width="1.7" height="1.7"/>
					<rect x="83.6" y="228.2" class="st1" width="1.7" height="1.7"/>
					<rect x="83.6" y="231.1" class="st1" width="1.7" height="1.7"/>
					<rect x="83.6" y="234" class="st1" width="1.7" height="1.7"/>
					<rect x="83.6" y="236.9" class="st1" width="1.7" height="1.7"/>
					<rect x="83.6" y="239.8" class="st1" width="1.7" height="1.7"/>
					<rect x="86.4" y="204.8" class="st1" width="1.7" height="1.7"/>
					<rect x="86.4" y="207.8" class="st1" width="1.7" height="1.7"/>
					<rect x="86.4" y="210.7" class="st1" width="1.7" height="1.7"/>
					<rect x="86.4" y="213.6" class="st1" width="1.7" height="1.7"/>
					<rect x="86.4" y="216.5" class="st1" width="1.7" height="1.7"/>
					<rect x="86.4" y="219.4" class="st1" width="1.7" height="1.7"/>
					<rect x="86.4" y="222.3" class="st1" width="1.7" height="1.7"/>
					<rect x="86.4" y="225.3" class="st1" width="1.7" height="1.7"/>
					<rect x="86.4" y="228.2" class="st1" width="1.7" height="1.7"/>
					<rect x="86.4" y="231.1" class="st1" width="1.7" height="1.7"/>
					<rect x="86.4" y="234" class="st1" width="1.7" height="1.7"/>
					<rect x="86.4" y="236.9" class="st1" width="1.7" height="1.7"/>
					<rect x="86.4" y="239.8" class="st1" width="1.7" height="1.7"/>
					<rect x="89.1" y="204.8" class="st1" width="1.7" height="1.7"/>
					<rect x="89.1" y="207.8" class="st1" width="1.7" height="1.7"/>
					<rect x="89.1" y="210.7" class="st1" width="1.7" height="1.7"/>
					<rect x="89.1" y="213.6" class="st1" width="1.7" height="1.7"/>
					<rect x="89.1" y="216.5" class="st1" width="1.7" height="1.7"/>
					<rect x="89.1" y="219.4" class="st1" width="1.7" height="1.7"/>
					<rect x="89.1" y="222.3" class="st1" width="1.7" height="1.7"/>
					<rect x="89.1" y="225.3" class="st1" width="1.7" height="1.7"/>
					<rect x="89.1" y="228.2" class="st1" width="1.7" height="1.7"/>
					<rect x="89.1" y="231.1" class="st1" width="1.7" height="1.7"/>
					<rect x="89.1" y="234" class="st1" width="1.7" height="1.7"/>
					<rect x="89.1" y="236.9" class="st1" width="1.7" height="1.7"/>
					<rect x="89.1" y="239.8" class="st1" width="1.7" height="1.7"/>
					<rect x="89.1" y="242.8" class="st1" width="1.7" height="1.7"/>
					<rect x="104.5" y="205.7" class="st1" width="1.7" height="1.7"/>
					<rect x="104.5" y="208.6" class="st1" width="1.7" height="1.7"/>
					<rect x="104.5" y="211.6" class="st1" width="1.7" height="1.7"/>
					<rect x="104.5" y="214.5" class="st1" width="1.7" height="1.7"/>
					<rect x="104.5" y="217.4" class="st1" width="1.7" height="1.7"/>
					<rect x="104.5" y="220.3" class="st1" width="1.7" height="1.7"/>
					<rect x="104.5" y="223.2" class="st1" width="1.7" height="1.7"/>
					<rect x="104.5" y="226.1" class="st1" width="1.7" height="1.7"/>
					<rect x="104.5" y="229" class="st1" width="1.7" height="1.7"/>
					<rect x="104.5" y="232" class="st1" width="1.7" height="1.7"/>
					<rect x="104.5" y="240.7" class="st1" width="1.7" height="1.7"/>
					<rect x="107.2" y="205.7" class="st1" width="1.7" height="1.7"/>
					<rect x="107.2" y="208.6" class="st1" width="1.7" height="1.7"/>
					<rect x="107.2" y="211.6" class="st1" width="1.7" height="1.7"/>
					<rect x="107.2" y="214.5" class="st1" width="1.7" height="1.7"/>
					<rect x="107.2" y="217.4" class="st1" width="1.7" height="1.7"/>
					<rect x="107.2" y="220.3" class="st1" width="1.7" height="1.7"/>
					<rect x="107.2" y="223.2" class="st1" width="1.7" height="1.7"/>
					<rect x="107.2" y="226.1" class="st1" width="1.7" height="1.7"/>
					<rect x="107.2" y="229" class="st1" width="1.7" height="1.7"/>
					<rect x="107.2" y="237.8" class="st1" width="1.7" height="1.7"/>
					<rect x="107.2" y="240.7" class="st1" width="1.7" height="1.7"/>
					<rect x="110" y="205.7" class="st1" width="1.7" height="1.7"/>
					<rect x="110" y="208.6" class="st1" width="1.7" height="1.7"/>
					<rect x="110" y="211.6" class="st1" width="1.7" height="1.7"/>
					<rect x="110" y="214.5" class="st1" width="1.7" height="1.7"/>
					<rect x="110" y="217.4" class="st1" width="1.7" height="1.7"/>
					<rect x="110" y="220.3" class="st1" width="1.7" height="1.7"/>
					<rect x="110" y="223.2" class="st1" width="1.7" height="1.7"/>
					<rect x="110" y="226.1" class="st1" width="1.7" height="1.7"/>
					<rect x="110" y="234.9" class="st1" width="1.7" height="1.7"/>
					<rect x="110" y="237.8" class="st1" width="1.7" height="1.7"/>
					<rect x="110" y="240.7" class="st1" width="1.7" height="1.7"/>
					<rect x="135.7" y="161.4" class="st1" width="1.7" height="1.7"/>
					<rect x="135.7" y="164.3" class="st1" width="1.7" height="1.7"/>
					<rect x="135.7" y="167.2" class="st1" width="1.7" height="1.7"/>
					<rect x="135.7" y="170.2" class="st1" width="1.7" height="1.7"/>
					<rect x="135.7" y="173.1" class="st1" width="1.7" height="1.7"/>
					<rect x="135.7" y="176" class="st1" width="1.7" height="1.7"/>
					<rect x="135.7" y="178.9" class="st1" width="1.7" height="1.7"/>
					<rect x="135.7" y="181.8" class="st1" width="1.7" height="1.7"/>
					<rect x="135.7" y="184.7" class="st1" width="1.7" height="1.7"/>
					<rect x="135.7" y="187.7" class="st1" width="1.7" height="1.7"/>
					<rect x="135.7" y="190.6" class="st1" width="1.7" height="1.7"/>
					<rect x="135.7" y="193.5" class="st1" width="1.7" height="1.7"/>
					<rect x="135.7" y="196.4" class="st1" width="1.7" height="1.7"/>
					<rect x="135.7" y="199.3" class="st1" width="1.7" height="1.7"/>
					<rect x="135.7" y="202.2" class="st1" width="1.7" height="1.7"/>
					<rect x="135.7" y="205.2" class="st1" width="1.7" height="1.7"/>
					<rect x="135.7" y="208.1" class="st1" width="1.7" height="1.7"/>
					<rect x="135.7" y="213.9" class="st1" width="1.7" height="1.7"/>
					<rect x="135.7" y="216.8" class="st1" width="1.7" height="1.7"/>
					<rect x="135.7" y="219.7" class="st1" width="1.7" height="1.7"/>
					<rect x="135.7" y="222.7" class="st1" width="1.7" height="1.7"/>
					<rect x="135.7" y="225.6" class="st1" width="1.7" height="1.7"/>
					<rect x="138.4" y="161.4" class="st1" width="1.7" height="1.7"/>
					<rect x="138.4" y="164.3" class="st1" width="1.7" height="1.7"/>
					<rect x="138.4" y="167.2" class="st1" width="1.7" height="1.7"/>
					<rect x="138.4" y="170.2" class="st1" width="1.7" height="1.7"/>
					<rect x="138.4" y="173.1" class="st1" width="1.7" height="1.7"/>
					<rect x="138.4" y="176" class="st1" width="1.7" height="1.7"/>
					<rect x="138.4" y="178.9" class="st1" width="1.7" height="1.7"/>
					<rect x="138.4" y="181.8" class="st1" width="1.7" height="1.7"/>
					<rect x="138.4" y="184.7" class="st1" width="1.7" height="1.7"/>
					<rect x="138.4" y="187.7" class="st1" width="1.7" height="1.7"/>
					<rect x="138.4" y="190.6" class="st1" width="1.7" height="1.7"/>
					<rect x="138.4" y="193.5" class="st1" width="1.7" height="1.7"/>
					<rect x="138.4" y="196.4" class="st1" width="1.7" height="1.7"/>
					<rect x="138.4" y="199.3" class="st1" width="1.7" height="1.7"/>
					<rect x="138.4" y="202.2" class="st1" width="1.7" height="1.7"/>
					<rect x="138.4" y="205.2" class="st1" width="1.7" height="1.7"/>
					<rect x="138.4" y="222.7" class="st1" width="1.7" height="1.7"/>
					<rect x="138.4" y="225.6" class="st1" width="1.7" height="1.7"/>
					<rect x="141.2" y="161.4" class="st1" width="1.7" height="1.7"/>
					<rect x="141.2" y="164.3" class="st1" width="1.7" height="1.7"/>
					<rect x="141.2" y="167.2" class="st1" width="1.7" height="1.7"/>
					<rect x="141.2" y="170.2" class="st1" width="1.7" height="1.7"/>
					<rect x="141.2" y="173.1" class="st1" width="1.7" height="1.7"/>
					<rect x="141.2" y="176" class="st1" width="1.7" height="1.7"/>
					<rect x="141.2" y="178.9" class="st1" width="1.7" height="1.7"/>
					<rect x="141.2" y="181.8" class="st1" width="1.7" height="1.7"/>
					<rect x="141.2" y="184.7" class="st1" width="1.7" height="1.7"/>
					<rect x="141.2" y="187.7" class="st1" width="1.7" height="1.7"/>
					<rect x="141.2" y="190.6" class="st1" width="1.7" height="1.7"/>
					<rect x="141.2" y="193.5" class="st1" width="1.7" height="1.7"/>
					<rect x="141.2" y="196.4" class="st1" width="1.7" height="1.7"/>
					<rect x="141.2" y="199.3" class="st1" width="1.7" height="1.7"/>
					<rect x="141.2" y="202.2" class="st1" width="1.7" height="1.7"/>
					<rect x="141.2" y="205.2" class="st1" width="1.7" height="1.7"/>
					<rect x="141.2" y="211" class="st1" width="1.7" height="1.7"/>
					<rect x="141.2" y="213.9" class="st1" width="1.7" height="1.7"/>
					<rect x="141.2" y="216.8" class="st1" width="1.7" height="1.7"/>
					<rect x="141.2" y="219.7" class="st1" width="1.7" height="1.7"/>
					<rect x="141.2" y="225.6" class="st1" width="1.7" height="1.7"/>
					<rect x="125.7" y="198.1" class="st1" width="1.7" height="1.7"/>
					<rect x="125.7" y="201.1" class="st1" width="1.7" height="1.7"/>
					<rect x="125.7" y="204" class="st1" width="1.7" height="1.7"/>
					<rect x="125.7" y="206.9" class="st1" width="1.7" height="1.7"/>
					<rect x="125.7" y="209.8" class="st1" width="1.7" height="1.7"/>
					<rect x="125.7" y="212.7" class="st1" width="1.7" height="1.7"/>
					<rect x="125.7" y="215.6" class="st1" width="1.7" height="1.7"/>
					<rect x="125.7" y="221.5" class="st1" width="1.7" height="1.7"/>
					<rect x="125.7" y="224.4" class="st1" width="1.7" height="1.7"/>
					<rect x="125.7" y="227.3" class="st1" width="1.7" height="1.7"/>
					<rect x="125.7" y="230.2" class="st1" width="1.7" height="1.7"/>
					<rect x="125.7" y="233.1" class="st1" width="1.7" height="1.7"/>
					<rect x="125.7" y="236.1" class="st1" width="1.7" height="1.7"/>
					<rect x="125.7" y="239" class="st1" width="1.7" height="1.7"/>
					<rect x="125.7" y="241.9" class="st1" width="1.7" height="1.7"/>
					<rect x="128.4" y="198.1" class="st1" width="1.7" height="1.7"/>
					<rect x="128.4" y="201.1" class="st1" width="1.7" height="1.7"/>
					<rect x="128.4" y="204" class="st1" width="1.7" height="1.7"/>
					<rect x="128.4" y="206.9" class="st1" width="1.7" height="1.7"/>
					<rect x="128.4" y="209.8" class="st1" width="1.7" height="1.7"/>
					<rect x="128.4" y="212.7" class="st1" width="1.7" height="1.7"/>
					<rect x="128.4" y="221.5" class="st1" width="1.7" height="1.7"/>
					<rect x="128.4" y="224.4" class="st1" width="1.7" height="1.7"/>
					<rect x="128.4" y="227.3" class="st1" width="1.7" height="1.7"/>
					<rect x="128.4" y="230.2" class="st1" width="1.7" height="1.7"/>
					<rect x="128.4" y="233.1" class="st1" width="1.7" height="1.7"/>
					<rect x="128.4" y="236.1" class="st1" width="1.7" height="1.7"/>
					<rect x="128.4" y="239" class="st1" width="1.7" height="1.7"/>
					<rect x="128.4" y="241.9" class="st1" width="1.7" height="1.7"/>
					<rect x="131.2" y="198.1" class="st1" width="1.7" height="1.7"/>
					<rect x="131.2" y="201.1" class="st1" width="1.7" height="1.7"/>
					<rect x="131.2" y="204" class="st1" width="1.7" height="1.7"/>
					<rect x="131.2" y="206.9" class="st1" width="1.7" height="1.7"/>
					<rect x="131.2" y="209.8" class="st1" width="1.7" height="1.7"/>
					<rect x="131.2" y="212.7" class="st1" width="1.7" height="1.7"/>
					<rect x="131.2" y="218.6" class="st1" width="1.7" height="1.7"/>
					<rect x="131.2" y="221.5" class="st1" width="1.7" height="1.7"/>
					<rect x="131.2" y="224.4" class="st1" width="1.7" height="1.7"/>
					<rect x="131.2" y="227.3" class="st1" width="1.7" height="1.7"/>
					<rect x="131.2" y="230.2" class="st1" width="1.7" height="1.7"/>
					<rect x="131.2" y="233.1" class="st1" width="1.7" height="1.7"/>
					<rect x="131.2" y="236.1" class="st1" width="1.7" height="1.7"/>
					<rect x="131.2" y="239" class="st1" width="1.7" height="1.7"/>
					<rect x="131.2" y="241.9" class="st1" width="1.7" height="1.7"/>
					<rect x="189.4" y="181.8" class="st1" width="1.7" height="1.7"/>
					<rect x="189.4" y="184.7" class="st1" width="1.7" height="1.7"/>
					<rect x="189.4" y="187.7" class="st1" width="1.7" height="1.7"/>
					<rect x="189.4" y="190.6" class="st1" width="1.7" height="1.7"/>
					<rect x="189.4" y="193.5" class="st1" width="1.7" height="1.7"/>
					<rect x="189.4" y="196.4" class="st1" width="1.7" height="1.7"/>
					<rect x="189.4" y="199.3" class="st1" width="1.7" height="1.7"/>
					<rect x="189.4" y="202.2" class="st1" width="1.7" height="1.7"/>
					<rect x="189.4" y="205.2" class="st1" width="1.7" height="1.7"/>
					<rect x="189.4" y="208.1" class="st1" width="1.7" height="1.7"/>
					<rect x="189.4" y="211" class="st1" width="1.7" height="1.7"/>
					<rect x="189.4" y="213.9" class="st1" width="1.7" height="1.7"/>
					<rect x="189.4" y="216.8" class="st1" width="1.7" height="1.7"/>
					<rect x="189.4" y="222.7" class="st1" width="1.7" height="1.7"/>
					<rect x="189.4" y="225.6" class="st1" width="1.7" height="1.7"/>
					<rect x="189.4" y="228.5" class="st1" width="1.7" height="1.7"/>
					<rect x="189.4" y="231.4" class="st1" width="1.7" height="1.7"/>
					<rect x="189.4" y="237.2" class="st1" width="1.7" height="1.7"/>
					<rect x="189.4" y="240.1" class="st1" width="1.7" height="1.7"/>
					<rect x="189.4" y="243.1" class="st1" width="1.7" height="1.7"/>
					<rect x="192.2" y="181.8" class="st1" width="1.7" height="1.7"/>
					<rect x="192.2" y="184.7" class="st1" width="1.7" height="1.7"/>
					<rect x="192.2" y="187.7" class="st1" width="1.7" height="1.7"/>
					<rect x="192.2" y="190.6" class="st1" width="1.7" height="1.7"/>
					<rect x="192.2" y="193.5" class="st1" width="1.7" height="1.7"/>
					<rect x="192.2" y="196.4" class="st1" width="1.7" height="1.7"/>
					<rect x="192.2" y="199.3" class="st1" width="1.7" height="1.7"/>
					<rect x="192.2" y="202.2" class="st1" width="1.7" height="1.7"/>
					<rect x="192.2" y="205.2" class="st1" width="1.7" height="1.7"/>
					<rect x="192.2" y="208.1" class="st1" width="1.7" height="1.7"/>
					<rect x="192.2" y="211" class="st1" width="1.7" height="1.7"/>
					<rect x="192.2" y="213.9" class="st1" width="1.7" height="1.7"/>
					<rect x="192.2" y="216.8" class="st1" width="1.7" height="1.7"/>
					<rect x="192.2" y="225.6" class="st1" width="1.7" height="1.7"/>
					<rect x="192.2" y="228.5" class="st1" width="1.7" height="1.7"/>
					<rect x="192.2" y="234.3" class="st1" width="1.7" height="1.7"/>
					<rect x="192.2" y="237.2" class="st1" width="1.7" height="1.7"/>
					<rect x="192.2" y="240.1" class="st1" width="1.7" height="1.7"/>
					<rect x="192.2" y="243.1" class="st1" width="1.7" height="1.7"/>
					<rect x="194.9" y="181.8" class="st1" width="1.7" height="1.7"/>
					<rect x="194.9" y="184.7" class="st1" width="1.7" height="1.7"/>
					<rect x="194.9" y="187.7" class="st1" width="1.7" height="1.7"/>
					<rect x="194.9" y="190.6" class="st1" width="1.7" height="1.7"/>
					<rect x="194.9" y="193.5" class="st1" width="1.7" height="1.7"/>
					<rect x="194.9" y="196.4" class="st1" width="1.7" height="1.7"/>
					<rect x="194.9" y="199.3" class="st1" width="1.7" height="1.7"/>
					<rect x="194.9" y="202.2" class="st1" width="1.7" height="1.7"/>
					<rect x="194.9" y="205.2" class="st1" width="1.7" height="1.7"/>
					<rect x="194.9" y="208.1" class="st1" width="1.7" height="1.7"/>
					<rect x="194.9" y="211" class="st1" width="1.7" height="1.7"/>
					<rect x="194.9" y="213.9" class="st1" width="1.7" height="1.7"/>
					<rect x="194.9" y="216.8" class="st1" width="1.7" height="1.7"/>
					<rect x="194.9" y="219.7" class="st1" width="1.7" height="1.7"/>
					<rect x="194.9" y="225.6" class="st1" width="1.7" height="1.7"/>
					<rect x="194.9" y="231.4" class="st1" width="1.7" height="1.7"/>
					<rect x="194.9" y="234.3" class="st1" width="1.7" height="1.7"/>
					<rect x="194.9" y="237.2" class="st1" width="1.7" height="1.7"/>
					<rect x="194.9" y="240.1" class="st1" width="1.7" height="1.7"/>
					<rect x="194.9" y="243.1" class="st1" width="1.7" height="1.7"/>
					<rect x="178.1" y="198.5" class="st1" width="1.7" height="1.7"/>
					<rect x="178.1" y="201.4" class="st1" width="1.7" height="1.7"/>
					<rect x="178.1" y="204.3" class="st1" width="1.7" height="1.7"/>
					<rect x="178.1" y="207.2" class="st1" width="1.7" height="1.7"/>
					<rect x="178.1" y="210.1" class="st1" width="1.7" height="1.7"/>
					<rect x="178.1" y="213" class="st1" width="1.7" height="1.7"/>
					<rect x="178.1" y="221.8" class="st1" width="1.7" height="1.7"/>
					<rect x="178.1" y="224.7" class="st1" width="1.7" height="1.7"/>
					<rect x="178.1" y="227.6" class="st1" width="1.7" height="1.7"/>
					<rect x="178.1" y="230.5" class="st1" width="1.7" height="1.7"/>
					<rect x="178.1" y="233.4" class="st1" width="1.7" height="1.7"/>
					<rect x="178.1" y="236.4" class="st1" width="1.7" height="1.7"/>
					<rect x="178.1" y="239.3" class="st1" width="1.7" height="1.7"/>
					<rect x="180.9" y="198.5" class="st1" width="1.7" height="1.7"/>
					<rect x="180.9" y="201.4" class="st1" width="1.7" height="1.7"/>
					<rect x="180.9" y="204.3" class="st1" width="1.7" height="1.7"/>
					<rect x="180.9" y="207.2" class="st1" width="1.7" height="1.7"/>
					<rect x="180.9" y="210.1" class="st1" width="1.7" height="1.7"/>
					<rect x="180.9" y="213" class="st1" width="1.7" height="1.7"/>
					<rect x="180.9" y="221.8" class="st1" width="1.7" height="1.7"/>
					<rect x="180.9" y="224.7" class="st1" width="1.7" height="1.7"/>
					<rect x="180.9" y="227.6" class="st1" width="1.7" height="1.7"/>
					<rect x="180.9" y="230.5" class="st1" width="1.7" height="1.7"/>
					<rect x="180.9" y="233.4" class="st1" width="1.7" height="1.7"/>
					<rect x="180.9" y="236.4" class="st1" width="1.7" height="1.7"/>
					<rect x="180.9" y="242.2" class="st1" width="1.7" height="1.7"/>
				</g>
			</g>
			<g>
				<rect x="245.4" y="103.1" class="st0" width="3.5" height="189.5"/>
				<rect x="190.5" y="103.1" class="st0" width="2.9" height="189.5"/>
				<rect x="135.6" y="103.1" class="st0" width="2.9" height="189.5"/>
			</g>
		</g>
		<g>
			<circle class="st3" cx="344.9" cy="96.4" r="14.2"/>
			<path class="st2" d="M356.9,96.4c0,6.7-5.4,12-12,12c-6.7,0-12-5.4-12-12c0-6.7,5.4-12,12-12C351.6,84.4,356.9,89.8,356.9,96.4z"
				/>
			<polyline class="st4" points="344.3,88.2 344.3,96.6 338.7,93.4 			"/>
		</g>
		<g>
			<rect x="353" y="119.3" class="st5" width="62.6" height="82.7"/>
			<polygon class="st0" points="374.3,128.1 374.3,164.4 388.8,163.6 390.4,128.1 			"/>
			<polygon class="st3" points="386,135.1 408.3,135.1 408.1,167 396.6,167.1 			"/>
			<polygon class="st6" points="364.3,130.4 370.2,130.4 368.1,158.8 360.8,160.6 			"/>
		</g>
		<g>
			
				<rect x="281.4" y="136.1" transform="matrix(-1 -1.224647e-16 1.224647e-16 -1 625.1616 348.156)" class="st6" width="62.4" height="76"/>
			<polygon class="st3" points="295.6,193.2 328.5,161 293,155.1 			"/>
			<polygon class="st2" points="327.7,185.6 329.3,160.9 304.6,166.9 302.8,185.9 			"/>
			
				<ellipse transform="matrix(0.7071 -0.7071 0.7071 0.7071 -20.1285 253.0112)" class="st1" cx="295.3" cy="150.8" rx="10" ry="10"/>
			<path class="st3" d="M324.4,194.4c0-2.7,2.2-4.8,4.8-4.8c2.7,0,4.8,2.2,4.8,4.8s-2.2,4.8-4.8,4.8
				C326.6,199.3,324.4,197.1,324.4,194.4z"/>
			<polygon class="st5" points="328.1,202.9 314.2,194.4 325.9,184.7 			"/>
			<rect x="308.9" y="145.8" class="st3" width="2.7" height="60.7"/>
			<rect x="334.4" y="145.8" class="st0" width="3.6" height="58"/>
			<rect x="287.6" y="185.9" class="st0" width="18.2" height="18.2"/>
		</g>
		<g>
			<rect x="345.8" y="313.4" class="st6" width="65.6" height="59.6"/>
			<rect x="413.2" y="308.1" class="st6" width="8.2" height="74"/>
			<rect x="356.2" y="318.9" class="st1" width="5.4" height="21.4"/>
			<rect x="378.5" y="318.9" class="st5" width="5.4" height="21.4"/>
			<rect x="361.6" y="320.8" class="st5" width="5.4" height="19.5"/>
			<rect x="373.1" y="320.8" class="st1" width="5.4" height="19.5"/>
			<rect x="369.7" y="318.9" class="st0" width="3.5" height="21.4"/>
			<rect x="367" y="320.8" class="st1" width="2.7" height="19.5"/>
			<rect x="383.9" y="318.9" class="st0" width="5.4" height="21.4"/>
			<rect x="389.3" y="320.8" class="st6" width="5.4" height="19.5"/>
			<rect x="400.8" y="320.8" class="st6" width="5.4" height="19.5"/>
			<rect x="397.3" y="318.9" class="st1" width="3.5" height="21.4"/>
			<rect x="394.6" y="320.8" class="st0" width="2.7" height="19.5"/>
			<rect x="406.2" y="319.6" class="st1" width="2.7" height="20.8"/>
			
				<rect x="403.5" y="349.3" transform="matrix(-1 -1.224647e-16 1.224647e-16 -1 812.3655 719.0225)" class="st1" width="5.4" height="20.4"/>
			
				<rect x="381.2" y="349.3" transform="matrix(-1 -1.224647e-16 1.224647e-16 -1 767.7776 719.0225)" class="st1" width="5.4" height="20.4"/>
			
				<rect x="398.1" y="351.2" transform="matrix(-1 -1.224647e-16 1.224647e-16 -1 801.6117 720.8775)" class="st2" width="5.4" height="18.5"/>
			
				<rect x="386.6" y="351.2" transform="matrix(-1 -1.224647e-16 1.224647e-16 -1 778.5314 720.8775)" class="st0" width="5.4" height="18.5"/>
			
				<rect x="392" y="349.3" transform="matrix(-1 -1.224647e-16 1.224647e-16 -1 787.3831 719.0225)" class="st1" width="3.5" height="20.4"/>
			
				<rect x="395.4" y="351.2" transform="matrix(-1 -1.224647e-16 1.224647e-16 -1 793.5463 720.8775)" class="st5" width="2.7" height="18.5"/>
			
				<rect x="375.8" y="349.3" transform="matrix(-1 -1.224647e-16 1.224647e-16 -1 757.0238 719.0225)" class="st0" width="5.4" height="20.4"/>
			
				<rect x="370.4" y="351.2" transform="matrix(-1 -1.224647e-16 1.224647e-16 -1 746.2698 720.8775)" class="st5" width="5.4" height="18.5"/>
			
				<rect x="358.9" y="351.2" transform="matrix(-1 -1.224647e-16 1.224647e-16 -1 723.1896 720.8775)" class="st6" width="5.4" height="18.5"/>
			
				<rect x="364.3" y="349.3" transform="matrix(-1 -1.224647e-16 1.224647e-16 -1 732.0412 719.0225)" class="st1" width="3.5" height="20.4"/>
			
				<rect x="352.7" y="349.3" transform="matrix(-1 -1.224647e-16 1.224647e-16 -1 708.9612 719.0225)" class="st1" width="3.5" height="20.4"/>
			
				<rect x="367.8" y="351.2" transform="matrix(-1 -1.224647e-16 1.224647e-16 -1 738.2043 720.8775)" class="st0" width="2.7" height="18.5"/>
			
				<rect x="356.2" y="349.9" transform="matrix(-1 -1.224647e-16 1.224647e-16 -1 715.1242 719.6477)" class="st2" width="2.7" height="19.8"/>
			<path class="st2" d="M411.1,308.1h-2.2h-65.2v69.3h65.2v4.8h4.4v-74H411.1z M408.9,369.7h-61v-24.9h61V369.7z M408.9,340.4h-61
				v-24.5h61V340.4z"/>
			
				<rect x="280" y="313.4" transform="matrix(-1 -1.224647e-16 1.224647e-16 -1 625.706 686.387)" class="st6" width="65.6" height="59.6"/>
			
				<rect x="282.6" y="376.5" transform="matrix(-1 -1.224647e-16 1.224647e-16 -1 573.3783 758.7145)" class="st6" width="8.2" height="5.6"/>
			
				<rect x="338.1" y="318.9" transform="matrix(-1 -1.224647e-16 1.224647e-16 -1 681.5305 659.2737)" class="st1" width="5.4" height="21.4"/>
			
				<rect x="315.8" y="318.9" transform="matrix(-1 -1.224647e-16 1.224647e-16 -1 636.9424 659.2737)" class="st5" width="5.4" height="21.4"/>
			
				<rect x="332.7" y="320.8" transform="matrix(-1 -1.224647e-16 1.224647e-16 -1 670.7765 661.1287)" class="st5" width="5.4" height="19.5"/>
			
				<rect x="321.2" y="320.8" transform="matrix(-1 -1.224647e-16 1.224647e-16 -1 647.6963 661.1287)" class="st1" width="5.4" height="19.5"/>
			
				<rect x="326.5" y="318.9" transform="matrix(-1 -1.224647e-16 1.224647e-16 -1 656.5478 659.2737)" class="st0" width="3.5" height="21.4"/>
			
				<rect x="330" y="320.8" transform="matrix(-1 -1.224647e-16 1.224647e-16 -1 662.7109 661.1287)" class="st1" width="2.7" height="19.5"/>
			
				<rect x="314" y="318.9" transform="matrix(-1 -1.224647e-16 1.224647e-16 -1 633.2779 659.2737)" class="st0" width="5.4" height="21.4"/>
			
				<rect x="308.6" y="320.8" transform="matrix(-1 -1.224647e-16 1.224647e-16 -1 622.524 661.1287)" class="st6" width="5.4" height="19.5"/>
			
				<rect x="297" y="320.8" transform="matrix(-1 -1.224647e-16 1.224647e-16 -1 599.444 661.1287)" class="st6" width="5.4" height="19.5"/>
			
				<rect x="302.4" y="318.9" transform="matrix(-1 -1.224647e-16 1.224647e-16 -1 608.2956 659.2737)" class="st1" width="3.5" height="21.4"/>
			
				<rect x="305.9" y="320.8" transform="matrix(-1 -1.224647e-16 1.224647e-16 -1 614.4586 661.1287)" class="st0" width="2.7" height="19.5"/>
			
				<rect x="294.3" y="319.6" transform="matrix(-1 -1.224647e-16 1.224647e-16 -1 591.3785 659.8989)" class="st5" width="2.7" height="20.8"/>
			<rect x="291.8" y="349.3" class="st1" width="5.4" height="20.4"/>
			<rect x="314.1" y="349.3" class="st1" width="5.4" height="20.4"/>
			<rect x="297.2" y="351.2" class="st5" width="5.4" height="18.5"/>
			<rect x="308.7" y="351.2" class="st0" width="5.4" height="18.5"/>
			<rect x="305.3" y="349.3" class="st1" width="3.5" height="20.4"/>
			<rect x="302.6" y="351.2" class="st5" width="2.7" height="18.5"/>
			<rect x="315.9" y="349.3" class="st0" width="5.4" height="20.4"/>
			<rect x="321.3" y="351.2" class="st5" width="5.4" height="18.5"/>
			<rect x="332.9" y="351.2" class="st6" width="5.4" height="18.5"/>
			<rect x="329.4" y="349.3" class="st1" width="3.5" height="20.4"/>
			<rect x="340.2" y="349.3" class="st1" width="3.5" height="20.4"/>
			<rect x="326.7" y="351.2" class="st0" width="2.7" height="18.5"/>
			<rect x="338.2" y="349.9" class="st0" width="2.7" height="19.8"/>
			<path class="st2" d="M278.2,308.1v74h4.4v-4.8h65.2v-69.3h-65.2h-2.2H278.2z M282.6,344.8h61v24.9h-61V344.8z M282.6,315.8h61
				v24.5h-61V315.8z"/>
		</g>
	</g>
</g>
<g id="Background_Simple" class="st7">
	<g class="st8">
		<path class="st9" d="M249.5,102.5c-72.2,32.5-6.7,90.3-48.3,121.8c-41.7,31.5-154.9-4.9-111.7,76.9
			c50.7,96.1,272.8,82.8,320.7-35.1C458.1,148.2,321.7,70,249.5,102.5z"/>
		<path class="st10" d="M249.5,102.5c-72.2,32.5-6.7,90.3-48.3,121.8c-41.7,31.5-154.9-4.9-111.7,76.9
			c50.7,96.1,272.8,82.8,320.7-35.1C458.1,148.2,321.7,70,249.5,102.5z"/>
	</g>
</g>
<g id="Shadow_1_">
	<ellipse id="_x3C_Path_x3E__359_" class="st5" cx="250" cy="416.2" rx="193.9" ry="11.3"/>
</g>
<g id="Plant">
	<g>
		<g>
			<path class="st9" d="M382,372.6c0,0-7.8-9.2-12.7-4.9c-5,4.3-2.5,13.4,3.3,13.7c5.7,0.3,9.4-2.9,9.4-2.9V372.6z"/>
			<path class="st11" d="M382,372.6c0,0-7.8-9.2-12.7-4.9c-5,4.3-2.5,13.4,3.3,13.7c5.7,0.3,9.4-2.9,9.4-2.9V372.6z"/>
			<path class="st9" d="M413.7,349.2c0,0,6.5-6.8,10.5-5.7c4,1.2,3.6,17.5-8.9,10.9L413.7,349.2z"/>
			<path class="st12" d="M413.7,349.2c0,0,6.5-6.8,10.5-5.7c4,1.2,3.6,17.5-8.9,10.9L413.7,349.2z"/>
			<path class="st9" d="M390.4,400.1c0,0-21.4-29.3-4-35.2c17.4-5.9,20.5,23.6,15.5,31.8S390.4,400.1,390.4,400.1z"/>
			<path class="st9" d="M400.3,340.2c0,0,13.3-30.8-6.4-31.8c-19.7-0.9-21.8,30.6,0.8,35.1L400.3,340.2z"/>
			<path class="st12" d="M390.4,400.1c0,0-21.4-29.3-4-35.2c17.4-5.9,20.5,23.6,15.5,31.8S390.4,400.1,390.4,400.1z"/>
			<path class="st12" d="M400.3,340.2c0,0,13.3-30.8-6.4-31.8c-19.7-0.9-21.8,30.6,0.8,35.1L400.3,340.2z"/>
			<path class="st9" d="M395.6,365.4c0,0-6.5-27.2,6-29.4c12.4-2.2,24.7,22.4-1,34.8C400.6,370.8,396.2,368.1,395.6,365.4z"/>
			<path class="st11" d="M395.6,365.4c0,0-6.5-27.2,6-29.4c12.4-2.2,24.7,22.4-1,34.8C400.6,370.8,396.2,368.1,395.6,365.4z"/>
		</g>
		<g>
			<polygon class="st13" points="375,396 410.9,396 407.9,418.9 378,418.9 			"/>
		</g>
		<g>
			<path class="st9" d="M393.7,338c-1.9-1.4-3.5-3.1-5-4.9c-1.5-1.8-2.6-3.9-3.5-6.1c-0.9-2.2-1.3-4.6-1.3-6.9
				c0-2.4,0.7-4.7,1.6-6.8c-0.1,0.6-0.3,1.1-0.4,1.7l-0.2,0.8c0,0.3-0.1,0.6-0.1,0.9c-0.1,0.6-0.1,1.1-0.2,1.7l0,1.7
				c0.2,2.2,0.6,4.5,1.4,6.6c0.8,2.1,1.9,4.1,3.2,6c0.6,1,1.3,1.9,2.1,2.7C392.1,336.3,392.9,337.1,393.7,338z"/>
		</g>
		<g>
			<path class="st9" d="M389,311.5c1.1,0.2,2.2,0.6,3.2,1.1c1,0.6,2,1.2,2.8,1.9c1.8,1.5,3.1,3.5,4,5.6c0.9,2.1,1.3,4.4,1.4,6.7
				c0,1.1-0.1,2.3-0.1,3.4c-0.2,1.1-0.4,2.2-0.6,3.3c0-1.1,0.1-2.3,0.1-3.4c-0.1-1.1-0.1-2.2-0.2-3.3c-0.2-1.1-0.2-2.2-0.6-3.3
				c-0.1-0.5-0.2-1.1-0.4-1.6l-0.6-1.5C396.5,316.5,393.2,313.1,389,311.5z"/>
		</g>
		<g>
			<path class="st9" d="M404,338c2.9,1,5.2,3.4,6.5,6.3c0.6,1.4,1.1,2.9,1.2,4.5c0.1,0.4,0.1,0.8,0.1,1.2c0,0.4,0,0.8,0,1.2
				c-0.1,0.8-0.2,1.6-0.5,2.3c-0.4,1.5-1.1,2.9-1.9,4.3c-0.8,1.3-1.7,2.6-2.7,3.7c-2,2.4-4.2,4.5-6.6,6.3c1.1-1.1,2.2-2.1,3.2-3.3
				c1-1.1,2-2.3,2.9-3.5c1.8-2.4,3.4-5,4.2-7.8c0.3-0.7,0.3-1.4,0.5-2.1c0.1-0.4,0-0.7,0-1.1c0-0.4,0-0.7,0-1.1
				c-0.1-1.5-0.5-2.9-1-4.3c-0.5-1.4-1.3-2.7-2.3-3.8C406.6,339.6,405.4,338.7,404,338z"/>
		</g>
		<g>
			<path class="st9" d="M400.3,340.2c0.7,2,1.2,4.1,1.4,6.2c0.1,1.1,0.1,2.2,0,3.2c-0.1,1.1-0.4,2.2-1,3.2c-1.2,1.7-1.6,3.7-1.8,5.8
				c-0.1,1-0.1,2.1-0.1,3.1c0,1.1,0,2.1,0.1,3.2c-0.5-2.1-0.7-4.2-0.7-6.3c0-1.1,0.1-2.2,0.4-3.2c0.1-0.5,0.3-1.1,0.5-1.6
				c0.2-0.5,0.6-1,0.8-1.4c0.5-0.8,0.8-1.8,0.9-2.8c0.2-1,0.2-2,0.2-3.1c0-1-0.1-2.1-0.2-3.1C400.7,342.3,400.5,341.2,400.3,340.2z"
				/>
		</g>
		<g>
			<path class="st9" d="M391.6,367.7c0.5,0.2,1,0.6,1.3,1c0.4,0.4,0.7,0.9,1,1.4c0.5,1,1,2,1.3,3.1c0.8,2.1,1.3,4.3,1.8,6.5
				c0.4,2.2,0.8,4.4,1.1,6.6c0.2,2.2,0.4,4.4,0.4,6.7c-0.2-1.1-0.3-2.2-0.5-3.3c-0.2-1.1-0.4-2.2-0.6-3.3c-0.4-2.2-0.8-4.4-1.3-6.5
				c-0.4-2.2-0.9-4.3-1.5-6.4c-0.3-1.1-0.6-2.1-1.1-3.1c-0.2-0.5-0.4-1-0.7-1.5C392.4,368.4,392.1,368,391.6,367.7z"/>
		</g>
		<g>
			<path class="st9" d="M385.5,368.6c-0.6,2-0.9,4-1,6.1c-0.1,2,0,4.1,0.4,6c0.4,2,1.1,3.9,2,5.7c0.9,1.8,2.1,3.5,3.4,5.1
				c-0.4-0.3-0.8-0.7-1.1-1.1c-0.4-0.4-0.8-0.7-1.1-1.1c-0.7-0.8-1.4-1.6-1.9-2.5c-0.6-0.9-1-1.9-1.4-2.8c-0.2-0.5-0.3-1-0.5-1.5
				c-0.2-0.5-0.3-1-0.4-1.5c-0.4-2.1-0.5-4.2-0.2-6.3C384,372.6,384.6,370.5,385.5,368.6z"/>
		</g>
		<g>
			<path class="st9" d="M418.7,352.5c1.2-0.3,2.2-0.6,3.2-1c0.5-0.2,0.9-0.5,1.4-0.7c0.5-0.3,0.8-0.7,1.3-1.1
				c-0.1,0.6-0.4,1.2-0.8,1.7c-0.4,0.5-0.9,0.8-1.5,1.1c-0.6,0.2-1.2,0.4-1.8,0.4C419.9,352.9,419.3,352.8,418.7,352.5z"/>
		</g>
		<g>
			<path class="st9" d="M417.4,348c0.3-0.6,0.7-1,1.2-1.4c0.5-0.4,1-0.7,1.7-0.9c0.6-0.2,1.3-0.2,1.9,0c0.6,0.2,1.2,0.6,1.5,1.1
				c-0.6-0.2-1.1-0.3-1.6-0.4c-0.5,0-1,0.1-1.5,0.2c-0.5,0.1-1,0.4-1.5,0.6L417.4,348z"/>
		</g>
		<g>
			<path class="st9" d="M378.5,374c-1.3-1-2.6-2.1-3.9-2.8c-0.7-0.4-1.4-0.7-2.1-0.8c-0.7-0.1-1.5,0.1-2.3,0.4
				c0.5-0.7,1.4-1.2,2.3-1.2c0.9-0.1,1.8,0.3,2.6,0.7c0.8,0.4,1.4,1,2,1.6C377.6,372.5,378.1,373.2,378.5,374z"/>
		</g>
		<g>
			<path class="st9" d="M378.5,378.5c-0.9,0.4-1.9,0.6-2.9,0.6c-1,0.1-2,0.1-3-0.1c-1-0.2-2-0.5-2.9-1.2c-0.9-0.6-1.4-1.7-1.4-2.7
				c0.4,0.9,1,1.6,1.8,2c0.8,0.4,1.7,0.7,2.6,0.8C374.6,378.4,376.5,378.4,378.5,378.5z"/>
		</g>
	</g>
</g>
<g id="Trash_bin">
	<g>
		<g>
			<path class="st9" d="M315.7,398.9c0.8-1.4-0.3-3.4-1.9-3.4c0.7-2,0-4.3-1.6-5.6c-0.2-0.2-0.4-0.3-0.7-0.3c-0.3,0-0.5,0.2-0.8,0.3
				c-1.5,1.1-3,2.2-4.5,3.2c-0.3,0.2-0.7,0.5-0.9,0.9c-0.9,1.8,2.4,4.1,1,5.5c-0.4,0.4-1,0.5-1.5,0.8c-1.1,0.7-1.2,2.1-1.7,3.3
				c-0.5,1.2-2.2,2.1-2.9,1c0.5-1.1-1-2.1-2.2-2.2c-1.2-0.1-2.5-0.2-3.1-1.3c-1.7,1.5-5.5-2.7-5.5-4.4c-1.4,0.1-2.4,1.4-2.7,2.7
				c-0.3,1.4-0.1,2.8-0.1,4.2c0,2.7-0.9,5.4-0.9,8.1c0,2.1,0.9,4.5,2.8,5.3c0.9,0.4,2,0.4,3,0.4c7.4,0,14.8-0.1,22.1-0.1
				c0.5,0,1.1,0,1.6-0.3c1-0.5,1.2-1.8,1.3-3c0.4-4.8,0.8-9.6,1.2-14.4C317,399.5,316.3,399.2,315.7,398.9z"/>
			<path class="st12" d="M315.7,398.9c0.8-1.4-0.3-3.4-1.9-3.4c0.7-2,0-4.3-1.6-5.6c-0.2-0.2-0.4-0.3-0.7-0.3
				c-0.3,0-0.5,0.2-0.8,0.3c-1.5,1.1-3,2.2-4.5,3.2c-0.3,0.2-0.7,0.5-0.9,0.9c-0.9,1.8,2.4,4.1,1,5.5c-0.4,0.4-1,0.5-1.5,0.8
				c-1.1,0.7-1.2,2.1-1.7,3.3c-0.5,1.2-2.2,2.1-2.9,1c0.5-1.1-1-2.1-2.2-2.2c-1.2-0.1-2.5-0.2-3.1-1.3c-1.7,1.5-5.5-2.7-5.5-4.4
				c-1.4,0.1-2.4,1.4-2.7,2.7c-0.3,1.4-0.1,2.8-0.1,4.2c0,2.7-0.9,5.4-0.9,8.1c0,2.1,0.9,4.5,2.8,5.3c0.9,0.4,2,0.4,3,0.4
				c7.4,0,14.8-0.1,22.1-0.1c0.5,0,1.1,0,1.6-0.3c1-0.5,1.2-1.8,1.3-3c0.4-4.8,0.8-9.6,1.2-14.4C317,399.5,316.3,399.2,315.7,398.9z
				"/>
		</g>
		<g>
			<g>
				<path class="st9" d="M316.9,375.6h-2.5h-6.8h-2.5h-6.8h-2.5H289h-2.5h-3.9l0.3,3.5l0.2,2.5l0.5,6.4l0.3,3.7l0.4,4.9l0.2,2.1
					l0.1,0.6l0.2,2.5l0.3,3.4l0.2,2.1l0.2,2.1l0.2,2.5l0.2,1.9l0.2,2.1l0.1,0.9h4.5h3.8h5.5h3.8h5.5h3.8h4.5l0.1-0.9l0.2-2.1
					l0.2-1.9l0.2-2.5l0.2-2.1l0.2-2.1l0.3-3.4l0.2-2.5l0-0.6l0.2-2.1l0.4-4.9l0.3-3.7l0.5-6.5l0.2-2.5l0.3-3.5H316.9z M319,377.8
					L319,377.8l-0.7-0.7h0.7L319,377.8z M318.8,379.9l-0.1,0.8l-3.1,3.1l-3.5-3.5l3.2-3.2h0.7L318.8,379.9z M318,390.9l-2.3,2.3
					l-3.5-3.5l3.5-3.5l2.4,2.4L318,390.9z M285.3,388.6L285.3,388.6l2.4-2.4l3.5,3.5l-3.5,3.5l-2.2-2.3L285.3,388.6z M314.6,385
					l-3.5,3.5l-3.5-3.5l3.5-3.5L314.6,385z M309,377.2h4l-2,2L309,377.2z M309.9,389.7l-3.5,3.5l-3.5-3.5l3.5-3.5L309.9,389.7z
					 M298.2,394.3l3.5-3.5l3.5,3.5l-3.5,3.5L298.2,394.3z M300.6,399l-3.5,3.5l-3.5-3.5l3.5-3.5L300.6,399z M306.4,395.5l3.5,3.5
					l-3.5,3.5l-3.5-3.5L306.4,395.5z M301.7,388.5l-3.5-3.5l3.5-3.5l3.5,3.5L301.7,388.5z M300.6,389.7l-3.5,3.5l-3.5-3.5l3.5-3.5
					L300.6,389.7z M292.4,388.5l-3.5-3.5l3.5-3.5l3.5,3.5L292.4,388.5z M292.4,390.8l3.5,3.5l-3.5,3.5l-3.5-3.5L292.4,390.8z
					 M295.9,403.7l-3.5,3.5l-3.5-3.5l3.5-3.5L295.9,403.7z M297,404.8l3.5,3.5l-3.5,3.5l-3.5-3.5L297,404.8z M298.2,403.7l3.5-3.5
					l3.5,3.5l-3.5,3.5L298.2,403.7z M306.4,404.8l3.5,3.5l-3.5,3.5l-3.5-3.5L306.4,404.8z M311,409.5l3.5,3.5l-2.3,2.3h-2.5
					l-2.3-2.3L311,409.5z M307.5,403.7l3.5-3.5l3.5,3.5l-3.5,3.5L307.5,403.7z M307.5,394.3l3.5-3.5l3.5,3.5l-3.5,3.5L307.5,394.3z
					 M309.9,380.3l-3.5,3.5l-3.5-3.5l3.2-3.2h0.7L309.9,380.3z M301.7,379.2l-2-2h4L301.7,379.2z M300.6,380.3l-3.5,3.5l-3.5-3.5
					l3.2-3.2h0.7L300.6,380.3z M294.4,377.2l-2,2l-2-2H294.4z M288.1,377.2l3.2,3.2l-3.5,3.5l-3.1-3.1l-0.1-0.8l2.8-2.8H288.1z
					 M285.1,377.2l-0.7,0.7l0,0l-0.1-0.7H285.1z M284.9,383.3l1.7,1.7l-1.5,1.5L284.9,383.3z M285.8,395.1l-0.1-1.7l0,0l0.9,0.9
					L285.8,395.1L285.8,395.1z M286,397.2l1.7-1.7l3.5,3.5l-3.5,3.5l-1.4-1.4L286,397.2z M286.5,403.7l0-0.2L286.5,403.7
					L286.5,403.7L286.5,403.7z M287.1,411.2l-0.4-5.4l1-1l3.5,3.5l-3.5,3.5L287.1,411.2L287.1,411.2z M287.4,415.3l-0.1-0.8l0.3-0.3
					l1.1,1.1H287.4z M288.9,413l3.5-3.5l3.5,3.5l-2.3,2.3h-2.5L288.9,413z M295.9,415.3l1.1-1.1l1.1,1.1H295.9z M300.5,415.3
					l-2.3-2.3l3.5-3.5l3.5,3.5l-2.3,2.3H300.5z M305.2,415.3l1.1-1.1l1.1,1.1H305.2z M316,415.3h-1.4l1.1-1.1l0.3,0.3L316,415.3z
					 M316.3,411.2l-0.6,0.6l-3.5-3.5l3.5-3.5l1,1L316.3,411.2z M316.9,403.6l0,0.2L316.9,403.6L316.9,403.6L316.9,403.6z
					 M317.1,401.1l-1.4,1.4l-3.5-3.5l3.5-3.5l1.7,1.7L317.1,401.1z M317.6,395.1l-0.8-0.8l0.9-0.9L317.6,395.1z M318.6,383.3
					l-0.3,3.2l-1.5-1.5L318.6,383.3L318.6,383.3z"/>
			</g>
			<g class="st14">
				<path class="st15" d="M316.9,375.6h-2.5h-6.8h-2.5h-6.8h-2.5H289h-2.5h-3.9l0.3,3.5l0.2,2.5l0.5,6.4l0.3,3.7l0.4,4.9l0.2,2.1
					l0.1,0.6l0.2,2.5l0.3,3.4l0.2,2.1l0.2,2.1l0.2,2.5l0.2,1.9l0.2,2.1l0.1,0.9h4.5h3.8h5.5h3.8h5.5h3.8h4.5l0.1-0.9l0.2-2.1
					l0.2-1.9l0.2-2.5l0.2-2.1l0.2-2.1l0.3-3.4l0.2-2.5l0-0.6l0.2-2.1l0.4-4.9l0.3-3.7l0.5-6.5l0.2-2.5l0.3-3.5H316.9z M319,377.8
					L319,377.8l-0.7-0.7h0.7L319,377.8z M318.8,379.9l-0.1,0.8l-3.1,3.1l-3.5-3.5l3.2-3.2h0.7L318.8,379.9z M318,390.9l-2.3,2.3
					l-3.5-3.5l3.5-3.5l2.4,2.4L318,390.9z M285.3,388.6L285.3,388.6l2.4-2.4l3.5,3.5l-3.5,3.5l-2.2-2.3L285.3,388.6z M314.6,385
					l-3.5,3.5l-3.5-3.5l3.5-3.5L314.6,385z M309,377.2h4l-2,2L309,377.2z M309.9,389.7l-3.5,3.5l-3.5-3.5l3.5-3.5L309.9,389.7z
					 M298.2,394.3l3.5-3.5l3.5,3.5l-3.5,3.5L298.2,394.3z M300.6,399l-3.5,3.5l-3.5-3.5l3.5-3.5L300.6,399z M306.4,395.5l3.5,3.5
					l-3.5,3.5l-3.5-3.5L306.4,395.5z M301.7,388.5l-3.5-3.5l3.5-3.5l3.5,3.5L301.7,388.5z M300.6,389.7l-3.5,3.5l-3.5-3.5l3.5-3.5
					L300.6,389.7z M292.4,388.5l-3.5-3.5l3.5-3.5l3.5,3.5L292.4,388.5z M292.4,390.8l3.5,3.5l-3.5,3.5l-3.5-3.5L292.4,390.8z
					 M295.9,403.7l-3.5,3.5l-3.5-3.5l3.5-3.5L295.9,403.7z M297,404.8l3.5,3.5l-3.5,3.5l-3.5-3.5L297,404.8z M298.2,403.7l3.5-3.5
					l3.5,3.5l-3.5,3.5L298.2,403.7z M306.4,404.8l3.5,3.5l-3.5,3.5l-3.5-3.5L306.4,404.8z M311,409.5l3.5,3.5l-2.3,2.3h-2.5
					l-2.3-2.3L311,409.5z M307.5,403.7l3.5-3.5l3.5,3.5l-3.5,3.5L307.5,403.7z M307.5,394.3l3.5-3.5l3.5,3.5l-3.5,3.5L307.5,394.3z
					 M309.9,380.3l-3.5,3.5l-3.5-3.5l3.2-3.2h0.7L309.9,380.3z M301.7,379.2l-2-2h4L301.7,379.2z M300.6,380.3l-3.5,3.5l-3.5-3.5
					l3.2-3.2h0.7L300.6,380.3z M294.4,377.2l-2,2l-2-2H294.4z M288.1,377.2l3.2,3.2l-3.5,3.5l-3.1-3.1l-0.1-0.8l2.8-2.8H288.1z
					 M285.1,377.2l-0.7,0.7l0,0l-0.1-0.7H285.1z M284.9,383.3l1.7,1.7l-1.5,1.5L284.9,383.3z M285.8,395.1l-0.1-1.7l0,0l0.9,0.9
					L285.8,395.1L285.8,395.1z M286,397.2l1.7-1.7l3.5,3.5l-3.5,3.5l-1.4-1.4L286,397.2z M286.5,403.7l0-0.2L286.5,403.7
					L286.5,403.7L286.5,403.7z M287.1,411.2l-0.4-5.4l1-1l3.5,3.5l-3.5,3.5L287.1,411.2L287.1,411.2z M287.4,415.3l-0.1-0.8l0.3-0.3
					l1.1,1.1H287.4z M288.9,413l3.5-3.5l3.5,3.5l-2.3,2.3h-2.5L288.9,413z M295.9,415.3l1.1-1.1l1.1,1.1H295.9z M300.5,415.3
					l-2.3-2.3l3.5-3.5l3.5,3.5l-2.3,2.3H300.5z M305.2,415.3l1.1-1.1l1.1,1.1H305.2z M316,415.3h-1.4l1.1-1.1l0.3,0.3L316,415.3z
					 M316.3,411.2l-0.6,0.6l-3.5-3.5l3.5-3.5l1,1L316.3,411.2z M316.9,403.6l0,0.2L316.9,403.6L316.9,403.6L316.9,403.6z
					 M317.1,401.1l-1.4,1.4l-3.5-3.5l3.5-3.5l1.7,1.7L317.1,401.1z M317.6,395.1l-0.8-0.8l0.9-0.9L317.6,395.1z M318.6,383.3
					l-0.3,3.2l-1.5-1.5L318.6,383.3L318.6,383.3z"/>
			</g>
		</g>
		<path class="st9" d="M282.1,378.6h39.3c0.9,0,1.6-0.7,1.6-1.6v-1.2c0-0.9-0.7-1.6-1.6-1.6h-39.3c-0.9,0-1.6,0.7-1.6,1.6l0,1.2
			C280.4,377.9,281.1,378.6,282.1,378.6z"/>
		<path class="st9" d="M318.3,418.9h-33.2c-0.9,0-1.6-0.7-1.6-1.6v-1.2c0-0.9,0.7-1.6,1.6-1.6h33.2c0.9,0,1.6,0.7,1.6,1.6v1.2
			C319.9,418.2,319.2,418.9,318.3,418.9z"/>
	</g>
</g>
<g id="Interface">
	<g>
		<rect x="233.9" y="148.6" class="st9" width="199.6" height="135.9"/>
		<rect x="233.9" y="148.6" class="st16" width="199.6" height="135.9"/>
		<path class="st17" d="M362.4,148.6c0,0-57.5,53.8-128.5,55.1v-55.1H362.4z"/>
		<path class="st17" d="M433.5,219.6c0,0-39.4-4.1-78.5,18.6s-78,44-121.2,34v12.4h199.6V219.6z"/>
		<rect x="286" y="179.4" class="st15" width="95.5" height="16.3"/>
		<rect x="286" y="202.5" class="st15" width="95.5" height="16.3"/>
		<g class="st18">
			<path class="st13" d="M294.5,189.1v0.4h-3.3v-4.7h3.2v0.4h-2.7v1.7h2.4v0.4h-2.4v1.7H294.5z"/>
			<path class="st13" d="M295.2,187.5h1.8v0.4h-1.8V187.5z"/>
			<path class="st13" d="M303.8,187.5v2h-0.5v-2c0-0.7-0.4-1.1-1-1.1c-0.7,0-1.2,0.5-1.2,1.3v1.8h-0.5v-2c0-0.7-0.4-1.1-1-1.1
				c-0.7,0-1.2,0.5-1.2,1.3v1.8H298V186h0.5v0.6c0.2-0.4,0.7-0.7,1.3-0.7c0.6,0,1,0.2,1.3,0.7c0.3-0.5,0.8-0.7,1.4-0.7
				C303.3,186,303.8,186.5,303.8,187.5z"/>
			<path class="st13" d="M307.8,187.4v2.2h-0.5V189c-0.2,0.4-0.6,0.6-1.2,0.6c-0.8,0-1.3-0.4-1.3-1c0-0.5,0.3-1,1.4-1h1.1v-0.2
				c0-0.6-0.3-0.9-1-0.9c-0.5,0-0.9,0.2-1.2,0.4l-0.2-0.4c0.4-0.3,0.9-0.5,1.4-0.5C307.2,186,307.8,186.5,307.8,187.4z M307.3,188.5
				v-0.6h-1.1c-0.7,0-0.9,0.3-0.9,0.6c0,0.4,0.3,0.7,0.9,0.7C306.7,189.2,307.1,189,307.3,188.5z"/>
			<path class="st13" d="M308.9,184.9c0-0.2,0.2-0.3,0.3-0.3c0.2,0,0.3,0.1,0.3,0.3c0,0.2-0.1,0.3-0.3,0.3
				C309.1,185.3,308.9,185.1,308.9,184.9z M309,186h0.5v3.5H309V186z"/>
			<path class="st13" d="M310.8,184.6h0.5v5h-0.5V184.6z"/>
		</g>
		<g class="st18">
			<path class="st13" d="M294.9,209.7c0,1-0.7,1.6-1.9,1.6h-1.3v1.5h-0.5v-4.7h1.8C294.1,208.1,294.9,208.7,294.9,209.7z
				 M294.4,209.7c0-0.8-0.5-1.2-1.4-1.2h-1.2v2.3h1.2C293.9,210.8,294.4,210.4,294.4,209.7z"/>
			<path class="st13" d="M298.5,210.6v2.2H298v-0.5c-0.2,0.4-0.6,0.6-1.2,0.6c-0.8,0-1.3-0.4-1.3-1c0-0.5,0.3-1,1.4-1h1.1v-0.2
				c0-0.6-0.3-0.9-1-0.9c-0.5,0-0.9,0.2-1.2,0.4l-0.2-0.4c0.4-0.3,0.9-0.5,1.4-0.5C297.9,209.2,298.5,209.7,298.5,210.6z M298,211.7
				v-0.6h-1.1c-0.7,0-0.9,0.3-0.9,0.6c0,0.4,0.3,0.7,0.9,0.7C297.4,212.4,297.8,212.2,298,211.7z"/>
			<path class="st13" d="M299.3,212.4l0.2-0.4c0.3,0.2,0.8,0.4,1.3,0.4c0.7,0,0.9-0.2,0.9-0.6c0-0.9-2.3-0.2-2.3-1.6
				c0-0.6,0.5-1,1.4-1c0.5,0,1,0.1,1.2,0.3l-0.2,0.4c-0.3-0.2-0.7-0.3-1-0.3c-0.6,0-0.9,0.2-0.9,0.6c0,1,2.3,0.2,2.3,1.6
				c0,0.6-0.5,1-1.5,1C300.1,212.8,299.6,212.6,299.3,212.4z"/>
			<path class="st13" d="M302.5,212.4l0.2-0.4c0.3,0.2,0.8,0.4,1.3,0.4c0.7,0,0.9-0.2,0.9-0.6c0-0.9-2.3-0.2-2.3-1.6
				c0-0.6,0.5-1,1.4-1c0.5,0,1,0.1,1.2,0.3l-0.2,0.4c-0.3-0.2-0.7-0.3-1-0.3c-0.6,0-0.9,0.2-0.9,0.6c0,1,2.3,0.2,2.3,1.6
				c0,0.6-0.5,1-1.5,1C303.4,212.8,302.8,212.6,302.5,212.4z"/>
			<path class="st13" d="M311.4,209.2l-1.3,3.5h-0.4l-1.1-2.9l-1.1,2.9h-0.4l-1.3-3.5h0.5l1.1,3l1.1-3h0.4l1.1,3l1.1-3H311.4z"/>
			<path class="st13" d="M311.7,211c0-1,0.8-1.8,1.8-1.8c1,0,1.8,0.7,1.8,1.8c0,1-0.8,1.8-1.8,1.8C312.4,212.8,311.7,212,311.7,211z
				 M314.8,211c0-0.8-0.6-1.4-1.3-1.4c-0.8,0-1.3,0.5-1.3,1.4c0,0.8,0.6,1.4,1.3,1.4C314.2,212.4,314.8,211.8,314.8,211z"/>
			<path class="st13" d="M318,209.2v0.5c0,0-0.1,0-0.1,0c-0.7,0-1.2,0.5-1.2,1.3v1.8h-0.5v-3.5h0.5v0.7
				C316.9,209.5,317.3,209.2,318,209.2z"/>
			<path class="st13" d="M322,207.8v5h-0.5v-0.7c-0.3,0.5-0.8,0.7-1.4,0.7c-1,0-1.8-0.7-1.8-1.8c0-1.1,0.8-1.8,1.8-1.8
				c0.6,0,1,0.2,1.3,0.7v-2.1H322z M321.6,211c0-0.8-0.6-1.4-1.3-1.4c-0.8,0-1.3,0.5-1.3,1.4c0,0.8,0.6,1.4,1.3,1.4
				C321,212.4,321.6,211.8,321.6,211z"/>
		</g>
		<rect x="287" y="235.6" class="st19" width="95.5" height="16.3"/>
		<g class="st20">
			<path d="M298.9,228.8l-0.6-0.9c-0.1,0-0.1,0-0.2,0h-0.8v0.9H297V226h1c0.7,0,1.1,0.4,1.1,1c0,0.4-0.2,0.7-0.6,0.9l0.7,1H298.9z
				 M298.9,227c0-0.4-0.3-0.7-0.9-0.7h-0.7v1.4h0.7C298.6,227.7,298.9,227.4,298.9,227z"/>
			<path d="M301.6,227.8h-1.8c0,0.4,0.4,0.7,0.8,0.7c0.3,0,0.5-0.1,0.6-0.3l0.2,0.2c-0.2,0.2-0.5,0.3-0.8,0.3
				c-0.7,0-1.1-0.4-1.1-1.1c0-0.6,0.4-1.1,1-1.1S301.6,227.1,301.6,227.8C301.6,227.8,301.6,227.8,301.6,227.8z M299.9,227.6h1.5
				c0-0.4-0.3-0.7-0.7-0.7C300.2,226.9,299.9,227.2,299.9,227.6z"/>
			<path d="M305.7,227.6v1.2h-0.3v-1.2c0-0.4-0.2-0.7-0.6-0.7c-0.4,0-0.7,0.3-0.7,0.8v1.1h-0.3v-1.2c0-0.4-0.2-0.7-0.6-0.7
				c-0.4,0-0.7,0.3-0.7,0.8v1.1h-0.3v-2.1h0.3v0.4c0.1-0.3,0.4-0.4,0.8-0.4c0.3,0,0.6,0.1,0.7,0.4c0.2-0.3,0.5-0.4,0.8-0.4
				C305.4,226.7,305.7,227,305.7,227.6z"/>
			<path d="M308.3,227.8h-1.8c0,0.4,0.4,0.7,0.8,0.7c0.3,0,0.5-0.1,0.6-0.3l0.2,0.2c-0.2,0.2-0.5,0.3-0.8,0.3
				c-0.7,0-1.1-0.4-1.1-1.1c0-0.6,0.4-1.1,1-1.1S308.3,227.1,308.3,227.8C308.3,227.8,308.3,227.8,308.3,227.8z M306.6,227.6h1.5
				c0-0.4-0.3-0.7-0.7-0.7C306.9,226.9,306.6,227.2,306.6,227.6z"/>
			<path d="M312.4,227.6v1.2h-0.3v-1.2c0-0.4-0.2-0.7-0.6-0.7c-0.4,0-0.7,0.3-0.7,0.8v1.1h-0.3v-1.2c0-0.4-0.2-0.7-0.6-0.7
				c-0.4,0-0.7,0.3-0.7,0.8v1.1h-0.3v-2.1h0.3v0.4c0.1-0.3,0.4-0.4,0.8-0.4c0.3,0,0.6,0.1,0.7,0.4c0.2-0.3,0.5-0.4,0.8-0.4
				C312,226.7,312.4,227,312.4,227.6z"/>
			<path d="M315.3,227.7c0,0.6-0.4,1.1-1,1.1c-0.3,0-0.6-0.2-0.8-0.4v0.4h-0.3v-3h0.3v1.3c0.2-0.3,0.5-0.4,0.8-0.4
				C314.8,226.7,315.3,227.1,315.3,227.7z M315,227.7c0-0.5-0.3-0.8-0.8-0.8c-0.4,0-0.8,0.3-0.8,0.8s0.3,0.8,0.8,0.8
				C314.6,228.6,315,228.2,315,227.7z"/>
			<path d="M317.7,227.8h-1.8c0,0.4,0.4,0.7,0.8,0.7c0.3,0,0.5-0.1,0.6-0.3l0.2,0.2c-0.2,0.2-0.5,0.3-0.8,0.3
				c-0.7,0-1.1-0.4-1.1-1.1c0-0.6,0.4-1.1,1-1.1S317.7,227.1,317.7,227.8C317.7,227.8,317.7,227.8,317.7,227.8z M315.9,227.6h1.5
				c0-0.4-0.3-0.7-0.7-0.7C316.3,226.9,316,227.2,315.9,227.6z"/>
			<path d="M319.3,226.7v0.3c0,0,0,0-0.1,0c-0.4,0-0.7,0.3-0.7,0.8v1.1h-0.3v-2.1h0.3v0.4C318.7,226.8,318.9,226.7,319.3,226.7z"/>
			<path d="M324.4,227.6v1.2h-0.3v-1.2c0-0.4-0.2-0.7-0.6-0.7c-0.4,0-0.7,0.3-0.7,0.8v1.1h-0.3v-1.2c0-0.4-0.2-0.7-0.6-0.7
				c-0.4,0-0.7,0.3-0.7,0.8v1.1h-0.3v-2.1h0.3v0.4c0.1-0.3,0.4-0.4,0.8-0.4c0.3,0,0.6,0.1,0.7,0.4c0.2-0.3,0.5-0.4,0.8-0.4
				C324.1,226.7,324.4,227,324.4,227.6z"/>
			<path d="M327,227.8h-1.8c0,0.4,0.4,0.7,0.8,0.7c0.3,0,0.5-0.1,0.6-0.3l0.2,0.2c-0.2,0.2-0.5,0.3-0.8,0.3c-0.7,0-1.1-0.4-1.1-1.1
				c0-0.6,0.4-1.1,1-1.1S327,227.1,327,227.8C327,227.8,327,227.8,327,227.8z M325.2,227.6h1.5c0-0.4-0.3-0.7-0.7-0.7
				C325.6,226.9,325.3,227.2,325.2,227.6z"/>
		</g>
		<rect x="286" y="234.6" class="st9" width="95.5" height="16.3"/>
		<g class="st20">
			<g>
				<path d="M316.5,261.3v1.1h1.4v0.3h-1.4v1.2h-0.3V261h1.9v0.3H316.5z"/>
				<path d="M318.4,262.8c0-0.6,0.5-1.1,1.1-1.1s1.1,0.4,1.1,1.1c0,0.6-0.5,1.1-1.1,1.1S318.4,263.4,318.4,262.8z M320.2,262.8
					c0-0.5-0.3-0.8-0.8-0.8c-0.4,0-0.8,0.3-0.8,0.8c0,0.5,0.3,0.8,0.8,0.8C319.9,263.6,320.2,263.3,320.2,262.8z"/>
				<path d="M322.1,261.7v0.3c0,0,0,0-0.1,0c-0.4,0-0.7,0.3-0.7,0.8v1.1h-0.3v-2.1h0.3v0.4C321.5,261.9,321.8,261.7,322.1,261.7z"/>
				<path d="M324.6,261.7v1.8c0,0.7-0.4,1.1-1.1,1.1c-0.4,0-0.8-0.1-1-0.3l0.1-0.2c0.2,0.2,0.5,0.3,0.8,0.3c0.5,0,0.8-0.2,0.8-0.8
					v-0.3c-0.2,0.3-0.5,0.4-0.8,0.4c-0.6,0-1.1-0.4-1.1-1c0-0.6,0.5-1,1.1-1c0.4,0,0.7,0.1,0.8,0.4v-0.4H324.6z M324.3,262.7
					c0-0.5-0.3-0.8-0.8-0.8c-0.5,0-0.8,0.3-0.8,0.8c0,0.5,0.3,0.8,0.8,0.8C324,263.5,324.3,263.2,324.3,262.7z"/>
				<path d="M325.2,262.8c0-0.6,0.5-1.1,1.1-1.1s1.1,0.4,1.1,1.1c0,0.6-0.5,1.1-1.1,1.1S325.2,263.4,325.2,262.8z M327,262.8
					c0-0.5-0.3-0.8-0.8-0.8c-0.4,0-0.8,0.3-0.8,0.8c0,0.5,0.3,0.8,0.8,0.8C326.7,263.6,327,263.3,327,262.8z"/>
				<path d="M329,263.7c-0.1,0.1-0.3,0.1-0.4,0.1c-0.4,0-0.6-0.2-0.6-0.6V262h-0.4v-0.2h0.4v-0.5h0.3v0.5h0.6v0.2h-0.6v1.3
					c0,0.2,0.1,0.4,0.4,0.4c0.1,0,0.2,0,0.3-0.1L329,263.7z"/>
				<path d="M332.8,262c0,0.6-0.4,1-1.1,1h-0.8v0.9h-0.3V261h1C332.4,261,332.8,261.4,332.8,262z M332.5,262c0-0.4-0.3-0.7-0.9-0.7
					h-0.7v1.4h0.7C332.2,262.7,332.5,262.4,332.5,262z"/>
				<path d="M335,262.5v1.3h-0.3v-0.3c-0.1,0.2-0.4,0.3-0.7,0.3c-0.5,0-0.8-0.2-0.8-0.6c0-0.3,0.2-0.6,0.8-0.6h0.7v-0.1
					c0-0.4-0.2-0.6-0.6-0.6c-0.3,0-0.5,0.1-0.7,0.2l-0.1-0.2c0.2-0.2,0.5-0.3,0.9-0.3C334.6,261.7,335,262,335,262.5z M334.7,263.2
					v-0.3H334c-0.4,0-0.5,0.2-0.5,0.4c0,0.2,0.2,0.4,0.5,0.4C334.3,263.6,334.6,263.5,334.7,263.2z"/>
				<path d="M335.4,263.6l0.1-0.2c0.2,0.1,0.5,0.2,0.7,0.2c0.4,0,0.6-0.1,0.6-0.3c0-0.5-1.4-0.1-1.4-0.9c0-0.3,0.3-0.6,0.8-0.6
					c0.3,0,0.6,0.1,0.7,0.2l-0.1,0.2c-0.2-0.1-0.4-0.2-0.6-0.2c-0.4,0-0.5,0.1-0.5,0.3c0,0.6,1.4,0.1,1.4,0.9c0,0.4-0.3,0.6-0.9,0.6
					C335.9,263.9,335.6,263.7,335.4,263.6z"/>
				<path d="M337.4,263.6l0.1-0.2c0.2,0.1,0.5,0.2,0.7,0.2c0.4,0,0.6-0.1,0.6-0.3c0-0.5-1.4-0.1-1.4-0.9c0-0.3,0.3-0.6,0.8-0.6
					c0.3,0,0.6,0.1,0.7,0.2l-0.1,0.2c-0.2-0.1-0.4-0.2-0.6-0.2c-0.4,0-0.5,0.1-0.5,0.3c0,0.6,1.4,0.1,1.4,0.9c0,0.4-0.3,0.6-0.9,0.6
					C337.9,263.9,337.6,263.7,337.4,263.6z"/>
				<path d="M342.7,261.7l-0.8,2.1h-0.3l-0.7-1.7l-0.7,1.7H340l-0.8-2.1h0.3l0.7,1.8l0.7-1.8h0.2l0.7,1.8l0.7-1.8H342.7z"/>
				<path d="M342.8,262.8c0-0.6,0.5-1.1,1.1-1.1c0.6,0,1.1,0.4,1.1,1.1c0,0.6-0.5,1.1-1.1,1.1C343.3,263.9,342.8,263.4,342.8,262.8z
					 M344.7,262.8c0-0.5-0.3-0.8-0.8-0.8c-0.4,0-0.8,0.3-0.8,0.8c0,0.5,0.3,0.8,0.8,0.8C344.4,263.6,344.7,263.3,344.7,262.8z"/>
				<path d="M346.6,261.7v0.3c0,0,0,0-0.1,0c-0.4,0-0.7,0.3-0.7,0.8v1.1h-0.3v-2.1h0.3v0.4C346,261.9,346.2,261.7,346.6,261.7z"/>
				<path d="M349,260.9v3h-0.3v-0.4c-0.2,0.3-0.5,0.4-0.8,0.4c-0.6,0-1-0.4-1-1.1c0-0.6,0.4-1.1,1-1.1c0.3,0,0.6,0.1,0.8,0.4v-1.3
					H349z M348.8,262.8c0-0.5-0.3-0.8-0.8-0.8c-0.4,0-0.8,0.3-0.8,0.8c0,0.5,0.3,0.8,0.8,0.8C348.4,263.6,348.8,263.3,348.8,262.8z"
					/>
				<path d="M351.1,261.8c0-0.3-0.2-0.5-0.6-0.5c-0.3,0-0.6,0.1-0.8,0.3l-0.2-0.2c0.2-0.3,0.5-0.4,1-0.4c0.6,0,0.9,0.3,0.9,0.7
					c0,0.7-0.7,0.7-0.7,1.3h-0.3C350.4,262.3,351.1,262.3,351.1,261.8z M350.3,263.7c0-0.1,0.1-0.2,0.2-0.2c0.1,0,0.2,0.1,0.2,0.2
					c0,0.1-0.1,0.2-0.2,0.2C350.4,263.9,350.3,263.8,350.3,263.7z"/>
			</g>
		</g>
		<rect x="286.7" y="224.4" class="st15" width="4.8" height="4.8"/>
		<g>
			<path class="st15" d="M323.2,239.7h0.8v4.9h3v0.7h-3.8V239.7z"/>
			<path class="st15" d="M327.4,243.2c0-1.3,0.9-2.2,2.2-2.2c1.3,0,2.2,0.9,2.2,2.2s-0.9,2.2-2.2,2.2
				C328.3,245.3,327.4,244.4,327.4,243.2z M331,243.2c0-0.9-0.6-1.5-1.4-1.5c-0.8,0-1.4,0.6-1.4,1.5c0,0.9,0.6,1.5,1.4,1.5
				C330.4,244.6,331,244.1,331,243.2z"/>
			<path class="st15" d="M336.9,241v3.7c0,1.5-0.8,2.2-2.2,2.2c-0.8,0-1.6-0.2-2-0.6l0.4-0.6c0.4,0.3,1,0.6,1.6,0.6
				c1,0,1.5-0.5,1.5-1.4v-0.3c-0.4,0.4-0.9,0.7-1.5,0.7c-1.2,0-2.2-0.8-2.2-2.1c0-1.2,0.9-2,2.2-2c0.6,0,1.2,0.2,1.6,0.7V241H336.9z
				 M336.1,243c0-0.8-0.6-1.4-1.5-1.4c-0.9,0-1.5,0.6-1.5,1.4c0,0.8,0.6,1.4,1.5,1.4C335.5,244.4,336.1,243.9,336.1,243z"/>
			<path class="st15" d="M338.2,239.7c0-0.3,0.2-0.5,0.5-0.5c0.3,0,0.5,0.2,0.5,0.5c0,0.3-0.2,0.5-0.5,0.5
				C338.4,240.2,338.2,240,338.2,239.7z M338.4,241h0.8v4.2h-0.8V241z"/>
			<path class="st15" d="M344.6,242.8v2.4h-0.8v-2.4c0-0.8-0.4-1.2-1.1-1.2c-0.8,0-1.3,0.5-1.3,1.4v2.2h-0.8V241h0.7v0.6
				c0.3-0.4,0.9-0.7,1.5-0.7C343.9,241,344.6,241.6,344.6,242.8z"/>
		</g>
		<g>
			<polygon class="st13" points="288.7,228.2 287.6,227 288,226.7 288.7,227.4 290.3,225.8 290.6,226.1 			"/>
		</g>
		<g class="st18">
			<g>
				<g>
					<path class="st13" d="M372.4,213.7L372.4,213.7c-1.7,0-3.2-0.9-4.4-2.6l-0.1-0.1l0.1-0.1c1.2-1.7,2.7-2.6,4.4-2.6
						c1.7,0,3.2,0.9,4.4,2.6l0.1,0.1l-0.1,0.1C375.6,212.8,374,213.7,372.4,213.7z M368.5,211c1.1,1.4,2.4,2.2,3.9,2.2
						c1.4,0,2.8-0.8,3.9-2.2c-1.1-1.4-2.4-2.2-3.9-2.2C370.9,208.8,369.6,209.6,368.5,211z"/>
				</g>
				<g>
					<path class="st13" d="M372.4,212.9c-1,0-1.9-0.8-1.9-1.9c0-1,0.8-1.9,1.9-1.9c1,0,1.9,0.8,1.9,1.9
						C374.2,212,373.4,212.9,372.4,212.9z M372.4,209.7c-0.7,0-1.4,0.6-1.4,1.4c0,0.7,0.6,1.4,1.4,1.4c0.7,0,1.4-0.6,1.4-1.4
						C373.7,210.3,373.1,209.7,372.4,209.7z"/>
				</g>
			</g>
			<g>
				
					<rect x="368.2" y="210.8" transform="matrix(0.7071 -0.7071 0.7071 0.7071 -40.1437 325.1205)" class="st13" width="8.3" height="0.5"/>
			</g>
		</g>
		<g class="st20">
			<path d="M322.1,171.9l0.2-0.4c0.4,0.3,1,0.6,1.6,0.6c0.9,0,1.3-0.4,1.3-0.9c0-1.3-3-0.5-3-2.3c0-0.7,0.6-1.3,1.8-1.3
				c0.6,0,1.1,0.2,1.5,0.4l-0.2,0.4c-0.4-0.3-0.9-0.4-1.3-0.4c-0.9,0-1.3,0.4-1.3,0.9c0,1.3,3,0.5,3,2.3c0,0.7-0.6,1.3-1.8,1.3
				C323.1,172.6,322.4,172.3,322.1,171.9z"/>
			<path d="M326.6,167.7c0-0.2,0.2-0.4,0.4-0.4s0.4,0.2,0.4,0.3c0,0.2-0.2,0.4-0.4,0.4C326.8,168,326.6,167.9,326.6,167.7z
				 M326.7,168.8h0.5v3.7h-0.5V168.8z"/>
			<path d="M332,168.8v3.2c0,1.3-0.6,1.8-1.8,1.8c-0.7,0-1.3-0.2-1.7-0.6l0.3-0.4c0.4,0.3,0.9,0.5,1.4,0.5c0.9,0,1.4-0.4,1.4-1.3
				v-0.5c-0.3,0.5-0.8,0.7-1.4,0.7c-1.1,0-1.8-0.7-1.8-1.8c0-1.1,0.8-1.8,1.8-1.8c0.6,0,1.1,0.3,1.5,0.7v-0.7H332z M331.5,170.6
				c0-0.8-0.6-1.3-1.4-1.3s-1.4,0.5-1.4,1.3c0,0.8,0.6,1.4,1.4,1.4S331.5,171.4,331.5,170.6z"/>
			<path d="M336.8,170.4v2.1h-0.5v-2.1c0-0.8-0.4-1.2-1.1-1.2c-0.8,0-1.3,0.5-1.3,1.3v1.9h-0.5v-3.7h0.5v0.7
				c0.3-0.4,0.8-0.7,1.4-0.7C336.2,168.8,336.8,169.3,336.8,170.4z"/>
			<path d="M339.9,167.7c0-0.2,0.2-0.4,0.4-0.4c0.2,0,0.4,0.2,0.4,0.3c0,0.2-0.2,0.4-0.4,0.4C340,168,339.9,167.9,339.9,167.7z
				 M340,168.8h0.5v3.7H340V168.8z"/>
			<path d="M345.3,170.4v2.1h-0.5v-2.1c0-0.8-0.4-1.2-1.1-1.2c-0.8,0-1.3,0.5-1.3,1.3v1.9h-0.5v-3.7h0.5v0.7
				c0.3-0.4,0.8-0.7,1.4-0.7C344.6,168.8,345.3,169.3,345.3,170.4z"/>
		</g>
	</g>
</g>
<g id="Speech_bubble">
	<g>
		<g>
			<path class="st9" d="M181.3,148.3h-28.7c-4.9,0-8.8,4-8.8,8.8v25c0,4.9,4,8.8,8.8,8.8h8.4l-7,13.9l13-13.9h14.4
				c4.9,0,8.8-4,8.8-8.8v-25C190.1,152.2,186.2,148.3,181.3,148.3z"/>
			<path class="st21" d="M181.3,148.3h-28.7c-4.9,0-8.8,4-8.8,8.8v25c0,4.9,4,8.8,8.8,8.8h8.4l-7,13.9l13-13.9h14.4
				c4.9,0,8.8-4,8.8-8.8v-25C190.1,152.2,186.2,148.3,181.3,148.3z"/>
		</g>
		<g>
			<g class="st22">
				
					<ellipse transform="matrix(0.7071 -0.7071 0.7071 0.7071 -70.9682 167.6701)" class="st9" cx="166.9" cy="169.5" rx="14.3" ry="14.3"/>
			</g>
			<g>
				<path class="st15" d="M165.4,175.9c-0.4,0-0.8-0.2-1-0.5l-5.6-6.6c-0.5-0.6-0.4-1.4,0.2-1.8c0.6-0.5,1.4-0.4,1.8,0.2l4.6,5.4
					l7.6-8.9c0.5-0.6,1.3-0.6,1.8-0.2c0.6,0.5,0.6,1.3,0.2,1.8l-8.6,10.1C166.2,175.7,165.8,175.9,165.4,175.9z"/>
			</g>
		</g>
	</g>
</g>
<g id="Character">
	<g>
		<g>
			<path class="st13" d="M205,417.1h58.2c0.6,0,1.1-0.5,1.1-1.1v-3.7c0-0.6-0.5-1.1-1.1-1.1H208V292.3h54.3c1.2,0,2.1-0.9,2.1-2.1
				v-3.9H205c-1.7,0-3,1.3-3,3v124.8C202,415.8,203.3,417.1,205,417.1z"/>
		</g>
		<g class="st23">
			<path class="st15" d="M202,289.3v124.8c0,1.7,1.3,3,3,3h58.2c0.6,0,1.1-0.5,1.1-1.1v-3.7c0-0.6-0.5-1.1-1.1-1.1H208V292.3h54.3
				c1.1,0,2.1-0.9,2.1-2.1v-3.9H205C203.3,286.3,202,287.6,202,289.3z"/>
		</g>
		<path class="st19" d="M202,289.3v31.8c2,0.5,4,1,6,1.5v-30.3h54.3c1.1,0,2.1-0.9,2.1-2.1v-3.9H205
			C203.3,286.3,202,287.6,202,289.3z"/>
		<g>
			<path class="st13" d="M96.7,400.4l23.9-2.1v-31.3h8.4v31.3l24,2.1c2.1,0.2,3.7,2,3.7,4.1v3.2h-31h-1.6H93v-3.2
				C93,402.4,94.6,400.6,96.7,400.4z"/>
			<path class="st17" d="M96.7,400.4l23.9-2.1v-31.3h8.4v31.3l24,2.1c2.1,0.2,3.7,2,3.7,4.1v3.2h-31h-1.6H93v-3.2
				C93,402.4,94.6,400.6,96.7,400.4z"/>
			<path class="st13" d="M148.9,411.6c0,3,2.5,5.5,5.5,5.5c3,0,5.5-2.5,5.5-5.5c0-3-2.5-5.5-5.5-5.5
				C151.4,406.1,148.9,408.6,148.9,411.6z"/>
			<path class="st13" d="M100.8,411.6c0,3-2.5,5.5-5.5,5.5c-3,0-5.5-2.5-5.5-5.5c0-3,2.5-5.5,5.5-5.5
				C98.3,406.1,100.8,408.6,100.8,411.6z"/>
			<path class="st13" d="M122.9,373.3h3.9c2.1,0,3.7-1.7,3.7-3.7v-27h-11.3v27C119.2,371.7,120.8,373.3,122.9,373.3z"/>
			<path class="st11" d="M122.9,373.3h3.9c2.1,0,3.7-1.7,3.7-3.7v-27h-11.3v27C119.2,371.7,120.8,373.3,122.9,373.3z"/>
			<path class="st13" d="M100.1,280.7c0,0,2.6,51.8,13.7,60.7h-11.9c0,0-10.6-17.7-11.4-60.7H100.1z"/>
			<path class="st17" d="M100.1,280.7c0,0,2.6,51.8,13.7,60.7h-11.9c0,0-10.6-17.7-11.4-60.7H100.1z"/>
			<path class="st9" d="M152,337.1H99.1c-2.5,0-4.5,2-4.5,4.5v4.1h61.9v-4.1C156.5,339.1,154.5,337.1,152,337.1z"/>
			<g>
				<path class="st13" d="M157.1,341.4H94c-1,0-1.8,0.8-1.8,1.8v0.7c0,1,0.8,1.8,1.8,1.8h63c1,0,1.8-0.8,1.8-1.8v-0.7
					C158.9,342.2,158,341.4,157.1,341.4z"/>
				<path class="st16" d="M157.1,341.4H94c-1,0-1.8,0.8-1.8,1.8v0.7c0,1,0.8,1.8,1.8,1.8h63c1,0,1.8-0.8,1.8-1.8v-0.7
					C158.9,342.2,158,341.4,157.1,341.4z"/>
			</g>
			<path class="st9" d="M88.3,292l19.1,0c5.6,0,9.6-5,9-11.2l-0.8-8.3c-0.6-6.2-5.6-11.2-11.3-11.2H85.3c-5.6,0-9.6,5-9,11.2
				l0.8,8.3C77.7,287,82.7,292,88.3,292z"/>
		</g>
		<g id="_x3C_Group_x3E__3_">
			<g>
				<path class="st24" d="M151.5,247.3l0.9,2.8c0.3,1,0.7,1.9,1,2.9c0.7,1.9,1.4,3.8,2.2,5.6c0.8,1.8,1.6,3.6,2.5,5.1
					c0.9,1.5,1.9,3,2.7,3.7c0.5,0.6,2,1.3,3.8,1.7c1.8,0.4,3.7,0.8,5.7,1c4,0.5,8.3,0.7,12.4,0.9l0.7,5.6c-4.4,1.2-8.8,1.9-13.4,2.1
					c-2.3,0.1-4.7,0.1-7.2-0.2c-1.3-0.2-2.5-0.4-3.9-0.8c-0.7-0.2-1.4-0.5-2.1-0.8c-0.7-0.3-1.6-0.8-2.2-1.3c-2.6-1.9-4.2-4-5.7-6.1
					c-1.4-2.1-2.6-4.2-3.6-6.3c-1-2.1-1.9-4.2-2.7-6.4c-0.4-1.1-0.8-2.2-1.1-3.2c-0.4-1.1-0.7-2.1-1-3.4L151.5,247.3z"/>
			</g>
			<path class="st13" d="M146.5,242c3.2,1.1,6,5.6,13.9,23.8c0,0,1.3,2.2,7.7,3.6l-0.6,10.2c0,0-9.2-0.4-11.3-1.9
				c-2.1-1.5-14.9-22.5-14.9-22.5L146.5,242z"/>
			<path class="st11" d="M168.2,269.4l-0.6,10.2c0,0-7.4-0.3-10.4-1.5c-0.4-0.1-0.7-0.3-0.9-0.4c-1.2-0.9-6-8.2-9.8-14.3
				c-2.8-4.4-5.1-8.1-5.1-8.1l5.2-13.2c3.2,1.1,6,5.6,13.9,23.8C160.5,265.8,161.8,268,168.2,269.4z"/>
			<path class="st25" d="M157.2,278.2c-0.4-0.1-0.7-0.3-0.9-0.4c-1.2-0.9-6-8.2-9.8-14.3c1.6-5.7,3.5-10.2,3.5-10.2
				S157.3,267.9,157.2,278.2z"/>
			<g>
				<path class="st26" d="M180.5,271.6l7.2-2.6l-0.9,9.6c0,0-6.6,0.8-7.4-2.6L180.5,271.6z"/>
				<polygon class="st26" points="193.6,270.9 192.6,278.8 186.8,278.6 187.7,269 				"/>
			</g>
			<polygon class="st13" points="168.2,269 171.9,270.1 170.6,280 166.9,280.6 			"/>
			<path class="st9" d="M151.7,305.1c0,0,48.4,19.1,59.6,27.1c11.3,8,39.6,61.8,39.6,61.8l-11.7,9c0,0-33.8-49.1-38-52.5
				c-4.1-3.3-58-19.9-58-19.9L151.7,305.1z"/>
			<path class="st27" d="M251,393.9l-11.7,9c0,0-7.9-11.5-16.5-23.7c-9.2-13.1-19.3-27.1-21.4-28.8c-3-2.4-32.7-11.9-48.4-16.9
				c-5.8-1.8-9.7-3-9.7-3l8.5-25.5c0,0,48.4,19.1,59.6,27.1C222.6,340.1,251,393.9,251,393.9z"/>
			<polygon class="st26" points="253.2,413.2 258.8,407.5 249.6,393.2 243.9,398.9 			"/>
			<polygon class="st25" points="243.9,398.9 249.6,393.2 254.8,401.4 249,406.8 			"/>
			<g>
				<path class="st9" d="M259.8,406.9C259.8,406.9,259.8,406.9,259.8,406.9c0.1,0,0.1,0,0.1,0c0.7-0.2,1.3-0.6,1.9-0.9
					c0.5-0.2,0.8-0.7,1-1.2c0.1-0.4-0.1-0.8-0.4-1c-0.2-0.2-0.4-0.3-0.7-0.2c-0.6,0.1-1.1,0.9-1.5,1.7c0-0.8-0.1-1.6-0.5-1.9
					c-0.2-0.2-0.6-0.3-0.9-0.1c-0.3,0.1-0.4,0.3-0.5,0.6c-0.2,1.1,1.2,2.8,1.3,2.9c0,0,0.1-0.1,0.1-0.1c0,0,0,0,0,0
					c0,0-0.1,0.1-0.1,0.1C259.8,406.7,259.7,406.9,259.8,406.9C259.7,406.9,259.8,406.9,259.8,406.9z M259.8,406.1
					c0,0.1-0.1,0.1-0.1,0.2c-0.4-0.6-1.1-1.7-1-2.4c0-0.1,0.1-0.3,0.2-0.4l0.1,0c0.2-0.1,0.4-0.1,0.4,0
					C259.9,404,260,405.3,259.8,406.1z M260.2,406.4c0.4-1,1.2-2.3,1.7-2.4c0.1,0,0.2,0,0.3,0.1c0.2,0.1,0.3,0.4,0.3,0.6
					C262.4,405.2,261.5,405.8,260.2,406.4z"/>
			</g>
			<path class="st13" d="M258.7,406.4l-7.5,5c-0.3,0.2-0.4,0.5-0.2,0.8c0,0,0,0,0,0l3.6,6.2c0.4,0.6,1.3,0.8,1.9,0.4
				c2.6-1.8,3.7-2.8,7-5c2-1.4,6.1-3.8,8.6-6.1c2.5-2.3,0.1-4.7-1.1-3.9c-3,1.8-8.1,2.5-10.9,2.3C259.6,406,259.1,406.1,258.7,406.4
				z"/>
			<polygon class="st9" points="239.8,406.9 254.5,397.2 251.1,390.3 235.2,401.3 			"/>
			<polygon class="st28" points="239.8,406.9 254.5,397.2 251.1,390.3 235.2,401.3 			"/>
			<path class="st25" d="M222.8,379.3c-9.2-13.1-19.3-27.1-21.4-28.8c-3-2.4-32.7-11.9-48.4-16.9l-1.8-19.1l5.7-1l0.6,1.5
				c0,0,35.9,8.1,46,13.2C210,331.5,218.8,363.6,222.8,379.3z"/>
			<g>
				<path class="st9" d="M220.6,408.8C220.6,408.8,220.6,408.8,220.6,408.8c0.1,0,0.1,0,0.1,0c0.7,0,1.4-0.1,2.1-0.3
					c0.5-0.1,1-0.3,1.4-0.8c0.2-0.3,0.2-0.7,0-1.1c-0.1-0.2-0.3-0.4-0.5-0.4c-0.6-0.1-1.3,0.5-2,1.1c0.3-0.7,0.4-1.5,0.2-2
					c-0.1-0.3-0.5-0.5-0.8-0.4c-0.3,0-0.5,0.2-0.7,0.4c-0.6,0.9,0.2,3.1,0.3,3.2c0,0,0.1-0.1,0.1-0.1c0,0,0,0,0,0
					c0,0-0.1,0.1-0.1,0.1C220.7,408.7,220.5,408.7,220.6,408.8C220.6,408.8,220.6,408.8,220.6,408.8z M220.9,408.1
					c0,0.1-0.1,0.1-0.1,0.1c-0.2-0.7-0.5-2-0.1-2.5c0.1-0.1,0.2-0.2,0.3-0.3l0.1,0c0.3,0,0.4,0.1,0.4,0.2
					C221.7,406.1,221.4,407.3,220.9,408.1z M221.1,408.4c0.8-0.8,1.9-1.8,2.4-1.7c0.1,0,0.2,0.1,0.3,0.2c0.1,0.2,0.1,0.5,0,0.7
					C223.6,408.1,222.6,408.4,221.1,408.4z"/>
			</g>
			<polygon class="st26" points="212.3,412.5 219.5,409 215.2,391.9 208,395.4 			"/>
			<polygon class="st25" points="208,395.4 215.2,391.9 217.6,401.7 210.3,404.8 			"/>
			<path class="st13" d="M219.7,407.9l-8.7,2.2c-0.3,0.1-0.5,0.4-0.4,0.7c0,0,0,0,0,0l1.4,7c0.2,0.7,1,1.2,1.7,1
				c3-0.8,4.4-1.4,8.2-2.4c2.3-0.6,7-1.6,10.1-2.9c3.1-1.3,1.7-4.3,0.2-4.1c-3.4,0.7-8.5-0.3-11.1-1.4
				C220.7,407.8,220.2,407.8,219.7,407.9z"/>
			<path class="st9" d="M218.7,395.1c0,0-12.2-61.2-14.7-64.9c-4.1-6-52.9-15.7-52.9-15.7l5.7-1l-6.6-17.6l-43.5,1.7
				c0,0,0.9,28.7,5.3,36.4c4.4,7.7,69.8,11.2,74.1,13c4.2,1.7,17.2,49.8,17.2,49.8L218.7,395.1z"/>
			<path class="st27" d="M218.7,395.1c0,0-12.2-61.2-14.7-64.9c-4.1-6-52.9-15.7-52.9-15.7l5.7-1l-6.6-17.6l-43.5,1.7
				c0,0,0.9,28.7,5.3,36.4c4.4,7.7,69.8,11.2,74.1,13c4.2,1.7,17.2,49.8,17.2,49.8L218.7,395.1z"/>
			<polygon class="st9" points="203.6,402.3 220.7,398 219.8,390.4 201.2,395.5 			"/>
			<polygon class="st28" points="203.6,402.3 220.7,398 219.8,390.4 201.2,395.5 			"/>
			<g>
				<polygon class="st13" points="120.5,298.4 107.9,298.2 107.6,302 121.1,302.3 				"/>
				<polygon class="st13" points="122.5,298.3 123,302.3 151.1,301.9 150.2,298.3 				"/>
				<path class="st15" d="M136,299l0.4,2.6c0.1,0.6,0.7,1.1,1.3,1.1l4.5-0.1c0.7,0,1.1-0.6,1-1.2l-0.4-2.6c-0.1-0.6-0.7-1.1-1.3-1.1
					l-4.5,0.1C136.4,297.9,135.9,298.4,136,299z"/>
			</g>
			<g>
				<path class="st13" d="M107.9,297.6h41.3c1,0,1.9-0.8,2-1.8c5.1-40-4.6-53.8-4.6-53.8c-3.7-1.1-7.5-1.8-11.3-2.3
					c-5.6-0.4-11.2-0.6-16.8-0.4c-3.8,0.1-7.6,0.5-11.4,1.1c-2,0.9-4.1,9.8-2,37.5c0.5,7.3,0.6,13.6,0.6,17.2
					C105.5,296.6,106.6,297.6,107.9,297.6z"/>
				<polygon class="st13" points="140.8,256.2 148.7,256.2 149.3,265.7 145.1,268.4 140.8,266.3 				"/>
				<path class="st11" d="M151.2,295.8c-0.1,1-1,1.8-2,1.8h-41.3c-1.3,0-2.4-1.1-2.3-2.4c0.1-3.7,0-10-0.6-17.2
					c-0.3-4-0.5-7.6-0.6-10.8c-0.3-7.9-0.2-13.6,0.1-17.7c0.5-6,1.5-8.5,2.6-9c3.8-0.6,7.6-1,11.4-1.1c5.6-0.2,11.2-0.1,16.8,0.4
					c3.8,0.5,7.6,1.2,11.3,2.3C146.5,242,156.3,255.9,151.2,295.8z"/>
			</g>
			<path class="st26" d="M118.8,238.9l13.3,4.5l0.5-3.8c-1.3-2.3-1.6-3.7-0.5-6.4l-8.9-10.2C123.5,228.3,122.5,235.5,118.8,238.9z"
				/>
			<path class="st15" d="M127.2,245.5l2.6,1.1l2.3,1.4c0,0,3,17.5,2.2,32.2l2.6,2.1l2.7-2.2c0,0-3.4-27.1-4.6-32.3l0.5-1.3l1.2-2.6
				l-2.3-1.2l-3.6,0.8h-2.5L127.2,245.5z"/>
			<path class="st25" d="M126.9,227.2l5.3,6.1c-0.4,0.9-0.7,1.9-1,2.9c-2.2-0.7-5-3.6-4.9-6.1C126.3,229.1,126.5,228.2,126.9,227.2z
				"/>
			<path class="st13" d="M119.6,236.5c0,0,5.2,3.6,12,6.2c0,0,0.8-3,0-5.7l5.9,2.9c0,0,0.5,4.6-0.9,6.9l-4.3-3.2l-4.9,4
				c0,0-9.2-3.6-10.6-8.4L119.6,236.5z"/>
			<path class="st25" d="M149.6,272L136,283c-19.6,4.4-28.2-7.9-31.6-15.9c-0.3-7.9-0.2-13.6,0.1-17.7c4.7-0.2,10.5-0.2,12.1,1
				c2.8,2.1,12.3,16.9,13.8,18C131.8,269.5,149.6,272,149.6,272z"/>
			<g>
				<path class="st26" d="M157.4,271.5l7.2-2.6l-0.9,9.6c0,0-6.6,0.8-7.4-2.6L157.4,271.5z"/>
				<polygon class="st26" points="170.5,270.8 169.4,278.7 163.7,278.5 164.6,268.9 				"/>
			</g>
			<g>
				<path class="st24" d="M115.7,252.1l1.6,3.1c0.6,1,1.1,2.1,1.7,3.1c1.2,2.1,2.4,4.1,3.6,6c1.3,1.9,2.6,3.7,3.9,5.1
					c0.7,0.7,1.3,1.3,1.9,1.7c0.2,0.1,0.2,0.1,0.3,0.2c0,0,0.2,0.1,0.3,0.2c0.1,0.1,0.4,0.1,0.5,0.2l0.6,0.2
					c1.8,0.4,4.2,0.5,6.5,0.6c2.4,0,4.8,0,7.2-0.1c4.9-0.2,9.8-0.6,14.7-1.1l1.2,5.5c-4.9,1.6-9.8,2.9-14.9,3.8
					c-2.5,0.5-5.1,0.9-7.8,1.1c-2.7,0.2-5.4,0.4-8.5,0.1c-0.4-0.1-0.8-0.1-1.2-0.2c-0.4-0.1-0.8-0.2-1.3-0.3
					c-0.5-0.2-0.9-0.3-1.4-0.5c-0.5-0.2-1.1-0.5-1.4-0.7c-1.6-0.9-2.9-1.9-4.1-2.9c-2.3-2.1-4.1-4.2-5.7-6.4
					c-1.6-2.2-3.1-4.4-4.4-6.7c-0.7-1.1-1.3-2.3-1.9-3.5c-0.6-1.2-1.2-2.3-1.8-3.6L115.7,252.1z"/>
			</g>
			<path class="st13" d="M107,240.5c-12.9,4.7,3.8,36.8,10.9,40.4c7,3.6,18.9,2.1,18.9,2.1l0.8-11.2c0,0-6.2-0.7-8-1.2
				c-2.9-0.7-8.9-13.6-12.8-20.7S107,240.5,107,240.5z"/>
			<path class="st11" d="M107,240.5c-12.9,4.7,3.8,36.8,10.9,40.4c7,3.6,18.9,2.1,18.9,2.1l0.8-11.2c0,0-6.2-0.7-8-1.2
				c-2.9-0.7-8.9-13.6-12.8-20.7S107,240.5,107,240.5z"/>
			<polygon class="st13" points="136,271 134.9,284 138.6,283.3 139.6,271.7 			"/>
			<g>
				<path class="st13" d="M146.2,212.5c0.5,3-0.8,8.8-4.5,6.4C137.9,216.4,145.3,207.4,146.2,212.5z"/>
				<path class="st26" d="M125,213.6c-1.4,7.3-2.7,11.5,0,16.1c4,6.9,13.8,5.9,17.4-0.9c3.2-6.1,5.1-17-1.3-21.7
					C134.9,202.6,126.4,206.3,125,213.6z"/>
				<path class="st13" d="M121.5,205.5l8.3-0.4l0.2,4.8c-0.2-0.1-0.3-0.2-0.5-0.3c0,0-0.5,6.9-4.5,9.3
					C119.6,214.9,118.1,208.2,121.5,205.5z"/>
				<path class="st26" d="M120.6,218.9c0.1,2,1.1,3.8,2.3,4.9c1.9,1.6,3.9,0.2,4.3-2.1c0.4-2.1-0.2-5.5-2.5-6.2
					C122.5,214.7,120.5,216.6,120.6,218.9z"/>
				<path class="st13" d="M135.4,218.4c-0.2,0.6,0,1.1,0.4,1.2c0.4,0.1,0.8-0.3,1-0.9c0.2-0.6,0-1.1-0.4-1.2
					C136,217.4,135.6,217.8,135.4,218.4z"/>
				<path class="st13" d="M142.1,220c-0.2,0.6,0,1.1,0.4,1.2c0.4,0.1,0.8-0.3,1-0.9c0.2-0.6,0-1.1-0.4-1.2
					C142.7,219.1,142.2,219.5,142.1,220z"/>
				<path class="st29" d="M139.9,219.8c0,0,0.5,3.6,1.6,5.6c-1.3,0.7-2.9-0.2-2.9-0.2L139.9,219.8z"/>
				<path class="st13" d="M134.8,226.6c0.2,0.1,0.5,0.2,0.8,0.2c0.1,0,0.2,0,0.2-0.1c0-0.1,0-0.2-0.1-0.2c-2.6-0.7-3.3-2.8-3.3-2.8
					c0-0.1-0.1-0.1-0.2-0.1c-0.1,0-0.1,0.1-0.1,0.2C132,223.9,132.6,225.7,134.8,226.6z"/>
				<path class="st13" d="M133.9,215.7c0.1,0,0.3,0,0.4-0.1c1.3-1,2.5-0.6,2.5-0.6c0.2,0.1,0.4,0,0.5-0.2c0.1-0.2,0-0.4-0.2-0.4
					c-0.1,0-1.6-0.5-3.2,0.7c-0.2,0.1-0.2,0.3-0.1,0.5C133.8,215.7,133.9,215.7,133.9,215.7z"/>
				<path class="st13" d="M145.5,218.5c0.1,0,0.1,0,0.2,0c0.2,0,0.3-0.2,0.3-0.4c-0.4-1.9-1.9-2.5-2-2.6c-0.2-0.1-0.4,0-0.5,0.2
					c-0.1,0.2,0,0.4,0.2,0.5c0.1,0,1.2,0.5,1.5,2C145.3,218.3,145.4,218.4,145.5,218.5z"/>
				<path class="st13" d="M126.9,211.4c0,0,0.2,0.2,0.5,0.4c0.6,0.4,1.8,0.8,3.2,0.1c2.1-1,2.7-6.9,8.6-3.9c0,0,2-0.6,3.5,1.2
					c1.5,1.8,0.5,8.6,3.7,7.7c3.2-0.9,2.7-1.9,2.7-1.9s-0.9,0.6-1.4,0.1c0,0,1.7-1.4,0.9-3.4c0,0-0.8,0.9-1.3,0.7c0,0,1-3.4-0.9-8.1
					c-1.9-4.7-13.3-3.6-13.3-3.6s-1.4-2.4-6.6-0.7c-5.2,1.7-7.5,7.9-6.7,10.6"/>
			</g>
		</g>
		<g>
			<polygon class="st13" points="195.2,277.7 194.5,274.9 164.1,274.9 150.2,276.3 149.6,277.7 			"/>
			<polygon class="st30" points="195.2,277.7 194.5,274.9 164.1,274.9 150.2,276.3 149.6,277.7 			"/>
			<polygon class="st25" points="164.1,274.9 164.1,277.7 195.2,277.7 194.5,274.9 			"/>
		</g>
		<g>
			<path class="st13" d="M174.4,261.6c-0.1,1.5,0.9,2.7,2.4,2.7h46.5c1.5,0,2.8-1.2,2.9-2.7l2.8-29.7c0-0.3,0-0.6-0.1-0.9
				c-0.3-1-1.2-1.8-2.3-1.8h-46.5c-1.5,0-2.8,1.2-2.9,2.7L174.4,261.6z"/>
			<path class="st30" d="M174.4,261.6c-0.1,1.5,0.9,2.7,2.4,2.7h46.5c1.5,0,2.8-1.2,2.9-2.7l2.8-29.7c0-0.3,0-0.6-0.1-0.9
				c-0.3-1-1.2-1.8-2.3-1.8h-46.5c-1.5,0-2.8,1.2-2.9,2.7L174.4,261.6z"/>
			<path class="st31" d="M177,264.3h46.3c1.5,0,2.8-1.2,2.9-2.7l2.8-29.7c0-0.3,0-0.6-0.1-0.9h-46.3c-1.5,0-2.8,1.2-2.9,2.7
				l-2.8,29.7C176.9,263.7,176.9,264,177,264.3z"/>
			<polygon class="st13" points="208.9,246 199.3,246 201.8,273.5 186.6,275.8 186.6,277.7 218.6,277.7 218.6,275.8 212.1,273.5 			
				"/>
			<polygon class="st30" points="208.9,246 199.3,246 201.8,273.5 186.6,275.8 186.6,277.7 218.6,277.7 218.6,275.8 212.1,273.5 			
				"/>
			<polygon class="st11" points="199.3,246 206.4,277.3 212.1,277.1 208.9,246 			"/>
		</g>
		<g>
			<g>
				<path class="st13" d="M119.9,417.1h58.2c0.6,0,1.1-0.5,1.1-1.1v-3.7c0-0.6-0.5-1.1-1.1-1.1h-55.2V292.3h54.3
					c1.2,0,2.1-0.9,2.1-2.1v-3.9h-59.3c-1.7,0-3,1.3-3,3v124.8C116.9,415.8,118.3,417.1,119.9,417.1z"/>
			</g>
			<g class="st32">
				<path class="st15" d="M119.9,417.1h58.2c0.6,0,1.1-0.5,1.1-1.1v-3.7c0-0.6-0.5-1.1-1.1-1.1h-55.2V292.3h54.3
					c1.2,0,2.1-0.9,2.1-2.1v-3.9h-59.3c-1.7,0-3,1.3-3,3v124.8C116.9,415.8,118.3,417.1,119.9,417.1z"/>
			</g>
			<g>
				<path class="st9" d="M112.5,287.3h153.4c1.1,0,1.9-0.9,1.9-1.9v-4.7H110.5v4.7C110.5,286.4,111.4,287.3,112.5,287.3z"/>
			</g>
			
				<rect x="110.5" y="280.6" transform="matrix(-1 -1.224647e-16 1.224647e-16 -1 378.3936 564.582)" class="st25" width="157.3" height="3.3"/>
			<g>
				<path class="st9" d="M107.2,281.5h163.9c1,0,1.9-0.8,1.9-1.9l0,0c0-1-0.8-1.9-1.9-1.9H107.2c-1,0-1.9,0.8-1.9,1.9l0,0
					C105.4,280.7,106.2,281.5,107.2,281.5z"/>
			</g>
		</g>
	</g>
</g>
</svg>
