<?xml version="1.0" encoding="utf-8"?>
<!-- Generator: Adobe Illustrator 23.1.1, SVG Export Plug-In . SVG Version: 6.00 Build 0)  -->
<svg version="1.1" id="Layer_1" xmlns="http://www.w3.org/2000/svg" xmlns:xlink="http://www.w3.org/1999/xlink" x="0px" y="0px"
	 width="42.013px" height="17.482px" viewBox="-5.268 -69.283 42.013 17.482" enable-background="new -5.268 -69.283 42.013 17.482"
	 xml:space="preserve">
<g>
	<path fill-rule="evenodd" clip-rule="evenodd" fill="#444343" d="M8.213-62.391c-2.213-2.153-2.771,0-2.771,0
		c-0.06,0.179,0.06,0.338,0.219,0.358c0.179,0.02,0.359-0.08,0.399-0.259c0,0,0.259-1.017,1.675,0.359
		c1.017,0.997,3.469,0.458,6.64-3.05c8.554-9.468-0.259,4.744,4.746,7.754c0.08,0.04,0.159,0.08,0.239,0.12
		c-0.18,0.219-0.359,0.499-0.479,0.797c-0.379,0.837-0.398,1.694-0.08,2.552c0.16,0.379,0.339,0.717,0.599,1.016
		c-0.16-0.258-0.26-0.518-0.339-0.816c-0.398-1.555,0.558-3.149,2.134-3.548c1.555-0.38,3.15,0.578,3.549,2.133
		c0.219,0.877,0,1.753-0.479,2.431c0.299-0.299,0.539-0.637,0.718-1.056c0.319-0.697,0.378-1.415,0.199-2.133
		c0.917,0.119,1.874,0.18,2.812,0.199c-0.199,0.578-0.199,1.177-0.06,1.794c0.139,0.578,0.399,1.076,0.777,1.475
		c-0.199-0.299-0.358-0.656-0.439-1.016c-0.439-1.734,0.618-3.488,2.333-3.927c1.715-0.419,3.43,0.599,3.908,2.272
		c-0.02-0.12-0.04-0.26-0.08-0.399c-0.1-0.418-0.279-0.797-0.519-1.136c2.633-1.196,3.889-3.628,1.735-8.053
		c-2.034-4.226-16.67,3.169-12.821,2.471c5.004-0.917,7.397-0.976,8.693-0.877c5.025,0.379,2.592,2.951,1.057,4.007
		c-1.535,1.057-4.446,2.173-8.953,1.614c-0.1,0-2.452-0.318-2.632-2.61c-0.239-3.03,0.618-6.837-0.438-8.093
		C15.909-73.554,12.3-58.963,8.213-62.391L8.213-62.391z M5.302-61.894c0.419,0.698,0.638,1.415,0.678,2.133
		c0.02,0.718-0.159,1.436-0.558,2.073c-0.638,0.18-1.296,0.198-1.914,0.08c-0.479-0.1-0.918-0.279-1.316-0.538
		c-0.419-0.261-0.778-0.599-1.077-0.997c0.359-0.24,0.738-0.479,1.097-0.718c-0.04-0.04-0.06-0.08-0.1-0.119
		c0.159,0.219,0.379,0.358,0.638,0.418l0,0c0.239,0.04,0.519,0,0.738-0.16c0.239-0.14,0.479-0.298,0.698-0.458
		c0.239-0.14,0.379-0.379,0.438-0.619l0,0c0.04-0.259,0-0.518-0.14-0.737c0.04,0.04,0.06,0.08,0.08,0.12
		C4.823-61.575,5.062-61.734,5.302-61.894L5.302-61.894z M0.935-59.441c-0.259-0.419-0.419-0.897-0.499-1.375
		c-0.08-0.458-0.06-0.937,0.04-1.415c0.12-0.618,0.399-1.216,0.837-1.714c0.738-0.14,1.456-0.021,2.114,0.298
		c0.638,0.319,1.216,0.817,1.695,1.475c-0.259,0.16-0.498,0.319-0.738,0.479c0.02,0.04,0.06,0.08,0.08,0.119
		c-0.14-0.219-0.379-0.358-0.618-0.419c-0.259-0.039-0.518,0-0.758,0.16c-0.219,0.14-0.459,0.299-0.698,0.458
		c-0.219,0.14-0.378,0.379-0.419,0.619c-0.06,0.259-0.02,0.518,0.12,0.738c-0.02-0.04-0.04-0.08-0.079-0.12
		C1.653-59.9,1.294-59.681,0.935-59.441L0.935-59.441z M4.285-60.876c0.04-0.159,0-0.339-0.1-0.478
		c-0.1-0.16-0.239-0.259-0.399-0.279c-0.179-0.04-0.359-0.02-0.499,0.08c-0.239,0.16-0.478,0.319-0.698,0.459
		c-0.16,0.1-0.259,0.259-0.279,0.418c-0.041,0.16-0.02,0.339,0.079,0.478c0.1,0.16,0.26,0.259,0.419,0.299c0,0,0,0,0-0.02
		c0.159,0.04,0.339,0.02,0.498-0.08c0.219-0.159,0.458-0.299,0.698-0.459C4.145-60.558,4.245-60.717,4.285-60.876L4.285-60.876
		L4.285-60.876z M5.083-57.249c-0.14,0.14-0.279,0.3-0.439,0.418c-1.037,0.199-2.273,0.718-3.17,1.316
		c-0.897,0.578-1.395,1.076-1.934,1.694c-0.777,0.139-1.575,0.039-2.313-0.26c-0.718-0.298-1.355-0.817-1.814-1.515l0,0
		c-0.499-0.737-0.698-1.574-0.678-2.392c0.04-0.817,0.319-1.635,0.817-2.293c0.738-0.239,1.356-0.519,2.193-1.056
		c0.817-0.559,1.715-1.375,2.293-2.173c0.239-0.119,0.478-0.239,0.738-0.318c-0.319,0.478-0.538,0.996-0.638,1.535
		c-0.12,0.538-0.12,1.076-0.02,1.635c0.1,0.538,0.299,1.077,0.618,1.555c0.319,0.498,0.738,0.897,1.177,1.196
		c0.458,0.319,0.977,0.518,1.515,0.639l0,0C3.966-57.168,4.524-57.149,5.083-57.249L5.083-57.249z M21.333-56.431
		c1.217-0.3,2.453,0.438,2.752,1.654c0.299,1.216-0.439,2.452-1.654,2.751c-1.217,0.299-2.453-0.439-2.752-1.655
		C19.379-54.897,20.117-56.113,21.333-56.431L21.333-56.431z M30.844-56.272c1.216-0.299,2.452,0.439,2.752,1.654
		c0.299,1.215-0.439,2.451-1.656,2.75c-1.216,0.301-2.451-0.438-2.751-1.654C28.89-54.737,29.627-55.973,30.844-56.272
		L30.844-56.272z M26.737-58.644c4.027-0.877,8.393-3.129,6.201-2.79c-4.566,0.718-6.74,0.737-7.916,0.618
		C20.594-61.216,20.994-57.409,26.737-58.644L26.737-58.644z"/>
</g>
</svg>
