<?xml version="1.0" encoding="utf-8"?>
<!-- Generator: Adobe Illustrator 23.1.1, SVG Export Plug-In . SVG Version: 6.00 Build 0)  -->
<svg version="1.1" xmlns="http://www.w3.org/2000/svg" xmlns:xlink="http://www.w3.org/1999/xlink" x="0px" y="0px" width="161.2px"
	 height="84.2px" viewBox="0 0 161.2 84.2" style="enable-background:new 0 0 161.2 84.2;" xml:space="preserve">
<style type="text/css">
	.st0{fill:url(#SVGID_1_);}
	.st1{fill:url(#SVGID_2_);}
	.st2{fill:#FFFFFF;}
	.st3{fill:url(#SVGID_3_);}
	.st4{fill:#0000D8;stroke:#0000D8;stroke-miterlimit:10;}
	.st5{font-family:'Consolas';}
	.st6{font-size:25.9722px;}
</style>
<g id="BACKGROUND">
</g>
<g id="OBJECTS">
	<g>
		<g>
			<g>
				<linearGradient id="SVGID_1_" gradientUnits="userSpaceOnUse" x1="31.3541" y1="25.8962" x2="51.6087" y2="15.8644">
					<stop  offset="0" style="stop-color:#FC466B"/>
					<stop  offset="1" style="stop-color:#3F5EFB"/>
				</linearGradient>
				<path class="st0" d="M30.8,26.5l-1-0.9c1.8-2,4.4-3.5,7.9-4.5c1.1-0.3,2.2-0.5,3.3-0.7c1.3-0.2,2.5-0.4,3.6-0.8
					c2-0.6,3.1-1,5.3-4.7l1.2,0.7c-2.3,3.9-3.7,4.5-6.1,5.3c-1.3,0.4-2.6,0.6-3.8,0.8C40.1,22,39,22.2,38,22.5
					C34.8,23.3,32.4,24.7,30.8,26.5z"/>
			</g>
			<linearGradient id="SVGID_2_" gradientUnits="userSpaceOnUse" x1="8.7074" y1="32.0635" x2="44.8214" y2="71.9037">
				<stop  offset="0" style="stop-color:#FC466B"/>
				<stop  offset="1" style="stop-color:#3F5EFB"/>
			</linearGradient>
			<circle class="st1" cx="26.8" cy="52.1" r="26.8"/>
			<g>
				<g>
					<path class="st2" d="M26.8,71.1c-6.7,0-12.1-5.4-12.1-12.1V45.2c0-6.7,5.4-12.1,12.1-12.1c6.7,0,12.1,5.4,12.1,12.1v13.8
						C38.9,65.6,33.5,71.1,26.8,71.1z M26.8,35.4c-5.4,0-9.8,4.4-9.8,9.8v13.8c0,5.4,4.4,9.8,9.8,9.8s9.8-4.4,9.8-9.8V45.2
						C36.6,39.8,32.2,35.4,26.8,35.4z"/>
				</g>
				<g>
					<path class="st2" d="M37.8,46H15.9c-0.4,0-0.8-0.3-0.8-0.8c0-0.4,0.3-0.8,0.8-0.8h21.9c0.4,0,0.8,0.3,0.8,0.8
						C38.5,45.6,38.2,46,37.8,46z"/>
				</g>
				<g>
					<path class="st2" d="M26.8,46.3c-0.6,0-1.2-0.5-1.2-1.2V34.2c0-0.6,0.5-1.2,1.2-1.2c0.6,0,1.2,0.5,1.2,1.2v10.9
						C28,45.8,27.5,46.3,26.8,46.3z"/>
				</g>
				<g>
					<path class="st2" d="M26.8,49L26.8,49c-1.1,0-2-0.9-2-2v-3.7c0-1.1,0.9-2,2-2h0c1.1,0,2,0.9,2,2V47C28.8,48.1,27.9,49,26.8,49z
						"/>
				</g>
			</g>
			<g>
				
					<linearGradient id="SVGID_3_" gradientUnits="userSpaceOnUse" x1="1517.2063" y1="1630.2371" x2="1529.9506" y2="1642.9813" gradientTransform="matrix(-0.785 -0.6194 0.6194 -0.785 237.4958 2237.781)">
					<stop  offset="0" style="stop-color:#FC466B"/>
					<stop  offset="1" style="stop-color:#3F5EFB"/>
				</linearGradient>
				<path class="st3" d="M58.4,0.3l4.8,3.8c0.6,0.5,0.7,1.4,0.2,2l-9.5,12c-0.3,0.3-0.6,0.5-1,0.6L48.9,19c-0.7,0.1-1.4-0.5-1.5-1.2
					l-0.7-4.1c-0.1-0.4,0-0.8,0.3-1.1l9.5-12C56.9-0.1,57.8-0.2,58.4,0.3z"/>
				<path class="st2" d="M49.4,14.6c0.5-0.6,1.3-0.7,1.9-0.2c0.6,0.5,0.7,1.3,0.2,1.9c-0.5,0.6-1.3,0.7-1.9,0.2
					C49.1,16,49,15.2,49.4,14.6z"/>
			</g>
		</g>
		<text transform="matrix(1 0 0 1 60.753 46.569)"><tspan x="0" y="0" class="st4 st5 st6">La Gran</tspan><tspan x="0" y="31.2" class="st4 st5 st6">Tienda</tspan></text>
	</g>
</g>
</svg>
